<svg version="1.0" xmlns="http://www.w3.org/2000/svg" width="200" height="200" viewBox="0 0 150 150"><path d="M80.5 23.1C65.1 35.7 51.4 47.2 50.1 48.4c-2.1 2.1.2 1.7 23-4.5 33.8-9.2 37.9-10.2 38.4-9.8.4.5.2-.8 4.6 25.1 1.8 10.9 3.6 19.8 3.9 19.8.3 0 6.6-15.2 14-33.8 7.4-18.5 13.8-34.1 14.2-34.6 1.4-1.7.9-4.2-.9-4.3-1.6-.1-15.1-2.4-23.8-3.9-1.6-.3-4.6-.8-6.5-1-1.9-.2-4.6-.6-6-.9-2.1-.4-6.7 3-30.5 22.6z"/><path d="M75.9 22.4c-.2.2-3.1.7-6.4 1-3.3.4-10.3 1.3-15.5 2.1-5.2.7-11.5 1.7-14 2-2.5.3-7.2 1-10.5 1.5s-8 1.2-10.5 1.4C12.7 31.1.7 32.9.4 33.3c-.4.4 13.7 37.2 14.5 38 .7.7 41.1 16.3 71.3 27.5l5.7 2.1-5.6-11.7c-3-6.4-6.4-13.7-7.4-16.2-1.4-3.2-2.9-5-5.2-6-3.2-1.4-18.3-8.3-26.9-12.3-2.6-1.2-4.8-2.4-4.8-2.7 0-.3.9-1.1 1.9-1.7 1.1-.7 7.7-6 14.8-11.9 7-5.9 14.1-11.8 15.7-13.1 1.6-1.3 2.6-2.6 2.4-2.8-.3-.3-.7-.3-.9-.1z"/><path d="M109.3 43c-.5 1.9-4.3 16.1-8.3 31.5-4 15.4-7.5 28.3-7.9 28.7-.3.3-6.9-1.8-14.6-4.8C59.7 91.1 49 87.2 49 87.5c0 .1 6.5 8.5 14.5 18.6 8 10.1 18.9 23.9 24.2 30.7 5.3 6.7 9.9 12.2 10.2 12.2.3 0 2.2-2.2 4.1-4.7 1.9-2.6 4-5.1 4.5-5.7.6-.6 4.7-5.8 9.2-11.5 6-7.5 8.2-10.9 7.8-12.5-.2-1.1-1.8-10.2-3.5-20.1-3.4-19.6-3.3-19-5.5-32-.8-5-1.7-10.4-2.1-12-.3-1.7-.9-4.8-1.3-7l-.8-4-1 3.5z"/></svg>