<svg data-name="Сгруппировать 227" xmlns="http://www.w3.org/2000/svg" width="75.3" height="59.7">
  <defs>
    <linearGradient id="a" y1=".5" x2="1" y2=".5" gradientUnits="objectBoundingBox">
      <stop offset="0" stop-color="#ff3eff"/>
      <stop offset="1" stop-color="#265aff"/>
    </linearGradient>
  </defs>
  <g data-name="Сгруппировать 226">
    <path data-name="Контур 1439" d="M794 1200.2l9.3-16 20.1 16s22.8-23.2 41-29.1l5 20.6s-22.8 5.5-44.2 31.7z" transform="translate(-794 -1171)" fill="url(#a)"/>
    <path data-name="Контур 1440" d="M0 29.1l9.3-16 20 16S52.3 6 70.4 0l5 20.6s-22.8 5.6-44.2 31.7z" fill="#19272b" opacity=".5"/>
    <path data-name="Контур 1441" d="M794 1208l9.3-16 20.1 16s22.8-23.2 41-29l5 20.5s-22.8 5.6-44.2 31.7z" transform="translate(-794 -1171.5)" fill="url(#a)"/>
    <path data-name="Контур 1442" d="M868.5 1171v7.5l5 20.6v-9.3z" transform="translate(-798.2 -1171)" fill="url(#a)"/>
    <path data-name="Контур 1443" d="M803.3 1185v7.4l-9.2 16v-7.4z" transform="translate(-794 -1171.9)" fill="url(#a)"/>
    <path data-name="Контур 1444" d="M70.3 0v7.4l5 20.6v-9.3z" fill="#2b454e" opacity=".5"/>
    <path data-name="Контур 1445" d="M9.3 13.1v7.4L0 36.5v-7.4z" fill="#2b454e" opacity=".5"/>
    <path data-name="Контур 1446" d="M70.3 0v7.4A75.4 75.4 0 0054 15.9a178 178 0 00-24.7 20.6v-7.4a174.5 174.5 0 0118.1-16 116.2 116.2 0 0113.2-8.7A52.7 52.7 0 0170.3 0z" fill="#fff" style="mix-blend-mode:soft-light;isolation:isolate"/>
    <path data-name="Контур 1447" d="M62.8 10.6l-8.7 5.3-2.8-5.5a87 87 0 019.4-6z" fill="#fff" style="mix-blend-mode:soft-light;isolation:isolate"/>
  </g>
</svg>
