<svg xmlns="http://www.w3.org/2000/svg" width="64" height="45.743" viewBox="0 0 64 45.743">
  <g id="car_2_" data-name="car (2)" transform="translate(0 -9.128)">
    <path id="Контур_135" data-name="Контур 135" d="M61.23,22.3H57.221c-.675-6.278-4.266-13.174-10.429-13.174H16.223c-3.053,0-5.836,1.808-7.836,5.09A19.687,19.687,0,0,0,5.793,22.3H2.77A2.773,2.773,0,0,0,0,25.073V28.3a2.773,2.773,0,0,0,2.77,2.77h.674a9.835,9.835,0,0,0-.923,4.167v7.951a2.45,2.45,0,0,0-1.1,2.042v1.7a2.453,2.453,0,0,0,2.268,2.442v2.7a2.8,2.8,0,0,0,2.793,2.793H14.7a2.8,2.8,0,0,0,2.793-2.793v-2.7h6.472a2.439,2.439,0,0,0,1.615.612H37.438a2.438,2.438,0,0,0,1.615-.612h6.472v2.7a2.8,2.8,0,0,0,2.793,2.793h8.212a2.8,2.8,0,0,0,2.793-2.793v-2.7a2.453,2.453,0,0,0,2.268-2.442v-1.7a2.451,2.451,0,0,0-1.1-2.042V40.049a.938.938,0,0,0-1.875,0v2.727H39.052a2.462,2.462,0,0,0-1.615-.612H25.576a2.465,2.465,0,0,0-1.615.612H4.4V35.235a8.052,8.052,0,0,1,8.022-8.022h3.995L20.1,33.234a5.75,5.75,0,0,0,4.871,2.728H38.038a5.75,5.75,0,0,0,4.871-2.728L46.6,27.212H50.6a8.051,8.051,0,0,1,8.022,8.022v.44a.938.938,0,0,0,1.875,0,10.156,10.156,0,0,0-.923-4.607h1.66A2.773,2.773,0,0,0,64,28.3V25.073a2.773,2.773,0,0,0-2.77-2.77ZM2.77,29.193a.9.9,0,0,1-.9-.9V25.073a.9.9,0,0,1,.9-.9H5.665c-.006.228-.01.457-.01.687V28.02a9.974,9.974,0,0,0-1.066,1.173ZM15.615,52.078A.919.919,0,0,1,14.7,53H6.485a.919.919,0,0,1-.918-.918v-2.7H15.615Zm41.832,0a.919.919,0,0,1-.918.918H48.317a.919.919,0,0,1-.918-.918v-2.7H57.447Zm1.692-7.427a.547.547,0,0,1,.1.01l.039.008a.585.585,0,0,1,.441.558v1.7a.584.584,0,0,1-.577.577H39.889V44.651Zm-21.7-.612a.587.587,0,0,1,.577.577v2.927a.587.587,0,0,1-.577.577H25.577A.587.587,0,0,1,25,47.543V44.616a.586.586,0,0,1,.577-.577H37.438Zm-14.313.612v2.857H3.875a.584.584,0,0,1-.577-.577v-1.7a.585.585,0,0,1,.441-.558l.04-.009a.545.545,0,0,1,.1-.01h19.25ZM10.684,25.491v-.627a15.661,15.661,0,0,1,2-8.029c1.052-1.726,2.309-2.677,3.54-2.677h13.59a.938.938,0,0,0,0-1.875H16.223c-1.91,0-3.736,1.27-5.142,3.577a17.547,17.547,0,0,0-2.272,9v1.158a9.844,9.844,0,0,0-1.28.613V24.864a18.954,18.954,0,0,1,2.459-9.67C11.635,12.492,13.849,11,16.223,11H46.791c2.374,0,4.588,1.488,6.235,4.191a18.914,18.914,0,0,1,2.459,9.67v1.771a9.851,9.851,0,0,0-1.279-.613V24.864a17.545,17.545,0,0,0-2.272-9c-1.4-2.307-3.231-3.577-5.142-3.577h-12.6a.938.938,0,0,0,0,1.875h12.6c1.231,0,2.489.951,3.54,2.677a15.66,15.66,0,0,1,2,8.029v.627a10.213,10.213,0,0,0-1.659-.152,7.885,7.885,0,0,0-15.769,0H12.418a10.311,10.311,0,0,0-1.735.154Zm30.627,6.763a3.863,3.863,0,0,1-3.273,1.833H24.976A3.863,3.863,0,0,1,21.7,32.254l-3.09-5.042H44.4ZM39.89,25.338a2.9,2.9,0,0,1,5.794,0Zm7.669,0a4.772,4.772,0,0,0-9.544,0H36.777a6.01,6.01,0,0,1,12.02,0ZM62.125,28.3a.9.9,0,0,1-.9.9h-2.8A9.983,9.983,0,0,0,57.36,28.02V24.864c0-.227,0-.457-.01-.687h3.88a.9.9,0,0,1,.9.9V28.3Z" fill="#2b454e"/>
    <path id="Контур_136" data-name="Контур 136" d="M24.094,37.606a.938.938,0,1,0,0,1.875H38.92a.938.938,0,1,0,0-1.875Z" fill="#2b454e"/>
    <path id="Контур_137" data-name="Контур 137" d="M51.482,30.673a4.592,4.592,0,1,0,4.592,4.592,4.6,4.6,0,0,0-4.592-4.592Zm0,7.309A2.717,2.717,0,1,1,54.2,35.265a2.72,2.72,0,0,1-2.717,2.717Z" fill="#2b454e"/>
    <path id="Контур_138" data-name="Контур 138" d="M6.94,35.264a4.592,4.592,0,1,0,4.592-4.592A4.6,4.6,0,0,0,6.94,35.264Zm7.309,0a2.717,2.717,0,1,1-2.717-2.717A2.72,2.72,0,0,1,14.249,35.264Z" fill="#2b454e"/>
  </g>
</svg>
