<svg id="Компонент_1_1" data-name="Компонент 1 – 1" xmlns="http://www.w3.org/2000/svg" width="55" height="55" viewBox="0 0 55 55">
  <circle id="Эллипс_1" data-name="Эллипс 1" cx="1.074" cy="1.074" r="1.074" transform="translate(40.598 52.852)"/>
  <path id="Контур_15" data-name="Контур 15" d="M54.447,4.3A7.031,7.031,0,0,0,47.964,0H7.036A7.031,7.031,0,0,0,0,7.036V47.964A7.031,7.031,0,0,0,7.036,55h29.8a1.074,1.074,0,1,0,0-2.148H7.036a4.889,4.889,0,0,1-4.888-4.888V7.036A4.889,4.889,0,0,1,7.036,2.148H47.964a4.889,4.889,0,0,1,4.888,4.888V47.964a4.889,4.889,0,0,1-4.888,4.888H46.506a1.074,1.074,0,1,0,0,2.148h1.458A7.031,7.031,0,0,0,55,47.964V7.036A6.989,6.989,0,0,0,54.447,4.3Z" fill="#2b454e"/>
  <path id="Контур_16" data-name="Контур 16" d="M68.559,46A22.559,22.559,0,1,0,91.117,68.559,22.584,22.584,0,0,0,68.559,46Zm0,42.969a20.41,20.41,0,1,1,20.41-20.41A20.433,20.433,0,0,1,68.559,88.969Z" transform="translate(-41.059 -41.059)" fill="#2b454e"/>
  <path id="Контур_17" data-name="Контур 17" d="M100.552,206.964c-1.176-.434-2.269-.906-2.586-1.045a.755.755,0,0,1-.28-.719,1.047,1.047,0,0,1,.823-.841,3.246,3.246,0,0,1,2.692.619,1.074,1.074,0,0,0,1.377-1.649A5.386,5.386,0,0,0,97.89,202.3a3.214,3.214,0,0,0-2.33,2.593,2.894,2.894,0,0,0,1.291,2.865,1.065,1.065,0,0,0,.149.081c.054.024,1.35.6,2.809,1.139.438.162,1.442.622,1.3,1.4a1.7,1.7,0,0,1-1.75,1.158,3.389,3.389,0,0,1-2.49-1.045,1.074,1.074,0,0,0-1.592,1.443,5.569,5.569,0,0,0,4.082,1.751,3.785,3.785,0,0,0,3.865-2.929C103.454,209.484,102.871,207.819,100.552,206.964Z" transform="translate(-84.796 -179.397)" fill="#2b454e"/>
  <path id="Контур_18" data-name="Контур 18" d="M345.544,206.964c-1.176-.434-2.269-.906-2.586-1.045a.755.755,0,0,1-.28-.719,1.047,1.047,0,0,1,.823-.841,3.247,3.247,0,0,1,2.692.619,1.074,1.074,0,0,0,1.377-1.649,5.386,5.386,0,0,0-4.689-1.028,3.214,3.214,0,0,0-2.33,2.593,2.894,2.894,0,0,0,1.291,2.865,1.065,1.065,0,0,0,.149.081c.054.024,1.35.6,2.809,1.139.438.162,1.442.622,1.3,1.4a1.7,1.7,0,0,1-1.75,1.158,3.389,3.389,0,0,1-2.49-1.045,1.074,1.074,0,1,0-1.592,1.443,5.569,5.569,0,0,0,4.082,1.751,3.785,3.785,0,0,0,3.865-2.929C348.446,209.484,347.863,207.819,345.544,206.964Z" transform="translate(-303.471 -179.397)" fill="#2b454e"/>
  <path id="Контур_19" data-name="Контур 19" d="M207.72,201.786a5.824,5.824,0,1,0,5.824,5.824A5.83,5.83,0,0,0,207.72,201.786Zm0,9.5a3.675,3.675,0,1,1,3.675-3.675A3.68,3.68,0,0,1,207.72,211.285Z" transform="translate(-180.208 -179.11)" fill="#2b454e"/>
</svg>
