<svg data-name="Сгруппировать 203" xmlns="http://www.w3.org/2000/svg" xmlns:xlink="http://www.w3.org/1999/xlink" width="45.7" height="77.2">
  <defs>
    <linearGradient id="e" y1=".5" x2="1" y2=".5" gradientUnits="objectBoundingBox">
      <stop offset="0" stop-color="#f947ff"/>
      <stop offset=".1" stop-color="#f448ff"/>
      <stop offset=".2" stop-color="#e84bff"/>
      <stop offset=".3" stop-color="#d450ff"/>
      <stop offset=".3" stop-color="#b757ff"/>
      <stop offset=".4" stop-color="#9260ff"/>
      <stop offset=".5" stop-color="#686bff"/>
      <stop offset=".7" stop-color="#007fff"/>
      <stop offset="1" stop-color="#00d4ff"/>
    </linearGradient>
    <linearGradient id="b" y1=".5" x2="1" y2=".5" gradientUnits="objectBoundingBox">
      <stop offset="0" stop-color="#fff"/>
      <stop offset="1" stop-color="#bcbec0"/>
    </linearGradient>
    <linearGradient id="a" y1=".5" x2="1" y2=".5" gradientUnits="objectBoundingBox">
      <stop offset="0" stop-color="#ff3eff"/>
      <stop offset="1" stop-color="#265aff"/>
    </linearGradient>
    <linearGradient id="g" x1="0" y1=".5" x2="1" y2=".5" xlink:href="#a"/>
    <linearGradient id="h" x1=".4" y1="1" x2=".5" y2="0" xlink:href="#b"/>
    <linearGradient id="k" x1=".5" y1="1" x2=".5" gradientUnits="objectBoundingBox">
      <stop offset="0" stop-color="#f7f7f7"/>
      <stop offset=".4" stop-color="#f7f7f7"/>
      <stop offset=".5" stop-color="#f7f7f7"/>
      <stop offset=".6" stop-color="#f7f7f7" stop-opacity=".9"/>
      <stop offset=".7" stop-color="#f8f8f8" stop-opacity=".8"/>
      <stop offset=".8" stop-color="#f8f8f8" stop-opacity=".8"/>
      <stop offset=".8" stop-color="#f9f9f9" stop-opacity=".7"/>
      <stop offset=".9" stop-color="#fafafa" stop-opacity=".5"/>
      <stop offset=".9" stop-color="#fcfcfc" stop-opacity=".4"/>
      <stop offset="1" stop-color="#fdfdfd" stop-opacity=".2"/>
      <stop offset="1" stop-color="#fefefe" stop-opacity="0"/>
      <stop offset="1" stop-color="#fff" stop-opacity="0"/>
    </linearGradient>
    <linearGradient id="l" x1=".5" y1="1" x2=".5" gradientUnits="objectBoundingBox">
      <stop offset=".1" stop-color="#fff"/>
      <stop offset=".2" stop-color="#f2f1f1"/>
      <stop offset=".3" stop-color="#e6e5e5"/>
      <stop offset="1" stop-color="#2b454e"/>
    </linearGradient>
    <linearGradient id="m" x1=".8" y1=".7" x2=".1" y2="-.1" gradientUnits="objectBoundingBox">
      <stop offset="0" stop-color="#fff"/>
      <stop offset="1" stop-color="#606060"/>
    </linearGradient>
    <linearGradient id="n" x1="0" y1=".2" x2=".7" y2=".7" xlink:href="#d"/>
    <linearGradient id="o" x1=".3" y1=".3" x2=".6" y2=".5" xlink:href="#b"/>
    <linearGradient id="p" x1="0" y1=".6" x2="1.2" y2=".3" xlink:href="#b"/>
    <linearGradient id="q" x1=".6" y1="1.2" x2=".4" y2="-.4" xlink:href="#b"/>
    <radialGradient id="f" cx=".6" cy=".4" r=".5" gradientTransform="rotate(90 15.2 -29)" gradientUnits="objectBoundingBox">
      <stop offset=".2" stop-color="#5f5c5d"/>
      <stop offset="1" stop-color="#fff"/>
    </radialGradient>
    <radialGradient id="c" cx="1.2" cy=".1" r="1.7" gradientTransform="matrix(2.028 0 0 1 -.5 0)" gradientUnits="objectBoundingBox">
      <stop offset=".4" stop-color="#fff"/>
      <stop offset=".5" stop-color="#f8f7fb"/>
      <stop offset=".6" stop-color="#e7e3f1"/>
      <stop offset=".7" stop-color="#cbc1e0"/>
      <stop offset=".9" stop-color="#a493c9"/>
      <stop offset="1" stop-color="#8770b8"/>
    </radialGradient>
    <radialGradient id="i" cx=".1" cy="0" r="1.6" gradientTransform="matrix(1.434 0 0 1 -.2 0)" xlink:href="#c"/>
    <radialGradient id="j" cx="1.8" cy="-18.7" r="34.8" gradientTransform="matrix(.581 0 0 1 .2 0)" gradientUnits="objectBoundingBox">
      <stop offset=".4" stop-color="#fff"/>
      <stop offset=".5" stop-color="#f4f2f8"/>
      <stop offset=".6" stop-color="#d7cfe7"/>
      <stop offset=".9" stop-color="#a999cc"/>
      <stop offset="1" stop-color="#8770b8"/>
    </radialGradient>
    <radialGradient id="d" cx=".5" cy=".2" r=".7" gradientTransform="matrix(1.089 0 0 1 0 0)" gradientUnits="objectBoundingBox">
      <stop offset="0" stop-color="#fff"/>
      <stop offset="1"/>
    </radialGradient>
  </defs>
  <g data-name="Сгруппировать 202">
    <path data-name="Контур 1299" d="M562.2 937.5c-6.7-4-14-3.6-19.1-.7s-5.8 24.5-3.4 26.2 22 12.4 25.2 14.4c3.8 2.2 18.1-.6 18.1-4.6 0-2.4.6-21-4.5-25.4-3.2-2.7-9.6-6-16.3-10z" transform="translate(-537.7 -901.6)" fill="url(#e)"/>
    <path data-name="Контур 1300" d="M19.3 42l-3 3.8 1 4.2-2.4 19 3.5 2 1-20 3.5-3.9-1.3-4.9z" fill="#2b454e"/>
    <ellipse data-name="Эллипс 284" cx="8.8" cy="13.3" rx="8.8" ry="13.3" transform="rotate(-76.5 34.2 19.7)" fill="url(#f)" style="mix-blend-mode:multiply;isolation:isolate"/>
    <path data-name="Контур 1301" d="M551.5 953.6a36.2 36.2 0 013.7-18.9 18.7 18.7 0 00-5.7-.2 35.5 35.5 0 00-2.2 18 94.4 94.4 0 004.2 17.1l2 1c-1.1-4-1.6-11.4-2-17z" transform="translate(-538.2 -901.6)" opacity=".5" fill="url(#b)" style="mix-blend-mode:multiply;isolation:isolate"/>
    <g data-name="Сгруппировать 200">
      <path data-name="Контур 1302" d="M550.5 953.4c-.8-10.5 2.4-15.7 3.3-18.2 1.7 0 0-.8 1.8-.4-5.1-1.3-9.8-.7-13.1 1.7s-4.6 8-4.8 14.2c-.1 5.2.4 11 1.4 12 1.6 1.4 6.7 4 13.3 7.7-1-4-1.5-11.5-2-17z" transform="translate(-537.7 -901.6)" fill="url(#a)"/>
      <path data-name="Контур 1303" d="M580 947.7c-2.4-2-7.4-4.6-12.5-7.5 1.6.9 1.6 1.5 3 2.3-1 3.5-3.4 5.9-6.2 10.5a73.6 73.6 0 00-7 20l8.7 5c5 3 18.5-.9 18.5-4.9 0-2.3.7-21-4.5-25.4z" transform="translate(-538.8 -902)" fill="url(#a)"/>
      <path data-name="Контур 1304" d="M557.2 974.9l-3-1.8z" transform="translate(-538.6 -903.8)" fill="url(#g)"/>
    </g>
    <g data-name="Сгруппировать 201" style="mix-blend-mode:multiply;isolation:isolate">
      <path data-name="Контур 1305" d="M550.5 953.4c-.8-10.5 2.4-15.7 3.3-18.2 1.7 0 0-.8 1.8-.4-5.1-1.3-9.8-.7-13.1 1.7s-4.6 8-4.8 14.2c-.1 5.2.4 11 1.4 12 1.6 1.4 6.7 4 13.3 7.7-1-4-1.5-11.5-2-17z" transform="translate(-537.7 -901.6)" fill="url(#c)"/>
      <path data-name="Контур 1306" d="M541.2 949.1c.3-5 1.2-9.8 3-13.3-2.5 2.7-3.6 7.5-4 12.7s-.3 11 .7 12l.5.4a64.1 64.1 0 01-.2-11.8z" transform="translate(-537.8 -901.7)" opacity=".5" fill="url(#h)" style="mix-blend-mode:multiply;isolation:isolate"/>
      <path data-name="Контур 1307" d="M580 947.7c-2.4-2-7.4-4.6-12.5-7.5 1.6.9 1.6 1.5 3 2.3-1 3.5-3.4 5.9-6.2 10.5a73.6 73.6 0 00-7 20l8.7 5c5 3 18.5-.9 18.5-4.9 0-2.3.7-21-4.5-25.4z" transform="translate(-538.8 -902)" fill="url(#i)"/>
      <path data-name="Контур 1308" d="M557.2 974.9l-3-1.8z" transform="translate(-538.6 -903.8)" fill="url(#j)"/>
    </g>
    <path data-name="Контур 1309" d="M555.6 936.4c-1.9.6-3.5 3.7-3.2 7.5.2 4.5 1.6 6 1.6 6l4.2-6 2.4 7.7a16 16 0 006.3-3.5c2.4-2.4 4.6-4.7 3.3-6.7-1.6-2.5-12.1-5.8-14.6-5z" transform="translate(-538.5 -901.7)" fill="url(#e)"/>
    <path data-name="Контур 1310" d="M570.8 942c-1.2 3.3-3.5 7-6.2 11.4a73.7 73.7 0 00-7 20l1.1.7a69.3 69.3 0 015.7-13.3 112.4 112.4 0 0111.2-16c-1.4-.8-3.2-2-4.8-2.8z" transform="translate(-538.8 -902)" opacity=".5" fill="url(#b)" style="mix-blend-mode:multiply;isolation:isolate"/>
    <path data-name="Контур 1311" d="M31.8 39.6c-1.2 3.3-3.6 7-6.3 11.5a73.6 73.6 0 00-7 20l1.2.7a69.2 69.2 0 015.6-13.4 112.4 112.4 0 0111.3-16c-1.4-.7-3.2-2-4.8-2.8z" fill="#19272b" opacity=".6"/>
    <path data-name="Контур 1312" d="M12.7 51.8a36.2 36.2 0 013.7-18.9 18.8 18.8 0 00-5.6-.2 35.5 35.5 0 00-2.3 18 94.3 94.3 0 004.3 17l1.9 1.1c-1-4-1.6-11.5-2-17z" fill="#19272b" opacity=".6"/>
    <path data-name="Контур 1313" d="M39.6 45.3c-3 .7-6.7 3.7-7.3 9.4-.6 5.3-.3 18-.3 18s-2-16.7.1-21.9c2.3-5.6 6.2-6.2 6.2-6.2z" fill="#19272b" opacity=".5"/>
    <path data-name="Контур 1314" d="M560.7 952l-2.5-7.7-4.1 6-.4-1 4.5-5.5 3 8z" transform="translate(-538.6 -902.1)" fill="url(#d)" style="mix-blend-mode:screen;isolation:isolate"/>
    <path data-name="Контур 1315" d="M547.4 914c-1 4.2-.8 16.7 2.4 19.4 2.5 2.1 4.7.7 4.9 3.8s-1.2 3.4.7 4.8c1.8 1.3 12.2.3 12-3-.3-3-1-4.2.5-7s5.6-7.6 5-11.7-22-21.2-25.5-6.3z" transform="translate(-538.2 -900.1)" fill="url(#k)"/>
    <path data-name="Контур 1316" d="M547.4 914c-1 4.2-.8 16.7 2.4 19.4 2.5 2.1 4.7.7 4.9 3.8s-1.2 3.4.7 4.8c1.8 1.3 12.2.3 12-3-.3-3-1-4.2.5-7s5.6-7.6 5-11.7-22-21.2-25.5-6.3z" transform="translate(-538.2 -900.1)" opacity=".2" fill="url(#l)"/>
    <path data-name="Контур 1317" d="M7.5 13.3C5.9 12.7 5.6 8.1 14 2.5 20.5-1.8 33.1-.9 37 7.7c3.9 9 .3 14-2.6 20.5a7.5 7.5 0 01-5 4.5 25.6 25.6 0 012.5-5.4c1.6-2.2 2.9-5 1.6-6.6-.8-.9-1.9-1.4-3.5.2-2.6 2.6-5.3-6-11.9-7.3-5.5-1.1-8.8.4-10.5-.3z" fill="#2b454e"/>
    <path data-name="Контур 1318" d="M556.9 937.3a7.7 7.7 0 01-2.7-.4 2 2 0 01.9 2c.1 3-1.2 3.3.7 4.7.7.4 2.4.7 4.5.7 2.9-3 2.7-7.9 2.7-7.9a47.2 47.2 0 01-6.1.9z" transform="translate(-538.6 -901.7)" opacity=".8" fill="url(#m)" style="mix-blend-mode:multiply;isolation:isolate"/>
    <path data-name="Контур 1319" d="M547.9 914.6s-1 8.8.4 12.3 8.7-4.7 9.5-8-2.3-6.3-10-4.3z" transform="translate(-538.3 -900.5)" opacity=".6" fill="url(#n)" style="mix-blend-mode:screen;isolation:isolate"/>
    <path data-name="Контур 1320" d="M568.5 932.7a7.5 7.5 0 005-4.5c2.9-6.5 7-11.4 3-20.5a12.4 12.4 0 00-.8-1.7 8 8 0 00-5.3 4.4 23 23 0 01-6.4 7.6c2.2 2.3 3.7 4.4 5.1 2.9 1.6-1.6 2.7-1 3.4-.2 1.3 1.6.1 4.5-1.6 6.6a25.6 25.6 0 00-2.4 5.4z" transform="translate(-539.2 -900)" opacity=".5" fill="url(#o)" style="mix-blend-mode:multiply;isolation:isolate"/>
    <path data-name="Контур 1321" d="M570.7 925.8s2.3-2.4 1.5-3.6-2.2.6-2.2.6z" transform="translate(-539.5 -900.9)" opacity=".5" fill="url(#p)" style="mix-blend-mode:multiply;isolation:isolate"/>
    <path data-name="Контур 1322" d="M557 912.8c-3.4-.8-9.8.4-12.2-.8 0 .9.4 1.5.8 1.7 1.7.6 5-.9 10.6.3 4.8 1 7.6 5.9 9.7 7.3-.4-1-5.3-7.6-8.8-8.5z" transform="translate(-538.1 -900.3)" opacity=".5" fill="url(#q)" style="mix-blend-mode:multiply;isolation:isolate"/>
  </g>
</svg>
