<svg data-name="Сгруппировать 211" xmlns="http://www.w3.org/2000/svg" xmlns:xlink="http://www.w3.org/1999/xlink" width="89.9" height="63.1">
  <defs>
    <linearGradient id="b" x1="1.6" y1=".9" x2=".9" y2="0" gradientUnits="objectBoundingBox">
      <stop offset="0" stop-color="#010002"/>
      <stop offset="0" stop-color="#030005"/>
      <stop offset=".2" stop-color="#0f0318"/>
      <stop offset=".4" stop-color="#160524"/>
      <stop offset=".5" stop-color="#190628"/>
      <stop offset=".7" stop-color="#0b0212"/>
      <stop offset=".9" stop-color="#020004"/>
      <stop offset="1"/>
    </linearGradient>
    <linearGradient id="c" x1=".4" y1=".5" x2="1.2" y2=".5" gradientUnits="objectBoundingBox">
      <stop offset="0" stop-color="#100221"/>
      <stop offset="1" stop-color="#390c73"/>
    </linearGradient>
    <linearGradient id="a" x1=".6" y1=".5" x2="1.6" y2=".5" gradientUnits="objectBoundingBox">
      <stop offset="0" stop-color="#bcbec0"/>
      <stop offset="1" stop-color="#e6e7e8"/>
    </linearGradient>
    <linearGradient id="k" x1=".5" y1=".5" x2="1.5" y2=".5" xlink:href="#a"/>
    <linearGradient id="l" x1="-5.6" y1=".9" x2="-6.3" y2="0" xlink:href="#b"/>
    <linearGradient id="m" x1="-5.5" y1=".5" x2="-4.8" y2=".5" xlink:href="#c"/>
    <linearGradient id="o" x1="-10.3" y1=".5" x2="-9.3" y2=".5" xlink:href="#a"/>
    <linearGradient id="p" x1="-10.4" y1=".5" x2="-9.4" y2=".5" xlink:href="#a"/>
    <linearGradient id="e" x1="14.9" y1=".5" x2="15.9" y2=".5" gradientUnits="objectBoundingBox">
      <stop offset="0" stop-color="#ff3eff"/>
      <stop offset="1" stop-color="#265aff"/>
    </linearGradient>
    <linearGradient id="q" x1="-.1" y1=".5" x2=".9" y2=".5" xlink:href="#e"/>
    <linearGradient id="t" x1="3.8" y1=".2" x2="3.8" y2="1" xlink:href="#a"/>
    <linearGradient id="f" x1="3.8" y1=".9" x2="3.8" y2="-.4" gradientUnits="objectBoundingBox">
      <stop offset="0" stop-color="#9c9c9c"/>
      <stop offset="0" stop-color="#9c9c9c"/>
      <stop offset=".3" stop-color="#c7c7c7"/>
      <stop offset=".6" stop-color="#e5e5e5"/>
      <stop offset=".8" stop-color="#f8f8f8"/>
      <stop offset="1" stop-color="#fff"/>
    </linearGradient>
    <linearGradient id="u" x1="26.7" y1=".5" x2="27.7" y2=".5" xlink:href="#a"/>
    <linearGradient id="v" x1="43.2" y1="-.3" x2="42.3" y2=".9" xlink:href="#f"/>
    <linearGradient id="x" x1="9.9" y1=".5" x2="10.9" y2=".5" xlink:href="#a"/>
    <linearGradient id="g" x1="29" y1=".5" x2="30" y2=".5" gradientUnits="objectBoundingBox">
      <stop offset="0" stop-color="#bcbec0"/>
      <stop offset=".7" stop-color="#e8e9ea"/>
      <stop offset="1" stop-color="#fff"/>
    </linearGradient>
    <linearGradient id="y" x1="8.6" y1=".5" x2="9.6" y2=".5" xlink:href="#a"/>
    <linearGradient id="z" x1="28.7" y1=".5" x2="29.7" y2=".5" xlink:href="#g"/>
    <linearGradient id="B" x1="44.3" y1=".5" x2="45.3" y2=".5" xlink:href="#a"/>
    <linearGradient id="C" x1="32.6" y1=".5" x2="33.6" y2=".5" xlink:href="#g"/>
    <linearGradient id="D" x1="54.3" y1=".5" x2="55.3" y2=".5" xlink:href="#a"/>
    <linearGradient id="E" x1="42.4" y1=".5" x2="43.4" y2=".5" xlink:href="#g"/>
    <linearGradient id="i" x1="-.4" y1=".4" x2="-.4" y2=".6" gradientUnits="objectBoundingBox">
      <stop offset="0" stop-color="#ba7c49"/>
      <stop offset=".1" stop-color="#98653c"/>
      <stop offset=".3" stop-color="#624126"/>
      <stop offset=".5" stop-color="#382516"/>
      <stop offset=".7" stop-color="#191009"/>
      <stop offset=".9" stop-color="#060402"/>
      <stop offset="1"/>
    </linearGradient>
    <linearGradient id="F" x1="-14" y1=".9" x2="-13.6" y2=".2" xlink:href="#f"/>
    <linearGradient id="G" x1="1.7" y1="1.2" x2="1.8" y2=".8" xlink:href="#f"/>
    <linearGradient id="H" x1="-.7" y1=".6" x2="-.6" y2=".4" xlink:href="#f"/>
    <linearGradient id="I" x1="2.1" x2="2.1" y2="1" gradientUnits="objectBoundingBox">
      <stop offset="0" stop-color="#1195ff"/>
      <stop offset="1" stop-color="#265aff"/>
    </linearGradient>
    <linearGradient id="K" x1="2.2" y1="1" x2="2.1" y2=".5" xlink:href="#f"/>
    <linearGradient id="L" x1="1.9" y1="1.3" x2="2" y2=".9" xlink:href="#f"/>
    <linearGradient id="j" x1="1.5" y1="-.8" x2=".9" y2="1.4" gradientUnits="objectBoundingBox">
      <stop offset="0" stop-color="#9c9c9c"/>
      <stop offset="0" stop-color="#989898"/>
      <stop offset=".3" stop-color="#626262"/>
      <stop offset=".5" stop-color="#383838"/>
      <stop offset=".7" stop-color="#191919"/>
      <stop offset=".9" stop-color="#060606"/>
      <stop offset="1"/>
    </linearGradient>
    <linearGradient id="M" x1="2.6" y1=".8" x2="1.3" y2=".4" gradientUnits="objectBoundingBox">
      <stop offset="0" stop-color="#e0c95e"/>
      <stop offset="0" stop-color="#dbc55c"/>
      <stop offset=".2" stop-color="#998940"/>
      <stop offset=".4" stop-color="#625829"/>
      <stop offset=".6" stop-color="#383217"/>
      <stop offset=".8" stop-color="#19160a"/>
      <stop offset=".9" stop-color="#060602"/>
      <stop offset="1"/>
    </linearGradient>
    <linearGradient id="O" x1="-.4" y1=".2" x2="-1.2" y2="1" xlink:href="#i"/>
    <linearGradient id="P" x1="-1.3" y1=".3" x2="-2.4" y2=".8" gradientUnits="objectBoundingBox">
      <stop offset="0" stop-color="#696969"/>
      <stop offset=".2" stop-color="#9c9c9c"/>
      <stop offset=".5" stop-color="#c6c6c6"/>
      <stop offset=".7" stop-color="#e5e5e5"/>
      <stop offset=".9" stop-color="#f8f8f8"/>
      <stop offset="1" stop-color="#fff"/>
    </linearGradient>
    <linearGradient id="Q" x1="-2.2" y1=".5" x2="-1.2" y2=".5" xlink:href="#e"/>
    <linearGradient id="R" x1="-2.3" y1="-.2" x2="-2.3" y2="1" xlink:href="#j"/>
    <linearGradient id="S" x1="-1.7" y1="-1.5" x2="-2.3" y2="1.7" xlink:href="#j"/>
    <radialGradient id="d" cx=".5" cy=".5" r=".4" gradientTransform="matrix(-1.514 0 0 1 3.1 0)" gradientUnits="objectBoundingBox">
      <stop offset="0" stop-color="#fff"/>
      <stop offset="1"/>
    </radialGradient>
    <radialGradient id="n" cx=".5" cy=".5" r=".4" gradientTransform="matrix(-1.514 0 0 1 -22 0)" xlink:href="#d"/>
    <radialGradient id="r" cx=".5" cy=".5" r=".6" gradientTransform="matrix(-.818 0 0 1 0 0)" xlink:href="#d"/>
    <radialGradient id="s" cx=".5" cy=".5" r=".5" gradientTransform="matrix(-.881 0 0 1 8.9 0)" xlink:href="#d"/>
    <radialGradient id="w" cx=".5" cy=".2" r=".4" gradientTransform="matrix(-2.127 0 0 1 -85.6 0)" gradientUnits="objectBoundingBox">
      <stop offset="0" stop-color="#ff63ce"/>
      <stop offset="1" stop-color="#9f19ab"/>
    </radialGradient>
    <radialGradient id="h" cx=".5" cy=".5" r=".6" gradientTransform="matrix(-.729 0 0 1 16 0)" gradientUnits="objectBoundingBox">
      <stop offset=".2" stop-color="#f90"/>
      <stop offset=".3" stop-color="#fc9500"/>
      <stop offset=".5" stop-color="#f58900"/>
      <stop offset=".7" stop-color="#ea7500"/>
      <stop offset=".9" stop-color="#da5a00"/>
      <stop offset="1" stop-color="#cc4100"/>
    </radialGradient>
    <radialGradient id="A" cx=".5" cy=".5" r=".4" gradientTransform="matrix(1.285 0 0 1 -9.4 0)" xlink:href="#h"/>
    <radialGradient id="J" cx=".2" cy=".9" r=".9" gradientTransform="matrix(-.481 0 0 1 3.7 0)" gradientUnits="objectBoundingBox">
      <stop offset="0" stop-color="#ffe4a7"/>
      <stop offset="1"/>
    </radialGradient>
    <radialGradient id="N" cx=".5" cy=".5" r=".8" gradientTransform="matrix(-.469 0 0 1 6.7 0)" xlink:href="#d"/>
  </defs>
  <path data-name="Контур 1323" d="M85.7 28.7L80 25.4l2.6-3.3s4.2 4 4 4.4l-.9 2.2z" fill="#19272b"/>
  <path data-name="Контур 1324" d="M43.6 53l-8.7-5.1s6-3 6.2-3 4 2.3 4 2.3z" fill="#19272b"/>
  <g data-name="Сгруппировать 204" transform="translate(30.3 46.8)">
    <path data-name="Контур 1325" d="M818.4 970a3.5 3.5 0 001.4 3.1l2.8 1.6c.9.5.3-.6 1.7-1.4a11 11 0 005-8.7c0-1.5 1.4-1.5.6-2l-3-1.7a3.6 3.6 0 00-3.5.4 11 11 0 00-5 8.6z" transform="translate(-818.4 -960.5)" fill="url(#b)"/>
    <ellipse data-name="Эллипс 285" cx="7.1" cy="4.1" rx="7.1" ry="4.1" transform="rotate(-59.7 11 5.4)" fill="url(#c)"/>
    <path data-name="Контур 1326" d="M826.2 963a3.6 3.6 0 013.5-.5 4 4 0 00-3 .6 11 11 0 00-5 8.6 3.4 3.4 0 001.6 3.3c-1.3-.4-2-1.6-2-3.5a11 11 0 015-8.6z" transform="translate(-818.6 -960.6)" fill="url(#d)" style="mix-blend-mode:screen;isolation:isolate"/>
    <path data-name="Контур 1327" d="M822.5 971.2c0 2.4 1.8 3.4 3.9 2.2a8.5 8.5 0 003.8-6.7c0-2.4-1.7-3.4-3.8-2.2a8.5 8.5 0 00-3.9 6.7zm2.6-1.6v.1c0 .1 0 0 0 0a.7.7 0 01-.2.5l-1.2 1.5c-.2.2-.4.2-.4 0a3.5 3.5 0 01-.2-.9 5.2 5.2 0 01.2-1c0-.3.2-.5.4-.5l1.2.1.2.2zm-1-2a7.3 7.3 0 011.5-1.8c.2-.1.4 0 .4.2v1.5a.7.7 0 01-.2.5l-.1.1a.4.4 0 01-.3.2l-1.2-.1c-.2 0-.3-.3-.1-.5zm3.1-2.7a1.9 1.9 0 011.5.1v.6l-1.3 1.5a.4.4 0 01-.3.2.8.8 0 00-.1 0c-.1 0-.2-.1-.2-.3v-1.5a.7.7 0 01.4-.6zm2.3 1.3a3.4 3.4 0 01.1.9 5.1 5.1 0 010 1c-.1.3-.4.5-.5.5h-1.2l-.2-.3v-.2a.7.7 0 01.2-.4l1.2-1.5c.1-.2.4-.2.4 0zm-.8 4a7.3 7.3 0 01-1.5 1.9c-.2.2-.4.1-.4-.1v-1.6a.7.7 0 01.2-.4l.1-.2a.4.4 0 01.3-.2l1.2.1c.2 0 .2.3 0 .6zm-3.1 2.8a1.9 1.9 0 01-1.5 0c-.2-.2-.1-.5 0-.7l1.3-1.5a.4.4 0 01.3-.2c.2 0 .3.1.3.3v1.6a.7.7 0 01-.4.5z" transform="translate(-818.7 -960.7)" fill="url(#a)" style="mix-blend-mode:multiply;isolation:isolate"/>
    <path data-name="Контур 1328" d="M822.8 971.3c0 2.4 1.7 3.4 3.8 2.2a8.5 8.5 0 003.9-6.7c0-2.4-1.7-3.4-3.9-2.2a8.5 8.5 0 00-3.8 6.7zm2.5-1.6v.1a.7.7 0 01-.1.5l-1.2 1.5c-.2.2-.4.2-.5 0a3.5 3.5 0 01-.1-.9 5.1 5.1 0 01.1-1c0-.3.3-.5.5-.5l1.2.1.1.2zm-1-2a7.3 7.3 0 011.5-1.8c.2-.1.4 0 .4.2v1.5a.7.7 0 01-.2.5v.1a.4.4 0 01-.4.2h-1.2c-.2-.1-.2-.4 0-.6zm3.2-2.7a1.9 1.9 0 011.4.1c.2.1.2.4 0 .6l-1.2 1.5a.4.4 0 01-.4.2c-.2 0-.2-.1-.2-.3v-1.5a.7.7 0 01.4-.6zm2.3 1.3a3.5 3.5 0 010 .9 5.2 5.2 0 010 1c0 .3-.3.5-.5.5h-1.2l-.2-.3v-.2a.7.7 0 01.2-.4l1.2-1.5c.2-.2.4-.2.5 0zm-.9 4a7.4 7.4 0 01-1.4 1.9c-.2.2-.4.1-.4-.1v-1.6a.7.7 0 01.1-.4l.2-.2a.4.4 0 01.3-.2l1.2.1c.2 0 .2.3 0 .6zm-3 2.8a1.9 1.9 0 01-1.6 0c-.1-.2 0-.5.1-.7l1.2-1.5a.4.4 0 01.3-.2.6.6 0 00.1 0c.2 0 .2.1.2.3v1.6a.7.7 0 01-.4.5z" transform="translate(-818.7 -960.7)" fill="url(#k)"/>
  </g>
  <g data-name="Сгруппировать 205" transform="translate(72.3 23.2)">
    <path data-name="Контур 1329" d="M863 945a3.5 3.5 0 001.4 3.1l2.7 1.6c1 .5.3-.6 1.7-1.4a11 11 0 005-8.7c0-1.5 1.5-1.5.6-2l-3-1.7a3.6 3.6 0 00-3.5.4 11 11 0 00-5 8.6z" transform="translate(-863 -935.5)" fill="url(#l)"/>
    <ellipse data-name="Эллипс 286" cx="7.1" cy="4.1" rx="7.1" ry="4.1" transform="rotate(-59.7 11 5.4)" fill="url(#m)"/>
    <path data-name="Контур 1330" d="M870.8 938a3.6 3.6 0 013.4-.5 4 4 0 00-3 .6 11 11 0 00-5 8.6 3.4 3.4 0 001.6 3.3c-1.2-.4-2-1.6-2-3.5a11 11 0 015-8.6z" transform="translate(-863.1 -935.6)" fill="url(#n)" style="mix-blend-mode:screen;isolation:isolate"/>
    <path data-name="Контур 1331" d="M867 946.2c0 2.4 1.8 3.4 4 2.2a8.5 8.5 0 003.8-6.7c0-2.4-1.8-3.4-3.9-2.2a8.5 8.5 0 00-3.8 6.7zm2.6-1.6v.1c0 .1 0 0 0 0a.7.7 0 01-.2.5l-1.2 1.5c-.1.2-.4.2-.4 0a3.5 3.5 0 01-.1-.9 5.2 5.2 0 010-1c.1-.3.4-.5.5-.5h1.2l.2.3zm-1-2a7.3 7.3 0 011.5-1.8c.2-.1.4 0 .4.2v1.5a.7.7 0 01-.2.5h-.1a.4.4 0 01-.3.3l-1.2-.1c-.2 0-.2-.3 0-.5zm3.1-2.7a1.9 1.9 0 011.5.1c.2 0 .1.4 0 .6l-1.3 1.5a.4.4 0 01-.3.2c-.2 0-.3-.1-.3-.3v-1.5a.7.7 0 01.4-.6zm2.3 1.3a3.5 3.5 0 01.2.9 5.2 5.2 0 01-.2 1c0 .3-.2.5-.4.5l-1.2-.1-.2-.2v-.1c0-.1 0 0 0 0a.7.7 0 01.2-.5l1.2-1.5c.2-.2.4-.2.4 0zm-.8 4a7.3 7.3 0 01-1.5 1.9c-.2.1-.4 0-.4-.2v-1.5a.7.7 0 01.2-.5l.1-.1a.4.4 0 01.4-.2l1.2.1c.1 0 .2.3 0 .5zm-3.1 2.8a1.9 1.9 0 01-1.5-.1v-.6l1.3-1.5a.4.4 0 01.3-.2.7.7 0 00.1 0c.1 0 .2.1.2.3v1.5a.7.7 0 01-.4.6z" transform="translate(-863.2 -935.7)" fill="url(#o)" style="mix-blend-mode:multiply;isolation:isolate"/>
    <path data-name="Контур 1332" d="M867.3 946.3c0 2.4 1.7 3.4 3.9 2.2a8.5 8.5 0 003.8-6.7c0-2.4-1.7-3.4-3.8-2.2a8.5 8.5 0 00-3.9 6.7zm2.6-1.6v.1c0 .1 0 0 0 0a.7.7 0 01-.2.5l-1.2 1.5c-.2.2-.4.2-.5 0a3.4 3.4 0 010-.9 5 5 0 010-1c0-.3.3-.5.5-.5l1.2.1.2.2zm-1-2a7.3 7.3 0 011.4-1.8c.2-.1.4 0 .4.2v1.5a.7.7 0 01-.1.5h-.1a.4.4 0 01-.4.3l-1.2-.1c-.1 0-.2-.3 0-.5zm3.1-2.7a1.9 1.9 0 011.5.1l-.1.6-1.2 1.5a.4.4 0 01-.3.2.8.8 0 00-.1 0c-.1 0-.2-.1-.2-.3v-1.5a.7.7 0 01.4-.6zm2.3 1.3a3.4 3.4 0 01.1.9 5.1 5.1 0 01-.1 1c0 .3-.3.5-.5.5l-1.2-.1-.1-.2v-.1c0-.1 0 0 0 0a.7.7 0 01.1-.5l1.2-1.5c.2-.2.4-.2.5 0zm-.8 4a7.3 7.3 0 01-1.5 1.9c-.2.1-.4 0-.4-.2v-1.5a.7.7 0 01.2-.5.4.4 0 01.4-.3l1.2.1c.2 0 .2.3 0 .5zm-3.2 2.8a1.9 1.9 0 01-1.4-.1c-.2 0-.1-.4 0-.6l1.2-1.5a.4.4 0 01.4-.2c.2 0 .2.1.2.3v1.5a.7.7 0 01-.4.6z" transform="translate(-863.2 -935.7)" fill="url(#p)"/>
  </g>
  <path data-name="Контур 1333" d="M809.3 932.6s-1-2.9-2-1.7-.6 5.4-.6 5.4z" transform="translate(-787.5 -912)" fill="url(#e)"/>
  <path data-name="Контур 1334" d="M788.3 950.3c1.6-3 18.3-17.8 27.1-24.7s21-12.2 23.8-13.1 10.7-1.6 14.6-1.5c4.6.1 18.2 9 20 10.4 0 0 2.5 10 2.5 11 0 1.1-2.1 5.6-4.2 7.3v-.5c0-3.7-2.6-5.2-5.8-3.3a12.8 12.8 0 00-5.8 10v.6l-30.6 17.4a9.3 9.3 0 00.3-2c0-3.7-2.6-5.1-5.8-3.3a12.8 12.8 0 00-5.8 10 6.2 6.2 0 00.2 1.7l-1.6.9c-4.7 2.6-14.4-1.3-23.7-6.5-9-5-6.8-11.4-5.2-14.4z" transform="translate(-786.4 -911)" fill="url(#q)"/>
  <path data-name="Контур 1335" d="M39.6 39.8c4.3-4.4 7.1-11.4 10.8-17s17-11.1 19.7-11.5c2.5-.4 12.5 0 17.2-.9s2.6 10 2.6 11.1c0 1-2 5.5-4.2 7.2v-.5c0-3.7-2.6-5.1-5.8-3.3a12.8 12.8 0 00-5.8 10v.6L43.6 53a9.3 9.3 0 00.2-2c0-3.6-2.6-5.1-5.8-3.3a12.8 12.8 0 00-5.8 10 6.2 6.2 0 00.2 1.7l-1.6.9a8.9 8.9 0 01-5.2.8c-.2-2.8-.3-6.7.9-8.2 2-2.2 8.8-8.7 13.1-13z" fill="#e6e7e8" style="mix-blend-mode:multiply;isolation:isolate"/>
  <path data-name="Контур 1336" d="M813.6 964.1c2-2.3 8.9-8.7 13.1-13s7.7-11.8 11.4-17.4 16.4-10.7 19.1-11.1c2.5-.4 12.5 0 17.3-1 0 0-13.3.8-15.6 1.1-2.7.4-16 5.5-19.7 11s-6.5 12.7-10.8 17-11.2 11.3-13.1 13.6c-1.2 1.4-1.1 5.3-.9 8a13.7 13.7 0 01-1.7 0c-.2-2.8-.3-6.8 1-8.2z" transform="translate(-787.8 -911.6)" fill="url(#r)" style="mix-blend-mode:screen;isolation:isolate"/>
  <path data-name="Контур 1337" d="M70.6 9.8l-14.1-8a23 23 0 0112.4.2C75 4.1 80.5 8.3 80.3 9.3s-8.2 1-9.7.5z" fill="#2b454e"/>
  <path data-name="Контур 1338" d="M66.8 2a20.5 20.5 0 00-4.4-1A20 20 0 0169 2C75 4.1 80.5 8.3 80.3 9.3c0 .2-.5.4-1 .5-.2-1.3-6-5.6-12.5-7.8z" fill="#19272b"/>
  <path data-name="Контур 1339" d="M47.6 23.5C47 21.5 33.3 14 32 14S17.2 24.4 17.7 27s15.6 12.3 20.7 10.3C44 35 48 25.2 47.6 23.5z" fill="#16032e"/>
  <g data-name="Сгруппировать 207">
    <g data-name="Сгруппировать 206">
      <path data-name="Контур 1340" d="M47 23.6c-.5-2-13.8-9-15.1-9.1s-14.4 10-14 12.5 15.3 12 20.2 10c5.4-2.1 9.3-11.7 8.9-13.4z" fill="#2b454e"/>
    </g>
  </g>
  <path data-name="Контур 1341" d="M19.8 23.6a2 2 0 00-.4 1.2c.5 2.6 15.7 12.5 21.4 11a8.8 8.8 0 01-2.4 1.5c-5 2-20.3-7.8-20.7-10.3-.2-.7.7-2 2-3.4z" fill="#19272b"/>
  <path data-name="Контур 1342" d="M44.8 37.7l36-21s-8.1-5.2-14.2-3-15.4 8.6-17 12.5l-4.8 11.5z" fill="#19272b"/>
  <path data-name="Контур 1343" d="M45.8 36.9l34-19.8s-7.6-5-13.4-3S51.8 22.4 50.3 26l-4.5 10.9z" fill="#2b454e"/>
  <path data-name="Контур 1344" d="M19.8 51s-1.9 3.4-2.8 3.4-3.4-.8-8.4-3.7c-3.1-1.8-4.5-3-4.8-4s.4-4.6.4-4.6 2 2.2 7 5a60.7 60.7 0 008.6 4z" fill="#19272b"/>
  <path data-name="Контур 1345" d="M790.8 955.6l.3.3a12.5 12.5 0 00-.4 3.9c.4 1 1.7 2.2 4.9 4 5 3 7.4 3.8 8.4 3.8a.7.7 0 00.2-.1 1.3 1.3 0 01-.7.4c-1 0-3.4-.8-8.3-3.7-3.2-1.8-4.6-3-4.9-4s.5-4.6.5-4.6z" transform="translate(-786.5 -913.5)" fill="url(#s)" style="mix-blend-mode:screen;isolation:isolate"/>
  <path data-name="Контур 1346" d="M808.5 965.2l-2.4 3.8a22.5 22.5 0 005 .6 5.5 5.5 0 004.3-2.5 8.7 8.7 0 00.7-3 19.8 19.8 0 01-4.3 1.3 7.7 7.7 0 01-3.3-.2z" transform="translate(-787.4 -914)" fill="url(#t)"/>
  <path data-name="Контур 1347" d="M808.5 965.2l-2.4 3.8a22.1 22.1 0 006.2-1.8 10.6 10.6 0 003.8-3.1 19.8 19.8 0 01-4.3 1.3 7.7 7.7 0 01-3.3-.2z" transform="translate(-787.4 -914)" fill="url(#f)" style="mix-blend-mode:multiply;isolation:isolate"/>
  <path data-name="Контур 1348" d="M789.8 955.2l-.5 4.2s-2.3-1.9-2.4-3.4a5.5 5.5 0 011-3.1 5.8 5.8 0 001.9 2.3z" transform="translate(-786.4 -913.3)" fill="url(#u)"/>
  <path data-name="Контур 1349" d="M789.8 955.2l-.4 4.2a16.1 16.1 0 01-1.3-4 20 20 0 010-2.5 5.8 5.8 0 001.7 2.3z" transform="translate(-786.4 -913.3)" fill="url(#v)" style="mix-blend-mode:multiply;isolation:isolate"/>
  <path data-name="Контур 1350" d="M878 921.1a3.8 3.8 0 011.4 1.2c.4.6.9 6 .9 6l-3.3-5.6c-.2-.6 1-1.6 1-1.6z" transform="translate(-791.4 -911.6)" fill="url(#w)"/>
  <g data-name="Сгруппировать 208">
    <path data-name="Контур 1351" d="M808.4 967l1 2s2.8-1.8 2.6-2.4-3.6.4-3.6.4z" transform="translate(-787.6 -914)" fill="url(#x)"/>
    <path data-name="Контур 1352" d="M809.6 968.4c0 .5-.3.7-.8.5a1.8 1.8 0 01-.8-1.4c0-.5.4-.7.8-.4a1.8 1.8 0 01.8 1.3z" transform="translate(-787.5 -914.1)" fill="url(#g)"/>
  </g>
  <path data-name="Контур 1353" d="M810.8 967l1 2s2.9-1.9 2.6-2.5-3.6.4-3.6.4z" transform="translate(-787.7 -914)" fill="url(#y)"/>
  <path data-name="Контур 1354" d="M812 968.4c0 .5-.3.7-.8.4a1.8 1.8 0 01-.8-1.3c0-.6.4-.8.8-.5a1.8 1.8 0 01.8 1.4z" transform="translate(-787.7 -914.1)" fill="url(#z)"/>
  <path data-name="Контур 1355" d="M812.7 965.7l.8 1.8s2.6-1.6 2.3-2.2-3.1.4-3.1.4z" transform="translate(-787.8 -914)" fill="url(#h)"/>
  <path data-name="Контур 1356" d="M813.8 967c0 .4-.4.6-.7.4a1.6 1.6 0 01-.8-1.2c0-.5.4-.7.8-.4a1.6 1.6 0 01.7 1.2z" transform="translate(-787.8 -914)" fill="url(#A)"/>
  <path data-name="Контур 1357" d="M788 955.8l.9 1.8s1-1.3.8-1.8-1.7 0-1.7 0z" transform="translate(-786.4 -913.5)" fill="url(#B)"/>
  <path data-name="Контур 1358" d="M789.1 957c0 .5-.3.7-.7.5a1.6 1.6 0 01-.7-1.3c0-.4.3-.6.7-.4a1.6 1.6 0 01.7 1.3z" transform="translate(-786.4 -913.5)" fill="url(#C)"/>
  <path data-name="Контур 1359" d="M787.5 954.2l.7 1.4s1-.7.7-1.1-1.4-.3-1.4-.3z" transform="translate(-786.4 -913.4)" fill="url(#D)"/>
  <path data-name="Контур 1360" d="M788.4 955.2c0 .3-.3.5-.6.3a1.2 1.2 0 01-.5-1c0-.3.2-.4.5-.3a1.2 1.2 0 01.6 1z" transform="translate(-786.4 -913.4)" fill="url(#E)"/>
  <path data-name="Контур 1361" d="M869.2 929.2L832.9 950l-6.5 6.8.7.7 5.6-2 40.8-23.3z" transform="translate(-788.6 -912)" fill="url(#i)" style="mix-blend-mode:screen;isolation:isolate"/>
  <g data-name="Сгруппировать 209" style="mix-blend-mode:multiply;isolation:isolate">
    <path data-name="Контур 1362" d="M877 941v-.6c0-2.2-1-3.6-2.4-4l6.4-3.7a7.4 7.4 0 01.2 1c0 1-2.1 5.5-4.2 7.2z" transform="translate(-791.3 -912.2)" fill="url(#F)"/>
    <path data-name="Контур 1363" d="M787.4 961.4a66 66 0 006.2 5.2c4.2 3 14.9 6.5 18.8 4.5l7.2-4a11 11 0 00-1 4.4 6.2 6.2 0 00.2 1.6l-1.6.9c-4.7 2.6-14.3-1.2-23.6-6.4-3.5-2-5.3-4.1-6.2-6.2z" transform="translate(-786.4 -913.8)" fill="url(#G)"/>
    <path data-name="Контур 1364" d="M832.5 965.6a9.3 9.3 0 00.2-2 4.6 4.6 0 00-1-3.2l33.6-19.5a12.3 12.3 0 00-2.3 6.7v.6l-30.5 17.4z" transform="translate(-788.9 -912.7)" fill="url(#H)"/>
  </g>
  <path data-name="Контур 1365" d="M816 967s-4.3 2.6-6.1 2.7c-2.8 0-8.4-1.3-14-4.8-8.8-5.4-9.1-8.8-9.1-8.8a30.3 30.3 0 00-.4 6.1c.3 2 2 4.5 9.6 8.5a30.9 30.9 0 0016.1 4.2 19.8 19.8 0 005-1.2z" transform="translate(-786.3 -913.5)" fill="url(#I)"/>
  <path data-name="Контур 1366" d="M809.6 970.3c-2.8 0-8.4-1.4-14-4.8-6.8-4.2-8.5-7.1-9-8.3l.2-1.1s.3 3.4 9 8.8a29.5 29.5 0 0014 4.8c1.9 0 6.2-2.7 6.2-2.7l.1.5c-2 1-5.3 2.7-6.5 2.8z" transform="translate(-786.3 -913.5)" fill="url(#J)" style="mix-blend-mode:color-dodge;isolation:isolate"/>
  <path data-name="Контур 1367" d="M786.4 962.4a12.1 12.1 0 010-2 70 70 0 007.1 6.1c4.3 3.1 14.9 6.5 18.9 4.6l3.9-2.2.8 5a19.8 19.8 0 01-5 1.3c-2.8.3-8.8-.4-16.1-4.3-7.6-4-9.4-6.5-9.6-8.5z" transform="translate(-786.3 -913.7)" fill="url(#K)" style="mix-blend-mode:multiply;isolation:isolate"/>
  <path data-name="Контур 1368" d="M786.4 962.4a12.1 12.1 0 010-2 70 70 0 007.1 6.1c4.3 3.1 14.9 6.5 18.9 4.6l3.9-2.2.8 5a19.8 19.8 0 01-5 1.3c-2.8.3-8.8-.4-16.1-4.3-7.6-4-9.4-6.5-9.6-8.5z" transform="translate(-786.3 -913.7)" fill="url(#L)" style="mix-blend-mode:multiply;isolation:isolate"/>
  <path data-name="Контур 1369" d="M49 35.3l-4.2 2.4 3.3-8z" fill="#19272b"/>
  <path data-name="Контур 1370" d="M70 13.2c5.4 0 10.7 3.6 10.7 3.6l-7 4c0-.8-.3-2-.5-3-.4-1.8-2.4-3.9-3.2-4.6z" fill="#19272b"/>
  <path data-name="Контур 1371" d="M833.1 933.3c-9.9 3-20.2 2.9-26.3 2.6 3.6-4 11.7-10.1 12.7-10 1 0 9.7 4.5 13.6 7.4z" transform="translate(-787.5 -911.8)" fill="url(#j)" style="mix-blend-mode:screen;isolation:isolate"/>
  <path data-name="Контур 1372" d="M10.6 57C4 53.7 1.1 51 .8 50s.3 0 1.6 1a63.7 63.7 0 008.8 5.2c7.3 3.8 12.2 3.6 12.4 4s-3.2 1.8-13-3z" fill="#2b454e"/>
  <path data-name="Контур 1373" d="M802.5 940s-12.9 10.2-11 12.8 14.2 10.9 19 9.4 12.5-10.4 12.5-10.4-8.8-2-14.4-5.8-6-6-6-6z" transform="translate(-786.6 -912.6)" fill="url(#M)" style="mix-blend-mode:screen;isolation:isolate"/>
  <path data-name="Контур 1374" d="M808.7 965.2s1.2 3.6 5.6 2c1.2-.4 2-3.1 2-3.1a19.8 19.8 0 01-4.3 1.3 7.7 7.7 0 01-3.3-.2z" transform="translate(-787.6 -914)" fill="url(#N)" style="mix-blend-mode:screen;isolation:isolate"/>
  <path data-name="Контур 1375" d="M63.4 26.8L59.7 29l-1.3-11 2-1.3z" fill="#19272b"/>
  <path data-name="Контур 1376" d="M833.7 950a21 21 0 011.2 6.1l.2 5.8 15.6-9a105 105 0 00-.3-10.8 72.5 72.5 0 00-2.5-12.5l.6-.2a73.1 73.1 0 012.4 12.6 105.4 105.4 0 01.3 10.6l9-5.1 3.4-7.8a9.6 9.6 0 00.4-7.4l.4-.2a10 10 0 01-.3 7.8 825 825 0 01-3.5 7.9l-26 15v-.4l-.2-6.2a20.9 20.9 0 00-1.2-6z" transform="translate(-789 -912)" fill="url(#O)" style="mix-blend-mode:screen;isolation:isolate"/>
  <g data-name="Сгруппировать 210">
    <path data-name="Контур 1377" d="M834.2 950.6s4.6 3.8 7 2.5-4.6-4.1-4.6-4.1z" transform="translate(-789 -913.1)" fill="url(#P)" style="mix-blend-mode:multiply;isolation:isolate"/>
    <path data-name="Контур 1378" d="M837 946.9c.7 0 4 .2 4.6 1.7s-7.4 2.3-7.7 2 1.5-3.6 3-3.7z" transform="translate(-789 -913)" fill="url(#Q)"/>
    <path data-name="Контур 1379" d="M837.2 947.2c.5 0 3.1 0 3.6 1.1s-5.9 1.7-6 1.5 1.1-2.5 2.4-2.6z" transform="translate(-789 -913)" fill="url(#R)" style="mix-blend-mode:screen;isolation:isolate"/>
  </g>
  <path data-name="Контур 1380" d="M868.7 928.5a79.2 79.2 0 01-21.5 2.2 39.8 39.8 0 018.9-4.7c4.7-1.7 10.6 1.3 12.6 2.5z" transform="translate(-789.7 -911.8)" fill="url(#S)" style="mix-blend-mode:screen;isolation:isolate"/>
</svg>
