<svg xmlns="http://www.w3.org/2000/svg" width="56.249" height="60" viewBox="0 0 56.249 60">
  <g id="insurance" transform="translate(-1.876)">
    <path id="Контур_118" data-name="Контур 118" d="M56.25,0H16.875A1.877,1.877,0,0,0,15,1.875V15h1.875V1.875h7.5v3.75H19.688a.938.938,0,0,0-.937.938V15h1.875V7.5h3.75V9.375A1.877,1.877,0,0,0,26.25,11.25H46.875A1.877,1.877,0,0,0,48.75,9.375V7.5H52.5V30h1.875V6.563a.938.938,0,0,0-.937-.937H48.75V1.875h7.5v56.25H16.875V52.5H15v6.563a.938.938,0,0,0,.938.938H56.25a1.877,1.877,0,0,0,1.875-1.875V1.875A1.877,1.877,0,0,0,56.25,0ZM46.875,9.375H26.25v-7.5H46.875Z" fill="#2b454e"/>
    <path id="Контур_119" data-name="Контур 119" d="M54.375,31.875H52.5V45H43.125a.938.938,0,0,0-.937.938v8.438H20.625V52.5H18.75v2.813a.938.938,0,0,0,.938.938H43.125a.974.974,0,0,0,.128-.008l.028,0,.015,0,.018,0a.185.185,0,0,0,.024-.006l.007,0c.025-.007.051-.013.076-.022h0a.783.783,0,0,0,.078-.03h0a.8.8,0,0,0,.075-.038h0l.035-.021.014-.009.022-.015.011-.008.023-.017.022-.017.013-.01L43.756,56l10.313-9.375c.016-.014.031-.029.045-.044l.012-.013c.012-.013.024-.027.036-.041l.007-.007c.013-.016.025-.033.037-.049l.01-.015c.009-.013.018-.027.026-.041a.094.094,0,0,0,.007-.013.579.579,0,0,0,.028-.053l.007-.015.02-.044c0-.006,0-.01.007-.016s.014-.038.021-.058l0-.008c.006-.018.01-.036.015-.053a.078.078,0,0,1,0-.014.932.932,0,0,0,.02-.125s0-.01,0-.015l0-.053V31.875Zm-10.312,15h6.95L46.46,51.014l-2.4,2.179Z" fill="#2b454e"/>
    <path id="Контур_120" data-name="Контур 120" d="M28.125,4.688H30V6.563H28.125Z" fill="#2b454e"/>
    <path id="Контур_121" data-name="Контур 121" d="M43.125,4.688H45V6.563H43.125Z" fill="#2b454e"/>
    <path id="Контур_122" data-name="Контур 122" d="M47.813,15H26.25a.938.938,0,0,0-.937.938v3.75h1.875V16.875H46.875V30H32.813v1.875h15a.938.938,0,0,0,.938-.937v-15A.938.938,0,0,0,47.813,15Z" fill="#2b454e"/>
    <path id="Контур_123" data-name="Контур 123" d="M31.875,35.625H42.188V37.5H31.875Z" fill="#2b454e"/>
    <path id="Контур_124" data-name="Контур 124" d="M44.063,35.625h5.625V37.5H44.063Z" fill="#2b454e"/>
    <path id="Контур_125" data-name="Контур 125" d="M29.063,41.25H39.375v1.875H29.063Z" fill="#2b454e"/>
    <path id="Контур_126" data-name="Контур 126" d="M41.25,41.25h8.438v1.875H41.25Z" fill="#2b454e"/>
    <path id="Контур_127" data-name="Контур 127" d="M24.375,46.875H40.313V48.75H24.375Z" fill="#2b454e"/>
    <path id="Контур_128" data-name="Контур 128" d="M31.875,4.688H41.25V6.563H31.875Z" fill="#2b454e"/>
    <path id="Контур_129" data-name="Контур 129" d="M16.875,50.625a.933.933,0,0,0,.563-.187l4.137-3.1a23.354,23.354,0,0,0,9.019-14.677l1.268-7.182a.937.937,0,0,0-.482-.99l-14.062-7.5a.936.936,0,0,0-.882,0l-14.062,7.5a.938.938,0,0,0-.482.99l1.257,7.132A23.371,23.371,0,0,0,12.05,47.2l4.259,3.236a.936.936,0,0,0,.566.19ZM4.993,32.281,3.854,25.82l13.021-6.945L29.9,25.82l-1.149,6.512a21.488,21.488,0,0,1-8.3,13.5l-3.571,2.678-3.7-2.808A21.5,21.5,0,0,1,4.993,32.281Z" fill="#2b454e"/>
    <path id="Контур_130" data-name="Контур 130" d="M20.47,43.822A17.378,17.378,0,0,0,27.18,32.9l.93-5.267a.937.937,0,0,0-.482-.99l-4.689-2.5L22.057,25.8l4.089,2.182-.812,4.6a15.511,15.511,0,0,1-5.988,9.746l-2.468,1.851L14.319,42.23a15.517,15.517,0,0,1-5.911-9.688L7.6,27.981,11.692,25.8l-.882-1.655-4.688,2.5a.938.938,0,0,0-.482.99l.922,5.229a17.393,17.393,0,0,0,6.623,10.856l3.124,2.373a.937.937,0,0,0,1.13,0Z" fill="#2b454e"/>
    <path id="Контур_131" data-name="Контур 131" d="M16.874,23.036l3.31,1.765.882-1.655-3.752-2a.936.936,0,0,0-.882,0l-3.749,2,.882,1.655Z" fill="#2b454e"/>
    <path id="Контур_132" data-name="Контур 132" d="M15.9,37.5h.036a.937.937,0,0,0,.7-.32l6.563-7.5-1.411-1.235-5.8,6.63L13.875,32.25l-1.5,1.125,2.812,3.75a.941.941,0,0,0,.714.375Z" fill="#2b454e"/>
    <path id="Контур_133" data-name="Контур 133" d="M15.938,26.25h1.875v1.875H15.938Z" fill="#2b454e"/>
    <path id="Контур_134" data-name="Контур 134" d="M15.938,39.375h1.875V41.25H15.938Z" fill="#2b454e"/>
  </g>
</svg>
