<svg xmlns="http://www.w3.org/2000/svg" width="58.554" height="69.791" viewBox="0 0 58.554 69.791">
  <g id="customer-service-agent" transform="translate(-5.555)">
    <path id="Контур_23" data-name="Контур 23" d="M49.836,42.449a9.313,9.313,0,0,0,4.061-3.9,9.5,9.5,0,0,0,.277-8.6,15.852,15.852,0,0,1-1.311-4.515,4.177,4.177,0,0,0,.23-1.368V20.1a4.172,4.172,0,0,0-.395-1.774v-.459a17.805,17.805,0,0,0-2.825-9.645,1.022,1.022,0,1,0-1.72,1.105,15.74,15.74,0,0,1,2.417,6.926A4.172,4.172,0,0,0,48.9,15.9H47.223A6.626,6.626,0,0,0,36,12.459c-2.408,2.445-5.292,1.348-8.906,1.618A4.769,4.769,0,0,0,22.62,17.2h-.773a4.856,4.856,0,0,0-2.837.912v-.246A15.822,15.822,0,0,1,45.1,5.826a1.022,1.022,0,1,0,1.327-1.555A17.867,17.867,0,0,0,16.965,17.866c0,.68,0,3.776,0,5.255a16.728,16.728,0,0,1-1.52,6.932,9.471,9.471,0,0,0,4.384,12.4A20.523,20.523,0,0,0,5.555,61.971v3.568a4.256,4.256,0,0,0,4.252,4.252H59.857a4.256,4.256,0,0,0,4.252-4.252V61.971A20.523,20.523,0,0,0,49.836,42.449Zm-2.5-17.43c0-.005,0-.01,0-.015V17.947H48.9A2.155,2.155,0,0,1,51.048,20.1v3.969A2.155,2.155,0,0,1,48.9,26.222H47.257c.044-.4.071-.8.077-1.2Zm-.477,3.248h1.326v1.886a1.5,1.5,0,0,1-1.5,1.5H45.3A12.335,12.335,0,0,0,46.857,28.267ZM24.374,18.838a2.72,2.72,0,0,1,2.717-2.717c3.338-.3,7.169,1.016,10.363-2.228a4.581,4.581,0,0,1,7.832,3.057s0,0,0,.005v.032c.006.218,0-1.033,0,8.007a10.55,10.55,0,0,1-.229,2.025c0,.012-.005.024-.007.036a10.285,10.285,0,0,1-1.275,3.188,3.215,3.215,0,0,0-2.12-.8H38.463a3.229,3.229,0,0,0-2.054,5.72A10.454,10.454,0,0,1,24.426,25.86c0-.009,0-.019,0-.028-.026-.277-.045-.555-.049-.836ZM42.827,32.864a1.186,1.186,0,0,1-1.169,1H38.463a1.185,1.185,0,0,1,0-2.37h3.194a1.185,1.185,0,0,1,1.169,1.371Zm-.41,9.9a9.195,9.195,0,0,1-15.17,0,4.326,4.326,0,0,0,2.307-3.82V36.171a12.528,12.528,0,0,0,10.556-.007v2.783a4.326,4.326,0,0,0,2.307,3.82ZM19.008,22.06a2.842,2.842,0,0,1,2.838-2.815h.483v5.679h-.483a2.838,2.838,0,0,1-2.838-2.816Zm-1.45,15.5a7.627,7.627,0,0,1-.214-6.749A18,18,0,0,0,18.8,25.9a4.847,4.847,0,0,0,3.047,1.067h.666a12.425,12.425,0,0,0,3.541,6.764,12.651,12.651,0,0,0,1.456,1.233v3.981c0,2.393-2.689,2.314-2.968,2.449a12.807,12.807,0,0,1-1.587-.107,7.237,7.237,0,0,1-5.4-3.728ZM44.942,67.746H24.721V59.714a1.022,1.022,0,0,0-2.045,0v8.032h-5.8V62.632a1.022,1.022,0,0,0-2.045,0v5.114H9.806A2.209,2.209,0,0,1,7.6,65.539V61.972A18.469,18.469,0,0,1,22.557,43.86l1.574-.3a21.38,21.38,0,0,0-1.455,7.723v3.653a1.022,1.022,0,0,0,2.045,0V51.28a19.321,19.321,0,0,1,1.246-6.8A11.242,11.242,0,0,0,43.756,44.4a19.359,19.359,0,0,1,1.186,6.64v16.7Zm.181-26.35L44,41.18a2.277,2.277,0,0,1-1.844-2.233V35.869A3.239,3.239,0,0,0,44.721,33.7h1.958a3.552,3.552,0,0,0,3.548-3.548v-2.1a4.185,4.185,0,0,0,.963-.468,18.134,18.134,0,0,0,1.17,3.322,7.354,7.354,0,0,1-.256,6.659A7.237,7.237,0,0,1,46.71,41.29a12.613,12.613,0,0,1-1.587.107ZM62.064,65.539a2.209,2.209,0,0,1-2.207,2.207H54.832V62.632a1.022,1.022,0,0,0-2.045,0v5.114h-5.8v-16.7a21.415,21.415,0,0,0-1.356-7.467l1.475.284A18.469,18.469,0,0,1,62.064,61.972v3.568Z" transform="translate(0)" fill="#2b454e"/>
  </g>
</svg>
