<svg data-name="Сгруппировать 224" xmlns="http://www.w3.org/2000/svg" width="100.6" height="58.8">
  <defs>
    <linearGradient id="a" y1=".5" x2="1" y2=".5" gradientUnits="objectBoundingBox">
      <stop offset=".1" stop-color="#fff"/>
      <stop offset=".2" stop-color="#f2f1f1"/>
      <stop offset=".3" stop-color="#e6e5e5"/>
      <stop offset="1" stop-color="#2b454e"/>
    </linearGradient>
    <linearGradient id="b" y1=".5" x2="1" y2=".5" gradientUnits="objectBoundingBox">
      <stop offset="0" stop-color="#ff3eff"/>
      <stop offset="1" stop-color="#265aff"/>
    </linearGradient>
  </defs>
  <g data-name="Сгруппировать 223">
    <path data-name="Контур 1403" d="M33.7 57.8L2.1 39.5c-2.6-1.5-2.3-4 .7-5.8L57.1 2.4c3-1.8 7.5-2 10.1-.5L99 20.2c2.6 1.5 2.2 4.1-.8 5.9L44 57.4c-3 1.7-7.6 2-10.2.4z" opacity=".3"/>
    <path data-name="Контур 1404" d="M257 1226.5l-31.3-18.1c-2.6-1.5-2.3-4.1.7-5.9l53.7-31c3-1.7 7.5-1.9 10.1-.4l31.4 18c2.6 1.6 2.2 4.2-.8 6l-53.7 31c-3 1.7-7.5 1.8-10 .4z" transform="translate(-224 -1169.3)" fill="url(#a)"/>
    <path data-name="Контур 1405" d="M257 1225.6l-31.3-18.1c-2.6-1.5-2.3-4.1.7-5.8l53.7-31c3-1.8 7.5-2 10.1-.5l31.4 18.1c2.6 1.5 2.2 4.1-.8 5.8l-53.7 31c-3 1.8-7.5 2-10 .5z" transform="translate(-224 -1169.2)" fill="url(#b)"/>
    <path data-name="Контур 1406" d="M32 42.8q-.2-.4-1.1-1a4.6 4.6 0 00-1.8-.6 2.3 2.3 0 00-1.4.2q-.7.4-.5.9t1.1 1a4.5 4.5 0 001.7.6 2.3 2.3 0 001.5-.3q.6-.3.5-.8zm-1.8.5a4.6 4.6 0 01-1.1-.5 3.1 3.1 0 01-.9-.6c-.1-.2 0-.3.1-.4a1 1 0 01.7 0 4.5 4.5 0 011 .4 3 3 0 011 .7.2.2 0 01-.2.4.9.9 0 01-.6 0zm7.9-4q-.2-.5-1.1-1a4.6 4.6 0 00-1.8-.7 2.3 2.3 0 00-1.4.3q-.7.4-.5.8t1.1 1a4.5 4.5 0 001.7.7 2.3 2.3 0 001.5-.3q.6-.4.5-.8zm-1.8.5a4.6 4.6 0 01-1.1-.5 3 3 0 01-.9-.6c-.1-.2 0-.3.1-.4a1 1 0 01.7 0 4.5 4.5 0 011.1.4 3 3 0 01.8.6.2.2 0 010 .4.9.9 0 01-.7.1zM35 41q-.1-.4-1-1a4.6 4.6 0 00-1.8-.6 2.3 2.3 0 00-1.5.3q-.6.4-.5.8t1.2 1a4.5 4.5 0 001.7.6 2.3 2.3 0 001.4-.2q.7-.4.5-.9zm-1.8.6a4.6 4.6 0 01-1-.5 3 3 0 01-1-.7q-.1-.2.2-.4a1 1 0 01.6 0 4.4 4.4 0 011.1.5 3 3 0 01.9.6.2.2 0 01-.1.4.9.9 0 01-.7 0zm-4.3 3q-.1-.5-1.1-1a4.6 4.6 0 00-1.7-.7 2.3 2.3 0 00-1.5.3q-.6.4-.5.8t1.1 1a4.5 4.5 0 001.8.7 2.3 2.3 0 001.4-.3q.7-.4.5-.8zm-1.8.5a4.6 4.6 0 01-1-.5 3 3 0 01-1-.6q-.1-.3.1-.4a1 1 0 01.7 0 4.5 4.5 0 011.1.4 3 3 0 01.9.6.2.2 0 01-.1.4.9.9 0 01-.7.1zm18.3-10q-.1-.5-1-1a4.6 4.6 0 00-1.8-.7 2.3 2.3 0 00-1.5.3q-.6.3-.5.8t1.2 1a4.6 4.6 0 001.7.6 2.3 2.3 0 001.4-.2q.7-.4.5-.9zm-1.8.5a4.6 4.6 0 01-1-.5 3.1 3.1 0 01-1-.7q-.1-.2.2-.4a1 1 0 01.7 0 4.5 4.5 0 011 .5 3 3 0 01.9.6q.2.2 0 .4a.9.9 0 01-.8 0zm8-4q-.2-.5-1.2-1.1a4.6 4.6 0 00-1.7-.6 2.3 2.3 0 00-1.5.2q-.6.4-.5.9t1.2 1a4.6 4.6 0 001.7.6 2.3 2.3 0 001.4-.3q.7-.3.5-.8zm-1.9.4a4.6 4.6 0 01-1-.5 3.1 3.1 0 01-1-.6l.2-.4a1 1 0 01.7 0 4.5 4.5 0 011 .4 3 3 0 011 .7c0 .1 0 .3-.2.4a.9.9 0 01-.7 0zm-1.2 1.3q-.2-.5-1.1-1a4.6 4.6 0 00-1.8-.7 2.3 2.3 0 00-1.4.3q-.7.4-.5.8t1.1 1a4.6 4.6 0 001.8.7A2.3 2.3 0 0048 34q.6-.4.5-.8zm-1.8.5a4.6 4.6 0 01-1.1-.5 3.1 3.1 0 01-.9-.6l.1-.4a1 1 0 01.7 0 4.5 4.5 0 011.1.4 3 3 0 01.9.6q.1.3-.1.4a.9.9 0 01-.7 0zm-4.3 3q-.2-.4-1.1-1a4.6 4.6 0 00-1.8-.6 2.3 2.3 0 00-1.4.2q-.7.4-.5.9t1.1 1a4.5 4.5 0 001.7.6 2.3 2.3 0 001.5-.3q.6-.3.5-.8zm-1.8.5a4.6 4.6 0 01-1.1-.5 3 3 0 01-.9-.6c-.1-.2 0-.3.1-.4a1 1 0 01.7 0 4.5 4.5 0 011.1.4 3 3 0 01.8.7.2.2 0 010 .4.9.9 0 01-.7 0zm15.8-8.6q-.2-.4-1.2-1a4.6 4.6 0 00-1.7-.6 2.3 2.3 0 00-1.4.3q-.7.3-.5.8t1 1a4.6 4.6 0 001.8.6 2.3 2.3 0 001.5-.2c.4-.3.6-.6.5-.9zm-1.9.5a4.6 4.6 0 01-1-.4 3.1 3.1 0 01-.9-.7c-.1-.1 0-.3 0-.4a1 1 0 01.8 0 4.5 4.5 0 011 .5 3 3 0 011 .6.2.2 0 01-.2.4.9.9 0 01-.7 0zm8-4q-.2-.5-1.1-1a4.6 4.6 0 00-1.8-.6 2.3 2.3 0 00-1.4.2q-.7.4-.5.9t1.1 1a4.6 4.6 0 001.7.6A2.3 2.3 0 0062 26c.4-.2.6-.5.5-.8zm-1.8.5a4.6 4.6 0 01-1.1-.5 3.1 3.1 0 01-.9-.6q-.2-.2.1-.4a1 1 0 01.7 0 4.5 4.5 0 011 .4 3 3 0 011 .7.2.2 0 01-.2.4.9.9 0 01-.6 0zM59.4 27q-.1-.5-1.1-1a4.6 4.6 0 00-1.7-.7 2.3 2.3 0 00-1.5.3q-.6.4-.5.8t1.1 1a4.6 4.6 0 001.8.7 2.3 2.3 0 001.4-.3q.7-.4.5-.8zm-1.8.5a4.6 4.6 0 01-1-.5 3.1 3.1 0 01-1-.6c0-.2 0-.3.2-.4a1 1 0 01.6-.1 4.5 4.5 0 011.1.5 3 3 0 01.9.6.2.2 0 01-.1.4.9.9 0 01-.7 0zm8-4q-.2-.5-1.2-1a4.6 4.6 0 00-1.7-.7 2.3 2.3 0 00-1.5.3q-.6.3-.5.8t1.2 1a4.5 4.5 0 001.7.6 2.3 2.3 0 001.4-.2c.5-.3.6-.6.5-.9zm-1.9.5a4.6 4.6 0 01-1-.5 3.1 3.1 0 01-1-.7c0-.1 0-.3.2-.4a1 1 0 01.6 0 4.5 4.5 0 011.1.5 3 3 0 01.9.6.2.2 0 01-.1.4.9.9 0 01-.7 0zM74.2 15q.1.5 1.1 1a4.6 4.6 0 001.8.7 2.3 2.3 0 001.4-.3q.6-.4.5-.8t-1.1-1A4.6 4.6 0 0076 14a2.3 2.3 0 00-1.4.3c-.4.2-.6.5-.5.8zm1.8-.5a4.5 4.5 0 011.1.5 3 3 0 01.9.6q.1.3-.1.4a.9.9 0 01-.7 0 4.6 4.6 0 01-1.1-.4 3.1 3.1 0 01-.9-.6q-.1-.3.1-.4a1 1 0 01.7 0zM73 19.2q-.2-.5-1.1-1a4.6 4.6 0 00-1.8-.6 2.3 2.3 0 00-1.4.2q-.7.4-.5.8t1.1 1a4.5 4.5 0 001.7.7 2.3 2.3 0 001.5-.3q.6-.4.5-.8zm-1.8.5a4.6 4.6 0 01-1.1-.5 3.1 3.1 0 01-.9-.6q-.2-.3.1-.4a1 1 0 01.7 0 4.4 4.4 0 011.1.4 3 3 0 01.9.7.2.2 0 01-.1.4.9.9 0 01-.7 0zm4.8-2.3q-.1-.4-1-1a4.6 4.6 0 00-1.8-.6 2.3 2.3 0 00-1.5.3q-.6.3-.5.8t1.2 1a4.5 4.5 0 001.7.6 2.3 2.3 0 001.4-.2q.7-.4.5-.9zm-1.8.5a4.6 4.6 0 01-1-.4 3.1 3.1 0 01-1-.7q-.1-.2.2-.4a1 1 0 01.7 0 4.4 4.4 0 011 .5 3 3 0 011 .6.2.2 0 01-.2.4.9.9 0 01-.7 0zm-4.3 3q-.1-.4-1-1a4.6 4.6 0 00-1.8-.6 2.3 2.3 0 00-1.5.3c-.4.2-.6.5-.5.8s.5.6 1.2 1a4.5 4.5 0 001.7.7 2.3 2.3 0 001.4-.3q.7-.4.5-.8zm-1.8.6a4.6 4.6 0 01-1-.5 3 3 0 01-1-.7q-.1-.2.2-.4a1 1 0 01.6 0 4.5 4.5 0 011.1.5 3 3 0 01.9.6.2.2 0 01-.1.4.9.9 0 01-.7 0z" fill="#2b454e"/>
    <g data-name="Сгруппировать 220" fill="#fff">
      <path data-name="Контур 1407" d="M23 38.6a1.4 1.4 0 01-.9-1.3.6.6 0 00-.3-.5 1.8 1.8 0 00-1-.2 3.8 3.8 0 01-2.4-.7 1.1 1.1 0 010-1.8 2.5 2.5 0 01.4-.3 4.5 4.5 0 014 0 1.4 1.4 0 01.8 1.3.5.5 0 00.4.5 1.8 1.8 0 00.9.2 3.8 3.8 0 012.4.7 1.1 1.1 0 010 1.8 3.8 3.8 0 01-2.4.7 4 4 0 01-2-.4z"/>
      <path data-name="Контур 1408" d="M16.4 38.5l3-1.7a5.4 5.4 0 001.5.1 1 1 0 01.5.1.3.3 0 01.2.3 1.2 1.2 0 00.3.9l-3 1.7z"/>
      <path data-name="Контур 1409" d="M18 36a3.3 3.3 0 001 .6l-3 1.7-.6-.3a1.3 1.3 0 010-2.4l2.3-1.3a1.3 1.3 0 00.3 1.8z"/>
      <path data-name="Контур 1410" d="M22.1 38.4a2.5 2.5 0 00.5.4 4.8 4.8 0 002.3.5 5.6 5.6 0 001.2-.1L24 40.5a4.5 4.5 0 01-4.1 0l-.6-.4z"/>
      <path data-name="Контур 1411" d="M27.7 36.3a3.3 3.3 0 00-1-.5l3-1.7.6.3a1.3 1.3 0 010 2.4l-2.2 1.3a1.3 1.3 0 00-.4-1.8z"/>
      <path data-name="Контур 1412" d="M24.3 35.4a.3.3 0 01-.2-.3 1.2 1.2 0 00-.2-.9l3-1.7 2.4 1.4-3 1.7a5.4 5.4 0 00-1.5-.1 1 1 0 01-.5-.1z"/>
      <path data-name="Контур 1413" d="M23.6 34a2.5 2.5 0 00-.4-.4 5.2 5.2 0 00-3.6-.4l2.2-1.3a4.5 4.5 0 014.1 0l.7.4z"/>
    </g>
    <g data-name="Сгруппировать 221" fill="#fff">
      <path data-name="Контур 1414" d="M37.5 51.5l1.3.2-.3-.7.8-.5.3 1.2.6.4-.7.4-.6-.3-2.1-.2z"/>
      <path data-name="Контур 1415" d="M41.5 51.4a2.6 2.6 0 01-.5.2 2.4 2.4 0 01-.5.1 1.6 1.6 0 01-.4 0 1 1 0 01-.4-.1.5.5 0 01-.2-.2.3.3 0 010-.3.7.7 0 01.2-.2 1.8 1.8 0 01.4-.3 2.6 2.6 0 01.5-.3 2.4 2.4 0 01.5 0 1.6 1.6 0 01.4 0 1 1 0 01.3 0 .5.5 0 01.2.2.3.3 0 010 .3.7.7 0 01-.1.3 1.7 1.7 0 01-.4.3zm-1-.2a.5.5 0 00.3 0 .7.7 0 00.3 0 .3.3 0 00.2-.3l-.2-.1a.5.5 0 00-.3-.1.7.7 0 00-.3.1.3.3 0 00-.2.2l.2.2z"/>
      <path data-name="Контур 1416" d="M43 50.5a1.3 1.3 0 01-.6.2.9.9 0 01-.5-.1L41 50l.7-.4.8.5a.3.3 0 00.2 0 .4.4 0 00.2 0 .6.6 0 00.2-.1.2.2 0 000-.2l-.8-.5.7-.4.8.5a.2.2 0 00.1 0 .3.3 0 00.2 0l.4.2a2.8 2.8 0 01-.3.2.8.8 0 01-.6.1.5.5 0 01-.2.3 1.7 1.7 0 01-.4.3z"/>
      <path data-name="Контур 1417" d="M44.8 48.4a2.3 2.3 0 00-.4.2.3.3 0 00-.1.2l.8.5-.7.4-1.4-.8.7-.4.2.2a.3.3 0 010-.3.7.7 0 01.3-.2h.1z"/>
      <path data-name="Контур 1418" d="M45.8 47.8l.9.5-.7.5-1.8-1.1.5-.3h2l-1-.6.8-.4 1.8 1-.6.3z"/>
      <path data-name="Контур 1419" d="M48.9 47.1a1.7 1.7 0 01-.3.1 1.6 1.6 0 01-.3.1 1.1 1.1 0 01-.3 0 .6.6 0 01-.2 0 .2.2 0 01-.1-.2.3.3 0 010-.2.7.7 0 01.1-.2 1.7 1.7 0 01.3-.2 2 2 0 01.5-.2.3.3 0 00-.3 0 .9.9 0 00-.3 0 1.3 1.3 0 00-.2.3 1.4 1.4 0 00-.2.2H47a2 2 0 01.7-.7 2.5 2.5 0 01.8-.3 1 1 0 01.7.1l.3.2a.3.3 0 00.2 0l.4.2h-.1l-.1.2a1.1 1.1 0 01-.4.1.5.5 0 01-.2 0 .5.5 0 01-.2.2 1.1 1.1 0 01-.3.3zm-.2-.3a.6.6 0 00.2-.1.5.5 0 000-.1v-.1h-.2a1.4 1.4 0 00-.2 0 .4.4 0 00-.1.2v.1a.2.2 0 00.1 0 .6.6 0 00.2 0z"/>
      <path data-name="Контур 1420" d="M53.2 44.6l-.7.4-.7-.5a.3.3 0 00-.2 0 .4.4 0 00-.2 0 .3.3 0 00-.1.2.2.2 0 000 .1l.7.5-.7.4-.7-.5a.3.3 0 00-.2 0 .4.4 0 00-.2 0 .3.3 0 00-.1.2.2.2 0 000 .1l.7.4-.7.4-1.3-.7.6-.4.2.1a.4.4 0 01.1-.2 1.5 1.5 0 01.4-.3 1.5 1.5 0 01.2-.1 1.2 1.2 0 01.2 0 .9.9 0 01.2-.1.8.8 0 01.1 0 .4.4 0 01.1-.2 1.3 1.3 0 01.4-.3 1.3 1.3 0 01.3-.2 1 1 0 01.3 0 .8.8 0 01.3 0 1.2 1.2 0 01.1.1z"/>
      <path data-name="Контур 1421" d="M54.2 44a2.7 2.7 0 01-.5.3 2.2 2.2 0 01-.5 0 1.6 1.6 0 01-.4 0 1 1 0 01-.4 0 .5.5 0 01-.2-.2.3.3 0 010-.3.7.7 0 01.2-.3 1.8 1.8 0 01.4-.3 2.7 2.7 0 01.5-.2 2.4 2.4 0 01.5-.1 1.6 1.6 0 01.4 0 1 1 0 01.3.1.6.6 0 01.1 0v.1l-1.3.8a.4.4 0 00.3 0 1 1 0 00.3 0 .6.6 0 00.1-.2v-.2l.8-.2a.4.4 0 01-.1.3 1.6 1.6 0 01-.5.4zm-.6-.6a.5.5 0 00-.2 0 .7.7 0 00-.3 0 .3.3 0 00-.1.2.1.1 0 000 .1z"/>
    </g>
    <g data-name="Сгруппировать 222" style="mix-blend-mode:color-dodge;isolation:isolate">
      <path data-name="Контур 1422" d="M39.7 20.1a.9.9 0 01-.4-.3.7.7 0 010-.5 1.4 1.4 0 01.3-.6 3 3 0 01.7-.5 4.6 4.6 0 011.2-.5 3.3 3.3 0 011-.1l-.4.7a1.2 1.2 0 00-.3 0 1.9 1.9 0 00-.3 0 2.1 2.1 0 00-.3.1l-.2.2a1.2 1.2 0 00-.4.2.5.5 0 000 .3.4.4 0 000 .2.7.7 0 00.2.2 1.1 1.1 0 00.3.1 1.6 1.6 0 00.4 0 2 2 0 00.5 0 1.9 1.9 0 00.6-.3 1 1 0 00.2-.2.5.5 0 00.1-.2.2.2 0 000-.1l1.2-.3a.4.4 0 010 .3 1.2 1.2 0 01-.2.3 2.6 2.6 0 01-.3.4 3.8 3.8 0 01-.5.3 4.1 4.1 0 01-1 .4 4.7 4.7 0 01-1 .2 3.7 3.7 0 01-.8 0 2 2 0 01-.6-.3z" fill="#271273"/>
      <path data-name="Контур 1423" d="M45 17a3.5 3.5 0 00-.4.3.5.5 0 00-.2.3l1.2.7-1 .7-2.1-1.2 1-.6.3.2a.5.5 0 01.1-.4 1 1 0 01.4-.3l.1-.1z" fill="#271273"/>
      <path data-name="Контур 1424" d="M47.8 17.1a4.1 4.1 0 01-.8.4 3.5 3.5 0 01-.7.1 2.5 2.5 0 01-.7 0 1.4 1.4 0 01-.5-.1.8.8 0 01-.3-.3.5.5 0 010-.4 1 1 0 01.2-.4 2.8 2.8 0 01.6-.5 4 4 0 01.8-.4 3.7 3.7 0 01.8-.1 2.5 2.5 0 01.6 0 1.5 1.5 0 01.5.2 1.2 1.2 0 01.1 0l.1.1-2 1.2a.6.6 0 00.4 0 1.4 1.4 0 00.4-.1 1 1 0 00.2-.2c.1-.1.1-.2 0-.2l1.2-.4a.7.7 0 01-.2.5 2.4 2.4 0 01-.7.6zm-.8-1a.8.8 0 00-.4 0 1 1 0 00-.5.1.5.5 0 00-.2.3.2.2 0 000 .2z" fill="#271273"/>
      <path data-name="Контур 1425" d="M50.4 15.6a3 3 0 01-.6.3 3 3 0 01-.7.1 2.5 2.5 0 01-.6 0 1.6 1.6 0 01-.6-.2.9.9 0 01-.3-.3.5.5 0 010-.4.7.7 0 01.1-.3 1.7 1.7 0 01.5-.4 2.5 2.5 0 01.6-.2 2 2 0 01.6 0l-1.1-.7 1-.6 2 1.1a.4.4 0 00.3.1.5.5 0 00.2 0l.6.3a4.1 4.1 0 01-.4.3 1.2 1.2 0 01-1 .2.5.5 0 01-.2.3 1.8 1.8 0 01-.4.4zm-.3-.5a.5.5 0 00.3-.4l-.4-.2a1.4 1.4 0 00-.5 0 1.2 1.2 0 00-.4.1.7.7 0 00-.1.1.3.3 0 00-.1.2.2.2 0 000 .1.3.3 0 00.2.2.8.8 0 00.4 0 1.3 1.3 0 00.6-.1z" fill="#271273"/>
      <path data-name="Контур 1426" d="M50 13.2l-.6-.4 1.1-.6.6.4zm2.3 1.3l-2-1.2 1-.6 2 1.2z" fill="#271273"/>
      <path data-name="Контур 1427" d="M55.3 12.6a3.9 3.9 0 01-.4.4 3.3 3.3 0 01-.5.3 2.8 2.8 0 01-.3.1 1.8 1.8 0 01-.4.1 1.3 1.3 0 01-.4 0 1 1 0 01-.3 0l-1-.6-.3.2-.6-.3.4-.2-.7-.4 1.1-.6.6.3.6-.3.6.3-.6.4.7.4a.3.3 0 00.2 0 .6.6 0 00.2 0 1.4 1.4 0 00.3-.3z" fill="#271273"/>
      <path data-name="Контур 1428" d="M54.3 11.7a.9.9 0 01-.4-.4.7.7 0 010-.5 1.3 1.3 0 01.3-.5 3 3 0 01.7-.6 4.6 4.6 0 011.2-.4 3.3 3.3 0 011-.2l-.4.8a1.2 1.2 0 00-.3 0 1.9 1.9 0 00-.3 0 2.2 2.2 0 00-.3.1 2.6 2.6 0 00-.2.1 1.2 1.2 0 00-.4.3.5.5 0 000 .3.3.3 0 000 .2.6.6 0 00.2.2 1.2 1.2 0 00.3 0 1.6 1.6 0 00.5.1 2 2 0 00.4 0 2 2 0 00.4-.2 1.7 1.7 0 00.3-.2 1 1 0 00.1-.1.5.5 0 00.1-.2.2.2 0 000-.2l1.3-.3a.4.4 0 010 .3 1.2 1.2 0 01-.3.4 2.5 2.5 0 01-.3.3 3.8 3.8 0 01-.5.4 4.2 4.2 0 01-1 .4 4.8 4.8 0 01-.9.1 3.7 3.7 0 01-.9 0 2 2 0 01-.6-.2z" fill="#271273"/>
      <path data-name="Контур 1429" d="M60 10a2.5 2.5 0 01-.4.2 2.4 2.4 0 01-.5.2 1.7 1.7 0 01-.4 0 .9.9 0 01-.4-.1.4.4 0 01-.1-.3.4.4 0 010-.2 1 1 0 01.3-.4 2.7 2.7 0 01.4-.3 3 3 0 01.7-.3.5.5 0 00-.4 0 1.4 1.4 0 00-.5.1 2 2 0 00-.4.3 2.1 2.1 0 00-.3.4l-.7-.1a3.1 3.1 0 011-1 3.9 3.9 0 011.3-.4 1.5 1.5 0 011 .1l.5.2a.4.4 0 00.2.1.5.5 0 00.2 0l.6.3a3.9 3.9 0 01-.4.3 1.7 1.7 0 01-.5.2.8.8 0 01-.4 0h-.1a.8.8 0 01-.2.4 1.6 1.6 0 01-.5.3zm-.2-.5a1 1 0 00.2 0 .7.7 0 00.1-.2.2.2 0 000-.1L60 9l-.3.1-.2.1a.7.7 0 00-.3.3.1.1 0 000 .1.4.4 0 00.3 0 .9.9 0 00.3 0z" fill="#271273"/>
      <path data-name="Контур 1430" d="M62.5 7a3.5 3.5 0 00-.5.3.5.5 0 00-.2.3l1.2.7-1 .6-2.1-1.2 1-.5.3.2a.5.5 0 01.1-.4 1 1 0 01.4-.4 1.4 1.4 0 01.1 0z" fill="#271273"/>
      <path data-name="Контур 1431" d="M65 7.2a3 3 0 01-.7.3 3.1 3.1 0 01-.6.1 2.5 2.5 0 01-.7 0 1.6 1.6 0 01-.5-.2.9.9 0 01-.3-.3.5.5 0 010-.4.7.7 0 010-.3 1.7 1.7 0 01.5-.4 2.5 2.5 0 01.6-.2 2 2 0 01.7 0L62.9 5l1-.6 2 1.1a.4.4 0 00.2 0 .5.5 0 00.2 0l.7.4a3.9 3.9 0 01-.4.3 1.2 1.2 0 01-1 .2.5.5 0 01-.2.3 1.8 1.8 0 01-.4.4zm-.4-.5a.5.5 0 00.3-.4l-.3-.3a1.4 1.4 0 00-.5 0 1.2 1.2 0 00-.4.2.7.7 0 00-.2.1.3.3 0 000 .2.3.3 0 000 .1.3.3 0 00.1.2.8.8 0 00.5 0 1.3 1.3 0 00.5-.1z" fill="#19272b"/>
    </g>
  </g>
</svg>
