<svg data-name="Сгруппировать 199" xmlns="http://www.w3.org/2000/svg" width="62" height="66.6">
  <defs>
    <linearGradient id="a" x1="-.2" y1="1" x2="1.9" gradientUnits="objectBoundingBox">
      <stop offset="0" stop-color="#f947ff"/>
      <stop offset=".1" stop-color="#f448ff"/>
      <stop offset=".2" stop-color="#e84bff"/>
      <stop offset=".3" stop-color="#d450ff"/>
      <stop offset=".3" stop-color="#b757ff"/>
      <stop offset=".4" stop-color="#9260ff"/>
      <stop offset=".5" stop-color="#686bff"/>
      <stop offset=".7" stop-color="#007fff"/>
      <stop offset="1" stop-color="#00d4ff"/>
    </linearGradient>
    <linearGradient id="b" x1="-.9" y1="1.1" x2="1.5" y2="-.1" gradientUnits="objectBoundingBox">
      <stop offset="0" stop-color="#f947ff"/>
      <stop offset=".1" stop-color="#f448ff"/>
      <stop offset=".2" stop-color="#e84bff"/>
      <stop offset=".3" stop-color="#d450ff"/>
      <stop offset=".3" stop-color="#b757ff"/>
      <stop offset=".4" stop-color="#9260ff"/>
      <stop offset=".5" stop-color="#686bff"/>
      <stop offset=".7" stop-color="#2759ff"/>
      <stop offset="1" stop-color="#2759ff"/>
    </linearGradient>
    <linearGradient id="c" x1=".5" y1="1" x2=".5" gradientUnits="objectBoundingBox">
      <stop offset="0" stop-color="#f7f7f7"/>
      <stop offset=".4" stop-color="#f7f7f7"/>
      <stop offset=".5" stop-color="#f7f7f7"/>
      <stop offset=".6" stop-color="#f7f7f7" stop-opacity=".9"/>
      <stop offset=".7" stop-color="#f8f8f8" stop-opacity=".8"/>
      <stop offset=".8" stop-color="#f8f8f8" stop-opacity=".8"/>
      <stop offset=".8" stop-color="#f9f9f9" stop-opacity=".7"/>
      <stop offset=".9" stop-color="#fafafa" stop-opacity=".5"/>
      <stop offset=".9" stop-color="#fcfcfc" stop-opacity=".4"/>
      <stop offset="1" stop-color="#fdfdfd" stop-opacity=".2"/>
      <stop offset="1" stop-color="#fefefe" stop-opacity="0"/>
      <stop offset="1" stop-color="#fff" stop-opacity="0"/>
    </linearGradient>
    <linearGradient id="d" x1="-1.7" y1="1" x2="2.5" y2="-1" gradientUnits="objectBoundingBox">
      <stop offset="0" stop-color="#f947ff"/>
      <stop offset="0" stop-color="#f448ff"/>
      <stop offset=".2" stop-color="#e84bff"/>
      <stop offset=".3" stop-color="#d450ff"/>
      <stop offset=".3" stop-color="#b757ff"/>
      <stop offset=".4" stop-color="#9260ff"/>
      <stop offset=".5" stop-color="#686bff"/>
      <stop offset=".7" stop-color="#007fff"/>
      <stop offset="1" stop-color="#00d4ff"/>
    </linearGradient>
  </defs>
  <path data-name="Контур 1292" d="M259 908.9l8.5 66.6A61 61 0 01239 951a65.3 65.3 0 01-9.2-27.9s5.2-5.5 18.3-10.7a105.6 105.6 0 0111-3.6z" transform="translate(-229.8 -908.9)" fill-rule="evenodd" fill="url(#a)"/>
  <path data-name="Контур 1293" d="M289.4 948.5a62.4 62.4 0 01-9.8 17 53.4 53.4 0 01-10.4 10l-8.4-66.6c21.9.4 31.9 6.5 31.9 6.5a64.5 64.5 0 01-3.3 33.1z" transform="translate(-231.5 -908.9)" fill-rule="evenodd" fill="url(#b)"/>
  <path data-name="Контур 1294" d="M22.8 7.2l-1.2 37-12.4-2A65.3 65.3 0 010 14.3S5.3 8.8 18.3 3.6z" fill="#fbf9fa" fill-rule="evenodd" opacity=".5" style="mix-blend-mode:soft-light;isolation:isolate"/>
  <path data-name="Контур 1295" d="M57.1 10.5s-8.5-5.3-27.2-5.6c-18 5-25 12.2-25 12.2 3.6 34.6 32.2 44.6 32.2 44.6s25.2-16.9 20-51.2z" fill="#2b454e" fill-rule="evenodd"/>
  <path data-name="Контур 1296" d="M286.6 922.7l-.2-1.7s-8.2-5-26.2-5.4a88.6 88.6 0 00-9 3c-10.7 4.2-15 8.8-15 8.8a59.4 59.4 0 001.5 8.7 51.2 51.2 0 005.8 13.8 50 50 0 0023.6 20.4s23.4-15.7 19.5-47.6z" transform="translate(-230.1 -909.3)" fill-rule="evenodd" fill="url(#c)"/>
  <path data-name="Контур 1297" d="M56.4 12.5C45.7 7.1 30.3 7.4 30.3 7.4a72.8 72.8 0 00-23 11.4c-.5 2.3.3 7.8.3 8A59.3 59.3 0 016 18.2s4.4-4.5 15.2-8.8a88.6 88.6 0 018.9-3c18 .3 26.2 5.4 26.2 5.4v.8z" fill="#2b454e" fill-rule="evenodd"/>
  <path data-name="Контур 1298" d="M256.5 941.3l1.1-2.7 7 3.1 7.4-10.2 1.9 1.2-8.5 15.5z" transform="translate(-231.3 -910.2)" fill-rule="evenodd" fill="url(#d)"/>
</svg>
