<svg data-name="Сгруппировать 219" xmlns="http://www.w3.org/2000/svg" xmlns:xlink="http://www.w3.org/1999/xlink" width="76.8" height="65">
  <defs>
    <linearGradient id="a" x1=".1" y1=".1" x2="1" y2=".8" gradientUnits="objectBoundingBox">
      <stop offset=".1" stop-color="#fff"/>
      <stop offset=".2" stop-color="#f2f1f1"/>
      <stop offset=".3" stop-color="#e6e5e5"/>
      <stop offset="1" stop-color="#2b454e"/>
    </linearGradient>
    <linearGradient id="f" x1="1.1" y1=".9" x2="0" y2=".2" xlink:href="#a"/>
    <linearGradient id="b" x1="-.1" y1=".5" x2="3.8" y2=".3" gradientUnits="objectBoundingBox">
      <stop offset="0" stop-color="#6b24d6"/>
      <stop offset=".3" stop-color="#7733dc"/>
      <stop offset=".8" stop-color="#965bec"/>
      <stop offset="1" stop-color="#a56ef4"/>
    </linearGradient>
    <linearGradient id="g" x1="-1.4" y1=".7" x2="2.5" y2=".3" xlink:href="#b"/>
    <linearGradient id="h" x1=".7" y1="-.3" x2=".5" y2=".6" xlink:href="#b"/>
    <linearGradient id="c" x1=".3" y1=".1" x2=".8" y2=".9" gradientUnits="objectBoundingBox">
      <stop offset="0" stop-color="#ff3eff"/>
      <stop offset="1" stop-color="#265aff"/>
    </linearGradient>
    <linearGradient id="j" x1="0" y1=".5" x2="1" y2=".5" xlink:href="#c"/>
    <linearGradient id="l" x1=".4" y1=".1" x2=".7" y2=".7" xlink:href="#a"/>
    <linearGradient id="m" x1=".2" y1="0" x2=".9" y2=".9" xlink:href="#c"/>
    <linearGradient id="n" x1=".8" y1="1" x2=".1" y2="0" xlink:href="#a"/>
    <linearGradient id="o" x1=".8" y1="1" x2="0" y2=".1" xlink:href="#c"/>
    <linearGradient id="r" x1="0" y1=".5" x2="1" y2=".5" xlink:href="#d"/>
    <radialGradient id="d" cx="1.7" cy=".7" r=".4" gradientTransform="matrix(2.983 0 0 1 15.1 0)" gradientUnits="objectBoundingBox">
      <stop offset="0" stop-color="#fff"/>
      <stop offset="1"/>
    </radialGradient>
    <radialGradient id="e" cx=".4" cy=".2" r=".4" gradientTransform="matrix(2.69 0 0 1 13 0)" gradientUnits="objectBoundingBox">
      <stop offset="0" stop-color="#8770b8"/>
      <stop offset="1" stop-color="#fff"/>
    </radialGradient>
    <radialGradient id="i" cx=".3" cy=".6" r=".7" gradientTransform="matrix(1.132 0 0 1 .3 0)" gradientUnits="objectBoundingBox">
      <stop offset=".6" stop-color="#fff"/>
      <stop offset=".6" stop-color="#faf9fc"/>
      <stop offset=".7" stop-color="#eeebf5"/>
      <stop offset=".8" stop-color="#dad2e9"/>
      <stop offset=".9" stop-color="#bdb1d8"/>
      <stop offset="1" stop-color="#9985c2"/>
      <stop offset="1" stop-color="#8770b8"/>
    </radialGradient>
    <radialGradient id="k" cx=".5" cy=".5" r=".4" gradientTransform="matrix(1.514 0 0 1 2.2 0)" xlink:href="#d"/>
    <radialGradient id="p" cx=".5" cy=".5" r=".4" gradientTransform="matrix(1.523 0 0 1 1 0)" xlink:href="#d"/>
    <radialGradient id="q" cx="1" cy=".3" r=".6" gradientTransform="matrix(1.285 0 0 1 .4 0)" xlink:href="#e"/>
    <radialGradient id="s" cx=".5" cy=".5" r=".4" gradientTransform="matrix(1.514 0 0 1 7.6 0)" xlink:href="#d"/>
  </defs>
  <g data-name="Сгруппировать 218">
    <g data-name="Сгруппировать 213">
      <path data-name="Контур 1381" d="M1112 959l-.1-.2c-.6-4.9-2.9-8.6-2.9-13.3V940l-7.8-4.5-4.3 2.5s5.9 11.1 5.2 15.4a5.6 5.6 0 002.5 4.4h.1l.7 6.2 5.6-3.2a1.6 1.6 0 001-1.7z" transform="translate(-1046.8 -908.3)" fill="url(#a)"/>
      <path data-name="Контур 1382" d="M1103.2 964.2l-4.8-2.7a5.6 5.6 0 01-2.5-4.4 89.4 89.4 0 001-13.4V938l7.8 4.6v5.5a113.5 113.5 0 001 14.3v.3c0 1.6-1.1 2.2-2.5 1.4z" transform="translate(-1046.8 -908.5)" fill="url(#f)"/>
      <path data-name="Контур 1383" d="M1106 962.4a113.5 113.5 0 01-1-14.3v-5.5l-7.9-4.6v.4l7.5 4.3v5.6a113.5 113.5 0 001 14.3v.2a1.8 1.8 0 01-.7 1.6c.6 0 1.1-.7 1.1-1.7z" transform="translate(-1046.9 -908.5)" fill="url(#d)" style="mix-blend-mode:color-dodge;isolation:isolate"/>
      <g data-name="Сгруппировать 212">
        <path data-name="Контур 1384" d="M1102.4 948.1l-.6 5.5 1.4-.9v-5z" transform="translate(-1047.1 -909)" fill="url(#b)"/>
        <path data-name="Контур 1385" d="M1102.3 948l-.7 5.5-2.9-1.6.7-5.5z" transform="translate(-1047 -909)" fill="url(#g)"/>
        <path data-name="Контур 1386" d="M1099.4 946.4l3 1.6.7-.5-2.9-1.6z" transform="translate(-1047 -908.9)" fill="url(#h)"/>
      </g>
      <path data-name="Контур 1387" d="M1103.2 964.2l-4.8-2.7a5.6 5.6 0 01-2.5-4.4 89.4 89.4 0 001-13.4V938l7.8 4.6v5.5a113.5 113.5 0 001 14.3v.3c0 1.6-1.1 2.2-2.5 1.4z" transform="translate(-1046.8 -908.5)" fill="url(#e)" style="mix-blend-mode:multiply;isolation:isolate"/>
    </g>
    <g data-name="Сгруппировать 214">
      <path data-name="Контур 1388" d="M1123.6 925.9c0 3.1-1.1 5.4-2.9 6.5l-9.4 5.5c-1.8 1-.6-1.3-3.5-3a22.7 22.7 0 01-10.3-17.7c0-3.2-3-3.2-1.1-4.3l9.7-5.6c1.9-1 4.4-.8 7.2.8a22.7 22.7 0 0110.3 17.8z" transform="translate(-1046.8 -906.7)" fill="url(#c)"/>
      <path data-name="Контур 1389" d="M1123.6 925.9c0 3.1-1.1 5.4-2.9 6.5l-9.4 5.5c-1.8 1-.6-1.3-3.5-3a22.7 22.7 0 01-10.3-17.7c0-3.2-3-3.2-1.1-4.3l9.7-5.6c1.9-1 4.4-.8 7.2.8a22.7 22.7 0 0110.3 17.8z" transform="translate(-1046.8 -906.7)" fill="url(#i)" style="mix-blend-mode:multiply;isolation:isolate"/>
      <path data-name="Контур 1390" d="M1113.8 931.8c0 6.5-4.6 9.2-10.3 5.9s-10.3-11.3-10.3-17.8 4.6-9.1 10.3-5.8 10.3 11.2 10.3 17.7z" transform="translate(-1046.6 -907)" fill="url(#j)"/>
      <path data-name="Контур 1391" d="M1104.2 913.8c-2.7-1.6-5.2-1.8-7-.9a8.1 8.1 0 016.1 1.2 22.7 22.7 0 0110.3 17.8c0 3.4-1.2 5.7-3.2 6.7 2.5-.7 4.1-3.2 4.1-7 0-6.6-4.6-14.5-10.3-17.8z" transform="translate(-1046.9 -907)" fill="url(#k)" style="mix-blend-mode:color-dodge;isolation:isolate"/>
    </g>
    <g data-name="Сгруппировать 215">
      <path data-name="Контур 1392" d="M1110.2 932.5c0 3.1-1.1 5.3-2.8 6.4l-4 2.3a52.6 52.6 0 00-21.8 24.2c-3 1.8-27.5-39.2-24.5-41a53.5 53.5 0 0030.8-6.8l5.3-3c1.8-1 4.3-.9 7 .7a22 22 0 0110 17.2z" transform="translate(-1044.6 -907.1)" fill="url(#l)"/>
    </g>
    <g data-name="Сгруппировать 216">
      <path data-name="Контур 1393" d="M1083.5 958c0 5.5-2 9.4-5 11.3l-3.1 2c-3.3 1.8-1.2-2.3-6.1-5.2a39.5 39.5 0 01-18-30.9c0-5.6-5.1-5.6-2-7.5l3.8-2c3.2-1.8 7.6-1.5 12.5 1.3 9.9 5.8 17.9 19.6 17.9 31z" transform="translate(-1044.1 -907.7)" fill="url(#m)"/>
      <path data-name="Контур 1394" d="M1079.7 960.2c0 11.3-8 15.9-18 10.2s-17.8-19.6-17.8-31 8-15.9 17.9-10.1 18 19.5 18 30.9z" transform="translate(-1043.9 -907.8)" fill="url(#j)"/>
      <path data-name="Контур 1395" d="M1078.6 959.6c0 10.6-7.5 14.9-16.7 9.5s-16.8-18.3-16.8-28.9 7.5-14.9 16.8-9.5 16.7 18.3 16.7 28.9z" transform="translate(-1044 -908)" fill="url(#n)"/>
      <path data-name="Контур 1396" d="M1065.2 967.8a37 37 0 01-16.8-29c0-4.8 1.6-8.4 4.2-10.3-4.5.9-7.5 5-7.5 11.7a37 37 0 0016.8 29c5 2.8 9.4 2.9 12.5.7-2.7.5-5.8-.2-9.2-2.1z" transform="translate(-1044 -908)" fill="url(#o)"/>
      <path data-name="Контур 1397" d="M1062.7 928.8c-4.7-2.7-9.6-2.6-12-1.5 3-.8 7.3-.3 11.3 2 10 5.7 18 19.5 18 30.9 0 6-2.8 10.1-6.3 11.8 3.7-1.3 7-5.6 7-12.3 0-11.4-8.1-25.2-18-31z" transform="translate(-1044.3 -907.8)" fill="url(#p)" style="mix-blend-mode:color-dodge;isolation:isolate"/>
      <path data-name="Контур 1398" d="M1078.6 959.6c0 10.6-7.5 14.9-16.7 9.5s-16.8-18.3-16.8-28.9 7.5-14.9 16.8-9.5 16.7 18.3 16.7 28.9z" transform="translate(-1044 -908)" fill="url(#q)" style="mix-blend-mode:multiply;isolation:isolate"/>
    </g>
    <g data-name="Сгруппировать 217">
      <path data-name="Контур 1399" d="M27.3 31.5l-8.2 6.7c-.5.3.4.3.4 1.2a6.3 6.3 0 002.8 4.9c.8.4.5 1 1 .8l9.4-3.6a40.5 40.5 0 00-5.4-10z" fill="#19272b"/>
      <path data-name="Контур 1400" d="M24 43.3c0 1.8-1.3 2.6-2.8 1.6a6.3 6.3 0 01-2.9-4.9c0-1.8 1.3-2.5 2.9-1.6a6.3 6.3 0 012.8 5z" fill="#19272b"/>
      <path data-name="Контур 1401" d="M1068.1 951.8c0 1.3-.9 1.8-2 1.1a4.3 4.3 0 01-1.9-3.3c0-1.3.9-1.8 2-1.1a4.3 4.3 0 012 3.3z" transform="translate(-1045 -909)" opacity=".6" fill="url(#r)" style="mix-blend-mode:screen;isolation:isolate"/>
      <path data-name="Контур 1402" d="M1066.3 947.3a2 2 0 00-2-.2 2.2 2.2 0 011.8.3 6.3 6.3 0 012.8 4.9 2 2 0 01-.9 1.9c.7-.2 1.2-1 1.2-2a6.3 6.3 0 00-2.9-5z" transform="translate(-1045 -909)" fill="url(#s)" style="mix-blend-mode:screen;isolation:isolate"/>
    </g>
  </g>
</svg>
