<svg xmlns="http://www.w3.org/2000/svg" width="20.777" height="14.042" viewBox="0 0 20.777 14.042">
  <g id="Сгруппировать_162" data-name="Сгруппировать 162" transform="translate(-916 -3967.228)">
    <g id="email" transform="translate(916 3963.861)">
      <g id="Сгруппировать_157" data-name="Сгруппировать 157">
        <g id="Сгруппировать_156" data-name="Сгруппировать 156">
          <path id="Контур_139" data-name="Контур 139" d="M5.579,3.367H5.574a.406.406,0,1,0,0,.812h.005a.406.406,0,1,0,0-.812Z" fill="#fff"/>
        </g>
      </g>
      <g id="Сгруппировать_159" data-name="Сгруппировать 159">
        <g id="Сгруппировать_158" data-name="Сгруппировать 158">
          <path id="Контур_140" data-name="Контур 140" d="M19.154,3.367H7.388a.406.406,0,0,0,0,.812H19.154c.021,0,.042,0,.062,0L18.082,5.316H12.789a.406.406,0,1,0,0,.812H17.27l-5.656,5.656a1.735,1.735,0,0,1-2.451,0l-7.6-7.6c.021,0,.041,0,.062,0H3.774a.406.406,0,0,0,0-.812H1.623A1.625,1.625,0,0,0,0,4.99v10.8A1.625,1.625,0,0,0,1.623,17.41h17.53a1.625,1.625,0,0,0,1.623-1.623V4.99A1.625,1.625,0,0,0,19.154,3.367ZM.812,15.786V4.99a.805.805,0,0,1,.074-.336L6.533,10.3.84,16A.808.808,0,0,1,.812,15.786Zm18.342.812H1.623a.808.808,0,0,1-.209-.028l5.693-5.693,1.482,1.482a2.548,2.548,0,0,0,3.6,0l1.482-1.482,5.693,5.693A.808.808,0,0,1,19.154,16.6Zm.812-.812a.808.808,0,0,1-.028.209L14.243,10.3l5.648-5.648a.805.805,0,0,1,.074.336Z" fill="#fff"/>
        </g>
      </g>
      <g id="Сгруппировать_161" data-name="Сгруппировать 161">
        <g id="Сгруппировать_160" data-name="Сгруппировать 160">
          <path id="Контур_141" data-name="Контур 141" d="M11.09,5.316h-.006a.406.406,0,1,0,0,.812h.006a.406.406,0,0,0,0-.812Z" fill="#fff"/>
        </g>
      </g>
    </g>
  </g>
</svg>
