<svg xmlns="http://www.w3.org/2000/svg" width="14.482" height="10.468" viewBox="0 0 14.482 10.468">
  <path id="big-envelope" d="M14.482,71.063V61.905a.652.652,0,0,0-.171-.44l-.005-.006a.653.653,0,0,0-.479-.209H.655a.653.653,0,0,0-.478.209l-.006.006a.652.652,0,0,0-.171.44v9.157a.652.652,0,0,0,.171.44l0,.005a.653.653,0,0,0,.479.21H13.826a.653.653,0,0,0,.479-.209l.005-.006A.652.652,0,0,0,14.482,71.063ZM3.212,68.386a.328.328,0,0,0-.463.009L.655,70.576V62.392l3.929,4.092L3.523,67.589A.328.328,0,0,0,4,68.043l1.043-1.086,1.512,1.575a.953.953,0,0,0,1.38,0l1.512-1.575,3.942,4.106H1.1l2.125-2.213A.328.328,0,0,0,3.212,68.386Zm4.246-.308a.3.3,0,0,1-.435,0L1.1,61.905H13.385ZM9.9,66.484l3.929-4.092v8.184Z" transform="translate(0 -61.25)" fill="#fff"/>
</svg>
