<svg width="72" height="72" viewBox="0 0 72 72" fill="none" xmlns="http://www.w3.org/2000/svg">
<path d="M64.4221 34.1015H72.0011C72.0011 14.6615 57.3244 0 37.8579 0V7.57894C53.2507 7.57894 64.4221 18.7314 64.4221 34.1015Z" fill="url(#paint0_linear)"/>
<path d="M37.8958 22.7368C45.8651 22.7368 49.2642 26.136 49.2642 34.1053H56.8432C56.8432 21.8842 50.1168 15.1579 37.8958 15.1579V22.7368ZM50.8634 43.3629C50.1352 42.7011 49.1784 42.3482 48.1948 42.3786C47.2113 42.409 46.2781 42.8204 45.5922 43.5259L36.524 52.8518C34.3413 52.4349 29.9531 51.0669 25.436 46.5613C20.919 42.0404 19.551 37.6408 19.1455 35.4733L28.4638 26.4013C29.1702 25.7159 29.5822 24.7825 29.6126 23.7987C29.643 22.8149 29.2895 21.8578 28.6267 21.1301L14.6246 5.73348C13.9616 5.00346 13.0402 4.56065 12.056 4.4991C11.0717 4.43754 10.1023 4.76208 9.35349 5.4038L1.13033 12.456C0.475174 13.1135 0.084132 13.9887 0.0313843 14.9154C-0.0254578 15.8627 -1.10925 38.304 16.292 55.7128C31.4726 70.8897 50.4882 72 55.7253 72C56.4907 72 56.9606 71.9772 57.0857 71.9697C58.0123 71.9178 58.8869 71.525 59.5413 70.8669L66.5897 62.64C67.2319 61.8917 67.5571 60.9225 67.4962 59.9383C67.4354 58.9541 66.9933 58.0323 66.2638 57.3688L50.8634 43.3629Z" fill="url(#paint1_linear)"/>
<defs>
<linearGradient id="paint0_linear" x1="37.8579" y1="16.9633" x2="69.8363" y2="16.9706" gradientUnits="userSpaceOnUse">
<stop stop-color="#FC3EFF"/>
<stop offset="1" stop-color="#4859FF"/>
</linearGradient>
<linearGradient id="paint1_linear" x1="4.36898e-07" y1="38.0727" x2="63.2236" y2="38.0872" gradientUnits="userSpaceOnUse">
<stop stop-color="#FC3EFF"/>
<stop offset="1" stop-color="#4859FF"/>
</linearGradient>
</defs>
</svg>
