<svg xmlns="http://www.w3.org/2000/svg" width="150.888" height="45.886" viewBox="0 0 150.888 45.886">
  <g id="Сгруппировать_310" data-name="Сгруппировать 310" transform="translate(-166.276 23.971)">
    <g id="Сгруппировать_302" data-name="Сгруппировать 302" transform="translate(166.276 -24)">
      <rect id="Прямоугольник_50" data-name="Прямоугольник 50" width="150.888" height="45.886" rx="4.961" transform="translate(0 0.029)" fill="#2b454e"/>
      <g id="Сгруппировать_298" data-name="Сгруппировать 298" transform="translate(8.452 7.164)">
        <g id="Сгруппировать_297" data-name="Сгруппировать 297">
          <g id="Сгруппировать_296" data-name="Сгруппировать 296">
            <g id="Сгруппировать_295" data-name="Сгруппировать 295">
              <path id="Контур_2047" data-name="Контур 2047" d="M575.728,493.476l-5.749-3.317-4.728,4.571,4.321,4.176,6.156-3.553a1.083,1.083,0,0,0,0-1.877Z" transform="translate(-547.873 -478.838)" fill="#fff"/>
              <path id="Контур_2048" data-name="Контур 2048" d="M571.225,491.125l-6.326-3.652-13.864-7.1,15.659,15.137Z" transform="translate(-550.095 -480.368)" fill="#fff"/>
              <path id="Контур_2049" data-name="Контур 2049" d="M551.234,509.677l13.658-7.523,5.9-3.4-4.124-3.987Z" transform="translate(-550.064 -478.119)" fill="#fff"/>
              <path id="Контур_2050" data-name="Контур 2050" d="M550.236,480.9l-.015,30.57,15.82-15.292Z" transform="translate(-550.222 -480.285)" fill="#fff"/>
            </g>
          </g>
        </g>
      </g>
      <g id="Сгруппировать_301" data-name="Сгруппировать 301" transform="translate(40.771 11.103)">
        <g id="Сгруппировать_300" data-name="Сгруппировать 300" transform="translate(0 11.631)">
          <path id="Контур_2065" data-name="Контур 2065" d="M589.167,503.582a15.768,15.768,0,0,1-2.074.607,11.3,11.3,0,0,1-2.576.3,6.446,6.446,0,0,1-4.66-1.618,6.63,6.63,0,0,1,.016-8.848,6.485,6.485,0,0,1,4.737-1.665,11.246,11.246,0,0,1,2.192.208,9.8,9.8,0,0,1,2.318.827v2.732h-.337q-.22-.165-.643-.466a8.1,8.1,0,0,0-.814-.513,5.4,5.4,0,0,0-1.061-.43,4.5,4.5,0,0,0-1.287-.18,4.274,4.274,0,0,0-1.449.235,3.394,3.394,0,0,0-1.168.72,3.306,3.306,0,0,0-.778,1.2,4.522,4.522,0,0,0-.287,1.671,4,4,0,0,0,1.027,2.96,4.11,4.11,0,0,0,3.029,1.026c.116,0,.242,0,.38-.008s.265-.012.38-.023v-2.287h-2.326v-2.2h5.379Z" transform="translate(-578.173 -492.064)" fill="#fff"/>
          <path id="Контур_2066" data-name="Контур 2066" d="M598.951,499.474a4.589,4.589,0,0,1-1.264,3.418,5.673,5.673,0,0,1-7.1,0,5.257,5.257,0,0,1,.007-6.849,5.675,5.675,0,0,1,7.1.008A4.614,4.614,0,0,1,598.951,499.474Zm-3.469,2.137a2.237,2.237,0,0,0,.412-.811,4.922,4.922,0,0,0,.138-1.311,5.044,5.044,0,0,0-.142-1.3,2.258,2.258,0,0,0-.391-.837,1.369,1.369,0,0,0-.6-.456,2.161,2.161,0,0,0-.76-.133,2.192,2.192,0,0,0-.725.111,1.453,1.453,0,0,0-.607.438,2.254,2.254,0,0,0-.41.837,4.958,4.958,0,0,0-.153,1.339,5.15,5.15,0,0,0,.133,1.25,2.2,2.2,0,0,0,.392.849,1.483,1.483,0,0,0,.6.446,2.221,2.221,0,0,0,1.526.012A1.338,1.338,0,0,0,595.482,501.611Z" transform="translate(-576.431 -491.683)" fill="#fff"/>
          <path id="Контур_2067" data-name="Контур 2067" d="M608.473,499.474a4.59,4.59,0,0,1-1.265,3.418,5.673,5.673,0,0,1-7.1,0,5.255,5.255,0,0,1,.008-6.849,5.675,5.675,0,0,1,7.1.008A4.614,4.614,0,0,1,608.473,499.474ZM605,501.611a2.235,2.235,0,0,0,.411-.811,4.919,4.919,0,0,0,.138-1.311,5.107,5.107,0,0,0-.141-1.3,2.274,2.274,0,0,0-.391-.837,1.379,1.379,0,0,0-.6-.456,2.153,2.153,0,0,0-.76-.133,2.179,2.179,0,0,0-.724.111,1.445,1.445,0,0,0-.607.438,2.221,2.221,0,0,0-.41.837,4.956,4.956,0,0,0-.153,1.339,5.213,5.213,0,0,0,.132,1.25,2.2,2.2,0,0,0,.392.849,1.491,1.491,0,0,0,.6.446,2.224,2.224,0,0,0,1.527.012A1.345,1.345,0,0,0,605,501.611Z" transform="translate(-574.943 -491.683)" fill="#fff"/>
          <path id="Контур_2068" data-name="Контур 2068" d="M617.553,502.852a5.4,5.4,0,0,1-.353,2.082,3.1,3.1,0,0,1-.986,1.324,4.043,4.043,0,0,1-1.53.7,8.713,8.713,0,0,1-2.025.215,14.553,14.553,0,0,1-1.8-.11,13.735,13.735,0,0,1-1.539-.266v-2.2h.345a8.612,8.612,0,0,0,1.258.372,6.084,6.084,0,0,0,1.33.168,4.569,4.569,0,0,0,1.271-.145,1.7,1.7,0,0,0,.747-.411,1.486,1.486,0,0,0,.352-.643,3.524,3.524,0,0,0,.11-.939v-.164a4.173,4.173,0,0,1-1.126.657,3.735,3.735,0,0,1-1.377.243,3.629,3.629,0,0,1-2.847-1.112,4.923,4.923,0,0,1-1-3.381,5.22,5.22,0,0,1,.305-1.88,4.176,4.176,0,0,1,.86-1.378,3.548,3.548,0,0,1,1.271-.853,4.085,4.085,0,0,1,1.545-.305,4.6,4.6,0,0,1,1.294.169,4.164,4.164,0,0,1,1.06.465l.1-.391h2.74Zm-2.826-1.762V497.1a2.68,2.68,0,0,0-.594-.162,3.992,3.992,0,0,0-.632-.059,2.084,2.084,0,0,0-1.664.639,2.624,2.624,0,0,0-.555,1.781,2.568,2.568,0,0,0,.473,1.769,1.834,1.834,0,0,0,1.4.5,2.638,2.638,0,0,0,.828-.133A3.092,3.092,0,0,0,614.727,501.089Z" transform="translate(-573.453 -491.679)" fill="#fff"/>
          <path id="Контур_2069" data-name="Контур 2069" d="M621.442,504.288h-2.826V492.1h2.826Z" transform="translate(-571.853 -492.104)" fill="#fff"/>
          <path id="Контур_2070" data-name="Контур 2070" d="M632.1,499.99h-6.452a2.022,2.022,0,0,0,.786,1.582,3.5,3.5,0,0,0,2.134.549,4.8,4.8,0,0,0,1.73-.321,5.455,5.455,0,0,0,1.324-.689h.312v2.263a10.268,10.268,0,0,1-1.8.555,9.341,9.341,0,0,1-1.872.173,6.114,6.114,0,0,1-4.055-1.191,4.189,4.189,0,0,1-1.411-3.39,4.543,4.543,0,0,1,1.336-3.449A5.092,5.092,0,0,1,627.8,494.8a4.371,4.371,0,0,1,3.226,1.083A4.238,4.238,0,0,1,632.1,499Zm-2.8-1.652a1.974,1.974,0,0,0-.438-1.331,1.687,1.687,0,0,0-1.291-.446,2.063,2.063,0,0,0-1.339.423,1.8,1.8,0,0,0-.587,1.354Z" transform="translate(-571.199 -491.683)" fill="#fff"/>
          <path id="Контур_2071" data-name="Контур 2071" d="M647.065,496.237a4.408,4.408,0,0,1-.274,1.53,3.382,3.382,0,0,1-.783,1.257,4.779,4.779,0,0,1-1.554,1.043,5.646,5.646,0,0,1-2.134.352h-1.871v3.8h-3.008V492.558h4.949a7.8,7.8,0,0,1,1.875.191,4.428,4.428,0,0,1,1.35.576,3.093,3.093,0,0,1,1.077,1.182A3.726,3.726,0,0,1,647.065,496.237Zm-3.108.067a1.376,1.376,0,0,0-.267-.849,1.444,1.444,0,0,0-.617-.495,2.771,2.771,0,0,0-.917-.207c-.3-.014-.695-.021-1.19-.021h-.517v3.485h.861a6.908,6.908,0,0,0,1.264-.094,1.793,1.793,0,0,0,.835-.375,1.441,1.441,0,0,0,.419-.6A2.43,2.43,0,0,0,643.957,496.3Z" transform="translate(-568.911 -492.033)" fill="#fff"/>
          <path id="Контур_2072" data-name="Контур 2072" d="M650.3,504.288h-2.826V492.1H650.3Z" transform="translate(-567.344 -492.104)" fill="#fff"/>
          <path id="Контур_2073" data-name="Контур 2073" d="M657.625,502.931q-.227.173-.564.414a3.559,3.559,0,0,1-1.5.663,5.044,5.044,0,0,1-.979.09,2.99,2.99,0,0,1-2.1-.775,2.569,2.569,0,0,1-.846-1.982,2.661,2.661,0,0,1,.431-1.574,2.885,2.885,0,0,1,1.221-.963,6.871,6.871,0,0,1,1.941-.5q1.159-.149,2.4-.22v-.046a1.014,1.014,0,0,0-.6-1.007,4.3,4.3,0,0,0-1.753-.277A5.015,5.015,0,0,0,653.8,497q-.791.248-1.135.379h-.258v-2.122q.446-.116,1.452-.277a12.712,12.712,0,0,1,2.017-.161,6.254,6.254,0,0,1,3.472.74,2.627,2.627,0,0,1,1.068,2.322v5.982h-2.795Zm0-1.369v-1.826q-.572.047-1.237.13a5.747,5.747,0,0,0-1.011.191,1.383,1.383,0,0,0-.646.386.975.975,0,0,0-.222.667,1.741,1.741,0,0,0,.046.445.667.667,0,0,0,.235.327,1.116,1.116,0,0,0,.431.23,2.989,2.989,0,0,0,.783.074,2.313,2.313,0,0,0,.857-.171A2.687,2.687,0,0,0,657.625,501.562Z" transform="translate(-566.692 -491.68)" fill="#fff"/>
          <path id="Контур_2074" data-name="Контур 2074" d="M665.589,500.72l2.006-5.684h2.9l-4.885,12.019h-3.061l1.4-3.293-3.42-8.726h2.96Z" transform="translate(-565.304 -491.646)" fill="#fff"/>
        </g>
        <text id="Доступно_в" data-name="Доступно в" transform="translate(1.087 5.926)" fill="#fff" font-size="10" font-family="Verdana-Bold, Verdana" font-weight="700"><tspan x="0" y="0">Доступно в</tspan></text>
      </g>
    </g>
  </g>
</svg>
