<svg xmlns="http://www.w3.org/2000/svg" width="150.888" height="45.886" viewBox="0 0 150.888 45.886">
  <g id="Сгруппировать_391" data-name="Сгруппировать 391" transform="translate(-338.867 -518)">
    <g id="Сгруппировать_309" data-name="Сгруппировать 309" transform="translate(338.867 517.971)">
      <rect id="Прямоугольник_51" data-name="Прямоугольник 51" width="150.888" height="45.886" rx="4.961" transform="translate(0 0.029)" fill="#2b454e"/>
      <g id="Сгруппировать_303" data-name="Сгруппировать 303" transform="translate(8.146 6.896)">
        <path id="Контур_2075" data-name="Контур 2075" d="M407.374,489.853c-2.448,4.247-.892,10.693,1.815,14.6,1.352,1.954,2.72,3.708,4.593,3.708h.108a5.675,5.675,0,0,0,2.131-.569,5.846,5.846,0,0,1,2.525-.6,5.488,5.488,0,0,1,2.4.578,5.086,5.086,0,0,0,2.3.553c2.111-.039,3.406-1.932,4.55-3.6a15.983,15.983,0,0,0,1.993-4.083l.008-.025a.238.238,0,0,0-.126-.291l-.017-.008a6.049,6.049,0,0,1-3.667-5.54,6.229,6.229,0,0,1,2.943-5.205l.023-.015a.234.234,0,0,0,.1-.151.24.24,0,0,0-.036-.182,6.853,6.853,0,0,0-5.387-2.925c-.153-.015-.311-.023-.469-.023a9.375,9.375,0,0,0-3.381.845,5.444,5.444,0,0,1-1.619.483,5.3,5.3,0,0,1-1.675-.489,8.117,8.117,0,0,0-2.952-.75h-.075A7.24,7.24,0,0,0,407.374,489.853Z" transform="translate(-406.153 -479.209)" fill="#fff"/>
        <path id="Контур_2076" data-name="Контур 2076" d="M422.085,480.137a6.612,6.612,0,0,0-4.364,2.24,6.188,6.188,0,0,0-1.568,4.592.239.239,0,0,0,.216.206c.1.008.2.012.308.012a5.591,5.591,0,0,0,4.119-2.112,6.527,6.527,0,0,0,1.536-4.724A.241.241,0,0,0,422.085,480.137Z" transform="translate(-404.596 -480.137)" fill="#fff"/>
      </g>
    </g>
    <g id="Сгруппировать_372" data-name="Сгруппировать 372" transform="translate(0 2)">
      <g id="Сгруппировать_308" data-name="Сгруппировать 308" transform="translate(382.259 527.077)">
        <g id="Сгруппировать_307" data-name="Сгруппировать 307" transform="translate(0 11.94)">
          <g id="Сгруппировать_306" data-name="Сгруппировать 306">
            <path id="Контур_2090" data-name="Контур 2090" d="M448.711,504.217h-3.106l-.813-2.356h-4.314l-.812,2.356h-3.031l4.307-11.659H444.4Zm-4.641-4.494-1.434-4.176-1.435,4.176Z" transform="translate(-436.636 -492.345)" fill="#fff"/>
            <path id="Контур_2091" data-name="Контур 2091" d="M457.569,499.344a5.654,5.654,0,0,1-.332,1.981,4.372,4.372,0,0,1-.872,1.473,3.834,3.834,0,0,1-1.275.924,3.754,3.754,0,0,1-1.525.313,4.368,4.368,0,0,1-1.274-.162,5.977,5.977,0,0,1-1.072-.449v3.664h-2.826V495.069h2.826v.916a6.821,6.821,0,0,1,1.325-.837,3.589,3.589,0,0,1,1.561-.322,3.016,3.016,0,0,1,2.553,1.206A5.38,5.38,0,0,1,457.569,499.344Zm-2.9.059a3.119,3.119,0,0,0-.438-1.86,1.621,1.621,0,0,0-1.382-.578,3,3,0,0,0-.821.12,3.486,3.486,0,0,0-.8.348v4.417a2.22,2.22,0,0,0,.6.141c.214.021.426.031.634.031a2.047,2.047,0,0,0,1.664-.653A3,3,0,0,0,454.665,499.4Z" transform="translate(-434.799 -491.991)" fill="#fff"/>
            <path id="Контур_2092" data-name="Контур 2092" d="M467.266,499.344a5.629,5.629,0,0,1-.332,1.981,4.373,4.373,0,0,1-.872,1.473,3.834,3.834,0,0,1-1.275.924,3.754,3.754,0,0,1-1.525.313,4.368,4.368,0,0,1-1.274-.162,6.015,6.015,0,0,1-1.072-.449v3.664H458.09V495.069h2.826v.916a6.861,6.861,0,0,1,1.326-.837,3.583,3.583,0,0,1,1.56-.322,3.016,3.016,0,0,1,2.553,1.206A5.372,5.372,0,0,1,467.266,499.344Zm-2.9.059a3.12,3.12,0,0,0-.437-1.86,1.625,1.625,0,0,0-1.383-.578,3.008,3.008,0,0,0-.821.12,3.486,3.486,0,0,0-.8.348v4.417a2.22,2.22,0,0,0,.6.141c.213.021.424.031.632.031a2.046,2.046,0,0,0,1.664-.653A3,3,0,0,0,464.362,499.4Z" transform="translate(-433.283 -491.991)" fill="#fff"/>
            <path id="Контур_2093" data-name="Контур 2093" d="M482.082,500.581a3.329,3.329,0,0,1-1.46,2.8,6.556,6.556,0,0,1-3.966,1.075,11.133,11.133,0,0,1-2.525-.253,13.033,13.033,0,0,1-2.017-.646v-2.8h.328a6.969,6.969,0,0,0,2.087,1.144,6.794,6.794,0,0,0,2.22.4c.183,0,.423-.016.72-.046a2.844,2.844,0,0,0,.728-.157,1.784,1.784,0,0,0,.568-.353.821.821,0,0,0,.223-.627.847.847,0,0,0-.325-.661,2.271,2.271,0,0,0-.952-.427q-.657-.156-1.39-.294a10.9,10.9,0,0,1-1.375-.348,4.31,4.31,0,0,1-2.117-1.3,3.172,3.172,0,0,1-.646-2.033,3.125,3.125,0,0,1,1.46-2.657,6.365,6.365,0,0,1,3.754-1.03,11.616,11.616,0,0,1,2.274.223,10.576,10.576,0,0,1,1.946.561v2.685h-.32a6.19,6.19,0,0,0-1.728-.942,5.941,5.941,0,0,0-2.086-.382,5.567,5.567,0,0,0-.748.051,3.038,3.038,0,0,0-.717.192,1.378,1.378,0,0,0-.524.357.781.781,0,0,0-.22.545.811.811,0,0,0,.353.708,3.91,3.91,0,0,0,1.331.451l1.234.258q.59.127,1.272.345a4.261,4.261,0,0,1,1.977,1.194A2.937,2.937,0,0,1,482.082,500.581Z" transform="translate(-431.092 -492.374)" fill="#fff"/>
            <path id="Контур_2094" data-name="Контур 2094" d="M488.137,504.091a7.692,7.692,0,0,1-.963.184,9.691,9.691,0,0,1-1.245.067,3.773,3.773,0,0,1-2.447-.666,2.814,2.814,0,0,1-.8-2.279v-4.111H481.52v-1.91h1.159v-2.514h2.827v2.514h2.632v1.91h-2.632v3.122q0,.461.008.807a1.685,1.685,0,0,0,.125.62.867.867,0,0,0,.386.435,1.632,1.632,0,0,0,.808.162,3.255,3.255,0,0,0,1.07-.267h.235Z" transform="translate(-429.622 -492.298)" fill="#fff"/>
            <path id="Контур_2095" data-name="Контур 2095" d="M497.775,499.474a4.589,4.589,0,0,1-1.265,3.418,5.673,5.673,0,0,1-7.1,0,5.255,5.255,0,0,1,.008-6.849,5.675,5.675,0,0,1,7.1.008A4.619,4.619,0,0,1,497.775,499.474Zm-3.469,2.137a2.233,2.233,0,0,0,.41-.811,4.916,4.916,0,0,0,.138-1.311,5.1,5.1,0,0,0-.141-1.3,2.257,2.257,0,0,0-.392-.837,1.368,1.368,0,0,0-.6-.456,2.157,2.157,0,0,0-.76-.133,2.179,2.179,0,0,0-.724.111,1.445,1.445,0,0,0-.607.438,2.239,2.239,0,0,0-.412.837,4.958,4.958,0,0,0-.153,1.339,5.212,5.212,0,0,0,.133,1.25,2.2,2.2,0,0,0,.392.849,1.491,1.491,0,0,0,.6.446,2.221,2.221,0,0,0,1.526.012A1.342,1.342,0,0,0,494.306,501.611Z" transform="translate(-428.587 -491.995)" fill="#fff"/>
            <path id="Контур_2096" data-name="Контур 2096" d="M504.593,497.725h-.25a2.52,2.52,0,0,0-.578-.094q-.4-.031-.664-.031a6.287,6.287,0,0,0-1.063.079,5.9,5.9,0,0,0-.992.266v5.889H498.22V495.04h2.827v1.292a5.885,5.885,0,0,1,1.616-1.061,3.587,3.587,0,0,1,1.266-.261c.1,0,.211,0,.337.008s.234.012.327.023Z" transform="translate(-427.013 -491.962)" fill="#fff"/>
            <path id="Контур_2097" data-name="Контур 2097" d="M513.861,499.99h-6.452a2.023,2.023,0,0,0,.787,1.582,3.489,3.489,0,0,0,2.133.549,4.8,4.8,0,0,0,1.73-.321,5.43,5.43,0,0,0,1.324-.689h.312v2.263a10.2,10.2,0,0,1-1.8.555,9.329,9.329,0,0,1-1.871.173,6.118,6.118,0,0,1-4.056-1.191,4.189,4.189,0,0,1-1.41-3.39,4.543,4.543,0,0,1,1.334-3.449,5.094,5.094,0,0,1,3.661-1.272,4.371,4.371,0,0,1,3.226,1.083A4.238,4.238,0,0,1,513.861,499Zm-2.8-1.652a1.975,1.975,0,0,0-.439-1.331,1.687,1.687,0,0,0-1.292-.446,2.062,2.062,0,0,0-1.339.423,1.8,1.8,0,0,0-.587,1.354Z" transform="translate(-426.022 -491.995)" fill="#fff"/>
          </g>
        </g>
      </g>
      <text id="Загрузите_в" data-name="Загрузите в" transform="translate(382 534)" fill="#fff" font-size="10" font-family="Verdana-Bold, Verdana" font-weight="700"><tspan x="0" y="0">Загрузите в</tspan></text>
    </g>
  </g>
</svg>
