<svg xmlns="http://www.w3.org/2000/svg" width="11.426" height="13" viewBox="0 0 11.426 13">
  <g id="Сгруппировать_157" data-name="Сгруппировать 157" transform="translate(-318 -1162)">
    <path id="Контур_68" data-name="Контур 68" d="M5.713,0A3.428,3.428,0,1,0,9.141,3.428,3.432,3.432,0,0,0,5.713,0Z" transform="translate(318 1162)" fill="#2b454e"/>
    <path id="Контур_69" data-name="Контур 69" d="M9.978,9.1a4.886,4.886,0,0,0-3.5-1.478H4.951A4.886,4.886,0,0,0,1.448,9.1,5,5,0,0,0,0,12.619.381.381,0,0,0,.381,13H11.045a.381.381,0,0,0,.381-.381A5,5,0,0,0,9.978,9.1Z" transform="translate(318 1162)" fill="#2b454e"/>
  </g>
</svg>
