<svg xmlns="http://www.w3.org/2000/svg" width="14" height="14" viewBox="0 0 14 14">
  <path id="Контур_78" data-name="Контур 78" d="M.383,5.923A4.9,4.9,0,0,1,.01,3.843,1.7,1.7,0,0,1,.54,2.7c.356-.336.692-.689,1.043-1.031a.987.987,0,0,1,1.484,0c.282.276.561.558.84.84s.544.541.815.815a.989.989,0,0,1,0,1.521c-.342.342-.681.687-1.028,1.023a.209.209,0,0,0-.051.273,6.108,6.108,0,0,0,.929,1.49,10.67,10.67,0,0,0,2.6,2.362c.217.134.453.234.678.356a.208.208,0,0,0,.288-.054c.339-.35.687-.7,1.034-1.04a.979.979,0,0,1,1.481,0q.838.829,1.666,1.667a.99.99,0,0,1-.006,1.51c-.316.319-.65.621-.946.954a1.878,1.878,0,0,1-1.6.61,6.651,6.651,0,0,1-2.547-.741,13.859,13.859,0,0,1-4.6-3.6A12.669,12.669,0,0,1,.383,5.923Zm12.982,1.02A.618.618,0,0,0,14,6.28,6.985,6.985,0,0,0,7.721,0a.618.618,0,0,0-.663.632.729.729,0,0,0,.663.7A5.656,5.656,0,0,1,12.662,6.28.73.73,0,0,0,13.365,6.943Zm-3.222-.659a.788.788,0,0,0,.732.659.594.594,0,0,0,.615-.662A4.494,4.494,0,0,0,7.719,2.511a.594.594,0,0,0-.662.615.788.788,0,0,0,.659.732,3.156,3.156,0,0,1,2.426,2.426Z" transform="translate(0 0)" fill="#2b454e"/>
</svg>
