<svg xmlns="http://www.w3.org/2000/svg" width="28.976" height="28.977" viewBox="0 0 28.976 28.977">
  <path id="instagram_1_" data-name="instagram (1)" d="M14.774,28.978h-.289c-2.271.006-4.37-.052-6.411-.176a8.57,8.57,0,0,1-4.94-1.87A7.929,7.929,0,0,1,.47,22.63a19.061,19.061,0,0,1-.437-4.552C.018,17.021,0,15.767,0,14.492S.018,11.959.033,10.9A19.063,19.063,0,0,1,.47,6.349a7.929,7.929,0,0,1,2.664-4.3A8.57,8.57,0,0,1,8.075.178C10.116.054,12.215,0,14.491,0s4.37.052,6.411.176a8.57,8.57,0,0,1,4.94,1.87,7.928,7.928,0,0,1,2.664,4.3,19.062,19.062,0,0,1,.437,4.552c.015,1.058.03,2.311.033,3.586s-.018,2.534-.033,3.591a1.132,1.132,0,1,1-2.264-.031c.014-1.052.03-2.3.032-3.56s-.018-2.5-.032-3.555a17.342,17.342,0,0,0-.367-4.023,5.715,5.715,0,0,0-1.9-3.107,6.235,6.235,0,0,0-3.647-1.365c-1.993-.121-4.045-.177-6.273-.172s-4.286.051-6.279.172A6.237,6.237,0,0,0,4.565,3.8a5.715,5.715,0,0,0-1.9,3.107A17.341,17.341,0,0,0,2.3,10.932c-.014,1.052-.029,2.3-.032,3.56s.018,2.5.032,3.555a17.341,17.341,0,0,0,.367,4.023,5.715,5.715,0,0,0,1.9,3.107,6.236,6.236,0,0,0,3.647,1.365c1.993.121,4.045.178,6.274.172s4.286-.051,6.279-.172a6.236,6.236,0,0,0,3.647-1.365A5.439,5.439,0,0,0,25.965,23.1a1.132,1.132,0,0,1,2.077.9,7.678,7.678,0,0,1-2.2,2.937A8.568,8.568,0,0,1,20.9,28.8c-1.955.119-3.962.177-6.128.177ZM21.506,14.49a7.074,7.074,0,1,0-7.074,7.074A7.082,7.082,0,0,0,21.506,14.49Zm-2.264,0a4.811,4.811,0,1,1-4.811-4.811A4.816,4.816,0,0,1,19.242,14.49ZM22.3,5.151a1.7,1.7,0,1,0,1.7,1.7A1.7,1.7,0,0,0,22.3,5.151Zm0,0" transform="translate(0 -0.001)" fill="#fff"/>
</svg>
