<svg id="location" xmlns="http://www.w3.org/2000/svg" width="13.913" height="15.723" viewBox="0 0 13.913 15.723">
  <path id="Контур_61" data-name="Контур 61" d="M20.5,14.907l.092-.149A11.885,11.885,0,0,0,22.65,8.845a4.293,4.293,0,1,0-8.587,0,11.884,11.884,0,0,0,2.055,5.914l.092.149c-2.893.357-4.81,1.391-4.81,2.619,0,1.541,3.055,2.748,6.956,2.748s6.956-1.207,6.956-2.748C25.313,16.3,23.395,15.265,20.5,14.907ZM14.526,8.845a3.83,3.83,0,0,1,7.661,0c.02,3.288-3.054,7.343-3.831,8.315C17.579,16.188,14.506,12.133,14.526,8.845Zm3.83,10.966c-3.884,0-6.493-1.182-6.493-2.285,0-.979,1.935-1.889,4.62-2.184a24.506,24.506,0,0,0,1.7,2.335.231.231,0,0,0,.353,0,24.506,24.506,0,0,0,1.7-2.335c2.685.3,4.62,1.205,4.62,2.184,0,1.1-2.609,2.285-6.494,2.285Z" transform="translate(-11.4 -4.55)" fill="#fff"/>
  <path id="Контур_62" data-name="Контур 62" d="M32.151,105.308a6.322,6.322,0,0,1-2.321-.651.231.231,0,1,0-.242.394,6.752,6.752,0,0,0,2.5.716l.03,0a.231.231,0,0,0,.029-.461Z" transform="translate(-27.087 -91.388)" fill="#fff"/>
  <path id="Контур_63" data-name="Контур 63" d="M58.892,110.6c-.323.007-.658.006-.986-.006a.232.232,0,1,0-.017.463c.2.007.41.011.615.011q.2,0,.4,0a.231.231,0,0,0,.226-.237.229.229,0,0,0-.237-.226Z" transform="translate(-51.547 -96.57)" fill="#fff"/>
  <path id="Контур_64" data-name="Контур 64" d="M53.13,24.2a1.954,1.954,0,1,0-1.954,1.955A1.954,1.954,0,0,0,53.13,24.2Zm-3.446,0a1.491,1.491,0,1,1,1.492,1.492A1.491,1.491,0,0,1,49.684,24.2Z" transform="translate(-44.219 -19.904)" fill="#fff"/>
</svg>
