<svg xmlns="http://www.w3.org/2000/svg" xmlns:xlink="http://www.w3.org/1999/xlink" width="12.269" height="18.438" viewBox="0 0 12.269 18.438">
  <defs>
    <linearGradient id="linear-gradient" y1="0.5" x2="1" y2="0.5" gradientUnits="objectBoundingBox">
      <stop offset="0" stop-color="#265aff"/>
      <stop offset="0.14" stop-color="#1d71ff"/>
      <stop offset="0.389" stop-color="#1095ff"/>
      <stop offset="0.623" stop-color="#07aeff"/>
      <stop offset="0.833" stop-color="#01beff"/>
      <stop offset="1" stop-color="#00c4ff"/>
    </linearGradient>
    <linearGradient id="linear-gradient-4" y1="0.5" x2="1" y2="0.5" gradientUnits="objectBoundingBox">
      <stop offset="0" stop-color="#ff3eff"/>
      <stop offset="1" stop-color="#265aff"/>
    </linearGradient>
  </defs>
  <g id="Сгруппировать_324" data-name="Сгруппировать 324" transform="translate(-8.9 33.1)">
    <g id="Сгруппировать_2" data-name="Сгруппировать 2" transform="translate(9 -33)">
      <path id="Контур_1" data-name="Контур 1" d="M12.569,9.034c0,3.333-6.035,12.126-6.035,12.126S.5,12.367.5,9.034a6.034,6.034,0,0,1,12.069,0Z" transform="translate(-0.5 -3)" fill="#fff" stroke="#2b454e" stroke-miterlimit="10" stroke-width="0.2"/>
      <g id="Сгруппировать_1" data-name="Сгруппировать 1" transform="translate(1.745 3.224)">
        <path id="Контур_2" data-name="Контур 2" d="M19.085,13.37l-2.177-.352-3.277,2.7,3.443-.928Z" transform="translate(-11.151 -13.018)" fill="url(#linear-gradient)"/>
        <path id="Контур_3" data-name="Контур 3" d="M21.3,22.841l.233,2.418,1.386-1.718-.714-4.173-.9,3.474Z" transform="translate(-16.354 -17.325)" fill="url(#linear-gradient)"/>
        <path id="Контур_4" data-name="Контур 4" d="M9.987,20.339,5.923,18.446,6.7,20.513l4.1,1.555Z" transform="translate(-5.923 -16.699)" fill="url(#linear-gradient)"/>
        <path id="Контур_5" data-name="Контур 5" d="M26.342,14.112l-1.585,3.924-.427-2.5Z" transform="translate(-18.407 -13.76)" fill="url(#linear-gradient-4)"/>
        <path id="Контур_6" data-name="Контур 6" d="M16.528,30.682,16.3,28.264l-2.376-.9Z" transform="translate(-11.346 -22.747)" fill="url(#linear-gradient-4)"/>
        <path id="Контур_7" data-name="Контур 7" d="M5.923,17.253l2.211,1.03,1.934-1.6Z" transform="translate(-5.923 -15.507)" fill="url(#linear-gradient-4)"/>
      </g>
    </g>
  </g>
</svg>
