<svg xmlns="http://www.w3.org/2000/svg" width="24.741" height="36.654" viewBox="0 0 24.741 36.654">
    <defs>
        <linearGradient id="linear-gradient" x2="1" y2="1" gradientUnits="objectBoundingBox">
            <stop offset="0" stop-color="#fd3eff"/>
            <stop offset="1" stop-color="#55aefd"/>
        </linearGradient>
        <style>
            .cls-3{fill:none}
        </style>
    </defs>
    <g id="_3_1_" opacity="0.95">
        <path id="Контур_82" fill="url(#linear-gradient)" fill-rule="evenodd" d="M120.405 34.558a9.851 9.851 0 0 1-.987 4.493 9.4 9.4 0 0 1-2.76 3.287 12.78 12.78 0 0 1-4.222 2.028 20.1 20.1 0 0 1-5.383.688 20.64 20.64 0 0 1-3.317-.25 20.044 20.044 0 0 1-2.742-.625 11.824 11.824 0 0 1-1.965-.768 6.378 6.378 0 0 1-1.014-.6 1.387 1.387 0 0 1-.366-.473 4.726 4.726 0 0 1-.21-.607 5.031 5.031 0 0 1-.137-.893c-.027-.348-.037-.786-.037-1.286a4.958 4.958 0 0 1 .21-1.733.7.7 0 0 1 .649-.482 2.484 2.484 0 0 1 .923.348 17.178 17.178 0 0 0 1.672.75 19.718 19.718 0 0 0 2.385.75 12.629 12.629 0 0 0 3.107.348 9.117 9.117 0 0 0 2.6-.339 5.972 5.972 0 0 0 1.919-.947 3.968 3.968 0 0 0 1.179-1.483 4.776 4.776 0 0 0 .384-1.938 4.654 4.654 0 0 0-.466-2.108 4.354 4.354 0 0 0-1.4-1.6 6.775 6.775 0 0 0-2.33-1.027 13.323 13.323 0 0 0-3.308-.366h-3a1.657 1.657 0 0 1-.594-.089.822.822 0 0 1-.4-.384 2.4 2.4 0 0 1-.228-.8 10.316 10.316 0 0 1-.064-1.313 9.211 9.211 0 0 1 .064-1.242 2.069 2.069 0 0 1 .219-.741.759.759 0 0 1 .366-.366 1.3 1.3 0 0 1 .548-.107h3.016a9.465 9.465 0 0 0 2.742-.357 5.742 5.742 0 0 0 2.02-1.009 4.316 4.316 0 0 0 1.234-1.59 4.885 4.885 0 0 0 .43-2.063 4.634 4.634 0 0 0-.292-1.635 3.719 3.719 0 0 0-.868-1.34 4.009 4.009 0 0 0-1.48-.893 6.164 6.164 0 0 0-2.138-.33 8.123 8.123 0 0 0-2.614.411 16.4 16.4 0 0 0-2.2.884c-.649.331-1.2.634-1.654.911a2.325 2.325 0 0 1-1.005.42.623.623 0 0 1-.64-.447 3.437 3.437 0 0 1-.155-.759 12.479 12.479 0 0 1-.055-1.3c0-.438.009-.8.027-1.09a3.586 3.586 0 0 1 .11-.724 2.307 2.307 0 0 1 .2-.5 2.177 2.177 0 0 1 .384-.456 7.772 7.772 0 0 1 1.1-.741 13.314 13.314 0 0 1 2.084-.965 19.648 19.648 0 0 1 2.906-.8 18.616 18.616 0 0 1 3.563-.31 15.674 15.674 0 0 1 4.451.581 9.29 9.29 0 0 1 3.263 1.661 6.954 6.954 0 0 1 2 2.671 8.964 8.964 0 0 1 .685 3.582 10.007 10.007 0 0 1-.4 2.876 7.512 7.512 0 0 1-1.179 2.385 6.925 6.925 0 0 1-1.937 1.786 8.789 8.789 0 0 1-2.687 1.1v.08a10.282 10.282 0 0 1 3.272.9 8.268 8.268 0 0 1 2.449 1.733 7.411 7.411 0 0 1 2.074 5.2z" transform="translate(-96.465 -9.201)"/>
        <g id="Сгруппировать_101">
            <path id="Контур_83" d="M111.412 22.283a8.174 8.174 0 0 0-1.691-2.605 9.049 9.049 0 0 0-2.676-1.895 9.762 9.762 0 0 0-1.174-.471q.343-.176.661-.377a7.731 7.731 0 0 0 2.145-1.978 8.283 8.283 0 0 0 1.294-2.614 10.755 10.755 0 0 0 .434-3.092 9.756 9.756 0 0 0-.745-3.874 7.711 7.711 0 0 0-2.22-2.959A10.124 10.124 0 0 0 103.9.614 16.611 16.611 0 0 0 99.212 0a19.616 19.616 0 0 0-3.744.338 20.427 20.427 0 0 0-3.037.832 14.2 14.2 0 0 0-2.217 1.03 7.946 7.946 0 0 0-1.223.835l-.014.013a2.754 2.754 0 0 0-.511.62 2.969 2.969 0 0 0-.264.65v.009a4.256 4.256 0 0 0-.135.872c-.019.313-.029.685-.029 1.138a13.089 13.089 0 0 0 .062 1.376 4.136 4.136 0 0 0 .193.923l.011.029a1.4 1.4 0 0 0 .575.7 1.423 1.423 0 0 0 .75.195 2.823 2.823 0 0 0 1.4-.529c.457-.277 1-.575 1.613-.887a15.911 15.911 0 0 1 2.111-.844 7.381 7.381 0 0 1 2.39-.374 5.508 5.508 0 0 1 1.891.286h.009a3.8 3.8 0 0 1 .649.3.743.743 0 0 0 1.006-.246.706.706 0 0 0-.252-.982 5.292 5.292 0 0 0-.9-.415 6.887 6.887 0 0 0-2.406-.377 8.969 8.969 0 0 0-2.861.45 17.343 17.343 0 0 0-2.315.929h-.007c-.647.329-1.222.646-1.711.942a3.112 3.112 0 0 1-.591.3 3.025 3.025 0 0 1-.1-.558 11.921 11.921 0 0 1-.055-1.22c0-.424.009-.768.026-1.051a2.958 2.958 0 0 1 .085-.579 1.655 1.655 0 0 1 .135-.344l.008-.014a1.546 1.546 0 0 1 .25-.281 7.894 7.894 0 0 1 .973-.647 12.707 12.707 0 0 1 1.976-.912 18.921 18.921 0 0 1 2.806-.766 18.131 18.131 0 0 1 3.451-.309 15.12 15.12 0 0 1 4.263.552 8.656 8.656 0 0 1 3.027 1.532 6.291 6.291 0 0 1 1.81 2.414 8.253 8.253 0 0 1 .632 3.322 9.362 9.362 0 0 1-.376 2.691 6.873 6.873 0 0 1-1.074 2.174l-.006.008a6.2 6.2 0 0 1-1.749 1.608 8.15 8.15 0 0 1-2.478 1.009.72.72 0 0 0-.56.7v.081a.722.722 0 0 0 .646.711 9.551 9.551 0 0 1 3.058.84 7.6 7.6 0 0 1 2.249 1.587 6.662 6.662 0 0 1 1.4 2.154 6.8 6.8 0 0 1 .49 2.581 9.232 9.232 0 0 1-.915 4.195 8.785 8.785 0 0 1-2.567 3.055 12.171 12.171 0 0 1-4 1.917 19.594 19.594 0 0 1-5.215.664 20.153 20.153 0 0 1-3.215-.241 19.3 19.3 0 0 1-2.655-.6h-.007a11.232 11.232 0 0 1-1.856-.724 6.211 6.211 0 0 1-.88-.509.682.682 0 0 1-.174-.219 4.078 4.078 0 0 1-.174-.5 4.42 4.42 0 0 1-.117-.773c-.024-.3-.035-.694-.035-1.238a4.3 4.3 0 0 1 .152-1.458l.017-.034a3.655 3.655 0 0 1 .541.246 18.083 18.083 0 0 0 1.756.788 20.661 20.661 0 0 0 2.49.783 13.534 13.534 0 0 0 3.31.373 9.939 9.939 0 0 0 2.824-.372 6.758 6.758 0 0 0 2.166-1.071l.011-.009a4.724 4.724 0 0 0 1.395-1.755v-.008a5.493 5.493 0 0 0 .446-2.231 5.407 5.407 0 0 0-.542-2.431v-.007a5.119 5.119 0 0 0-1.628-1.864 7.587 7.587 0 0 0-2.59-1.147 14.188 14.188 0 0 0-3.515-.392h-3.018a1.1 1.1 0 0 1-.31-.034.3.3 0 0 1-.045-.064 1.722 1.722 0 0 1-.15-.555 9.712 9.712 0 0 1-.058-1.226 8.626 8.626 0 0 1 .057-1.149 1.4 1.4 0 0 1 .129-.485c.008-.013.015-.025.021-.038a.229.229 0 0 1 .026-.041.6.6 0 0 1 .238-.039h3.033a10.33 10.33 0 0 0 2.97-.39 6.553 6.553 0 0 0 2.288-1.149 5.093 5.093 0 0 0 1.283-1.536.708.708 0 0 0-.306-.967.742.742 0 0 0-.991.3 3.605 3.605 0 0 1-.919 1.1 5.018 5.018 0 0 1-1.776.882h-.01a8.84 8.84 0 0 1-2.54.327h-3.032a2.06 2.06 0 0 0-.855.172 1.473 1.473 0 0 0-.71.68 2.75 2.75 0 0 0-.3.986 9.792 9.792 0 0 0-.071 1.346 10.846 10.846 0 0 0 .071 1.413 3.072 3.072 0 0 0 .307 1.038l.006.01a1.554 1.554 0 0 0 .769.705l.013.005a2.374 2.374 0 0 0 .863.139h3.015a12.707 12.707 0 0 1 3.137.336 6.129 6.129 0 0 1 2.091.913l.01.007a3.644 3.644 0 0 1 1.177 1.342 3.965 3.965 0 0 1 .393 1.8 4.1 4.1 0 0 1-.324 1.66 3.254 3.254 0 0 1-.969 1.216 5.292 5.292 0 0 1-1.689.828 8.455 8.455 0 0 1-2.4.31 12.046 12.046 0 0 1-2.941-.327 19.182 19.182 0 0 1-2.308-.725 16.581 16.581 0 0 1-1.608-.72 2.935 2.935 0 0 0-1.278-.436 1.434 1.434 0 0 0-1.323.91l-.007.016a5.477 5.477 0 0 0-.268 2.017c0 .582.012 1.01.039 1.346a5.713 5.713 0 0 0 .161 1.03 5.426 5.426 0 0 0 .244.7l.007.016a2.107 2.107 0 0 0 .549.717l.018.015a6.919 6.919 0 0 0 1.148.685 12.689 12.689 0 0 0 2.1.821 20.775 20.775 0 0 0 2.858.652 21.648 21.648 0 0 0 3.457.261 21.1 21.1 0 0 0 5.619-.72 13.65 13.65 0 0 0 4.489-2.157 10.217 10.217 0 0 0 2.987-3.554A10.62 10.62 0 0 0 112 25.391a8.192 8.192 0 0 0-.593-3.108z" class="cls-3" transform="translate(-87.264)"/>
            <path id="Контур_84" d="M278.2 124.814a.8.8 0 0 0-.8-.8.8.8 0 1 0 .8.8z" class="cls-3" transform="translate(-262.8 -115.178)"/>
        </g>
    </g>
</svg>
