<svg id="Сгруппировать_102" data-name="Сгруппировать 102" xmlns="http://www.w3.org/2000/svg" xmlns:xlink="http://www.w3.org/1999/xlink" width="42.52" height="46.694" viewBox="0 0 42.52 46.694">
  <defs>
    <linearGradient id="linear-gradient" x1="-167.178" y1="-97.549" x2="-166.521" y2="-98.494" gradientUnits="objectBoundingBox">
      <stop offset="0" stop-color="#0bf"/>
      <stop offset="1" stop-color="#3a5aff"/>
    </linearGradient>
    <linearGradient id="linear-gradient-2" x1="0.139" y1="0.114" x2="0.868" y2="0.934" gradientUnits="objectBoundingBox">
      <stop offset="0" stop-color="#ff3eff"/>
      <stop offset="1" stop-color="#2759ff"/>
    </linearGradient>
    <linearGradient id="linear-gradient-3" x1="-19.894" y1="-80.719" x2="-19.2" y2="-80.025" gradientUnits="objectBoundingBox">
      <stop offset="0" stop-color="#e2e1e6"/>
      <stop offset="0.845" stop-color="#fff"/>
    </linearGradient>
    <linearGradient id="linear-gradient-4" x1="-55.409" y1="-43.389" x2="-54.409" y2="-43.389" gradientUnits="objectBoundingBox">
      <stop offset="0" stop-color="#fff"/>
      <stop offset="1" stop-color="#e6e6e6"/>
    </linearGradient>
  </defs>
  <g id="Сгруппировать_99" data-name="Сгруппировать 99">
    <path id="Контур_513" data-name="Контур 513" d="M832.056,2013.394H818.239v10.6l13.816-10.6Z" transform="translate(-796.98 -1977.299)" fill="url(#linear-gradient)"/>
    <rect id="Прямоугольник_14" data-name="Прямоугольник 14" width="41.732" height="41.732" rx="20.866" fill="url(#linear-gradient-2)"/>
    <g id="Сгруппировать_98" data-name="Сгруппировать 98" transform="translate(0.889 0.796)">
      <g id="Сгруппировать_97" data-name="Сгруппировать 97" transform="translate(4.216 4.216)" style="mix-blend-mode: multiply;isolation: isolate">
        <circle id="Эллипс_125" data-name="Эллипс 125" cx="15.897" cy="15.897" r="15.897" transform="translate(5.621 5.621)" fill="#fff" opacity="0"/>
        <circle id="Эллипс_126" data-name="Эллипс 126" cx="15.897" cy="15.897" r="15.897" transform="translate(5.511 5.511)" fill="#fcfcfc" opacity="0.02"/>
        <circle id="Эллипс_127" data-name="Эллипс 127" cx="15.897" cy="15.897" r="15.897" transform="translate(5.4 5.4)" fill="#f8f8f9" opacity="0.039"/>
        <circle id="Эллипс_128" data-name="Эллипс 128" cx="15.897" cy="15.897" r="15.897" transform="translate(5.29 5.29)" fill="#f5f5f6" opacity="0.059"/>
        <circle id="Эллипс_129" data-name="Эллипс 129" cx="15.897" cy="15.897" r="15.897" transform="translate(5.18 5.18)" fill="#f2f2f3" opacity="0.078"/>
        <circle id="Эллипс_130" data-name="Эллипс 130" cx="15.897" cy="15.897" r="15.897" transform="translate(5.07 5.07)" fill="#eeeff0" opacity="0.098"/>
        <circle id="Эллипс_131" data-name="Эллипс 131" cx="15.897" cy="15.897" r="15.897" transform="translate(4.96 4.96)" fill="#ebebee" opacity="0.118"/>
        <circle id="Эллипс_132" data-name="Эллипс 132" cx="15.897" cy="15.897" r="15.897" transform="translate(4.849 4.849)" fill="#e7e8eb" opacity="0.137"/>
        <circle id="Эллипс_133" data-name="Эллипс 133" cx="15.897" cy="15.897" r="15.897" transform="translate(4.739 4.739)" fill="#e4e5e8" opacity="0.157"/>
        <circle id="Эллипс_134" data-name="Эллипс 134" cx="15.897" cy="15.897" r="15.897" transform="translate(4.629 4.629)" fill="#e1e1e5" opacity="0.176"/>
        <circle id="Эллипс_135" data-name="Эллипс 135" cx="15.897" cy="15.897" r="15.897" transform="translate(4.519 4.519)" fill="#dddee2" opacity="0.196"/>
        <circle id="Эллипс_136" data-name="Эллипс 136" cx="15.897" cy="15.897" r="15.897" transform="translate(4.408 4.409)" fill="#dadbdf" opacity="0.216"/>
        <circle id="Эллипс_137" data-name="Эллипс 137" cx="15.897" cy="15.897" r="15.897" transform="translate(4.298 4.298)" fill="#d7d7dc" opacity="0.235"/>
        <circle id="Эллипс_138" data-name="Эллипс 138" cx="15.897" cy="15.897" r="15.897" transform="translate(4.188 4.188)" fill="#d3d4d9" opacity="0.255"/>
        <circle id="Эллипс_139" data-name="Эллипс 139" cx="15.897" cy="15.897" r="15.897" transform="translate(4.078 4.078)" fill="#d0d1d6" opacity="0.275"/>
        <circle id="Эллипс_140" data-name="Эллипс 140" cx="15.897" cy="15.897" r="15.897" transform="translate(3.968 3.968)" fill="#ccced3" opacity="0.294"/>
        <circle id="Эллипс_141" data-name="Эллипс 141" cx="15.897" cy="15.897" r="15.897" transform="translate(3.857 3.857)" fill="#c9cad1" opacity="0.314"/>
        <circle id="Эллипс_142" data-name="Эллипс 142" cx="15.897" cy="15.897" r="15.897" transform="translate(3.747 3.747)" fill="#c6c7ce" opacity="0.333"/>
        <circle id="Эллипс_143" data-name="Эллипс 143" cx="15.897" cy="15.897" r="15.897" transform="translate(3.637 3.637)" fill="#c2c4cb" opacity="0.353"/>
        <circle id="Эллипс_144" data-name="Эллипс 144" cx="15.897" cy="15.897" r="15.897" transform="translate(3.527 3.527)" fill="#bfc0c8" opacity="0.373"/>
        <circle id="Эллипс_145" data-name="Эллипс 145" cx="15.897" cy="15.897" r="15.897" transform="translate(3.417 3.417)" fill="#bcbdc5" opacity="0.392"/>
        <circle id="Эллипс_146" data-name="Эллипс 146" cx="15.897" cy="15.897" r="15.897" transform="translate(3.306 3.306)" fill="#b8bac2" opacity="0.412"/>
        <circle id="Эллипс_147" data-name="Эллипс 147" cx="15.897" cy="15.897" r="15.897" transform="translate(3.196 3.196)" fill="#b5b7bf" opacity="0.431"/>
        <circle id="Эллипс_148" data-name="Эллипс 148" cx="15.897" cy="15.897" r="15.897" transform="translate(3.086 3.086)" fill="#b1b3bc" opacity="0.451"/>
        <circle id="Эллипс_149" data-name="Эллипс 149" cx="15.897" cy="15.897" r="15.897" transform="translate(2.976 2.976)" fill="#aeb0b9" opacity="0.471"/>
        <circle id="Эллипс_150" data-name="Эллипс 150" cx="15.897" cy="15.897" r="15.897" transform="translate(2.865 2.866)" fill="#abadb6" opacity="0.49"/>
        <circle id="Эллипс_151" data-name="Эллипс 151" cx="15.897" cy="15.897" r="15.897" transform="translate(2.755 2.755)" fill="#a7a9b4" opacity="0.51"/>
        <circle id="Эллипс_152" data-name="Эллипс 152" cx="15.897" cy="15.897" r="15.897" transform="translate(2.645 2.645)" fill="#a4a6b1" opacity="0.529"/>
        <circle id="Эллипс_153" data-name="Эллипс 153" cx="15.897" cy="15.897" r="15.897" transform="translate(2.535 2.535)" fill="#a1a3ae" opacity="0.549"/>
        <circle id="Эллипс_154" data-name="Эллипс 154" cx="15.897" cy="15.897" r="15.897" transform="translate(2.425 2.425)" fill="#9d9fab" opacity="0.569"/>
        <circle id="Эллипс_155" data-name="Эллипс 155" cx="15.897" cy="15.897" r="15.897" transform="translate(2.314 2.314)" fill="#9a9ca8" opacity="0.588"/>
        <circle id="Эллипс_156" data-name="Эллипс 156" cx="15.897" cy="15.897" r="15.897" transform="translate(2.204 2.204)" fill="#9699a5" opacity="0.608"/>
        <circle id="Эллипс_157" data-name="Эллипс 157" cx="15.897" cy="15.897" r="15.897" transform="translate(2.094 2.094)" fill="#9396a2" opacity="0.627"/>
        <circle id="Эллипс_158" data-name="Эллипс 158" cx="15.897" cy="15.897" r="15.897" transform="translate(1.984 1.984)" fill="#90929f" opacity="0.647"/>
        <circle id="Эллипс_159" data-name="Эллипс 159" cx="15.897" cy="15.897" r="15.897" transform="translate(1.874 1.874)" fill="#8c8f9c" opacity="0.667"/>
        <circle id="Эллипс_160" data-name="Эллипс 160" cx="15.897" cy="15.897" r="15.897" transform="translate(1.763 1.763)" fill="#898c99" opacity="0.686"/>
        <circle id="Эллипс_161" data-name="Эллипс 161" cx="15.897" cy="15.897" r="15.897" transform="translate(1.653 1.653)" fill="#868897" opacity="0.706"/>
        <circle id="Эллипс_162" data-name="Эллипс 162" cx="15.897" cy="15.897" r="15.897" transform="translate(1.543 1.543)" fill="#828594" opacity="0.725"/>
        <circle id="Эллипс_163" data-name="Эллипс 163" cx="15.897" cy="15.897" r="15.897" transform="translate(1.433 1.433)" fill="#7f8291" opacity="0.745"/>
        <circle id="Эллипс_164" data-name="Эллипс 164" cx="15.897" cy="15.897" r="15.897" transform="translate(1.323 1.323)" fill="#7b7f8e" opacity="0.765"/>
        <circle id="Эллипс_165" data-name="Эллипс 165" cx="15.897" cy="15.897" r="15.897" transform="translate(1.212 1.212)" fill="#787b8b" opacity="0.784"/>
        <circle id="Эллипс_166" data-name="Эллипс 166" cx="15.897" cy="15.897" r="15.897" transform="translate(1.102 1.102)" fill="#757888" opacity="0.804"/>
        <circle id="Эллипс_167" data-name="Эллипс 167" cx="15.897" cy="15.897" r="15.897" transform="translate(0.992 0.992)" fill="#717585" opacity="0.824"/>
        <circle id="Эллипс_168" data-name="Эллипс 168" cx="15.897" cy="15.897" r="15.897" transform="translate(0.882 0.882)" fill="#6e7182" opacity="0.843"/>
        <circle id="Эллипс_169" data-name="Эллипс 169" cx="15.897" cy="15.897" r="15.897" transform="translate(0.771 0.771)" fill="#6b6e7f" opacity="0.863"/>
        <circle id="Эллипс_170" data-name="Эллипс 170" cx="15.897" cy="15.897" r="15.897" transform="translate(0.661 0.661)" fill="#676b7c" opacity="0.882"/>
        <circle id="Эллипс_171" data-name="Эллипс 171" cx="15.897" cy="15.897" r="15.897" transform="translate(0.551 0.551)" fill="#64677a" opacity="0.902"/>
        <circle id="Эллипс_172" data-name="Эллипс 172" cx="15.897" cy="15.897" r="15.897" transform="translate(0.441 0.441)" fill="#606477" opacity="0.922"/>
        <circle id="Эллипс_173" data-name="Эллипс 173" cx="15.897" cy="15.897" r="15.897" transform="translate(0.331 0.331)" fill="#5d6174" opacity="0.941"/>
        <circle id="Эллипс_174" data-name="Эллипс 174" cx="15.897" cy="15.897" r="15.897" transform="translate(0.22 0.22)" fill="#5a5e71" opacity="0.961"/>
        <circle id="Эллипс_175" data-name="Эллипс 175" cx="15.897" cy="15.897" r="15.897" transform="translate(0.11 0.11)" fill="#565a6e" opacity="0.98"/>
        <circle id="Эллипс_176" data-name="Эллипс 176" cx="15.897" cy="15.897" r="15.897" fill="#53576b"/>
      </g>
      <circle id="Эллипс_177" data-name="Эллипс 177" cx="16.606" cy="16.606" r="16.606" transform="matrix(0.973, -0.23, 0.23, 0.973, 0, 7.631)" fill="url(#linear-gradient-3)"/>
      <path id="Контур_514" data-name="Контур 514" d="M817.846,2014.949a16.876,16.876,0,1,1,16.876-16.876A16.9,16.9,0,0,1,817.846,2014.949Zm0-33.213a16.337,16.337,0,1,0,16.336,16.337A16.356,16.356,0,0,0,817.846,1981.736Z" transform="translate(-797.868 -1978.095)" fill="url(#linear-gradient-4)"/>
    </g>
  </g>
  <g id="Сгруппировать_101" data-name="Сгруппировать 101" transform="translate(14.619 9.329)">
    <g id="Сгруппировать_100" data-name="Сгруппировать 100">
      <path id="Контур_515" data-name="Контур 515" d="M816.565,1996.356a.354.354,0,0,1,.329-.328c1.477,0,3,.041,3-1.888v-2.833c0-1.149-1.067-1.56-2.052-1.56-2.175,0-2.094,1.4-2.052,3a.353.353,0,0,1-.329.328h-3.53a.353.353,0,0,1-.328-.328v-1.478c0-3.119,3.694-4.638,6.321-4.638,4.146,0,6.157,2.093,6.157,6.157,0,2.545,0,3.284-1.97,4.31a.329.329,0,0,0-.041.574c2.093,1.109,2.011,2.176,2.011,4.721,0,4.31-1.683,6.526-6.28,6.526-4.556,0-6.116-1.97-6.2-6.157a.353.353,0,0,1,.328-.328h3.53a.353.353,0,0,1,.329.328c-.042,1.56-.083,3,2.052,3,1.108,0,2.052-.575,2.052-1.765v-3.12c0-2.052-1.354-2.052-3-2.052a.354.354,0,0,1-.329-.329Z" transform="translate(-811.599 -1986.628)" fill="#2b454e"/>
    </g>
  </g>
</svg>
