<svg id="Сгруппировать_96" data-name="Сгруппировать 96" xmlns="http://www.w3.org/2000/svg" xmlns:xlink="http://www.w3.org/1999/xlink" width="42.52" height="46.694" viewBox="0 0 42.52 46.694">
  <defs>
    <linearGradient id="linear-gradient" x1="-167.178" y1="-97.549" x2="-166.521" y2="-98.494" gradientUnits="objectBoundingBox">
      <stop offset="0" stop-color="#0bf"/>
      <stop offset="1" stop-color="#3a5aff"/>
    </linearGradient>
    <linearGradient id="linear-gradient-2" x1="0.035" y1="0.121" x2="0.823" y2="1.069" gradientUnits="objectBoundingBox">
      <stop offset="0" stop-color="#fe3eff"/>
      <stop offset="1" stop-color="#2759ff"/>
    </linearGradient>
    <linearGradient id="linear-gradient-3" x1="-16.413" y1="-84.2" x2="-15.72" y2="-83.506" gradientUnits="objectBoundingBox">
      <stop offset="0" stop-color="#e2e1e6"/>
      <stop offset="0.845" stop-color="#fff"/>
    </linearGradient>
    <linearGradient id="linear-gradient-4" x1="-61.907" y1="-36.891" x2="-60.907" y2="-36.891" gradientUnits="objectBoundingBox">
      <stop offset="0" stop-color="#fff"/>
      <stop offset="1" stop-color="#e6e6e6"/>
    </linearGradient>
  </defs>
  <g id="Сгруппировать_93" data-name="Сгруппировать 93">
    <path id="Контур_510" data-name="Контур 510" d="M832.056,1909.7H818.239v10.6l13.816-10.6Z" transform="translate(-796.98 -1873.605)" fill="url(#linear-gradient)"/>
    <rect id="Прямоугольник_13" data-name="Прямоугольник 13" width="41.732" height="41.732" rx="20.866" fill="url(#linear-gradient-2)"/>
    <g id="Сгруппировать_92" data-name="Сгруппировать 92" transform="translate(0.889 0.796)">
      <g id="Сгруппировать_91" data-name="Сгруппировать 91" transform="translate(4.216 4.216)" style="mix-blend-mode: multiply;isolation: isolate">
        <circle id="Эллипс_72" data-name="Эллипс 72" cx="15.897" cy="15.897" r="15.897" transform="translate(5.621 5.621)" fill="#fff" opacity="0"/>
        <circle id="Эллипс_73" data-name="Эллипс 73" cx="15.897" cy="15.897" r="15.897" transform="translate(5.511 5.511)" fill="#fcfcfc" opacity="0.02"/>
        <circle id="Эллипс_74" data-name="Эллипс 74" cx="15.897" cy="15.897" r="15.897" transform="translate(5.4 5.401)" fill="#f8f8f9" opacity="0.039"/>
        <circle id="Эллипс_75" data-name="Эллипс 75" cx="15.897" cy="15.897" r="15.897" transform="translate(5.29 5.29)" fill="#f5f5f6" opacity="0.059"/>
        <circle id="Эллипс_76" data-name="Эллипс 76" cx="15.897" cy="15.897" r="15.897" transform="translate(5.18 5.18)" fill="#f2f2f3" opacity="0.078"/>
        <circle id="Эллипс_77" data-name="Эллипс 77" cx="15.897" cy="15.897" r="15.897" transform="translate(5.07 5.07)" fill="#eeeff0" opacity="0.098"/>
        <circle id="Эллипс_78" data-name="Эллипс 78" cx="15.897" cy="15.897" r="15.897" transform="translate(4.96 4.96)" fill="#ebebee" opacity="0.118"/>
        <circle id="Эллипс_79" data-name="Эллипс 79" cx="15.897" cy="15.897" r="15.897" transform="translate(4.849 4.849)" fill="#e7e8eb" opacity="0.137"/>
        <circle id="Эллипс_80" data-name="Эллипс 80" cx="15.897" cy="15.897" r="15.897" transform="translate(4.739 4.739)" fill="#e4e5e8" opacity="0.157"/>
        <circle id="Эллипс_81" data-name="Эллипс 81" cx="15.897" cy="15.897" r="15.897" transform="translate(4.629 4.629)" fill="#e1e1e5" opacity="0.176"/>
        <circle id="Эллипс_82" data-name="Эллипс 82" cx="15.897" cy="15.897" r="15.897" transform="translate(4.519 4.519)" fill="#dddee2" opacity="0.196"/>
        <circle id="Эллипс_83" data-name="Эллипс 83" cx="15.897" cy="15.897" r="15.897" transform="translate(4.408 4.409)" fill="#dadbdf" opacity="0.216"/>
        <circle id="Эллипс_84" data-name="Эллипс 84" cx="15.897" cy="15.897" r="15.897" transform="translate(4.298 4.298)" fill="#d7d7dc" opacity="0.235"/>
        <circle id="Эллипс_85" data-name="Эллипс 85" cx="15.897" cy="15.897" r="15.897" transform="translate(4.188 4.188)" fill="#d3d4d9" opacity="0.255"/>
        <circle id="Эллипс_86" data-name="Эллипс 86" cx="15.897" cy="15.897" r="15.897" transform="translate(4.078 4.078)" fill="#d0d1d6" opacity="0.275"/>
        <circle id="Эллипс_87" data-name="Эллипс 87" cx="15.897" cy="15.897" r="15.897" transform="translate(3.968 3.968)" fill="#ccced3" opacity="0.294"/>
        <circle id="Эллипс_88" data-name="Эллипс 88" cx="15.897" cy="15.897" r="15.897" transform="translate(3.857 3.858)" fill="#c9cad1" opacity="0.314"/>
        <circle id="Эллипс_89" data-name="Эллипс 89" cx="15.897" cy="15.897" r="15.897" transform="translate(3.747 3.747)" fill="#c6c7ce" opacity="0.333"/>
        <circle id="Эллипс_90" data-name="Эллипс 90" cx="15.897" cy="15.897" r="15.897" transform="translate(3.637 3.637)" fill="#c2c4cb" opacity="0.353"/>
        <circle id="Эллипс_91" data-name="Эллипс 91" cx="15.897" cy="15.897" r="15.897" transform="translate(3.527 3.527)" fill="#bfc0c8" opacity="0.373"/>
        <circle id="Эллипс_92" data-name="Эллипс 92" cx="15.897" cy="15.897" r="15.897" transform="translate(3.417 3.417)" fill="#bcbdc5" opacity="0.392"/>
        <circle id="Эллипс_93" data-name="Эллипс 93" cx="15.897" cy="15.897" r="15.897" transform="translate(3.306 3.306)" fill="#b8bac2" opacity="0.412"/>
        <circle id="Эллипс_94" data-name="Эллипс 94" cx="15.897" cy="15.897" r="15.897" transform="translate(3.196 3.196)" fill="#b5b7bf" opacity="0.431"/>
        <circle id="Эллипс_95" data-name="Эллипс 95" cx="15.897" cy="15.897" r="15.897" transform="translate(3.086 3.086)" fill="#b1b3bc" opacity="0.451"/>
        <circle id="Эллипс_96" data-name="Эллипс 96" cx="15.897" cy="15.897" r="15.897" transform="translate(2.976 2.976)" fill="#aeb0b9" opacity="0.471"/>
        <circle id="Эллипс_97" data-name="Эллипс 97" cx="15.897" cy="15.897" r="15.897" transform="translate(2.865 2.866)" fill="#abadb6" opacity="0.49"/>
        <circle id="Эллипс_98" data-name="Эллипс 98" cx="15.897" cy="15.897" r="15.897" transform="translate(2.755 2.755)" fill="#a7a9b4" opacity="0.51"/>
        <circle id="Эллипс_99" data-name="Эллипс 99" cx="15.897" cy="15.897" r="15.897" transform="translate(2.645 2.645)" fill="#a4a6b1" opacity="0.529"/>
        <circle id="Эллипс_100" data-name="Эллипс 100" cx="15.897" cy="15.897" r="15.897" transform="translate(2.535 2.535)" fill="#a1a3ae" opacity="0.549"/>
        <circle id="Эллипс_101" data-name="Эллипс 101" cx="15.897" cy="15.897" r="15.897" transform="translate(2.425 2.425)" fill="#9d9fab" opacity="0.569"/>
        <circle id="Эллипс_102" data-name="Эллипс 102" cx="15.897" cy="15.897" r="15.897" transform="translate(2.314 2.314)" fill="#9a9ca8" opacity="0.588"/>
        <circle id="Эллипс_103" data-name="Эллипс 103" cx="15.897" cy="15.897" r="15.897" transform="translate(2.204 2.204)" fill="#9699a5" opacity="0.608"/>
        <circle id="Эллипс_104" data-name="Эллипс 104" cx="15.897" cy="15.897" r="15.897" transform="translate(2.094 2.094)" fill="#9396a2" opacity="0.627"/>
        <circle id="Эллипс_105" data-name="Эллипс 105" cx="15.897" cy="15.897" r="15.897" transform="translate(1.984 1.984)" fill="#90929f" opacity="0.647"/>
        <circle id="Эллипс_106" data-name="Эллипс 106" cx="15.897" cy="15.897" r="15.897" transform="translate(1.874 1.874)" fill="#8c8f9c" opacity="0.667"/>
        <circle id="Эллипс_107" data-name="Эллипс 107" cx="15.897" cy="15.897" r="15.897" transform="translate(1.763 1.763)" fill="#898c99" opacity="0.686"/>
        <circle id="Эллипс_108" data-name="Эллипс 108" cx="15.897" cy="15.897" r="15.897" transform="translate(1.653 1.653)" fill="#868897" opacity="0.706"/>
        <circle id="Эллипс_109" data-name="Эллипс 109" cx="15.897" cy="15.897" r="15.897" transform="translate(1.543 1.543)" fill="#828594" opacity="0.725"/>
        <circle id="Эллипс_110" data-name="Эллипс 110" cx="15.897" cy="15.897" r="15.897" transform="translate(1.433 1.433)" fill="#7f8291" opacity="0.745"/>
        <circle id="Эллипс_111" data-name="Эллипс 111" cx="15.897" cy="15.897" r="15.897" transform="translate(1.323 1.323)" fill="#7b7f8e" opacity="0.765"/>
        <circle id="Эллипс_112" data-name="Эллипс 112" cx="15.897" cy="15.897" r="15.897" transform="translate(1.212 1.212)" fill="#787b8b" opacity="0.784"/>
        <circle id="Эллипс_113" data-name="Эллипс 113" cx="15.897" cy="15.897" r="15.897" transform="translate(1.102 1.102)" fill="#757888" opacity="0.804"/>
        <circle id="Эллипс_114" data-name="Эллипс 114" cx="15.897" cy="15.897" r="15.897" transform="translate(0.992 0.992)" fill="#717585" opacity="0.824"/>
        <circle id="Эллипс_115" data-name="Эллипс 115" cx="15.897" cy="15.897" r="15.897" transform="translate(0.882 0.882)" fill="#6e7182" opacity="0.843"/>
        <circle id="Эллипс_116" data-name="Эллипс 116" cx="15.897" cy="15.897" r="15.897" transform="translate(0.771 0.771)" fill="#6b6e7f" opacity="0.863"/>
        <circle id="Эллипс_117" data-name="Эллипс 117" cx="15.897" cy="15.897" r="15.897" transform="translate(0.661 0.661)" fill="#676b7c" opacity="0.882"/>
        <circle id="Эллипс_118" data-name="Эллипс 118" cx="15.897" cy="15.897" r="15.897" transform="translate(0.551 0.551)" fill="#64677a" opacity="0.902"/>
        <circle id="Эллипс_119" data-name="Эллипс 119" cx="15.897" cy="15.897" r="15.897" transform="translate(0.441 0.441)" fill="#606477" opacity="0.922"/>
        <circle id="Эллипс_120" data-name="Эллипс 120" cx="15.897" cy="15.897" r="15.897" transform="translate(0.331 0.331)" fill="#5d6174" opacity="0.941"/>
        <circle id="Эллипс_121" data-name="Эллипс 121" cx="15.897" cy="15.897" r="15.897" transform="translate(0.22 0.22)" fill="#5a5e71" opacity="0.961"/>
        <circle id="Эллипс_122" data-name="Эллипс 122" cx="15.897" cy="15.897" r="15.897" transform="translate(0.11 0.11)" fill="#565a6e" opacity="0.98"/>
        <circle id="Эллипс_123" data-name="Эллипс 123" cx="15.897" cy="15.897" r="15.897" fill="#53576b"/>
      </g>
      <circle id="Эллипс_124" data-name="Эллипс 124" cx="16.606" cy="16.606" r="16.606" transform="translate(0 7.631) rotate(-13.283)" fill="url(#linear-gradient-3)"/>
      <path id="Контур_511" data-name="Контур 511" d="M817.846,1911.254a16.876,16.876,0,1,1,16.876-16.876A16.9,16.9,0,0,1,817.846,1911.254Zm0-33.213a16.336,16.336,0,1,0,16.336,16.337A16.356,16.356,0,0,0,817.846,1878.041Z" transform="translate(-797.868 -1874.401)" fill="url(#linear-gradient-4)"/>
    </g>
  </g>
  <g id="Сгруппировать_95" data-name="Сгруппировать 95" transform="translate(14.704 9.328)">
    <g id="Сгруппировать_94" data-name="Сгруппировать 94">
      <path id="Контур_512" data-name="Контур 512" d="M819.307,1891.467a4.064,4.064,0,0,0,.746-2.568c0-1.616-.042-2.817-2.072-2.817-2.444,0-2.071,1.574-2.071,3.4h-4.226v-1.74c0-3.19,3.6-4.806,6.339-4.806,3.521,0,6.255,1.782,6.255,5.551a6.185,6.185,0,0,1-1.408,4.6l-6.215,8.99h7.623v3.148H811.684v-2.982Z" transform="translate(-811.684 -1882.933)" fill="#2b454e"/>
    </g>
  </g>
</svg>
