<svg id="Сгруппировать_90" data-name="Сгруппировать 90" xmlns="http://www.w3.org/2000/svg" xmlns:xlink="http://www.w3.org/1999/xlink" width="42.52" height="46.694" viewBox="0 0 42.52 46.694">
  <defs>
    <linearGradient id="linear-gradient" x1="-167.178" y1="-97.549" x2="-166.521" y2="-98.494" gradientUnits="objectBoundingBox">
      <stop offset="0" stop-color="#0bf"/>
      <stop offset="1" stop-color="#3a5aff"/>
    </linearGradient>
    <linearGradient id="linear-gradient-2" x1="0.907" y1="0.96" x2="-0.036" gradientUnits="objectBoundingBox">
      <stop offset="0" stop-color="#2759ff"/>
      <stop offset="1" stop-color="#fe3eff"/>
    </linearGradient>
    <linearGradient id="linear-gradient-3" x1="-12.932" y1="-87.68" x2="-12.239" y2="-86.987" gradientUnits="objectBoundingBox">
      <stop offset="0" stop-color="#e2e1e6"/>
      <stop offset="0.845" stop-color="#fff"/>
    </linearGradient>
    <linearGradient id="linear-gradient-4" x1="-68.404" y1="-30.394" x2="-67.404" y2="-30.394" gradientUnits="objectBoundingBox">
      <stop offset="0" stop-color="#fff"/>
      <stop offset="1" stop-color="#e6e6e6"/>
    </linearGradient>
  </defs>
  <g id="Сгруппировать_87" data-name="Сгруппировать 87">
    <path id="Контур_507" data-name="Контур 507" d="M832.056,1806H818.239v10.6l13.816-10.6Z" transform="translate(-796.98 -1769.91)" fill="url(#linear-gradient)"/>
    <path id="Контур_2185" data-name="Контур 2185" d="M20.866,0h0A20.866,20.866,0,0,1,41.732,20.866h0A20.866,20.866,0,0,1,20.866,41.732h0A20.866,20.866,0,0,1,0,20.866H0A20.866,20.866,0,0,1,20.866,0Z" fill="url(#linear-gradient-2)"/>
    <g id="Сгруппировать_86" data-name="Сгруппировать 86" transform="translate(0.889 0.796)">
      <g id="Сгруппировать_85" data-name="Сгруппировать 85" transform="translate(4.216 4.216)" style="mix-blend-mode: multiply;isolation: isolate">
        <circle id="Эллипс_19" data-name="Эллипс 19" cx="15.897" cy="15.897" r="15.897" transform="translate(5.621 5.621)" fill="#fff" opacity="0"/>
        <circle id="Эллипс_20" data-name="Эллипс 20" cx="15.897" cy="15.897" r="15.897" transform="translate(5.511 5.511)" fill="#fcfcfc" opacity="0.02"/>
        <circle id="Эллипс_21" data-name="Эллипс 21" cx="15.897" cy="15.897" r="15.897" transform="translate(5.4 5.4)" fill="#f8f8f9" opacity="0.039"/>
        <circle id="Эллипс_22" data-name="Эллипс 22" cx="15.897" cy="15.897" r="15.897" transform="translate(5.29 5.29)" fill="#f5f5f6" opacity="0.059"/>
        <circle id="Эллипс_23" data-name="Эллипс 23" cx="15.897" cy="15.897" r="15.897" transform="translate(5.18 5.18)" fill="#f2f2f3" opacity="0.078"/>
        <circle id="Эллипс_24" data-name="Эллипс 24" cx="15.897" cy="15.897" r="15.897" transform="translate(5.07 5.07)" fill="#eeeff0" opacity="0.098"/>
        <circle id="Эллипс_25" data-name="Эллипс 25" cx="15.897" cy="15.897" r="15.897" transform="translate(4.96 4.959)" fill="#ebebee" opacity="0.118"/>
        <circle id="Эллипс_26" data-name="Эллипс 26" cx="15.897" cy="15.897" r="15.897" transform="translate(4.849 4.849)" fill="#e7e8eb" opacity="0.137"/>
        <circle id="Эллипс_27" data-name="Эллипс 27" cx="15.897" cy="15.897" r="15.897" transform="translate(4.739 4.739)" fill="#e4e5e8" opacity="0.157"/>
        <circle id="Эллипс_28" data-name="Эллипс 28" cx="15.897" cy="15.897" r="15.897" transform="translate(4.629 4.629)" fill="#e1e1e5" opacity="0.176"/>
        <circle id="Эллипс_29" data-name="Эллипс 29" cx="15.897" cy="15.897" r="15.897" transform="translate(4.519 4.519)" fill="#dddee2" opacity="0.196"/>
        <circle id="Эллипс_30" data-name="Эллипс 30" cx="15.897" cy="15.897" r="15.897" transform="translate(4.408 4.408)" fill="#dadbdf" opacity="0.216"/>
        <circle id="Эллипс_31" data-name="Эллипс 31" cx="15.897" cy="15.897" r="15.897" transform="translate(4.298 4.298)" fill="#d7d7dc" opacity="0.235"/>
        <circle id="Эллипс_32" data-name="Эллипс 32" cx="15.897" cy="15.897" r="15.897" transform="translate(4.188 4.188)" fill="#d3d4d9" opacity="0.255"/>
        <circle id="Эллипс_33" data-name="Эллипс 33" cx="15.897" cy="15.897" r="15.897" transform="translate(4.078 4.078)" fill="#d0d1d6" opacity="0.275"/>
        <circle id="Эллипс_34" data-name="Эллипс 34" cx="15.897" cy="15.897" r="15.897" transform="translate(3.968 3.968)" fill="#ccced3" opacity="0.294"/>
        <circle id="Эллипс_35" data-name="Эллипс 35" cx="15.897" cy="15.897" r="15.897" transform="translate(3.857 3.857)" fill="#c9cad1" opacity="0.314"/>
        <circle id="Эллипс_36" data-name="Эллипс 36" cx="15.897" cy="15.897" r="15.897" transform="translate(3.747 3.747)" fill="#c6c7ce" opacity="0.333"/>
        <circle id="Эллипс_37" data-name="Эллипс 37" cx="15.897" cy="15.897" r="15.897" transform="translate(3.637 3.637)" fill="#c2c4cb" opacity="0.353"/>
        <circle id="Эллипс_38" data-name="Эллипс 38" cx="15.897" cy="15.897" r="15.897" transform="translate(3.527 3.527)" fill="#bfc0c8" opacity="0.373"/>
        <circle id="Эллипс_39" data-name="Эллипс 39" cx="15.897" cy="15.897" r="15.897" transform="translate(3.417 3.417)" fill="#bcbdc5" opacity="0.392"/>
        <circle id="Эллипс_40" data-name="Эллипс 40" cx="15.897" cy="15.897" r="15.897" transform="translate(3.306 3.306)" fill="#b8bac2" opacity="0.412"/>
        <circle id="Эллипс_41" data-name="Эллипс 41" cx="15.897" cy="15.897" r="15.897" transform="translate(3.196 3.196)" fill="#b5b7bf" opacity="0.431"/>
        <circle id="Эллипс_42" data-name="Эллипс 42" cx="15.897" cy="15.897" r="15.897" transform="translate(3.086 3.086)" fill="#b1b3bc" opacity="0.451"/>
        <circle id="Эллипс_43" data-name="Эллипс 43" cx="15.897" cy="15.897" r="15.897" transform="translate(2.976 2.976)" fill="#aeb0b9" opacity="0.471"/>
        <circle id="Эллипс_44" data-name="Эллипс 44" cx="15.897" cy="15.897" r="15.897" transform="translate(2.865 2.865)" fill="#abadb6" opacity="0.49"/>
        <circle id="Эллипс_45" data-name="Эллипс 45" cx="15.897" cy="15.897" r="15.897" transform="translate(2.755 2.755)" fill="#a7a9b4" opacity="0.51"/>
        <circle id="Эллипс_46" data-name="Эллипс 46" cx="15.897" cy="15.897" r="15.897" transform="translate(2.645 2.645)" fill="#a4a6b1" opacity="0.529"/>
        <circle id="Эллипс_47" data-name="Эллипс 47" cx="15.897" cy="15.897" r="15.897" transform="translate(2.535 2.535)" fill="#a1a3ae" opacity="0.549"/>
        <circle id="Эллипс_48" data-name="Эллипс 48" cx="15.897" cy="15.897" r="15.897" transform="translate(2.425 2.425)" fill="#9d9fab" opacity="0.569"/>
        <circle id="Эллипс_49" data-name="Эллипс 49" cx="15.897" cy="15.897" r="15.897" transform="translate(2.314 2.314)" fill="#9a9ca8" opacity="0.588"/>
        <circle id="Эллипс_50" data-name="Эллипс 50" cx="15.897" cy="15.897" r="15.897" transform="translate(2.204 2.204)" fill="#9699a5" opacity="0.608"/>
        <circle id="Эллипс_51" data-name="Эллипс 51" cx="15.897" cy="15.897" r="15.897" transform="translate(2.094 2.094)" fill="#9396a2" opacity="0.627"/>
        <circle id="Эллипс_52" data-name="Эллипс 52" cx="15.897" cy="15.897" r="15.897" transform="translate(1.984 1.984)" fill="#90929f" opacity="0.647"/>
        <circle id="Эллипс_53" data-name="Эллипс 53" cx="15.897" cy="15.897" r="15.897" transform="translate(1.874 1.874)" fill="#8c8f9c" opacity="0.667"/>
        <circle id="Эллипс_54" data-name="Эллипс 54" cx="15.897" cy="15.897" r="15.897" transform="translate(1.763 1.763)" fill="#898c99" opacity="0.686"/>
        <circle id="Эллипс_55" data-name="Эллипс 55" cx="15.897" cy="15.897" r="15.897" transform="translate(1.653 1.653)" fill="#868897" opacity="0.706"/>
        <circle id="Эллипс_56" data-name="Эллипс 56" cx="15.897" cy="15.897" r="15.897" transform="translate(1.543 1.543)" fill="#828594" opacity="0.725"/>
        <circle id="Эллипс_57" data-name="Эллипс 57" cx="15.897" cy="15.897" r="15.897" transform="translate(1.433 1.433)" fill="#7f8291" opacity="0.745"/>
        <circle id="Эллипс_58" data-name="Эллипс 58" cx="15.897" cy="15.897" r="15.897" transform="translate(1.323 1.323)" fill="#7b7f8e" opacity="0.765"/>
        <circle id="Эллипс_59" data-name="Эллипс 59" cx="15.897" cy="15.897" r="15.897" transform="translate(1.212 1.212)" fill="#787b8b" opacity="0.784"/>
        <circle id="Эллипс_60" data-name="Эллипс 60" cx="15.897" cy="15.897" r="15.897" transform="translate(1.102 1.102)" fill="#757888" opacity="0.804"/>
        <circle id="Эллипс_61" data-name="Эллипс 61" cx="15.897" cy="15.897" r="15.897" transform="translate(0.992 0.992)" fill="#717585" opacity="0.824"/>
        <circle id="Эллипс_62" data-name="Эллипс 62" cx="15.897" cy="15.897" r="15.897" transform="translate(0.882 0.882)" fill="#6e7182" opacity="0.843"/>
        <circle id="Эллипс_63" data-name="Эллипс 63" cx="15.897" cy="15.897" r="15.897" transform="translate(0.771 0.771)" fill="#6b6e7f" opacity="0.863"/>
        <circle id="Эллипс_64" data-name="Эллипс 64" cx="15.897" cy="15.897" r="15.897" transform="translate(0.661 0.661)" fill="#676b7c" opacity="0.882"/>
        <circle id="Эллипс_65" data-name="Эллипс 65" cx="15.897" cy="15.897" r="15.897" transform="translate(0.551 0.551)" fill="#64677a" opacity="0.902"/>
        <circle id="Эллипс_66" data-name="Эллипс 66" cx="15.897" cy="15.897" r="15.897" transform="translate(0.441 0.441)" fill="#606477" opacity="0.922"/>
        <circle id="Эллипс_67" data-name="Эллипс 67" cx="15.897" cy="15.897" r="15.897" transform="translate(0.331 0.331)" fill="#5d6174" opacity="0.941"/>
        <circle id="Эллипс_68" data-name="Эллипс 68" cx="15.897" cy="15.897" r="15.897" transform="translate(0.22 0.22)" fill="#5a5e71" opacity="0.961"/>
        <circle id="Эллипс_69" data-name="Эллипс 69" cx="15.897" cy="15.897" r="15.897" transform="translate(0.11 0.11)" fill="#565a6e" opacity="0.98"/>
        <circle id="Эллипс_70" data-name="Эллипс 70" cx="15.897" cy="15.897" r="15.897" fill="#53576b"/>
      </g>
      <circle id="Эллипс_71" data-name="Эллипс 71" cx="16.606" cy="16.606" r="16.606" transform="matrix(0.973, -0.23, 0.23, 0.973, 0, 7.631)" fill="url(#linear-gradient-3)"/>
      <path id="Контур_508" data-name="Контур 508" d="M817.846,1807.559a16.876,16.876,0,1,1,16.876-16.876A16.894,16.894,0,0,1,817.846,1807.559Zm0-33.212a16.336,16.336,0,1,0,16.336,16.336A16.355,16.355,0,0,0,817.846,1774.347Z" transform="translate(-797.868 -1770.706)" fill="url(#linear-gradient-4)"/>
    </g>
  </g>
  <g id="Сгруппировать_89" data-name="Сгруппировать 89" transform="translate(16.034 9.328)">
    <g id="Сгруппировать_88" data-name="Сгруппировать 88">
      <path id="Контур_509" data-name="Контур 509" d="M813.014,1784.957v-3.381l4.258-2.338h4.257v22.289h-4.257v-18.908Z" transform="translate(-813.014 -1779.238)" fill="#2b454e"/>
    </g>
  </g>
</svg>
