<svg id="Сгруппировать_118" data-name="Сгруппировать 118" xmlns="http://www.w3.org/2000/svg" xmlns:xlink="http://www.w3.org/1999/xlink" width="1.383" height="55.102" viewBox="0 0 1.383 55.102">
  <defs>
    <linearGradient id="linear-gradient" x1="-626.645" y1="-155.58" x2="-625.644" y2="-155.58" gradientUnits="objectBoundingBox">
      <stop offset="0" stop-color="#45e3ff"/>
      <stop offset="1" stop-color="#9babff"/>
    </linearGradient>
    <linearGradient id="linear-gradient-2" x1="-626.645" y1="-157.841" x2="-625.644" y2="-157.841" xlink:href="#linear-gradient"/>
    <linearGradient id="linear-gradient-3" x1="-626.645" y1="-160.082" x2="-625.644" y2="-160.082" xlink:href="#linear-gradient"/>
  </defs>
  <g id="Сгруппировать_115" data-name="Сгруппировать 115">
    <path id="Контур_522" data-name="Контур 522" d="M818.239,1816.641a.692.692,0,0,1,.692.692v.346a.692.692,0,1,1-1.383,0v-.346A.691.691,0,0,1,818.239,1816.641Zm0,3.806a.692.692,0,0,1,.692.692v.345a.692.692,0,1,1-1.383,0v-.345A.691.691,0,0,1,818.239,1820.447Zm0,3.8a.692.692,0,0,1,.692.692v.346a.692.692,0,1,1-1.383,0v-.346A.691.691,0,0,1,818.239,1824.252Zm0,3.805a.692.692,0,0,1,.692.692v.346a.692.692,0,1,1-1.383,0v-.346A.691.691,0,0,1,818.239,1828.057Zm0,3.806a.691.691,0,0,1,.692.691v.346a.692.692,0,1,1-1.383,0v-.346A.691.691,0,0,1,818.239,1831.863Z" transform="translate(-817.548 -1816.641)" fill="url(#linear-gradient)"/>
  </g>
  <g id="Сгруппировать_116" data-name="Сгруппировать 116" transform="translate(0 19.076)">
    <path id="Контур_523" data-name="Контур 523" d="M818.239,1835.717a.691.691,0,0,1,.692.691v.346a.692.692,0,1,1-1.383,0v-.346A.691.691,0,0,1,818.239,1835.717Zm0,3.8a.692.692,0,0,1,.692.692v.346a.692.692,0,1,1-1.383,0v-.346A.691.691,0,0,1,818.239,1839.522Zm0,3.805a.692.692,0,0,1,.692.692v.346a.692.692,0,1,1-1.383,0v-.346A.691.691,0,0,1,818.239,1843.327Zm0,3.806a.691.691,0,0,1,.692.691v.346a.692.692,0,1,1-1.383,0v-.346A.691.691,0,0,1,818.239,1847.133Zm0,3.8a.692.692,0,0,1,.692.692v.346a.692.692,0,0,1-1.383,0v-.346A.691.691,0,0,1,818.239,1850.938Z" transform="translate(-817.548 -1835.717)" fill="url(#linear-gradient-2)"/>
  </g>
  <g id="Сгруппировать_117" data-name="Сгруппировать 117" transform="translate(0 38.151)">
    <path id="Контур_524" data-name="Контур 524" d="M818.239,1854.792a.692.692,0,0,1,.692.692v.346a.692.692,0,1,1-1.383,0v-.346A.691.691,0,0,1,818.239,1854.792Zm0,3.805a.692.692,0,0,1,.692.692v.346a.692.692,0,1,1-1.383,0v-.346A.691.691,0,0,1,818.239,1858.6Zm0,3.806a.691.691,0,0,1,.692.691v.346a.692.692,0,1,1-1.383,0v-.346A.691.691,0,0,1,818.239,1862.4Zm0,3.805a.692.692,0,0,1,.692.692v.346a.692.692,0,0,1-1.383,0v-.346A.691.691,0,0,1,818.239,1866.208Zm0,3.8a.692.692,0,0,1,.692.692v.346a.692.692,0,1,1-1.383,0v-.346A.691.691,0,0,1,818.239,1870.013Z" transform="translate(-817.548 -1854.792)" fill="url(#linear-gradient-3)"/>
  </g>
</svg>
