<svg xmlns="http://www.w3.org/2000/svg" id="check-mark" width="49.892" height="49.892" viewBox="0 0 49.892 49.892">
    <defs>
        <linearGradient id="linear-gradient" x1=".894" x2=".126" y1=".924" y2=".122" gradientUnits="objectBoundingBox">
            <stop offset="0" stop-color="#55aefd"/>
            <stop offset="1" stop-color="#fd3eff"/>
            <stop offset="1" stop-color="#6b97f9" stop-opacity=".671"/>
        </linearGradient>
        <style>
            .cls-3{fill:none}
        </style>
    </defs>
    <path id="Контур_85" fill="url(#linear-gradient)" d="M57.943 33.972A23.972 23.972 0 1 1 33.971 10a23.972 23.972 0 0 1 23.972 23.972zm0 0" transform="translate(-9.026 -9.026)"/>
    <path id="Контур_86" fill="#fff" d="M135.974 139.848l-11.613 11.612-5.083-5.083-5.512 5.512 5.083 5.083 5.513 5.512 17.124-17.124zm0 0" transform="translate(-103.478 -125.423)"/>
    <path id="Контур_87" d="M115.336 154.433a.974.974 0 0 1-.689-.285l-10.6-10.6a.975.975 0 0 1 0-1.378l5.512-5.512a.975.975 0 0 1 1.378 0l4.394 4.394 10.923-10.923a.975.975 0 0 1 1.378 0l5.512 5.513a.974.974 0 0 1 0 1.378l-17.124 17.125a.974.974 0 0 1-.689.285zm-9.217-11.57l9.217 9.217 15.747-15.747-4.134-4.135-10.923 10.923a.974.974 0 0 1-1.378 0l-4.394-4.394zm0 0" class="cls-3" transform="translate(-93.655 -117.194)"/>
    <path id="Контур_88" d="M24.94 49.892q-.955 0-1.912-.073a24.941 24.941 0 1 1 22.193-10.333.974.974 0 1 1-1.582-1.138 23 23 0 1 0-5.29 5.29.975.975 0 0 1 1.137 1.583 24.942 24.942 0 0 1-14.546 4.671zm0 0" class="cls-3"/>
    <path id="Контур_89" d="M420.927 421.9a.975.975 0 1 1 .689-.285.982.982 0 0 1-.689.285zm0 0" class="cls-3" transform="translate(-379.031 -379.031)"/>
</svg>
