<svg xmlns="http://www.w3.org/2000/svg" width="24.741" height="36.654" viewBox="0 0 24.741 36.654">
    <defs>
        <linearGradient id="linear-gradient" x2="1" y1=".064" y2="1" gradientUnits="objectBoundingBox">
            <stop offset="0" stop-color="#fd3eff"/>
            <stop offset="1" stop-color="#55aefd"/>
        </linearGradient>
        <style>
            .cls-3{fill:none}
        </style>
    </defs>
    <g id="_1" opacity="0.95">
        <path id="Контур_74" fill="url(#linear-gradient)" fill-rule="evenodd" d="M128.784 42.46a7.747 7.747 0 0 1-.09 1.281 2.828 2.828 0 0 1-.249.838 1.043 1.043 0 0 1-.359.442.838.838 0 0 1-.468.138h-20.886a.791.791 0 0 1-.438-.138 1.122 1.122 0 0 1-.359-.442 2.828 2.828 0 0 1-.249-.838 7.734 7.734 0 0 1-.09-1.281 9.8 9.8 0 0 1 .07-1.308 2.79 2.79 0 0 1 .239-.848 1.3 1.3 0 0 1 .369-.47.731.731 0 0 1 .458-.147h7.052V16.966l-6.066 3.1a4.891 4.891 0 0 1-1.086.369.786.786 0 0 1-.677-.166 1.394 1.394 0 0 1-.329-.792 10.871 10.871 0 0 1-.09-1.594c0-.433.01-.792.03-1.069a2.324 2.324 0 0 1 .149-.709 1.167 1.167 0 0 1 .319-.488 3.459 3.459 0 0 1 .548-.405l8.108-4.856a1.259 1.259 0 0 1 .359-.175 3.268 3.268 0 0 1 .578-.111c.229-.028.538-.046.916-.055s.867-.015 1.474-.015c.737 0 1.335.009 1.793.037a5.321 5.321 0 0 1 1.036.138.813.813 0 0 1 .468.258.662.662 0 0 1 .12.405v28.849h6.175a.84.84 0 0 1 .488.147 1.22 1.22 0 0 1 .378.47 2.786 2.786 0 0 1 .239.848 9.8 9.8 0 0 1 .07 1.308z" transform="translate(-104.79 -9.253)"/>
        <g id="Сгруппировать_98">
            <path id="Контур_75" d="M120.2 31.829a3.458 3.458 0 0 0-.3-1.054l-.005-.011a1.9 1.9 0 0 0-.617-.739 1.645 1.645 0 0 0-.943-.286h-5.392V1.556a1.347 1.347 0 0 0-.249-.8 1.531 1.531 0 0 0-.888-.548 5.986 5.986 0 0 0-1.2-.167C110.165.012 109.6 0 108.763 0c-.616 0-1.1 0-1.491.009-.406.01-.74.03-.99.061a4.037 4.037 0 0 0-.725.142h-.015a2.066 2.066 0 0 0-.542.27L96.934 5.33l-.021.013a4.082 4.082 0 0 0-.662.5 1.885 1.885 0 0 0-.491.75 3.017 3.017 0 0 0-.19.9c-.021.292-.032.669-.032 1.118a11.414 11.414 0 0 0 .1 1.7 2.042 2.042 0 0 0 .529 1.181l.016.016a1.566 1.566 0 0 0 1.326.369h.03a5.544 5.544 0 0 0 1.28-.428l.04-.019 4.91-2.516v6.947a.773.773 0 0 0 1.542 0V7.694a.708.708 0 0 0-.379-.616.823.823 0 0 0-.764-.01l-6.033 3.091a4.082 4.082 0 0 1-.851.3h-.023a1.287 1.287 0 0 1-.1-.358 10.344 10.344 0 0 1-.081-1.493c0-.418.009-.762.028-1.023a1.654 1.654 0 0 1 .1-.5l.014-.038a.463.463 0 0 1 .129-.2l.02-.019a2.992 2.992 0 0 1 .412-.3l8.08-4.858q.032-.019.062-.042a.486.486 0 0 1 .128-.058 2.574 2.574 0 0 1 .425-.078c.2-.024.482-.041.835-.05s.846-.009 1.451-.009c.8 0 1.336.011 1.739.035a4.408 4.408 0 0 1 .859.109h.009l.031.009v28.869a.745.745 0 0 0 .771.716h6.18l.014.008a.578.578 0 0 1 .135.2 2.19 2.19 0 0 1 .172.637 9.221 9.221 0 0 1 .063 1.22 7.2 7.2 0 0 1-.08 1.171 2.164 2.164 0 0 1-.176.631l-.018.035a.483.483 0 0 1-.09.14l-.009.006a.025.025 0 0 1-.019.005H97.521l-.008-.005a.706.706 0 0 1-.111-.169l-.006-.011a2.165 2.165 0 0 1-.177-.632 7.191 7.191 0 0 1-.08-1.171 9.225 9.225 0 0 1 .063-1.217 2.2 2.2 0 0 1 .172-.639.747.747 0 0 1 .139-.206h7.025a.745.745 0 0 0 .771-.716V22.3a.773.773 0 0 0-1.542 0v7.443H97.5a1.529 1.529 0 0 0-.944.309 2.01 2.01 0 0 0-.576.717l-.005.011a3.46 3.46 0 0 0-.3 1.056 10.344 10.344 0 0 0-.076 1.4 8.381 8.381 0 0 0 .1 1.395 3.419 3.419 0 0 0 .317 1.043 1.805 1.805 0 0 0 .607.714 1.6 1.6 0 0 0 .881.269h20.844a1.649 1.649 0 0 0 .911-.269 1.757 1.757 0 0 0 .613-.726 3.446 3.446 0 0 0 .311-1.031 8.389 8.389 0 0 0 .1-1.395 10.36 10.36 0 0 0-.083-1.407z" class="cls-3" transform="translate(-95.538)"/>
            <path id="Контур_76" d="M203.043 257.937a.747.747 0 0 0 0-1.494.747.747 0 0 0 0 1.494z" class="cls-3" transform="translate(-194.049 -238.117)"/>
        </g>
    </g>
</svg>
