<svg id="XMLID_386_" xmlns="http://www.w3.org/2000/svg" width="24.947" height="23.947" viewBox="0 0 24.947 23.947">
  <path id="XMLID_389_" d="M24.9,23.388a9.834,9.834,0,0,0-7.647-8.623V13.526a1.657,1.657,0,0,0-.4-3.264H13.343a1.657,1.657,0,0,0-.4,3.264v1.241a9.784,9.784,0,0,0-4.8,2.639,9.889,9.889,0,0,0-.827.939l-.037,0H3.809a.487.487,0,1,0,0,.974H6.655a9.768,9.768,0,0,0-.865,1.873H.487a.487.487,0,1,0,0,.974H5.515a9.907,9.907,0,0,0-.242,1.873H3.118a.487.487,0,0,0,0,.974h2.17a9.892,9.892,0,0,0,.3,1.873H2.436a.487.487,0,0,0,0,.974H5.9a9.841,9.841,0,0,0,8.228,6.3q.483.048.966.048a9.866,9.866,0,0,0,5.371-1.587.487.487,0,0,0-.532-.817,8.868,8.868,0,1,1,2.612-2.615.487.487,0,1,0,.817.531A9.874,9.874,0,0,0,24.9,23.388ZM12.661,11.919a.683.683,0,0,1,.682-.682h3.508a.682.682,0,0,1,0,1.364H13.343A.683.683,0,0,1,12.661,11.919ZM13.918,14.6V13.575h2.359V14.6A9.928,9.928,0,0,0,13.918,14.6Z" transform="translate(0 -10.262)"/>
  <path id="XMLID_391_" d="M436.257,425.5a.487.487,0,1,0,.344.143A.49.49,0,0,0,436.257,425.5Z" transform="translate(-414.537 -405.268)"/>
  <path id="XMLID_394_" d="M162.431,144.609a7.559,7.559,0,1,0,7.559,7.559A7.567,7.567,0,0,0,162.431,144.609Zm0,14.143a6.584,6.584,0,1,1,6.584-6.584A6.592,6.592,0,0,1,162.431,158.752Z" transform="translate(-147.326 -138.063)"/>
  <path id="XMLID_397_" d="M262.7,219.554l-2.413,2.413a1.51,1.51,0,0,0-1.338,0l-1.08-1.08a.487.487,0,1,0-.689.689l1.08,1.08a1.514,1.514,0,1,0,2.716,0l2.342-2.342h0l.071-.071a.487.487,0,1,0-.689-.689Zm-3.082,4.311a.54.54,0,1,1,.54-.54A.54.54,0,0,1,259.617,223.865Z" transform="translate(-244.512 -209.22)"/>
  <path id="XMLID_398_" d="M398.594,289.86h-.451a.487.487,0,1,0,0,.974h.451a.487.487,0,0,0,0-.974Z" transform="translate(-378.279 -276.237)"/>
  <path id="XMLID_399_" d="M194.021,289.616h-.451a.487.487,0,1,0,0,.974h.451a.487.487,0,1,0,0-.974Z" transform="translate(-183.674 -276.004)"/>
  <path id="XMLID_400_" d="M300.61,184.245a.487.487,0,0,0,.487-.487v-.451a.487.487,0,0,0-.975,0v.451A.487.487,0,0,0,300.61,184.245Z" transform="translate(-285.5 -174.411)"/>
  <path id="XMLID_424_" d="M300.366,387.393a.487.487,0,0,0-.487.487v.451a.487.487,0,1,0,.974,0v-.451A.487.487,0,0,0,300.366,387.393Z" transform="translate(-285.268 -369.017)"/>
  <path id="XMLID_425_" d="M.487,351.44a.487.487,0,1,0,.344.832.487.487,0,0,0-.344-.832Z" transform="translate(0 -334.816)"/>
</svg>
