<svg xmlns="http://www.w3.org/2000/svg" width="23" height="16.439" viewBox="0 0 23 16.439">
  <g id="car_3_" data-name="car (3)" transform="translate(0 -3.281)">
    <path id="Контур_2187" data-name="Контур 2187" d="M22,8.015H20.564c-.243-2.256-1.533-4.734-3.748-4.734H5.83A3.354,3.354,0,0,0,3.014,5.11a7.075,7.075,0,0,0-.932,2.905H1a1,1,0,0,0-1,1v1.159a1,1,0,0,0,1,1h.242a3.535,3.535,0,0,0-.332,1.5V15.52a.881.881,0,0,0-.395.734v.612a.882.882,0,0,0,.815.878v.972a1,1,0,0,0,1,1H5.282a1,1,0,0,0,1-1v-.969H8.611a.876.876,0,0,0,.58.22h4.263a.876.876,0,0,0,.58-.22H16.36v.969a1,1,0,0,0,1,1h2.951a1,1,0,0,0,1-1v-.972a.882.882,0,0,0,.815-.878v-.612a.881.881,0,0,0-.395-.734V14.393a.337.337,0,0,0-.674,0v.98H14.034a.885.885,0,0,0-.58-.22H9.192a.886.886,0,0,0-.58.22H1.58v-2.71A2.894,2.894,0,0,1,4.463,9.779H5.9l1.326,2.164a2.066,2.066,0,0,0,1.751.98H13.67a2.066,2.066,0,0,0,1.751-.98l1.326-2.164h1.436a2.893,2.893,0,0,1,2.883,2.883v.158a.337.337,0,0,0,.674,0,3.65,3.65,0,0,0-.332-1.656H22a1,1,0,0,0,1-1V9.01a1,1,0,0,0-1-1ZM1,10.491a.322.322,0,0,1-.322-.322V9.01A.322.322,0,0,1,1,8.689h1.04c0,.082,0,.164,0,.247V10.07a3.585,3.585,0,0,0-.383.422Zm4.616,8.225a.33.33,0,0,1-.33.33H2.331a.33.33,0,0,1-.33-.33v-.969H5.612Zm15.033,0a.33.33,0,0,1-.33.33H17.364a.33.33,0,0,1-.33-.33v-.969h3.611Zm.608-2.669a.2.2,0,0,1,.035,0l.014,0a.21.21,0,0,1,.159.2v.612a.21.21,0,0,1-.207.207H14.335V16.047Zm-7.8-.22a.211.211,0,0,1,.207.207v1.052a.211.211,0,0,1-.207.207H9.192a.211.211,0,0,1-.207-.207V16.034a.211.211,0,0,1,.207-.207h4.263Zm-5.144.22v1.027H1.393a.21.21,0,0,1-.207-.207v-.612a.21.21,0,0,1,.158-.2l.014,0a.2.2,0,0,1,.035,0H8.311ZM3.839,9.161V8.936A5.628,5.628,0,0,1,4.558,6.05,1.657,1.657,0,0,1,5.83,5.088h4.884a.337.337,0,0,0,0-.674H5.83A2.279,2.279,0,0,0,3.982,5.7a6.306,6.306,0,0,0-.817,3.236v.416a3.538,3.538,0,0,0-.46.22V8.936A6.812,6.812,0,0,1,3.59,5.46,2.713,2.713,0,0,1,5.83,3.954H16.816A2.713,2.713,0,0,1,19.056,5.46a6.8,6.8,0,0,1,.884,3.475v.636a3.54,3.54,0,0,0-.46-.22V8.936A6.305,6.305,0,0,0,18.663,5.7a2.279,2.279,0,0,0-1.848-1.285h-4.53a.337.337,0,0,0,0,.674h4.53a1.657,1.657,0,0,1,1.272.962,5.628,5.628,0,0,1,.718,2.885v.225a3.671,3.671,0,0,0-.6-.055,2.834,2.834,0,0,0-5.667,0H4.463a3.705,3.705,0,0,0-.623.055Zm11.007,2.43a1.388,1.388,0,0,1-1.176.659H8.976A1.388,1.388,0,0,1,7.8,11.591L6.689,9.78h9.268Zm-.511-2.486a1.041,1.041,0,0,1,2.082,0Zm2.756,0a1.715,1.715,0,0,0-3.43,0h-.445a2.16,2.16,0,0,1,4.32,0Zm5.235,1.064a.322.322,0,0,1-.322.322H21a3.588,3.588,0,0,0-.383-.422V8.936c0-.082,0-.164,0-.247H22a.322.322,0,0,1,.322.322v1.159Z" fill="#2b454e"/>
    <path id="Контур_2188" data-name="Контур 2188" d="M8.659,13.515a.337.337,0,0,0,0,.674h5.328a.337.337,0,0,0,0-.674Z" fill="#2b454e"/>
    <path id="Контур_2189" data-name="Контур 2189" d="M18.5,11.023a1.65,1.65,0,1,0,1.65,1.65A1.652,1.652,0,0,0,18.5,11.023Zm0,2.627a.976.976,0,1,1,.976-.976A.977.977,0,0,1,18.5,13.65Z" fill="#2b454e"/>
    <path id="Контур_2190" data-name="Контур 2190" d="M2.494,12.673a1.65,1.65,0,1,0,1.65-1.65,1.652,1.652,0,0,0-1.65,1.65Zm2.627,0a.976.976,0,1,1-.976-.976A.977.977,0,0,1,5.121,12.673Z" fill="#2b454e"/>
  </g>
</svg>
