<svg xmlns="http://www.w3.org/2000/svg" width="18.82" height="18.82" viewBox="0 0 18.82 18.82">
  <g id="Сгруппировать_353" data-name="Сгруппировать 353" transform="translate(-10.786 -2.335)">
    <g id="pause_1_" data-name="pause (1)" transform="translate(10.786 2.335)">
      <path id="Контур_2195" data-name="Контур 2195" d="M16.338,3.03a9.41,9.41,0,1,0,0,13.308,9.41,9.41,0,0,0,0-13.308Zm-.429,12.878a8.8,8.8,0,1,1,0-12.449A8.8,8.8,0,0,1,15.909,15.909Z" transform="translate(-0.274 -0.274)" fill="#2b454e"/>
      <path id="Контур_2196" data-name="Контур 2196" d="M9.537,1.645A7.892,7.892,0,1,0,17.43,9.537,7.9,7.9,0,0,0,9.537,1.645Zm0,15.177a7.285,7.285,0,1,1,7.285-7.285A7.293,7.293,0,0,1,9.537,16.823Z" transform="translate(-0.127 -0.127)" fill="#2b454e"/>
      <path id="Контур_2197" data-name="Контур 2197" d="M9.374,2.742A6.68,6.68,0,0,0,3.2,6.876a.3.3,0,0,0,.561.231A6.073,6.073,0,0,1,9.374,3.349a.3.3,0,0,0,0-.607Z" transform="translate(0.036 -0.01)" fill="#2b454e"/>
      <path id="Контур_2198" data-name="Контур 2198" d="M7.854,6.032H6.639a.608.608,0,0,0-.607.607V11.5a.608.608,0,0,0,.607.607H7.854a.608.608,0,0,0,.607-.607V6.639A.608.608,0,0,0,7.854,6.032Zm0,5.464H6.639V6.639H7.854V11.5Z" transform="translate(0.342 0.342)" fill="#2b454e"/>
      <path id="Контур_2199" data-name="Контур 2199" d="M11.144,6.032H9.93a.608.608,0,0,0-.607.607V11.5a.608.608,0,0,0,.607.607h1.214a.608.608,0,0,0,.607-.607V6.639a.608.608,0,0,0-.607-.607Zm0,5.464H9.93V6.639h1.214V11.5Z" transform="translate(0.694 0.342)" fill="#2b454e"/>
    </g>
  </g>
</svg>
