<svg xmlns="http://www.w3.org/2000/svg" width="21.44" height="21.442" viewBox="0 0 21.44 21.442">
  <g id="wall-clock" transform="translate(0 0)">
    <g id="Сгруппировать_45" data-name="Сгруппировать 45">
      <g id="Сгруппировать_44" data-name="Сгруппировать 44">
        <path id="Контур_24" data-name="Контур 24" d="M415.738,376.892a.837.837,0,0,0-1.172.172c-.152.2-.314.4-.483.6a.838.838,0,1,0,1.255,1.109c.2-.226.392-.463.572-.7A.838.838,0,0,0,415.738,376.892Z" transform="translate(-396.542 -360.95)" fill="#2b454e"/>
        <path id="Контур_25" data-name="Контур 25" d="M463.744,286.444a.838.838,0,0,0-1,.64c-.054.249-.119.5-.195.74a.838.838,0,1,0,1.6.494c.089-.288.167-.584.231-.879A.838.838,0,0,0,463.744,286.444Z" transform="translate(-443.147 -274.429)" fill="#2b454e"/>
        <path id="Контур_26" data-name="Контур 26" d="M335.2,442.3c-.222.124-.453.24-.684.345a.838.838,0,1,0,.689,1.527c.275-.124.548-.262.811-.409a.838.838,0,1,0-.817-1.463Z" transform="translate(-320.038 -423.675)" fill="#2b454e"/>
        <path id="Контур_27" data-name="Контур 27" d="M160.12,76.838v6.354l-3.071,3.071a.838.838,0,1,0,1.184,1.185l3.316-3.317a.838.838,0,0,0,.245-.592v-6.7a.838.838,0,1,0-1.675,0Z" transform="translate(-150.237 -72.817)" fill="#2b454e"/>
        <path id="Контур_28" data-name="Контур 28" d="M20.6,1.8a.838.838,0,0,0-.837.838V4.964A10.721,10.721,0,1,0,10.72,21.442h.042c.3,0,.607-.013.906-.038a.838.838,0,0,0-.14-1.669c-.253.021-.511.032-.766.032H10.72A9.046,9.046,0,1,1,18.506,6.114H16.2a.838.838,0,0,0,0,1.675H18.76A2.664,2.664,0,0,0,20.153,7.4a.836.836,0,0,0,.075-.048,2.68,2.68,0,0,0,1.211-2.24V2.638A.838.838,0,0,0,20.6,1.8Z" transform="translate(0 0)" fill="#2b454e"/>
      </g>
    </g>
  </g>
</svg>
