<svg xmlns="http://www.w3.org/2000/svg" width="20.142" height="21.442" viewBox="0 0 20.142 21.442">
  <g id="wall-clock" transform="translate(0 0)">
    <g id="Сгруппировать_45" data-name="Сгруппировать 45">
      <g id="Сгруппировать_44" data-name="Сгруппировать 44">
        <path id="Контур_24" data-name="Контур 24" d="M415.625,376.892a.756.756,0,0,0-1.1.172c-.143.2-.3.4-.454.6a.876.876,0,0,0,.068,1.182.757.757,0,0,0,.521.21.765.765,0,0,0,.59-.283c.188-.226.368-.463.537-.7A.874.874,0,0,0,415.625,376.892Z" transform="translate(-397.591 -360.95)"/>
        <path id="Контур_25" data-name="Контур 25" d="M463.669,286.444a.788.788,0,0,0-.936.64c-.051.249-.112.5-.183.74a.849.849,0,0,0,.52,1.048.743.743,0,0,0,.233.038.794.794,0,0,0,.752-.591c.084-.288.157-.584.217-.879A.839.839,0,0,0,463.669,286.444Z" transform="translate(-444.32 -274.429)"/>
        <path id="Контур_26" data-name="Контур 26" d="M335.132,442.3c-.209.124-.425.24-.643.345a.86.86,0,0,0-.393,1.108.786.786,0,0,0,.717.493.744.744,0,0,0,.323-.074c.258-.124.515-.262.762-.409a.867.867,0,0,0,.3-1.14A.762.762,0,0,0,335.132,442.3Z" transform="translate(-320.885 -423.675)"/>
        <path id="Контур_27" data-name="Контур 27" d="M159.919,76.838v6.354l-2.885,3.071a.876.876,0,0,0,0,1.185.754.754,0,0,0,1.113,0l3.116-3.317a.866.866,0,0,0,.23-.592v-6.7a.788.788,0,1,0-1.574,0Z" transform="translate(-150.635 -72.817)"/>
        <path id="Контур_28" data-name="Контур 28" d="M19.356,1.8a.813.813,0,0,0-.787.838V4.964A9.965,9.965,0,0,0,10.071,0,9.708,9.708,0,0,0,2.95,3.14,11.009,11.009,0,0,0,0,10.721,11.009,11.009,0,0,0,2.95,18.3a9.708,9.708,0,0,0,7.121,3.14h.039c.284,0,.57-.013.851-.038a.824.824,0,0,0,.718-.9.8.8,0,0,0-.85-.765c-.238.021-.48.032-.72.032h-.039a8.8,8.8,0,0,1-8.5-9.046,8.8,8.8,0,0,1,8.5-9.046,8.431,8.431,0,0,1,7.315,4.439H15.223a.839.839,0,0,0,0,1.675h2.4A2.391,2.391,0,0,0,18.934,7.4.782.782,0,0,0,19,7.35a2.727,2.727,0,0,0,1.138-2.24V2.638A.813.813,0,0,0,19.356,1.8Z" transform="translate(0 0)"/>
      </g>
    </g>
  </g>
</svg>
