<svg xmlns="http://www.w3.org/2000/svg" width="37" height="18.5" viewBox="0 0 37 18.5">
  <g id="sedan_1_" data-name="sedan (1)" transform="translate(0 0)">
    <g id="Сгруппировать_138" data-name="Сгруппировать 138" transform="translate(26.208 10.792)">
      <g id="Сгруппировать_137" data-name="Сгруппировать 137">
        <path id="Контур_111" data-name="Контур 111" d="M6.938,20.042A3.854,3.854,0,1,1,3.083,23.9,3.86,3.86,0,0,1,6.938,20.042Zm0,6.167A2.313,2.313,0,1,0,4.625,23.9,2.315,2.315,0,0,0,6.938,26.208Z" transform="translate(-3.083 -20.042)" fill="#2b454e"/>
      </g>
    </g>
    <g id="Сгруппировать_140" data-name="Сгруппировать 140" transform="translate(3.083 10.792)">
      <g id="Сгруппировать_139" data-name="Сгруппировать 139">
        <path id="Контур_112" data-name="Контур 112" d="M30.063,20.042A3.854,3.854,0,1,1,26.208,23.9,3.86,3.86,0,0,1,30.063,20.042Zm0,6.167A2.313,2.313,0,1,0,27.75,23.9,2.315,2.315,0,0,0,30.063,26.208Z" transform="translate(-26.208 -20.042)" fill="#2b454e"/>
      </g>
    </g>
    <g id="Сгруппировать_142" data-name="Сгруппировать 142" transform="translate(0 0)">
      <g id="Сгруппировать_141" data-name="Сгруппировать 141">
        <path id="Контур_113" data-name="Контур 113" d="M4.625,15.417h1.3a2.111,2.111,0,0,0,1.317-.462l6.074-4.859a3.875,3.875,0,0,1,2.408-.845H26.871a3.846,3.846,0,0,1,3.207,1.716l1.312,1.97a2.111,2.111,0,0,0,1.756.939A3.86,3.86,0,0,1,37,17.729v3.083a3.86,3.86,0,0,1-3.854,3.854.771.771,0,1,1,0-1.542,2.315,2.315,0,0,0,2.313-2.312V17.729a2.315,2.315,0,0,0-2.312-2.312,3.644,3.644,0,0,1-3.039-1.626L28.8,11.821a2.31,2.31,0,0,0-1.924-1.03H15.728a2.326,2.326,0,0,0-1.446.507L8.208,16.157a3.655,3.655,0,0,1-2.28.8h-1.3c-2.262,0-3.083,2.3-3.083,3.854a2.238,2.238,0,0,0,2.313,2.313.771.771,0,1,1,0,1.542A3.77,3.77,0,0,1,0,20.813C0,18.2,1.62,15.417,4.625,15.417Z" transform="translate(0 -9.25)" fill="#2b454e"/>
      </g>
    </g>
    <g id="Сгруппировать_144" data-name="Сгруппировать 144" transform="translate(9.25 13.875)">
      <g id="Сгруппировать_143" data-name="Сгруппировать 143">
        <path id="Контур_114" data-name="Контур 114" d="M10.021,23.125H26.979a.771.771,0,1,1,0,1.542H10.021a.771.771,0,1,1,0-1.542Z" transform="translate(-9.25 -23.125)" fill="#2b454e"/>
      </g>
    </g>
    <g id="Сгруппировать_146" data-name="Сгруппировать 146" transform="translate(10.792 3.083)">
      <g id="Сгруппировать_145" data-name="Сгруппировать 145">
        <path id="Контур_115" data-name="Контур 115" d="M17.729,15.417h6.938V13.1a.771.771,0,1,1,1.542,0v3.083a.771.771,0,0,1-.771.771H17.729a.771.771,0,0,1,0-1.542Z" transform="translate(-16.958 -12.333)" fill="#2b454e"/>
      </g>
    </g>
    <g id="Сгруппировать_148" data-name="Сгруппировать 148" transform="translate(21.583 3.084)">
      <g id="Сгруппировать_147" data-name="Сгруппировать 147">
        <path id="Контур_116" data-name="Контур 116" d="M8.479,15.417H13.4l-.985-1.967a.771.771,0,0,1,1.38-.689l1.542,3.083a.77.77,0,0,1-.689,1.115H8.479a.771.771,0,0,1,0-1.542Z" transform="translate(-7.708 -12.334)" fill="#2b454e"/>
      </g>
    </g>
    <g id="Сгруппировать_150" data-name="Сгруппировать 150" transform="translate(15.417 9.25)">
      <g id="Сгруппировать_149" data-name="Сгруппировать 149">
        <path id="Контур_117" data-name="Контур 117" d="M19.271,18.5h1.542a.771.771,0,1,1,0,1.542H19.271a.771.771,0,1,1,0-1.542Z" transform="translate(-18.5 -18.5)" fill="#2b454e"/>
      </g>
    </g>
  </g>
</svg>
