<svg id="telephone" xmlns="http://www.w3.org/2000/svg" width="14.656" height="14.671" viewBox="0 0 14.656 14.671">
  <path id="Контур_58" data-name="Контур 58" d="M229.641,387.475a.286.286,0,1,0,.405,0A.286.286,0,0,0,229.641,387.475Zm0,0" transform="translate(-222.979 -376.291)" fill="#fff"/>
  <path id="Контур_59" data-name="Контур 59" d="M14.011,10.687l-2.176-1.85a.294.294,0,0,0-.032-.023,1.424,1.424,0,0,0-1.782.2L8.835,10.2a.286.286,0,0,1-.312.062,7.773,7.773,0,0,1-3.27-2.479,5.768,5.768,0,0,1-.892-1.586.285.285,0,0,0-.017-.059.285.285,0,0,1,.062-.312L5.592,4.635a1.424,1.424,0,0,0,.2-1.782l-.009-.014L4.207.656A1.433,1.433,0,0,0,1.99.42L1.752.657h0L.9,1.506C-.107,2.517-.273,4.037.425,5.9A14.581,14.581,0,0,0,3.8,10.82,14.65,14.65,0,0,0,8.85,14.255c1.628.595,3.361.668,4.587-.558l.8-.8a1.433,1.433,0,0,0-.226-2.21Zm-2.531-1.4,2.174,1.848a.282.282,0,0,0,.032.023.86.86,0,0,1,.146,1.333l-.059.059L10.065,9.776l.362-.362a.854.854,0,0,1,1.054-.127ZM3.728.971l.009.014,1.57,2.182A.854.854,0,0,1,5.186,4.23l-.35.351L2.328.892,2.4.825A.86.86,0,0,1,3.728.971ZM9.047,13.716a14.072,14.072,0,0,1-4.844-3.3A14,14,0,0,1,.962,5.7C.534,4.557.247,2.973,1.309,1.911L1.915,1.3,4.423,4.993,4,5.416a.856.856,0,0,0-.2.912,6.364,6.364,0,0,0,.926,1.709A8.4,8.4,0,0,0,8.3,10.787.857.857,0,0,0,9.24,10.6l.415-.415,3.707,2.776-.331.331c-1.138,1.139-2.8.859-3.985.425Zm0,0" transform="translate(-0.001 0)" fill="#fff"/>
  <path id="Контур_60" data-name="Контур 60" d="M97.412,255.456c-.3-.265-.826-.722-1.1-1.005a18.841,18.841,0,0,1-1.807-2.145.287.287,0,0,0-.471.326A19.406,19.406,0,0,0,95.9,254.85c.291.3.819.76,1.135,1.037a.287.287,0,1,0,.378-.431Zm0,0" transform="translate(-91.288 -244.956)" fill="#fff"/>
</svg>
