<svg xmlns="http://www.w3.org/2000/svg" xmlns:xlink="http://www.w3.org/1999/xlink" width="649.065" height="183.077" viewBox="0 0 649.065 183.077">
  <defs>
    <linearGradient id="linear-gradient" x1="-1.055" y1="0.5" x2="10.709" y2="0.5" gradientUnits="objectBoundingBox">
      <stop offset="0" stop-color="#ff3eff"/>
      <stop offset="1" stop-color="#265aff"/>
    </linearGradient>
    <linearGradient id="linear-gradient-2" x1="-2.071" x2="9.569" xlink:href="#linear-gradient"/>
    <linearGradient id="linear-gradient-3" x1="-3.674" x2="9.782" xlink:href="#linear-gradient"/>
    <linearGradient id="linear-gradient-4" x1="-3.178" x2="5.657" xlink:href="#linear-gradient"/>
    <linearGradient id="linear-gradient-5" x1="-7.157" x2="7.485" xlink:href="#linear-gradient"/>
    <linearGradient id="linear-gradient-6" x1="-7.672" x2="5.784" xlink:href="#linear-gradient"/>
    <linearGradient id="linear-gradient-7" x1="-8.317" x2="4.345" xlink:href="#linear-gradient"/>
    <linearGradient id="linear-gradient-8" x1="-9.519" x2="3.143" xlink:href="#linear-gradient"/>
    <linearGradient id="linear-gradient-9" x1="-13.305" x2="2.41" xlink:href="#linear-gradient"/>
    <linearGradient id="linear-gradient-11" x1="-2.071" x2="9.569" xlink:href="#linear-gradient"/>
    <linearGradient id="linear-gradient-12" x1="-3.674" x2="9.782" xlink:href="#linear-gradient"/>
    <linearGradient id="linear-gradient-14" x1="-7.157" x2="7.485" xlink:href="#linear-gradient"/>
    <linearGradient id="linear-gradient-15" x1="-7.672" x2="5.784" xlink:href="#linear-gradient"/>
  </defs>
  <g id="Сгруппировать_409" data-name="Сгруппировать 409" transform="translate(-30 -134.923)">
    <g id="Сгруппировать_289" data-name="Сгруппировать 289" transform="translate(-66.935 134.923)" opacity="0.07">
      <path id="Контур_1931" data-name="Контур 1931" d="M172.023,119.73H147.165L128.59,140.639V119.73H107.412v64.611H128.59v-20.46l5.026-5.295,15.524,25.755h25.4l-26.113-40.292Z" transform="translate(-9.412 -119.73)" fill="url(#linear-gradient)"/>
      <path id="Контур_1932" data-name="Контур 1932" d="M199.934,119.73l-23.153,64.611H197.51l2.423-8.526h21.089l2.513,8.526h21.089L221.471,119.73Zm4.038,42.625,6.551-23.152,6.82,23.152Z" transform="translate(-9.145 -119.73)" fill="url(#linear-gradient-2)"/>
      <path id="Контур_1933" data-name="Контур 1933" d="M282.745,119.73H251.606v64.611h21.178v-20.1h10.679c18.575,0,26.832-8.795,26.832-22.7C310.294,128.256,301.32,119.73,282.745,119.73Zm-1.166,29.434h-8.795V134.806H278.8c4.487,0,11.307.808,11.307,6.82C290.1,147.189,286.513,149.164,281.579,149.164Z" transform="translate(-8.858 -119.73)" fill="url(#linear-gradient-3)"/>
      <path id="Контур_1934" data-name="Контур 1934" d="M388.913,169.265H374.645V119.73h-20.28v49.535H340.1V119.73h-20.28v64.611h89.378V119.73h-20.28Z" transform="translate(-8.596 -119.73)" fill="url(#linear-gradient-4)"/>
      <path id="Контур_1935" data-name="Контур 1935" d="M442.546,159.125H469.2V144.049H442.546v-9.244h31.5V119.73H421.368v64.611H475.3V169.265H442.546Z" transform="translate(-8.206 -119.73)" fill="url(#linear-gradient-5)"/>
      <path id="Контур_1936" data-name="Контур 1936" d="M516.513,119.73H485.375v64.611h21.178v-20.1h10.678c18.575,0,26.832-8.795,26.832-22.7C544.062,128.256,535.088,119.73,516.513,119.73Zm-1.166,29.434h-8.794V134.806h6.012c4.487,0,11.307.808,11.307,6.82C523.872,147.189,520.281,149.164,515.347,149.164Z" transform="translate(-7.961 -119.73)" fill="url(#linear-gradient-6)"/>
      <path id="Контур_1937" data-name="Контур 1937" d="M572.786,156.791l1.077-16.511V119.73H553.582v64.611h19.831l23.333-37.061-1.077,16.511v20.55h20.28V119.73H596.117Z" transform="translate(-7.699 -119.73)" fill="url(#linear-gradient-7)"/>
      <path id="Контур_1938" data-name="Контур 1938" d="M669.417,142.254H649.406V119.73H628.228v64.611h21.178V157.33h20.012v27.011H690.6V119.73H669.417Z" transform="translate(-7.412 -119.73)" fill="url(#linear-gradient-8)"/>
      <path id="Контур_1939" data-name="Контур 1939" d="M702.873,184.341h21.178V134.805h29.075V119.73H702.873Z" transform="translate(-7.126 -119.73)" fill="url(#linear-gradient-9)"/>
    </g>
    <g id="Сгруппировать_290" data-name="Сгруппировать 290" transform="translate(30 177.95)">
      <path id="Контур_1940" data-name="Контур 1940" d="M249.256,162.592H231.836l-13.018,14.654V162.592H203.976v45.281h14.842V193.534l3.522-3.71,10.88,18.049h17.8l-18.3-28.237Z" transform="translate(-203.976 -162.592)" fill="url(#linear-gradient)"/>
      <path id="Контур_1941" data-name="Контур 1941" d="M268.817,162.592l-16.226,45.281h14.528l1.7-5.975H283.6l1.761,5.975h14.779L283.91,162.592Zm2.83,29.873,4.592-16.226,4.779,16.226Z" transform="translate(-203.789 -162.592)" fill="url(#linear-gradient-11)"/>
      <path id="Контур_1942" data-name="Контур 1942" d="M326.852,162.592H305.03v45.281h14.842V193.785h7.484c13.018,0,18.8-6.163,18.8-15.911C346.159,168.567,339.87,162.592,326.852,162.592Zm-.817,20.628h-6.164V173.157h4.213c3.145,0,7.924.566,7.924,4.78C332.009,181.837,329.494,183.22,326.035,183.22Z" transform="translate(-203.588 -162.592)" fill="url(#linear-gradient-12)"/>
      <path id="Контур_1943" data-name="Контур 1943" d="M401.257,197.307h-10V162.592H377.045v34.715h-10V162.592H352.832v45.281H415.47V162.592H401.257Z" transform="translate(-203.404 -162.592)" fill="url(#linear-gradient-4)"/>
      <path id="Контур_1944" data-name="Контур 1944" d="M438.844,190.2h18.679V179.636H438.844v-6.478h22.074V162.592H424v45.281h37.8V197.307H438.844Z" transform="translate(-203.131 -162.592)" fill="url(#linear-gradient-14)"/>
      <path id="Контур_1945" data-name="Контур 1945" d="M490.681,162.592H468.859v45.281H483.7V193.785h7.484c13.018,0,18.8-6.163,18.8-15.911C509.989,168.567,503.7,162.592,490.681,162.592Zm-.817,20.628H483.7V173.157h4.214c3.144,0,7.924.566,7.924,4.78C495.839,181.837,493.323,183.22,489.864,183.22Z" transform="translate(-202.959 -162.592)" fill="url(#linear-gradient-15)"/>
      <path id="Контур_1946" data-name="Контур 1946" d="M530.118,188.565l.755-11.571v-14.4H516.66v45.281h13.9L546.91,181.9l-.755,11.571v14.4h14.213V162.592h-13.9Z" transform="translate(-202.775 -162.592)" fill="url(#linear-gradient-7)"/>
      <path id="Контур_1947" data-name="Контур 1947" d="M597.84,178.378H583.815V162.592H568.973v45.281h14.842v-18.93H597.84v18.93h14.842V162.592H597.84Z" transform="translate(-202.574 -162.592)" fill="url(#linear-gradient-8)"/>
      <path id="Контур_1948" data-name="Контур 1948" d="M621.286,207.873h14.842V173.157H656.5V162.592H621.286Z" transform="translate(-202.374 -162.592)" fill="url(#linear-gradient-9)"/>
    </g>
    <g id="Сгруппировать_291" data-name="Сгруппировать 291" transform="translate(30.147 240.434)">
      <path id="Контур_1949" data-name="Контур 1949" d="M318.122,233.539h12.859c5.3,0,8.856,1.536,8.856,5.419a4.545,4.545,0,0,1-4.125,4.528c2.143.526,4.893,1.618,4.893,5.217,0,4.327-3.962,6.025-8.815,6.025H318.122Zm8.087,8.33h3.155c1.859,0,2.547-.445,2.547-1.617,0-1.415-.728-1.86-2.547-1.86h-3.155Zm0,8.007h3.155c2.021,0,3.153-.2,3.153-1.779s-1.091-1.941-3.153-1.941h-3.155Z" transform="translate(-318.122 -224.804)" fill="#2b454e"/>
      <path id="Контур_1950" data-name="Контур 1950" d="M367.713,254.758H358.17V225.643H372.2c8.37,0,12.414,3.842,12.414,9.827,0,6.268-3.72,10.231-12.091,10.231h-4.812Zm0-15.852h3.963c2.223,0,3.842-.889,3.842-3.4,0-2.709-3.074-3.073-5.1-3.073h-2.709Z" transform="translate(-317.968 -224.834)" fill="#2b454e"/>
      <path id="Контур_1951" data-name="Контур 1951" d="M395.912,246.036a4.083,4.083,0,0,0,4.166,4.165,3.355,3.355,0,0,0,3.154-1.86h8.047c-1.456,5.257-6.794,7-11.727,7-6.793,0-12.051-3.882-12.051-11,0-6.955,5.217-11.4,12.011-11.4,7.845,0,12.455,5.136,12.455,13.1Zm7.643-4.286a3.811,3.811,0,0,0-3.72-3.68c-2.507,0-3.923,1.415-3.923,3.68Z" transform="translate(-317.856 -224.806)" fill="#2b454e"/>
      <path id="Контур_1952" data-name="Контур 1952" d="M429.7,241.628a2.965,2.965,0,0,0-3.074-3.033c-3.154,0-3.679,3.276-3.679,5.782,0,3.2,1.213,5.3,3.679,5.3,2.183,0,3.033-1.5,3.276-3.155h8.491c-.727,6.431-5.9,8.816-11.767,8.816-6.834,0-12.09-3.842-12.09-11,0-7.239,5.094-11.4,12.09-11.4,5.662,0,11,2.426,11.605,8.694Z" transform="translate(-317.752 -224.806)" fill="#2b454e"/>
      <path id="Контур_1953" data-name="Контур 1953" d="M464.822,233.539v21.189h-8.411V239.686h-6.228v15.043h-8.411V233.539Z" transform="translate(-317.647 -224.804)" fill="#2b454e"/>
      <path id="Контур_1954" data-name="Контур 1954" d="M475.647,233.539l3.72,13.061,3.68-13.061h8.087l-6.793,19.774c-2.225,6.551-3.114,8.613-10.595,8.613-.85,0-2.831-.08-3.72-.162v-5.823c3.6,0,4.488-.2,4.488-1.5,0-.4-.121-.931-7.319-20.906Z" transform="translate(-317.55 -224.804)" fill="#2b454e"/>
      <path id="Контур_1955" data-name="Контур 1955" d="M506.043,234.947c6.308,0,10.635,3.478,10.635,9.908,0,6.833-5.257,10.513-11.848,10.513-7.683,0-11.848-4.569-11.848-12.13,0-7.32,2.184-14.963,10.393-16.216,3.639-.566,5.54-1.092,5.742-2.184h5.863c-.889,5.3-3.882,6.187-8.208,7-4.772.931-6.753,2.063-7.279,6.956A7.191,7.191,0,0,1,506.043,234.947Zm2.224,10.393c0-2.508-.606-4.569-3.558-4.569-2.589,0-3.317,2.062-3.317,4.811,0,2.1,1.052,4.126,3.317,4.126C507.3,249.707,508.266,247.684,508.266,245.339Z" transform="translate(-317.451 -224.837)" fill="#2b454e"/>
      <path id="Контур_1956" data-name="Контур 1956" d="M543.272,233.539v21.189h-8.411V239.686H530.13v5.256c0,7.36-2.75,10.15-7.359,10.15a12.837,12.837,0,0,1-4.125-.485v-5.58a6.741,6.741,0,0,0,1.5.162c1.78,0,2.143-1.5,2.143-6.631v-9.017Z" transform="translate(-317.352 -224.804)" fill="#2b454e"/>
      <path id="Контур_1957" data-name="Контур 1957" d="M555.7,245.144l7.2-11.605h8.452v21.189h-8.088v-11.2l-7.238,11.2h-8.411V233.539H555.7Z" transform="translate(-317.241 -224.804)" fill="#2b454e"/>
      <path id="Контур_1958" data-name="Контур 1958" d="M584.108,240.009l5.378-6.47h9.827l-7.845,8.208,8.856,12.981h-10.11l-4.529-7.522-1.576,1.577v5.945H575.7V233.539h8.411Z" transform="translate(-317.133 -224.804)" fill="#2b454e"/>
      <path id="Контур_1959" data-name="Контур 1959" d="M609.047,246.036a4.083,4.083,0,0,0,4.166,4.165,3.355,3.355,0,0,0,3.154-1.86h8.047c-1.456,5.257-6.794,7-11.727,7-6.793,0-12.051-3.882-12.051-11,0-6.955,5.217-11.4,12.011-11.4,7.845,0,12.455,5.136,12.455,13.1Zm7.643-4.286a3.811,3.811,0,0,0-3.72-3.68c-2.508,0-3.923,1.415-3.923,3.68Z" transform="translate(-317.037 -224.806)" fill="#2b454e"/>
      <path id="Контур_1960" data-name="Контур 1960" d="M652.041,235.065l8.371-9.422h11.2L660.978,236.6l11.767,18.156H661.3l-7-11.606-2.265,2.386v9.22H642.5V225.643h9.543Z" transform="translate(-316.877 -224.834)" fill="#2b454e"/>
      <path id="Контур_1961" data-name="Контур 1961" d="M682.816,233.541V236.7h.08c1.173-2.588,4.206-3.761,6.632-3.761,6.388,0,9.462,5.217,9.462,11.04,0,8.33-5.176,11.362-9.907,11.362a6.523,6.523,0,0,1-5.42-2.709v9.3h-8.411V233.541Zm7.764,10.553c0-3.356-1.456-5.014-3.68-5.014-2.022,0-3.4,2.023-3.4,4.853,0,2.952,1.254,4.974,3.438,4.974C689.164,248.907,690.58,247.007,690.58,244.095Z" transform="translate(-316.751 -224.806)" fill="#2b454e"/>
      <path id="Контур_1962" data-name="Контур 1962" d="M710.617,240.979h4.691c6.187,0,9.219,3.316,9.219,6.914,0,4.327-3.033,6.834-9.259,6.834H702.53V233.539h8.087Zm0,8.9h2.669c2.022,0,3.154-.323,3.154-1.982,0-1.617-1.092-2.062-3.154-2.062h-2.669Zm25.637,4.853h-8.411V233.539h8.411Z" transform="translate(-316.646 -224.804)" fill="#2b454e"/>
      <path id="Контур_1963" data-name="Контур 1963" d="M750.187,233.539l3.68,11.767,3.68-11.767h9.624v21.189h-7.44v-8.816l.809-5.419h-.162l-4.529,14.234h-3.962l-4.529-14.234H747.2l.809,5.9v8.33h-7.441V233.539Z" transform="translate(-316.5 -224.804)" fill="#2b454e"/>
    </g>
    <g id="Сгруппировать_293" data-name="Сгруппировать 293" transform="translate(30.196 298.151)">
      <path id="Контур_2029" data-name="Контур 2029" d="M254.626,292.188a5.454,5.454,0,0,1-1.5,4.066,6.747,6.747,0,0,1-8.447,0,6.25,6.25,0,0,1,.01-8.144,6.747,6.747,0,0,1,8.446.009A5.49,5.49,0,0,1,254.626,292.188Zm-4.126,2.543a2.687,2.687,0,0,0,.489-.964,5.866,5.866,0,0,0,.164-1.56,6.079,6.079,0,0,0-.168-1.546,2.74,2.74,0,0,0-.466-1,1.649,1.649,0,0,0-.718-.54,2.536,2.536,0,0,0-.9-.158,2.64,2.64,0,0,0-.86.129,1.744,1.744,0,0,0-.723.522,2.656,2.656,0,0,0-.488,1,5.823,5.823,0,0,0-.183,1.592,6.147,6.147,0,0,0,.159,1.486,2.606,2.606,0,0,0,.466,1.01,1.765,1.765,0,0,0,.713.531,2.644,2.644,0,0,0,1.815.014A1.6,1.6,0,0,0,250.5,294.731Z" transform="translate(-243.171 -282.317)" fill="#2b454e"/>
      <path id="Контур_2030" data-name="Контур 2030" d="M265.521,289.226h-3.334v8.186h-3.362v-8.186h-3.335v-2.272h10.03Z" transform="translate(-243.124 -282.315)" fill="#2b454e"/>
      <path id="Контур_2033" data-name="Контур 2033" d="M318.063,292.04a6.7,6.7,0,0,1-.4,2.356,5.176,5.176,0,0,1-1.036,1.751,4.523,4.523,0,0,1-1.517,1.1,4.457,4.457,0,0,1-1.814.372,5.219,5.219,0,0,1-1.516-.191,7.288,7.288,0,0,1-1.274-.535v4.358h-3.363V286.955h3.363v1.089a8.16,8.16,0,0,1,1.576-1,4.294,4.294,0,0,1,1.856-.381,3.589,3.589,0,0,1,3.037,1.434A6.393,6.393,0,0,1,318.063,292.04Zm-3.455.07a3.7,3.7,0,0,0-.521-2.213,1.928,1.928,0,0,0-1.644-.688,3.55,3.55,0,0,0-.976.144,4.134,4.134,0,0,0-.957.414v5.254a2.665,2.665,0,0,0,.715.168q.381.038.753.037a2.437,2.437,0,0,0,1.98-.777A3.573,3.573,0,0,0,314.608,292.11Z" transform="translate(-253.925 -282.316)" fill="#2b454e"/>
      <path id="Контур_2034" data-name="Контур 2034" d="M325.155,293.714l2.386-6.76h3.448l-5.811,14.295h-3.64l1.663-3.917-4.068-10.378h3.52Z" transform="translate(-253.879 -282.315)" fill="#2b454e"/>
      <path id="Контур_2035" data-name="Контур 2035" d="M342.309,288.619a4.23,4.23,0,0,1,1.006,1.506,5.8,5.8,0,0,1,.373,2.2,5.213,5.213,0,0,1-1.542,3.948,5.771,5.771,0,0,1-4.167,1.478,5.149,5.149,0,0,1-4.289-1.762,8.361,8.361,0,0,1-1.4-5.274,13.307,13.307,0,0,1,.079-1.356,11.872,11.872,0,0,1,.312-1.691,9.465,9.465,0,0,1,.573-1.649,4.33,4.33,0,0,1,.954-1.323,4.814,4.814,0,0,1,1.955-1.127,12.91,12.91,0,0,1,2.673-.513q.922-.084,2.207-.14t1.89-.074v2.487l-1.126.051c-.342.015-.743.039-1.2.069l-1.1.084q-.614.047-1.183.14a4.355,4.355,0,0,0-1.08.336,2.286,2.286,0,0,0-.82.614,2.432,2.432,0,0,0-.4.768,5.136,5.136,0,0,0-.233,1.16,6.761,6.761,0,0,1,1.561-.8,5.3,5.3,0,0,1,1.792-.294,5.234,5.234,0,0,1,1.723.28A3.97,3.97,0,0,1,342.309,288.619Zm-2.823,6.21a2.67,2.67,0,0,0,.532-.891,4.477,4.477,0,0,0,.2-1.5,2.554,2.554,0,0,0-.639-1.815,2.185,2.185,0,0,0-1.675-.686,5.306,5.306,0,0,0-1.022.1,4.256,4.256,0,0,0-1.124.425c0,.062,0,.151,0,.265s-.005.22-.005.313a15.1,15.1,0,0,0,.107,2.029,4.057,4.057,0,0,0,.406,1.32,1.872,1.872,0,0,0,.719.761,2.049,2.049,0,0,0,1.046.265,2.409,2.409,0,0,0,.76-.136A1.676,1.676,0,0,0,339.487,294.829Z" transform="translate(-253.829 -282.331)" fill="#2b454e"/>
      <path id="Контур_2036" data-name="Контур 2036" d="M356.409,297.412h-3.362v-8.121H350.29q-.029.7-.042,1.085t-.033.9a16.815,16.815,0,0,1-.251,2.44,6.5,6.5,0,0,1-.475,1.537,3.776,3.776,0,0,1-.6.959,5.55,5.55,0,0,1-.646.615,2.816,2.816,0,0,1-.974.475,4.116,4.116,0,0,1-1.159.177c-.292,0-.586-.011-.884-.033s-.475-.032-.531-.032V294.73h.1c.024,0,.068,0,.13.009a1.634,1.634,0,0,0,.186.01,2.674,2.674,0,0,0,.5-.047.8.8,0,0,0,.425-.2,2.935,2.935,0,0,0,.833-1.495,16.429,16.429,0,0,0,.3-2.658q.036-.652.074-1.491t.065-1.9h9.1Z" transform="translate(-253.781 -282.315)" fill="#2b454e"/>
      <path id="Контур_2037" data-name="Контур 2037" d="M369.821,292.8h-7.674a2.415,2.415,0,0,0,.937,1.881,4.161,4.161,0,0,0,2.538.652,5.7,5.7,0,0,0,2.058-.381,6.454,6.454,0,0,0,1.574-.82h.372v2.692a12.371,12.371,0,0,1-2.142.661,11.182,11.182,0,0,1-2.226.2,7.28,7.28,0,0,1-4.824-1.415,4.986,4.986,0,0,1-1.676-4.032,5.4,5.4,0,0,1,1.588-4.1,6.048,6.048,0,0,1,4.354-1.514,5.2,5.2,0,0,1,3.838,1.29,5.037,5.037,0,0,1,1.285,3.711Zm-3.334-1.966a2.35,2.35,0,0,0-.522-1.583,2.008,2.008,0,0,0-1.537-.531,2.456,2.456,0,0,0-1.592.5,2.142,2.142,0,0,0-.7,1.611Z" transform="translate(-253.727 -282.317)" fill="#2b454e"/>
      <path id="Контур_2038" data-name="Контур 2038" d="M382.705,297.43h-3.25v-6.4l-4.544,6.4h-2.776V286.972h3.25V292.7l4.209-5.727h3.111Zm-1.154-15.1a3.216,3.216,0,0,1-1.039,2.477,5.4,5.4,0,0,1-6.151,0,3.219,3.219,0,0,1-1.044-2.473h2.59a2.381,2.381,0,0,0,.353,1.374,1.769,1.769,0,0,0,2.351.009,2.4,2.4,0,0,0,.35-1.383Z" transform="translate(-253.676 -282.333)" fill="#2b454e"/>
      <path id="Контур_2039" data-name="Контур 2039" d="M401.09,294.452a2.646,2.646,0,0,1-.438,1.532,3.142,3.142,0,0,1-1.184,1.02,5.912,5.912,0,0,1-1.675.54,11.647,11.647,0,0,1-1.966.159,11.375,11.375,0,0,1-2.425-.233,18.909,18.909,0,0,1-2.064-.577v-2.543h.372a9.5,9.5,0,0,0,1.649.712,5.873,5.873,0,0,0,1.862.3q.354,0,.843-.046a3.022,3.022,0,0,0,.777-.159,1.713,1.713,0,0,0,.591-.344.842.842,0,0,0,.2-.624.959.959,0,0,0-.182-.623,1.025,1.025,0,0,0-.5-.326,2.712,2.712,0,0,0-.685-.121c-.276-.018-.626-.028-1.048-.028h-1.6v-2.123h1.286c.248,0,.545,0,.888-.009a3.742,3.742,0,0,0,.815-.084,1.145,1.145,0,0,0,.629-.325.863.863,0,0,0,.191-.578.658.658,0,0,0-.2-.484,1.341,1.341,0,0,0-.512-.307,3.214,3.214,0,0,0-.633-.14,5.99,5.99,0,0,0-.764-.047,6.173,6.173,0,0,0-1.542.233,8.01,8.01,0,0,0-1.559.577h-.363v-2.5q.577-.176,1.718-.41a11.619,11.619,0,0,1,2.334-.233,10.507,10.507,0,0,1,1.9.158,6.1,6.1,0,0,1,1.518.476,3.193,3.193,0,0,1,1.127.893,2.163,2.163,0,0,1,.429,1.369,2.23,2.23,0,0,1-.573,1.5,2.779,2.779,0,0,1-1.373.884v.083a3.387,3.387,0,0,1,1.536.843A2.119,2.119,0,0,1,401.09,294.452Z" transform="translate(-253.602 -282.316)" fill="#2b454e"/>
      <path id="Контур_2040" data-name="Контур 2040" d="M409.819,296.3c-.181.137-.4.3-.671.494a4.877,4.877,0,0,1-.754.456,4.736,4.736,0,0,1-1.025.331,5.9,5.9,0,0,1-1.164.106,3.556,3.556,0,0,1-2.5-.922,3.054,3.054,0,0,1-1.006-2.356,3.177,3.177,0,0,1,.512-1.872,3.437,3.437,0,0,1,1.454-1.145,8.233,8.233,0,0,1,2.309-.6q1.378-.176,2.86-.261v-.055a1.208,1.208,0,0,0-.709-1.2,5.129,5.129,0,0,0-2.086-.33,5.976,5.976,0,0,0-1.769.293c-.627.2-1.078.346-1.351.452h-.307v-2.524q.532-.14,1.728-.33a15.177,15.177,0,0,1,2.4-.191,7.451,7.451,0,0,1,4.131.879,3.125,3.125,0,0,1,1.271,2.762v7.115h-3.325Zm0-1.627v-2.172q-.681.056-1.472.154a7.073,7.073,0,0,0-1.2.227,1.657,1.657,0,0,0-.768.46,1.153,1.153,0,0,0-.265.793,2.078,2.078,0,0,0,.055.53.793.793,0,0,0,.28.389,1.367,1.367,0,0,0,.512.274,3.6,3.6,0,0,0,.932.088,2.758,2.758,0,0,0,1.02-.2A3.19,3.19,0,0,0,409.819,294.678Z" transform="translate(-253.559 -282.316)" fill="#2b454e"/>
      <path id="Контур_2041" data-name="Контур 2041" d="M435.334,297.412h-3.269v-6.491l-2.375,4.283h-1.472l-2.374-4.283v6.491h-3.176V286.954h3.641L429,291.7l2.691-4.749h3.641Z" transform="translate(-253.482 -282.315)" fill="#2b454e"/>
      <path id="Контур_2042" data-name="Контур 2042" d="M449.01,297.412h-3.25v-6.4l-4.544,6.4H438.44V286.954h3.25v5.727l4.21-5.727h3.11Z" transform="translate(-253.421 -282.315)" fill="#2b454e"/>
      <path id="Контур_2043" data-name="Контур 2043" d="M462.685,297.412h-3.362v-4.461h-3.837v4.461h-3.362V286.954h3.362v3.6h3.837v-3.6h3.362Z" transform="translate(-253.369 -282.315)" fill="#2b454e"/>
      <path id="Контур_2044" data-name="Контур 2044" d="M470.522,293.714l2.385-6.76h3.449l-5.812,14.295h-3.639l1.663-3.917L464.5,286.954h3.521Z" transform="translate(-253.321 -282.315)" fill="#2b454e"/>
      <path id="Контур_2045" data-name="Контур 2045" d="M486.711,289.226h-3.334v8.186h-3.362v-8.186h-3.334v-2.272h10.029Z" transform="translate(-253.275 -282.315)" fill="#2b454e"/>
      <path id="Контур_2046" data-name="Контур 2046" d="M493.056,293.714l2.386-6.76h3.448l-5.811,14.295H489.44l1.662-3.917-4.068-10.378h3.52Z" transform="translate(-253.235 -282.315)" fill="#2b454e"/>
    </g>
    <text id="_8" data-name="8" transform="translate(68 314)" fill="#2b454e" font-size="20" font-family="Verdana-Bold, Verdana" font-weight="700"><tspan x="-7.109" y="0">8</tspan></text>
  </g>
</svg>
