<svg xmlns="http://www.w3.org/2000/svg" xmlns:xlink="http://www.w3.org/1999/xlink" width="682.657" height="187.791" viewBox="0 0 682.657 187.791">
  <defs>
    <linearGradient id="linear-gradient" x1="-1.055" y1="0.5" x2="10.709" y2="0.5" gradientUnits="objectBoundingBox">
      <stop offset="0" stop-color="#ff3eff"/>
      <stop offset="1" stop-color="#265aff"/>
    </linearGradient>
    <linearGradient id="linear-gradient-2" x1="-2.071" x2="9.569" xlink:href="#linear-gradient"/>
    <linearGradient id="linear-gradient-3" x1="-3.674" x2="9.782" xlink:href="#linear-gradient"/>
    <linearGradient id="linear-gradient-4" x1="-3.178" x2="5.657" xlink:href="#linear-gradient"/>
    <linearGradient id="linear-gradient-5" x1="-7.157" x2="7.485" xlink:href="#linear-gradient"/>
    <linearGradient id="linear-gradient-6" x1="-7.672" x2="5.784" xlink:href="#linear-gradient"/>
    <linearGradient id="linear-gradient-7" x1="-8.317" x2="4.345" xlink:href="#linear-gradient"/>
    <linearGradient id="linear-gradient-8" x1="-9.519" x2="3.143" xlink:href="#linear-gradient"/>
    <linearGradient id="linear-gradient-9" x1="-13.305" x2="2.41" xlink:href="#linear-gradient"/>
    <linearGradient id="linear-gradient-11" x1="-2.071" x2="9.569" xlink:href="#linear-gradient"/>
    <linearGradient id="linear-gradient-12" x1="-3.674" x2="9.782" xlink:href="#linear-gradient"/>
    <linearGradient id="linear-gradient-14" x1="-7.157" x2="7.485" xlink:href="#linear-gradient"/>
    <linearGradient id="linear-gradient-15" x1="-7.672" x2="5.784" xlink:href="#linear-gradient"/>
    <linearGradient id="linear-gradient-19" x1="1" x2="0" xlink:href="#linear-gradient"/>
    <linearGradient id="linear-gradient-20" x1="0.5" y1="21.77" x2="0.5" y2="-20.77" xlink:href="#linear-gradient"/>
    <radialGradient id="radial-gradient" cx="0.5" cy="0.5" r="0.5" gradientTransform="translate(0)" gradientUnits="objectBoundingBox">
      <stop offset="0.005" stop-color="#45108a"/>
      <stop offset="0.112" stop-color="#54118f"/>
      <stop offset="0.319" stop-color="#7c159e"/>
      <stop offset="0.475" stop-color="#9f19ab"/>
      <stop offset="0.577" stop-color="#a31cac"/>
      <stop offset="0.687" stop-color="#b026b1"/>
      <stop offset="0.799" stop-color="#c536b9"/>
      <stop offset="0.913" stop-color="#e34dc3"/>
      <stop offset="1" stop-color="#ff63ce"/>
    </radialGradient>
  </defs>
  <g id="Сгруппировать_39432" data-name="Сгруппировать 39432" transform="translate(-13.343 -155.988)">
    <g id="Сгруппировать_289" data-name="Сгруппировать 289" transform="translate(13.343 155.988)" opacity="0.07">
      <path id="Контур_1931" data-name="Контур 1931" d="M174.02,119.73H148.394l-19.15,21.556V119.73H107.412v66.608h21.833V165.245l5.181-5.458,16,26.551H176.61L149.69,144.8Z" transform="translate(-107.412 -119.73)" fill="url(#linear-gradient)"/>
      <path id="Контур_1932" data-name="Контур 1932" d="M200.649,119.73l-23.868,66.608h21.37l2.5-8.789h21.74l2.59,8.789h21.74L222.852,119.73Zm4.163,43.942,6.754-23.867,7.031,23.867Z" transform="translate(-104.993 -119.73)" fill="url(#linear-gradient-2)"/>
      <path id="Контур_1933" data-name="Контур 1933" d="M283.708,119.73h-32.1v66.608h21.833V165.616h11.009c19.149,0,27.661-9.066,27.661-23.406C312.108,128.519,302.857,119.73,283.708,119.73Zm-1.2,30.343h-9.066v-14.8h6.2c4.626,0,11.657.833,11.657,7.031C291.293,148.038,287.592,150.073,282.505,150.073Z" transform="translate(-102.384 -119.73)" fill="url(#linear-gradient-3)"/>
      <path id="Контур_1934" data-name="Контур 1934" d="M391.049,170.8H376.339V119.73H355.432V170.8H340.723V119.73H319.815v66.608h92.141V119.73H391.049Z" transform="translate(-100.006 -119.73)" fill="url(#linear-gradient-4)"/>
      <path id="Контур_1935" data-name="Контур 1935" d="M443.2,160.342h27.476V144.8H443.2v-9.529h32.472V119.73h-54.3v66.608h55.6V170.8H443.2Z" transform="translate(-96.465 -119.73)" fill="url(#linear-gradient-5)"/>
      <path id="Контур_1936" data-name="Контур 1936" d="M517.476,119.73h-32.1v66.608h21.833V165.616h11.008c19.149,0,27.661-9.066,27.661-23.406C545.876,128.519,536.625,119.73,517.476,119.73Zm-1.2,30.343h-9.065v-14.8h6.2c4.626,0,11.657.833,11.657,7.031C525.062,148.038,521.36,150.073,516.273,150.073Z" transform="translate(-94.233 -119.73)" fill="url(#linear-gradient-6)"/>
      <path id="Контур_1937" data-name="Контур 1937" d="M573.379,157.937l1.11-17.022V119.73H553.582v66.608h20.444l24.054-38.207-1.11,17.022v21.185h20.907V119.73H597.432Z" transform="translate(-91.855 -119.73)" fill="url(#linear-gradient-7)"/>
      <path id="Контур_1938" data-name="Контур 1938" d="M670.69,142.95H650.06V119.73H628.228v66.608H650.06V158.493h20.63v27.845h21.832V119.73H670.69Z" transform="translate(-89.253 -119.73)" fill="url(#linear-gradient-8)"/>
      <path id="Контур_1939" data-name="Контур 1939" d="M702.873,186.338h21.832V135.271h29.973V119.73H702.873Z" transform="translate(-86.65 -119.73)" fill="url(#linear-gradient-9)"/>
    </g>
    <g id="Сгруппировать_290" data-name="Сгруппировать 290" transform="translate(113.274 200.345)">
      <path id="Контур_1940" data-name="Контур 1940" d="M250.656,162.592H232.7L219.276,177.7V162.592h-15.3v46.68h15.3V194.49l3.631-3.825,11.216,18.607h18.348L233.6,180.162Z" transform="translate(-203.976 -162.592)" fill="url(#linear-gradient)"/>
      <path id="Контур_1941" data-name="Контур 1941" d="M269.319,162.592l-16.728,46.681h14.977l1.751-6.16h15.236l1.815,6.16h15.235l-16.728-46.681Zm2.917,30.8,4.733-16.728,4.927,16.728Z" transform="translate(-202.281 -162.592)" fill="url(#linear-gradient-11)"/>
      <path id="Контур_1942" data-name="Контур 1942" d="M327.527,162.592h-22.5v46.681h15.3V194.749h7.715c13.42,0,19.385-6.353,19.385-16.4C347.431,168.752,340.947,162.592,327.527,162.592Zm-.842,21.265h-6.354V173.484h4.343c3.242,0,8.169.584,8.169,4.928C332.843,182.431,330.25,183.857,326.685,183.857Z" transform="translate(-200.452 -162.592)" fill="url(#linear-gradient-12)"/>
      <path id="Контур_1943" data-name="Контур 1943" d="M402.754,198.38H392.445V162.592H377.793V198.38H367.484V162.592H352.832v46.68h64.574v-46.68H402.754Z" transform="translate(-198.786 -162.592)" fill="url(#linear-gradient-4)"/>
      <path id="Контур_1944" data-name="Контур 1944" d="M439.3,191.054h19.256V180.162H439.3v-6.678H462.06V162.592H424v46.68h38.965V198.38H439.3Z" transform="translate(-196.304 -162.592)" fill="url(#linear-gradient-14)"/>
      <path id="Контур_1945" data-name="Контур 1945" d="M491.356,162.592h-22.5v46.681h15.3V194.749h7.715c13.42,0,19.386-6.353,19.386-16.4C511.261,168.752,504.776,162.592,491.356,162.592Zm-.842,21.265H484.16V173.484H488.5c3.241,0,8.169.584,8.169,4.928C496.673,182.431,494.079,183.857,490.514,183.857Z" transform="translate(-194.74 -162.592)" fill="url(#linear-gradient-15)"/>
      <path id="Контур_1946" data-name="Контур 1946" d="M530.534,189.368l.778-11.929V162.592H516.66v46.68h14.327L547.845,182.5l-.778,11.929v14.847h14.652v-46.68H547.391Z" transform="translate(-193.073 -162.592)" fill="url(#linear-gradient-7)"/>
      <path id="Контур_1947" data-name="Контур 1947" d="M598.732,178.865H584.274V162.592h-15.3v46.68h15.3V189.758h14.458v19.515h15.3v-46.68h-15.3Z" transform="translate(-191.25 -162.592)" fill="url(#linear-gradient-8)"/>
      <path id="Контур_1948" data-name="Контур 1948" d="M621.286,209.273h15.3V173.484h21.006V162.592H621.286Z" transform="translate(-189.426 -162.592)" fill="url(#linear-gradient-9)"/>
    </g>
    <g id="Сгруппировать_291" data-name="Сгруппировать 291" transform="translate(231.4 264.76)">
      <path id="Контур_1949" data-name="Контур 1949" d="M318.122,233.539h13.257c5.461,0,9.13,1.583,9.13,5.586a4.685,4.685,0,0,1-4.252,4.668c2.209.542,5.044,1.668,5.044,5.378,0,4.46-4.085,6.211-9.087,6.211H318.122Zm8.337,8.587h3.253c1.917,0,2.625-.458,2.625-1.667,0-1.459-.75-1.918-2.625-1.918h-3.253Zm0,8.254h3.253c2.083,0,3.25-.208,3.25-1.834s-1.125-2-3.25-2h-3.253Z" transform="translate(-318.122 -224.534)" fill="#2b454e"/>
      <path id="Контур_1950" data-name="Контур 1950" d="M368.008,255.658H358.17V225.643h14.466c8.629,0,12.8,3.96,12.8,10.13,0,6.462-3.835,10.547-12.465,10.547h-4.961Zm0-16.342h4.086c2.292,0,3.96-.917,3.96-3.5,0-2.793-3.169-3.168-5.253-3.168h-2.793Z" transform="translate(-316.726 -224.809)" fill="#2b454e"/>
      <path id="Контур_1951" data-name="Контур 1951" d="M396.172,246.441a4.209,4.209,0,0,0,4.295,4.294,3.459,3.459,0,0,0,3.252-1.918h8.3c-1.5,5.42-7,7.212-12.089,7.212-7,0-12.424-4-12.424-11.339,0-7.17,5.378-11.756,12.382-11.756,8.087,0,12.84,5.294,12.84,13.507Zm7.879-4.419a3.929,3.929,0,0,0-3.835-3.794c-2.584,0-4.044,1.459-4.044,3.794Z" transform="translate(-315.703 -224.555)" fill="#2b454e"/>
      <path id="Контур_1952" data-name="Контур 1952" d="M430.17,241.9A3.056,3.056,0,0,0,427,238.771c-3.252,0-3.793,3.377-3.793,5.961,0,3.294,1.25,5.462,3.793,5.462,2.251,0,3.126-1.543,3.377-3.253h8.754c-.749,6.629-6.086,9.088-12.131,9.088-7.045,0-12.464-3.96-12.464-11.339,0-7.462,5.252-11.756,12.464-11.756,5.837,0,11.339,2.5,11.964,8.963Z" transform="translate(-314.76 -224.555)" fill="#2b454e"/>
      <path id="Контур_1953" data-name="Контур 1953" d="M465.535,233.539v21.844h-8.671V239.876h-6.42v15.507h-8.671V233.539Z" transform="translate(-313.811 -224.534)" fill="#2b454e"/>
      <path id="Контур_1954" data-name="Контур 1954" d="M475.909,233.539,479.744,247l3.794-13.465h8.337l-7,20.385c-2.293,6.754-3.21,8.879-10.922,8.879-.876,0-2.918-.083-3.835-.167v-6c3.71,0,4.627-.208,4.627-1.542,0-.417-.125-.959-7.545-21.552Z" transform="translate(-312.924 -224.534)" fill="#2b454e"/>
      <path id="Контур_1955" data-name="Контур 1955" d="M506.447,235.259c6.5,0,10.963,3.586,10.963,10.214,0,7.044-5.42,10.838-12.214,10.838-7.921,0-12.215-4.711-12.215-12.505,0-7.546,2.252-15.426,10.714-16.717,3.751-.584,5.711-1.126,5.919-2.252h6.045c-.917,5.462-4,6.378-8.462,7.212-4.92.959-6.962,2.127-7.5,7.171A7.413,7.413,0,0,1,506.447,235.259Zm2.292,10.714c0-2.585-.625-4.711-3.668-4.711-2.669,0-3.419,2.126-3.419,4.96,0,2.168,1.085,4.253,3.419,4.253C507.739,250.476,508.739,248.391,508.739,245.973Z" transform="translate(-312.025 -224.837)" fill="#2b454e"/>
      <path id="Контур_1956" data-name="Контур 1956" d="M544.033,233.539v21.844h-8.671V239.876h-4.877v5.419c0,7.588-2.835,10.464-7.587,10.464a13.234,13.234,0,0,1-4.252-.5V249.5a6.947,6.947,0,0,0,1.542.167c1.835,0,2.209-1.542,2.209-6.836v-9.3Z" transform="translate(-311.131 -224.534)" fill="#2b454e"/>
      <path id="Контур_1957" data-name="Контур 1957" d="M555.952,245.5l7.42-11.964h8.714v21.844h-8.338V243.836l-7.461,11.547h-8.671V233.539h8.337Z" transform="translate(-310.12 -224.534)" fill="#2b454e"/>
      <path id="Контур_1958" data-name="Контур 1958" d="M584.368,240.209l5.544-6.67h10.13L591.955,242l9.13,13.382H590.662l-4.669-7.754-1.625,1.626v6.128H575.7V233.539h8.671Z" transform="translate(-309.141 -224.534)" fill="#2b454e"/>
      <path id="Контур_1959" data-name="Контур 1959" d="M609.307,246.441a4.209,4.209,0,0,0,4.295,4.294,3.459,3.459,0,0,0,3.252-1.918h8.3c-1.5,5.42-7,7.212-12.089,7.212-7,0-12.424-4-12.424-11.339,0-7.17,5.378-11.756,12.382-11.756,8.087,0,12.84,5.294,12.84,13.507Zm7.88-4.419a3.929,3.929,0,0,0-3.835-3.794c-2.585,0-4.044,1.459-4.044,3.794Z" transform="translate(-308.272 -224.555)" fill="#2b454e"/>
      <path id="Контур_1960" data-name="Контур 1960" d="M652.336,235.356l8.63-9.713h11.547l-10.963,11.3,12.131,18.718h-11.8l-7.212-11.965-2.335,2.46v9.505H642.5V225.643h9.838Z" transform="translate(-306.812 -224.809)" fill="#2b454e"/>
      <path id="Контур_1961" data-name="Контур 1961" d="M683.05,233.56v3.252h.083c1.21-2.668,4.336-3.878,6.837-3.878,6.586,0,9.755,5.378,9.755,11.381,0,8.587-5.336,11.714-10.213,11.714a6.724,6.724,0,0,1-5.587-2.793v9.588h-8.671V233.56Zm8,10.88c0-3.46-1.5-5.169-3.794-5.169-2.084,0-3.5,2.085-3.5,5,0,3.044,1.293,5.128,3.544,5.128C689.594,249.4,691.053,247.442,691.053,244.44Z" transform="translate(-305.67 -224.555)" fill="#2b454e"/>
      <path id="Контур_1962" data-name="Контур 1962" d="M710.867,241.209H715.7c6.378,0,9.5,3.418,9.5,7.128,0,4.46-3.126,7.045-9.546,7.045H702.53V233.539h8.337Zm0,9.171h2.752c2.084,0,3.252-.333,3.252-2.043,0-1.667-1.126-2.126-3.252-2.126h-2.752Zm26.429,5h-8.671V233.539H737.3Z" transform="translate(-304.719 -224.534)" fill="#2b454e"/>
      <path id="Контур_1963" data-name="Контур 1963" d="M750.484,233.539l3.794,12.131,3.794-12.131h9.921v21.844h-7.67v-9.088l.834-5.586h-.167l-4.669,14.674h-4.085l-4.669-14.674H747.4l.834,6.087v8.587h-7.672V233.539Z" transform="translate(-303.393 -224.534)" fill="#2b454e"/>
    </g>
    <g id="Сгруппировать_293" data-name="Сгруппировать 293" transform="translate(153.836 324.261)">
      <path id="Контур_2029" data-name="Контур 2029" d="M254.98,292.36a5.623,5.623,0,0,1-1.55,4.191,6.955,6.955,0,0,1-8.708,0,6.443,6.443,0,0,1,.01-8.4,6.955,6.955,0,0,1,8.707.009A5.66,5.66,0,0,1,254.98,292.36Zm-4.253,2.621a2.77,2.77,0,0,0,.5-.993,6.047,6.047,0,0,0,.169-1.608,6.268,6.268,0,0,0-.173-1.594,2.825,2.825,0,0,0-.48-1.028,1.7,1.7,0,0,0-.74-.557,2.615,2.615,0,0,0-.931-.162,2.722,2.722,0,0,0-.887.133,1.8,1.8,0,0,0-.745.538,2.738,2.738,0,0,0-.5,1.028,6,6,0,0,0-.188,1.641,6.338,6.338,0,0,0,.164,1.532,2.686,2.686,0,0,0,.48,1.041,1.819,1.819,0,0,0,.735.547,2.726,2.726,0,0,0,1.871.014A1.645,1.645,0,0,0,250.727,294.981Z" transform="translate(-243.171 -282.183)" fill="#2b454e"/>
      <path id="Контур_2030" data-name="Контур 2030" d="M265.831,289.3h-3.437v8.439h-3.466V289.3h-3.438v-2.342h10.34Z" transform="translate(-242.741 -282.172)" fill="#2b454e"/>
      <path id="Контур_2031" data-name="Контур 2031" d="M284.072,297.855h-9.544v-2.5h3.015V287.8h-3.015V285.47a10.311,10.311,0,0,0,1.326-.082,3.479,3.479,0,0,0,1.056-.283,1.8,1.8,0,0,0,.749-.624,1.988,1.988,0,0,0,.288-.96h3.178v11.838h2.947Z" transform="translate(-242.078 -282.292)" fill="#2b454e"/>
      <path id="Контур_2032" data-name="Контур 2032" d="M298.436,290.707a14.568,14.568,0,0,1-.326,3.233,6.073,6.073,0,0,1-1.018,2.339,4.446,4.446,0,0,1-1.823,1.407,8.09,8.09,0,0,1-5.483-.005,4.351,4.351,0,0,1-1.834-1.421,6.056,6.056,0,0,1-1.027-2.34,14.511,14.511,0,0,1-.318-3.2,14.108,14.108,0,0,1,.327-3.238,6.247,6.247,0,0,1,1.037-2.324,4.34,4.34,0,0,1,1.843-1.412,7.025,7.025,0,0,1,2.707-.471,6.917,6.917,0,0,1,2.756.484A4.442,4.442,0,0,1,297.1,285.2a6.149,6.149,0,0,1,1.017,2.32A14.328,14.328,0,0,1,298.436,290.707Zm-3.715,0a9.566,9.566,0,0,0-.509-3.7,1.848,1.848,0,0,0-3.38,0,9.643,9.643,0,0,0-.508,3.715,9.432,9.432,0,0,0,.518,3.671,1.818,1.818,0,0,0,3.36,0A9.5,9.5,0,0,0,294.72,290.707Z" transform="translate(-241.657 -282.3)" fill="#2b454e"/>
      <path id="Контур_2033" data-name="Контур 2033" d="M318.4,292.206a6.9,6.9,0,0,1-.409,2.429,5.336,5.336,0,0,1-1.068,1.8,4.663,4.663,0,0,1-1.564,1.133,4.6,4.6,0,0,1-1.87.384,5.38,5.38,0,0,1-1.563-.2,7.514,7.514,0,0,1-1.313-.552V301.7h-3.467V286.964h3.467v1.123a8.411,8.411,0,0,1,1.625-1.028,4.426,4.426,0,0,1,1.913-.393,3.7,3.7,0,0,1,3.13,1.479A6.59,6.59,0,0,1,318.4,292.206Zm-3.562.072A3.818,3.818,0,0,0,314.3,290a1.987,1.987,0,0,0-1.7-.709,3.66,3.66,0,0,0-1.006.148,4.262,4.262,0,0,0-.986.426v5.417a2.748,2.748,0,0,0,.737.173q.393.039.776.038a2.512,2.512,0,0,0,2.041-.8A3.684,3.684,0,0,0,314.838,292.278Z" transform="translate(-240.94 -282.182)" fill="#2b454e"/>
      <path id="Контур_2034" data-name="Контур 2034" d="M325.341,293.923l2.46-6.969h3.555l-5.991,14.736h-3.752l1.715-4.038-4.193-10.7h3.629Z" transform="translate(-240.522 -282.172)" fill="#2b454e"/>
      <path id="Контур_2035" data-name="Контур 2035" d="M342.619,288.8a4.361,4.361,0,0,1,1.037,1.552,5.975,5.975,0,0,1,.385,2.272,5.374,5.374,0,0,1-1.59,4.07,5.95,5.95,0,0,1-4.3,1.523,5.308,5.308,0,0,1-4.422-1.816,8.619,8.619,0,0,1-1.445-5.437,13.718,13.718,0,0,1,.082-1.4,12.242,12.242,0,0,1,.322-1.744,9.761,9.761,0,0,1,.591-1.7,4.464,4.464,0,0,1,.983-1.364,4.963,4.963,0,0,1,2.016-1.162,13.308,13.308,0,0,1,2.756-.529q.95-.087,2.276-.144t1.949-.077v2.563l-1.161.053c-.353.016-.766.04-1.239.071l-1.133.087q-.633.048-1.219.144a4.491,4.491,0,0,0-1.113.347,2.357,2.357,0,0,0-.846.633,2.508,2.508,0,0,0-.413.792,5.294,5.294,0,0,0-.24,1.2,6.968,6.968,0,0,1,1.609-.822,5.459,5.459,0,0,1,1.847-.3,5.4,5.4,0,0,1,1.776.289A4.093,4.093,0,0,1,342.619,288.8Zm-2.91,6.4a2.752,2.752,0,0,0,.548-.919,4.617,4.617,0,0,0,.2-1.543,2.633,2.633,0,0,0-.659-1.871,2.252,2.252,0,0,0-1.727-.707,5.468,5.468,0,0,0-1.053.1,4.387,4.387,0,0,0-1.159.438c0,.064,0,.155,0,.273s-.005.227-.005.323a15.57,15.57,0,0,0,.111,2.091,4.182,4.182,0,0,0,.418,1.361,1.93,1.93,0,0,0,.741.784,2.112,2.112,0,0,0,1.078.273,2.483,2.483,0,0,0,.783-.14A1.728,1.728,0,0,0,339.709,295.2Z" transform="translate(-240.064 -282.315)" fill="#2b454e"/>
      <path id="Контур_2036" data-name="Контур 2036" d="M356.771,297.735h-3.466v-8.372h-2.842q-.03.72-.043,1.119t-.034.926a17.336,17.336,0,0,1-.259,2.516,6.7,6.7,0,0,1-.489,1.584,3.893,3.893,0,0,1-.62.988,5.717,5.717,0,0,1-.666.634,2.9,2.9,0,0,1-1,.49,4.243,4.243,0,0,1-1.2.182c-.3,0-.6-.011-.912-.034s-.489-.033-.547-.033V294.97h.106c.025,0,.07,0,.134.009a1.686,1.686,0,0,0,.191.01,2.758,2.758,0,0,0,.513-.049.826.826,0,0,0,.438-.211,3.026,3.026,0,0,0,.859-1.541,16.941,16.941,0,0,0,.313-2.74q.037-.672.077-1.537t.067-1.958h9.38Z" transform="translate(-239.631 -282.172)" fill="#2b454e"/>
      <path id="Контур_2037" data-name="Контур 2037" d="M370.163,292.994h-7.912a2.49,2.49,0,0,0,.965,1.939,4.29,4.29,0,0,0,2.616.672,5.871,5.871,0,0,0,2.121-.393,6.654,6.654,0,0,0,1.623-.846h.384v2.776a12.75,12.75,0,0,1-2.208.681,11.526,11.526,0,0,1-2.294.211,7.5,7.5,0,0,1-4.974-1.459,5.14,5.14,0,0,1-1.728-4.157,5.567,5.567,0,0,1,1.637-4.228,6.235,6.235,0,0,1,4.488-1.561,5.358,5.358,0,0,1,3.956,1.33,5.193,5.193,0,0,1,1.325,3.826Zm-3.437-2.026a2.423,2.423,0,0,0-.538-1.632,2.07,2.07,0,0,0-1.584-.547,2.531,2.531,0,0,0-1.641.518,2.208,2.208,0,0,0-.72,1.661Z" transform="translate(-239.141 -282.183)" fill="#2b454e"/>
      <path id="Контур_2038" data-name="Контур 2038" d="M383.032,297.9h-3.351v-6.6L375,297.9h-2.861V287.115h3.351v5.9l4.339-5.9h3.207Zm-1.19-15.563a3.315,3.315,0,0,1-1.071,2.554,5.565,5.565,0,0,1-6.341,0,3.318,3.318,0,0,1-1.076-2.55h2.67a2.455,2.455,0,0,0,.364,1.417,1.823,1.823,0,0,0,2.424.009,2.479,2.479,0,0,0,.361-1.426Z" transform="translate(-238.675 -282.333)" fill="#2b454e"/>
      <path id="Контур_2039" data-name="Контур 2039" d="M401.392,294.693a2.728,2.728,0,0,1-.451,1.579,3.239,3.239,0,0,1-1.22,1.051,6.094,6.094,0,0,1-1.727.557,12.006,12.006,0,0,1-2.026.164,11.727,11.727,0,0,1-2.5-.24,19.5,19.5,0,0,1-2.128-.6v-2.621h.384a9.8,9.8,0,0,0,1.7.734,6.055,6.055,0,0,0,1.92.313q.365,0,.869-.048a3.115,3.115,0,0,0,.8-.163,1.766,1.766,0,0,0,.61-.355.868.868,0,0,0,.207-.644.989.989,0,0,0-.187-.643,1.057,1.057,0,0,0-.513-.336,2.8,2.8,0,0,0-.706-.125c-.285-.019-.646-.029-1.08-.029h-1.652V291.1h1.326c.256,0,.562,0,.916-.009a3.857,3.857,0,0,0,.84-.087,1.181,1.181,0,0,0,.649-.335.89.89,0,0,0,.2-.6.678.678,0,0,0-.2-.5,1.382,1.382,0,0,0-.528-.317,3.315,3.315,0,0,0-.653-.144,6.179,6.179,0,0,0-.788-.049,6.364,6.364,0,0,0-1.59.24,8.259,8.259,0,0,0-1.607.6h-.375v-2.582q.595-.182,1.771-.422a11.979,11.979,0,0,1,2.406-.24,10.831,10.831,0,0,1,1.958.162,6.287,6.287,0,0,1,1.565.491,3.292,3.292,0,0,1,1.162.921,2.23,2.23,0,0,1,.442,1.412,2.3,2.3,0,0,1-.591,1.546,2.865,2.865,0,0,1-1.416.912v.086a3.492,3.492,0,0,1,1.583.869A2.184,2.184,0,0,1,401.392,294.693Z" transform="translate(-238.005 -282.182)" fill="#2b454e"/>
      <path id="Контур_2040" data-name="Контур 2040" d="M410.039,296.6c-.186.141-.416.31-.691.509a5.027,5.027,0,0,1-.777.47,4.883,4.883,0,0,1-1.057.342,6.086,6.086,0,0,1-1.2.11,3.666,3.666,0,0,1-2.573-.95,3.148,3.148,0,0,1-1.037-2.429,3.275,3.275,0,0,1,.528-1.93,3.543,3.543,0,0,1,1.5-1.181,8.487,8.487,0,0,1,2.38-.615q1.42-.182,2.948-.269V290.6a1.245,1.245,0,0,0-.731-1.235,5.287,5.287,0,0,0-2.15-.34,6.16,6.16,0,0,0-1.823.3c-.647.2-1.111.357-1.393.466h-.317v-2.6q.548-.144,1.781-.34a15.646,15.646,0,0,1,2.472-.2,7.681,7.681,0,0,1,4.259.907,3.222,3.222,0,0,1,1.31,2.847v7.335h-3.427Zm0-1.678v-2.239q-.7.057-1.517.158a7.293,7.293,0,0,0-1.239.234,1.709,1.709,0,0,0-.792.474,1.188,1.188,0,0,0-.273.818,2.14,2.14,0,0,0,.057.546.817.817,0,0,0,.289.4,1.409,1.409,0,0,0,.528.283,3.7,3.7,0,0,0,.96.091,2.844,2.844,0,0,0,1.051-.211A3.288,3.288,0,0,0,410.039,294.926Z" transform="translate(-237.609 -282.182)" fill="#2b454e"/>
      <path id="Контур_2041" data-name="Контур 2041" d="M435.726,297.735h-3.37v-6.691l-2.448,4.416h-1.517l-2.447-4.416v6.691h-3.274V286.954h3.753l2.776,4.9,2.774-4.9h3.753Z" transform="translate(-236.913 -282.172)" fill="#2b454e"/>
      <path id="Контур_2042" data-name="Контур 2042" d="M449.337,297.735h-3.351v-6.6l-4.685,6.6H438.44V286.954h3.351v5.9l4.34-5.9h3.206Z" transform="translate(-236.363 -282.172)" fill="#2b454e"/>
      <path id="Контур_2043" data-name="Контур 2043" d="M463.012,297.735h-3.466v-4.6h-3.955v4.6h-3.466V286.954h3.466v3.715h3.955v-3.715h3.466Z" transform="translate(-235.886 -282.172)" fill="#2b454e"/>
      <path id="Контур_2044" data-name="Контур 2044" d="M470.708,293.923l2.459-6.969h3.556l-5.992,14.736H466.98l1.715-4.038-4.194-10.7h3.63Z" transform="translate(-235.454 -282.172)" fill="#2b454e"/>
      <path id="Контур_2045" data-name="Контур 2045" d="M487.021,289.3h-3.437v8.439h-3.466V289.3h-3.437v-2.342h10.339Z" transform="translate(-235.029 -282.172)" fill="#2b454e"/>
      <path id="Контур_2046" data-name="Контур 2046" d="M493.242,293.923l2.46-6.969h3.555l-5.991,14.736h-3.751l1.714-4.038-4.193-10.7h3.629Z" transform="translate(-234.668 -282.172)" fill="#2b454e"/>
    </g>
    <g id="Сгруппировать_294" data-name="Сгруппировать 294" transform="translate(127.759 284.411)">
      <rect id="Прямоугольник_48" data-name="Прямоугольник 48" width="75.709" height="1.095" rx="0.442" transform="translate(11.924)" fill="url(#linear-gradient-19)"/>
      <path id="Контур_2200" data-name="Контур 2200" d="M.305,0H46.269a.305.305,0,0,1,.305.305V.79a.305.305,0,0,1-.305.305H.305A.305.305,0,0,1,0,.79V.305A.305.305,0,0,1,.305,0Z" transform="translate(11.924 46.574) rotate(-90)" fill="url(#linear-gradient-20)"/>
      <circle id="Эллипс_296" data-name="Эллипс 296" cx="2.515" cy="2.515" r="2.515" transform="translate(9.956 44.946)" fill="url(#radial-gradient)"/>
      <circle id="Эллипс_297" data-name="Эллипс 297" cx="3.814" cy="3.814" r="3.814" transform="translate(8.657 43.65)" fill="none" stroke="#707070" stroke-miterlimit="10" stroke-width="0.411"/>
    </g>
  </g>
</svg>
