<svg id="Компонент_1_1" data-name="Компонент 1 – 1" xmlns="http://www.w3.org/2000/svg" xmlns:xlink="http://www.w3.org/1999/xlink" width="290.096" height="82.203" viewBox="0 0 290.096 82.203">
  <defs>
    <linearGradient id="linear-gradient" x1="-1.055" y1="0.5" x2="10.709" y2="0.5" gradientUnits="objectBoundingBox">
      <stop offset="0" stop-color="#ff3eff"/>
      <stop offset="1" stop-color="#265aff"/>
    </linearGradient>
    <linearGradient id="linear-gradient-2" x1="-2.071" x2="9.569" xlink:href="#linear-gradient"/>
    <linearGradient id="linear-gradient-3" x1="-3.674" x2="9.782" xlink:href="#linear-gradient"/>
    <linearGradient id="linear-gradient-4" x1="-3.178" x2="5.657" xlink:href="#linear-gradient"/>
    <linearGradient id="linear-gradient-5" x1="-7.157" x2="7.485" xlink:href="#linear-gradient"/>
    <linearGradient id="linear-gradient-6" x1="-7.672" x2="5.784" xlink:href="#linear-gradient"/>
    <linearGradient id="linear-gradient-7" x1="-8.317" x2="4.345" xlink:href="#linear-gradient"/>
    <linearGradient id="linear-gradient-8" x1="-9.519" x2="3.143" xlink:href="#linear-gradient"/>
    <linearGradient id="linear-gradient-9" x1="-13.305" x2="2.41" xlink:href="#linear-gradient"/>
    <linearGradient id="linear-gradient-11" x1="-2.071" x2="9.569" xlink:href="#linear-gradient"/>
    <linearGradient id="linear-gradient-12" x1="-3.674" x2="9.782" xlink:href="#linear-gradient"/>
    <linearGradient id="linear-gradient-14" x1="-7.157" x2="7.485" xlink:href="#linear-gradient"/>
    <linearGradient id="linear-gradient-15" x1="-7.672" x2="5.784" xlink:href="#linear-gradient"/>
  </defs>
  <g id="Сгруппировать_289" data-name="Сгруппировать 289" opacity="0.07">
    <path id="Контур_1931" data-name="Контур 1931" d="M136.337,119.73H125.209l-8.316,9.361V119.73h-9.481v28.925h9.481V139.5l2.25-2.37,6.95,11.53h11.369l-11.69-18.038Z" transform="translate(-107.412 -119.73)" fill="url(#linear-gradient)"/>
    <path id="Контур_1932" data-name="Контур 1932" d="M187.146,119.73l-10.365,28.925h9.28l1.085-3.817h9.441l1.125,3.817h9.441L196.788,119.73Zm1.808,19.082,2.933-10.364,3.053,10.364Z" transform="translate(-145.607 -119.73)" fill="url(#linear-gradient-2)"/>
    <path id="Контур_1933" data-name="Контур 1933" d="M265.546,119.73h-13.94v28.925h9.481v-9h4.781c8.316,0,12.012-3.937,12.012-10.164C277.88,123.547,273.862,119.73,265.546,119.73Zm-.522,13.177h-3.937v-6.428h2.691c2.009,0,5.062.362,5.062,3.053C268.84,132.023,267.233,132.907,265.024,132.907Z" transform="translate(-186.805 -119.73)" fill="url(#linear-gradient-3)"/>
    <path id="Контур_1934" data-name="Контур 1934" d="M350.749,141.906h-6.388V119.73h-9.079v22.176h-6.388V119.73h-9.079v28.925h40.013V119.73h-9.079Z" transform="translate(-224.362 -119.73)" fill="url(#linear-gradient-4)"/>
    <path id="Контур_1935" data-name="Контур 1935" d="M430.849,137.366h11.932v-6.749H430.849v-4.138h14.1V119.73H421.368v28.925h24.144v-6.749H430.849Z" transform="translate(-280.277 -119.73)" fill="url(#linear-gradient-5)"/>
    <path id="Контур_1936" data-name="Контур 1936" d="M499.315,119.73h-13.94v28.925h9.481v-9h4.78c8.316,0,12.012-3.937,12.012-10.164C511.648,123.547,507.63,119.73,499.315,119.73Zm-.522,13.177h-3.937v-6.428h2.691c2.009,0,5.062.362,5.062,3.053C502.609,132.023,501,132.907,498.793,132.907Z" transform="translate(-315.519 -119.73)" fill="url(#linear-gradient-6)"/>
    <path id="Контур_1937" data-name="Контур 1937" d="M562.179,136.321l.482-7.392v-9.2h-9.079v28.925h8.878l10.446-16.592-.482,7.392v9.2H581.5V119.73h-8.879Z" transform="translate(-353.074 -119.73)" fill="url(#linear-gradient-7)"/>
    <path id="Контур_1938" data-name="Контур 1938" d="M646.667,129.813h-8.959V119.73h-9.481v28.925h9.481V136.563h8.959v12.092h9.481V119.73h-9.481Z" transform="translate(-394.174 -119.73)" fill="url(#linear-gradient-8)"/>
    <path id="Контур_1939" data-name="Контур 1939" d="M702.873,148.655h9.481V126.479H725.37V119.73h-22.5Z" transform="translate(-435.274 -119.73)" fill="url(#linear-gradient-9)"/>
  </g>
  <g id="Сгруппировать_290" data-name="Сгруппировать 290" transform="translate(41.563 19.262)">
    <path id="Контур_1940" data-name="Контур 1940" d="M224.247,162.592h-7.8l-5.828,6.56v-6.56h-6.644v20.271h6.644v-6.419l1.577-1.661,4.871,8.08h7.968l-8.193-12.641Z" transform="translate(-203.976 -162.592)" fill="url(#linear-gradient)"/>
    <path id="Контур_1941" data-name="Контур 1941" d="M259.855,162.592l-7.264,20.271h6.5l.76-2.675h6.616l.788,2.675h6.616l-7.264-20.271Zm1.267,13.374,2.056-7.264,2.14,7.264Z" transform="translate(-230.743 -162.592)" fill="url(#linear-gradient-11)"/>
    <path id="Контур_1942" data-name="Контур 1942" d="M314.8,162.592H305.03v20.271h6.644v-6.307h3.35c5.828,0,8.418-2.759,8.418-7.123C323.443,165.267,320.627,162.592,314.8,162.592Zm-.366,9.235h-2.759v-4.5h1.886c1.408,0,3.548.253,3.548,2.14C317.108,171.207,315.982,171.827,314.434,171.827Z" transform="translate(-259.616 -162.592)" fill="url(#linear-gradient-12)"/>
    <path id="Контур_1943" data-name="Контур 1943" d="M374.511,178.133h-4.477V162.592h-6.363v15.541h-4.477V162.592h-6.363v20.271h28.042V162.592h-6.363Z" transform="translate(-285.936 -162.592)" fill="url(#linear-gradient-4)"/>
    <path id="Контур_1944" data-name="Контур 1944" d="M430.647,174.952h8.362v-4.73h-8.362v-2.9h9.882v-4.73H424v20.271h16.921v-4.73H430.647Z" transform="translate(-325.123 -162.592)" fill="url(#linear-gradient-14)"/>
    <path id="Контур_1945" data-name="Контур 1945" d="M478.628,162.592h-9.769v20.271H475.5v-6.307h3.35c5.828,0,8.419-2.759,8.419-7.123C487.272,165.267,484.456,162.592,478.628,162.592Zm-.366,9.235H475.5v-4.5h1.887c1.408,0,3.548.253,3.548,2.14C480.937,171.207,479.811,171.827,478.263,171.827Z" transform="translate(-349.821 -162.592)" fill="url(#linear-gradient-15)"/>
    <path id="Контур_1946" data-name="Контур 1946" d="M522.685,174.22l.338-5.18v-6.447H516.66v20.271h6.222l7.321-11.628-.338,5.18v6.447h6.363V162.592h-6.222Z" transform="translate(-376.141 -162.592)" fill="url(#linear-gradient-7)"/>
    <path id="Контур_1947" data-name="Контур 1947" d="M581.9,169.659h-6.279v-7.067h-6.644v20.271h6.644v-8.474H581.9v8.474h6.644V162.592H581.9Z" transform="translate(-404.944 -162.592)" fill="url(#linear-gradient-8)"/>
    <path id="Контур_1948" data-name="Контур 1948" d="M621.286,182.863h6.644V167.322h9.122v-4.73H621.286Z" transform="translate(-433.748 -162.592)" fill="url(#linear-gradient-9)"/>
  </g>
  <g id="Сгруппировать_291" data-name="Сгруппировать 291" transform="translate(42.563 47.235)">
    <path id="Контур_1949" data-name="Контур 1949" d="M318.122,233.539h5.757c2.371,0,3.965.688,3.965,2.426A2.035,2.035,0,0,1,326,237.992c.959.235,2.19.724,2.19,2.336,0,1.937-1.774,2.7-3.946,2.7h-6.119Zm3.62,3.729h1.412c.832,0,1.14-.2,1.14-.724,0-.634-.326-.833-1.14-.833h-1.412Zm0,3.584h1.412c.9,0,1.412-.09,1.412-.8s-.488-.869-1.412-.869h-1.412Z" transform="translate(-318.122 -229.628)" fill="#2b454e"/>
    <path id="Контур_1950" data-name="Контур 1950" d="M362.442,238.677H358.17V225.643h6.282c3.747,0,5.558,1.72,5.558,4.4,0,2.806-1.665,4.58-5.413,4.58h-2.154Zm0-7.1h1.774c1,0,1.72-.4,1.72-1.521,0-1.213-1.376-1.376-2.281-1.376h-1.213Z" transform="translate(-340.173 -225.281)" fill="#2b454e"/>
    <path id="Контур_1951" data-name="Контур 1951" d="M391.267,238.8a1.828,1.828,0,0,0,1.865,1.865,1.5,1.5,0,0,0,1.412-.833h3.6c-.652,2.353-3.042,3.132-5.25,3.132-3.041,0-5.4-1.738-5.4-4.924,0-3.113,2.336-5.105,5.377-5.105,3.512,0,5.576,2.3,5.576,5.866Zm3.422-1.919a1.706,1.706,0,0,0-1.665-1.647,1.564,1.564,0,0,0-1.756,1.647Z" transform="translate(-356.322 -229.295)" fill="#2b454e"/>
    <path id="Контур_1952" data-name="Контур 1952" d="M421.326,236.826a1.327,1.327,0,0,0-1.376-1.358c-1.412,0-1.647,1.466-1.647,2.589,0,1.43.543,2.372,1.647,2.372a1.427,1.427,0,0,0,1.466-1.412h3.8c-.325,2.879-2.643,3.947-5.268,3.947-3.06,0-5.413-1.72-5.413-4.924,0-3.241,2.281-5.105,5.413-5.105,2.535,0,4.924,1.086,5.2,3.892Z" transform="translate(-371.208 -229.295)" fill="#2b454e"/>
    <path id="Контур_1953" data-name="Контур 1953" d="M452.091,233.539v9.486h-3.765v-6.734h-2.788v6.734h-3.765v-9.486Z" transform="translate(-386.204 -229.628)" fill="#2b454e"/>
    <path id="Контур_1954" data-name="Контур 1954" d="M470.979,233.539l1.665,5.847,1.647-5.847h3.62l-3.041,8.852c-1,2.933-1.394,3.856-4.743,3.856-.381,0-1.267-.036-1.665-.072v-2.607c1.611,0,2.009-.09,2.009-.67,0-.181-.054-.417-3.277-9.359Z" transform="translate(-400.203 -229.628)" fill="#2b454e"/>
    <path id="Контур_1955" data-name="Контур 1955" d="M498.829,229.363c2.824,0,4.761,1.557,4.761,4.436,0,3.059-2.353,4.707-5.3,4.707-3.44,0-5.3-2.046-5.3-5.431,0-3.277.978-6.7,4.653-7.26,1.629-.253,2.48-.489,2.57-.978h2.625c-.4,2.372-1.738,2.77-3.675,3.132-2.136.417-3.023.924-3.259,3.114A3.219,3.219,0,0,1,498.829,229.363Zm1,4.653c0-1.123-.271-2.046-1.593-2.046-1.159,0-1.485.923-1.485,2.154,0,.941.471,1.847,1.485,1.847C499.39,235.971,499.824,235.065,499.824,234.015Z" transform="translate(-414.4 -224.837)" fill="#2b454e"/>
    <path id="Контур_1956" data-name="Контур 1956" d="M529.671,233.539v9.486h-3.766v-6.734h-2.118v2.353c0,3.295-1.231,4.544-3.295,4.544a5.748,5.748,0,0,1-1.847-.217v-2.5a3.016,3.016,0,0,0,.67.072c.8,0,.96-.67.96-2.969v-4.037Z" transform="translate(-428.531 -229.628)" fill="#2b454e"/>
    <path id="Контур_1957" data-name="Контур 1957" d="M551.235,238.734l3.222-5.2h3.784v9.486h-3.621V238.01l-3.24,5.014h-3.766v-9.486h3.62Z" transform="translate(-444.481 -229.628)" fill="#2b454e"/>
    <path id="Контур_1958" data-name="Контур 1958" d="M579.462,236.435l2.407-2.9h4.4l-3.512,3.675,3.965,5.811H582.2l-2.028-3.367-.706.706v2.661H575.7v-9.486h3.765Z" transform="translate(-459.943 -229.628)" fill="#2b454e"/>
    <path id="Контур_1959" data-name="Контур 1959" d="M604.4,238.8a1.828,1.828,0,0,0,1.865,1.865,1.5,1.5,0,0,0,1.412-.833h3.6c-.652,2.353-3.042,3.132-5.25,3.132-3.041,0-5.4-1.738-5.4-4.924,0-3.113,2.336-5.105,5.377-5.105,3.512,0,5.576,2.3,5.576,5.866Zm3.422-1.919a1.706,1.706,0,0,0-1.665-1.647,1.564,1.564,0,0,0-1.756,1.647Z" transform="translate(-473.675 -229.295)" fill="#2b454e"/>
    <path id="Контур_1960" data-name="Контур 1960" d="M646.77,229.861l3.747-4.218h5.014l-4.761,4.906,5.268,8.128h-5.123l-3.132-5.2-1.014,1.068v4.128H642.5V225.643h4.272Z" transform="translate(-496.724 -225.281)" fill="#2b454e"/>
    <path id="Контур_1961" data-name="Контур 1961" d="M678.639,233.206v1.412h.036a3.264,3.264,0,0,1,2.969-1.684c2.86,0,4.236,2.336,4.236,4.942,0,3.729-2.317,5.087-4.435,5.087a2.92,2.92,0,0,1-2.426-1.213v4.164h-3.765V233.206Zm3.476,4.725c0-1.5-.652-2.245-1.648-2.245-.905,0-1.521.906-1.521,2.172,0,1.322.561,2.227,1.539,2.227C681.481,240.085,682.114,239.234,682.114,237.93Z" transform="translate(-514.759 -229.295)" fill="#2b454e"/>
    <path id="Контур_1962" data-name="Контур 1962" d="M706.15,236.87h2.1c2.769,0,4.127,1.484,4.127,3.1,0,1.937-1.358,3.059-4.145,3.059h-5.7v-9.486h3.62Zm0,3.983h1.195c.905,0,1.412-.145,1.412-.887,0-.724-.489-.923-1.412-.923H706.15Zm11.477,2.172h-3.766v-9.486h3.766Z" transform="translate(-529.778 -229.628)" fill="#2b454e"/>
    <path id="Контур_1963" data-name="Контур 1963" d="M744.871,233.539l1.647,5.268,1.647-5.268h4.308v9.486h-3.331v-3.947l.362-2.426h-.072l-2.028,6.372h-1.774l-2.028-6.372h-.072l.362,2.643v3.729h-3.331v-9.486Z" transform="translate(-550.719 -229.628)" fill="#2b454e"/>
  </g>
  <g id="Сгруппировать_293" data-name="Сгруппировать 293" transform="translate(85.563 73.073)">
    <path id="Контур_2029" data-name="Контур 2029" d="M248.3,289.118a2.442,2.442,0,0,1-.673,1.82,3.02,3.02,0,0,1-3.782,0,2.8,2.8,0,0,1,0-3.646,3.02,3.02,0,0,1,3.781,0A2.458,2.458,0,0,1,248.3,289.118Zm-1.847,1.138a1.2,1.2,0,0,0,.219-.431,2.627,2.627,0,0,0,.073-.7,2.721,2.721,0,0,0-.075-.692,1.227,1.227,0,0,0-.209-.446.738.738,0,0,0-.321-.242,1.135,1.135,0,0,0-.4-.071,1.181,1.181,0,0,0-.385.058.781.781,0,0,0-.324.234,1.189,1.189,0,0,0-.218.446,2.607,2.607,0,0,0-.082.713,2.751,2.751,0,0,0,.071.665,1.167,1.167,0,0,0,.209.452.79.79,0,0,0,.319.238,1.184,1.184,0,0,0,.813.006A.714.714,0,0,0,246.452,290.256Z" transform="translate(-240.171 -284.698)" fill="#2b454e"/>
    <path id="Контур_2030" data-name="Контур 2030" d="M259.981,287.971h-1.492v3.665h-1.505v-3.665h-1.493v-1.017h4.49Z" transform="translate(-246.954 -284.877)" fill="#2b454e"/>
    <path id="Контур_2033" data-name="Контур 2033" d="M312.034,289.072a3,3,0,0,1-.178,1.055,2.317,2.317,0,0,1-.464.784,2.025,2.025,0,0,1-.679.492,2,2,0,0,1-.812.167,2.337,2.337,0,0,1-.679-.085,3.266,3.266,0,0,1-.57-.24v1.951h-1.505v-6.4h1.505v.488a3.656,3.656,0,0,1,.706-.446,1.923,1.923,0,0,1,.831-.171,1.607,1.607,0,0,1,1.359.642A2.862,2.862,0,0,1,312.034,289.072Zm-1.547.031a1.658,1.658,0,0,0-.233-.991.863.863,0,0,0-.736-.308,1.589,1.589,0,0,0-.437.064,1.849,1.849,0,0,0-.428.185v2.352a1.2,1.2,0,0,0,.32.075q.171.017.337.017a1.091,1.091,0,0,0,.886-.348A1.6,1.6,0,0,0,310.487,289.1Z" transform="translate(-278.396 -284.719)" fill="#2b454e"/>
    <path id="Контур_2034" data-name="Контур 2034" d="M321.829,289.98l1.068-3.026h1.544l-2.6,6.4h-1.63l.745-1.754-1.821-4.646h1.576Z" transform="translate(-284.996 -284.877)" fill="#2b454e"/>
    <path id="Контур_2035" data-name="Контур 2035" d="M336.775,285.429a1.893,1.893,0,0,1,.45.674,2.6,2.6,0,0,1,.167.986,2.334,2.334,0,0,1-.69,1.767,2.584,2.584,0,0,1-1.865.662,2.3,2.3,0,0,1-1.92-.789,3.743,3.743,0,0,1-.627-2.361,5.945,5.945,0,0,1,.036-.607,5.318,5.318,0,0,1,.14-.757,4.236,4.236,0,0,1,.257-.738,1.939,1.939,0,0,1,.427-.592,2.156,2.156,0,0,1,.875-.5,5.779,5.779,0,0,1,1.2-.23q.413-.038.988-.062t.846-.033v1.113l-.5.023c-.153.007-.333.018-.538.031l-.492.038q-.275.021-.529.062a1.952,1.952,0,0,0-.484.151,1.023,1.023,0,0,0-.367.275,1.088,1.088,0,0,0-.179.344,2.3,2.3,0,0,0-.1.519,3.028,3.028,0,0,1,.7-.357,2.371,2.371,0,0,1,.8-.132,2.343,2.343,0,0,1,.771.125A1.778,1.778,0,0,1,336.775,285.429Zm-1.264,2.78a1.2,1.2,0,0,0,.238-.4,2,2,0,0,0,.088-.67,1.144,1.144,0,0,0-.286-.813.978.978,0,0,0-.75-.307,2.375,2.375,0,0,0-.457.044,1.905,1.905,0,0,0-.5.19c0,.028,0,.067,0,.119s0,.1,0,.14a6.754,6.754,0,0,0,.048.908,1.815,1.815,0,0,0,.182.591.838.838,0,0,0,.322.341.917.917,0,0,0,.468.119,1.078,1.078,0,0,0,.34-.061A.75.75,0,0,0,335.511,288.209Z" transform="translate(-292.24 -282.614)" fill="#2b454e"/>
    <path id="Контур_2036" data-name="Контур 2036" d="M349.938,291.636h-1.5V288H347.2q-.013.313-.019.486t-.015.4a7.524,7.524,0,0,1-.112,1.092,2.908,2.908,0,0,1-.213.688,1.691,1.691,0,0,1-.269.429,2.483,2.483,0,0,1-.289.275,1.259,1.259,0,0,1-.436.213,1.843,1.843,0,0,1-.519.079c-.131,0-.262,0-.4-.015s-.213-.014-.238-.014v-1.2h.046l.058,0a.732.732,0,0,0,.083,0,1.2,1.2,0,0,0,.223-.021.359.359,0,0,0,.19-.092,1.314,1.314,0,0,0,.373-.669,7.352,7.352,0,0,0,.136-1.19q.016-.292.033-.667t.029-.85h4.073Z" transform="translate(-299.069 -284.877)" fill="#2b454e"/>
    <path id="Контур_2037" data-name="Контур 2037" d="M363.71,289.393h-3.436a1.081,1.081,0,0,0,.419.842,1.863,1.863,0,0,0,1.136.292,2.55,2.55,0,0,0,.921-.171,2.888,2.888,0,0,0,.7-.367h.167v1.205a5.54,5.54,0,0,1-.959.3,5.006,5.006,0,0,1-1,.092,3.259,3.259,0,0,1-2.16-.634,2.232,2.232,0,0,1-.75-1.805,2.417,2.417,0,0,1,.711-1.836,2.708,2.708,0,0,1,1.949-.678,2.327,2.327,0,0,1,1.718.577,2.255,2.255,0,0,1,.575,1.661Zm-1.492-.88a1.052,1.052,0,0,0-.234-.709.9.9,0,0,0-.688-.238,1.1,1.1,0,0,0-.713.225.959.959,0,0,0-.313.721Z" transform="translate(-306.813 -284.698)" fill="#2b454e"/>
    <path id="Контур_2038" data-name="Контур 2038" d="M376.867,289.091h-1.455v-2.864l-2.034,2.864h-1.243V284.41h1.455v2.564l1.884-2.564h1.393Zm-.517-6.758a1.44,1.44,0,0,1-.465,1.109,2.417,2.417,0,0,1-2.753,0,1.441,1.441,0,0,1-.467-1.107h1.159a1.066,1.066,0,0,0,.158.615.792.792,0,0,0,1.052,0,1.076,1.076,0,0,0,.157-.619Z" transform="translate(-314.179 -282.333)" fill="#2b454e"/>
    <path id="Контур_2039" data-name="Контур 2039" d="M395.7,290.147a1.185,1.185,0,0,1-.2.686,1.407,1.407,0,0,1-.53.457,2.646,2.646,0,0,1-.75.242,5.211,5.211,0,0,1-.88.071,5.09,5.09,0,0,1-1.086-.1,8.459,8.459,0,0,1-.924-.258V290.1h.167a4.254,4.254,0,0,0,.738.319,2.629,2.629,0,0,0,.834.136q.158,0,.377-.021a1.353,1.353,0,0,0,.348-.071.767.767,0,0,0,.265-.154.377.377,0,0,0,.09-.28.43.43,0,0,0-.081-.279.459.459,0,0,0-.223-.146,1.216,1.216,0,0,0-.306-.054c-.124-.008-.281-.013-.469-.013h-.717v-.951h.576c.111,0,.244,0,.4,0a1.672,1.672,0,0,0,.365-.038.513.513,0,0,0,.282-.146.387.387,0,0,0,.085-.259.3.3,0,0,0-.088-.217.6.6,0,0,0-.229-.138,1.442,1.442,0,0,0-.284-.062,2.69,2.69,0,0,0-.342-.021,2.761,2.761,0,0,0-.69.1,3.585,3.585,0,0,0-.7.258h-.163v-1.121q.258-.079.769-.183a5.2,5.2,0,0,1,1.045-.1,4.706,4.706,0,0,1,.85.071,2.732,2.732,0,0,1,.68.213,1.431,1.431,0,0,1,.5.4.969.969,0,0,1,.192.613,1,1,0,0,1-.257.671,1.243,1.243,0,0,1-.615.4v.037a1.516,1.516,0,0,1,.688.377A.948.948,0,0,1,395.7,290.147Z" transform="translate(-324.753 -284.714)" fill="#2b454e"/>
    <path id="Контур_2040" data-name="Контур 2040" d="M405.889,290.976c-.081.061-.181.135-.3.221a2.18,2.18,0,0,1-.337.2,2.124,2.124,0,0,1-.459.148,2.648,2.648,0,0,1-.521.048,1.592,1.592,0,0,1-1.117-.413,1.367,1.367,0,0,1-.45-1.055,1.422,1.422,0,0,1,.229-.838,1.538,1.538,0,0,1,.651-.513,3.683,3.683,0,0,1,1.034-.267q.617-.079,1.28-.117v-.025a.541.541,0,0,0-.317-.536,2.3,2.3,0,0,0-.934-.148,2.676,2.676,0,0,0-.792.131q-.421.132-.6.2h-.137v-1.13q.238-.063.773-.148a6.794,6.794,0,0,1,1.074-.085,3.335,3.335,0,0,1,1.849.394,1.4,1.4,0,0,1,.569,1.236v3.185h-1.488Zm0-.728v-.973q-.3.025-.659.069a3.168,3.168,0,0,0-.538.1.742.742,0,0,0-.344.206.516.516,0,0,0-.119.355.927.927,0,0,0,.025.237.355.355,0,0,0,.125.174.612.612,0,0,0,.229.123,1.609,1.609,0,0,0,.417.04,1.234,1.234,0,0,0,.457-.092A1.427,1.427,0,0,0,405.889,290.248Z" transform="translate(-331.01 -284.714)" fill="#2b454e"/>
    <path id="Контур_2041" data-name="Контур 2041" d="M428.339,291.636h-1.463V288.73l-1.063,1.918h-.659l-1.063-1.918v2.906h-1.422v-4.682h1.63l1.205,2.126,1.2-2.126h1.63Z" transform="translate(-342.003 -284.877)" fill="#2b454e"/>
    <path id="Контур_2042" data-name="Контур 2042" d="M443.172,291.636h-1.455v-2.864l-2.034,2.864H438.44v-4.682H439.9v2.564l1.885-2.564h1.392Z" transform="translate(-350.687 -284.877)" fill="#2b454e"/>
    <path id="Контур_2043" data-name="Контур 2043" d="M456.853,291.636h-1.505v-2H453.63v2h-1.5v-4.682h1.5v1.613h1.718v-1.613h1.505Z" transform="translate(-358.222 -284.877)" fill="#2b454e"/>
    <path id="Контур_2044" data-name="Контур 2044" d="M467.2,289.98l1.068-3.026h1.544l-2.6,6.4h-1.629l.745-1.754-1.821-4.646h1.577Z" transform="translate(-365.035 -284.877)" fill="#2b454e"/>
    <path id="Контур_2045" data-name="Контур 2045" d="M481.172,287.971h-1.492v3.665h-1.505v-3.665h-1.492v-1.017h4.49Z" transform="translate(-371.743 -284.877)" fill="#2b454e"/>
    <path id="Контур_2046" data-name="Контур 2046" d="M489.73,289.98l1.068-3.026h1.544l-2.6,6.4h-1.629l.744-1.754-1.821-4.646h1.576Z" transform="translate(-377.443 -284.877)" fill="#2b454e"/>
  </g>
  <text id="_8" data-name="8" transform="translate(106.563 80.203)" fill="#2b454e" font-size="9" font-family="Verdana-Bold, Verdana" font-weight="700"><tspan x="-3.199" y="0">8</tspan></text>
</svg>
