<svg xmlns="http://www.w3.org/2000/svg" width="37.307" height="38" viewBox="0 0 37.307 38">
  <path id="customer-telephone-service" d="M40.586,21.38a16.8,16.8,0,0,0-1.228-1.5,3.979,3.979,0,0,0-2.912-1.3,4.042,4.042,0,0,0-1.883.474,7.547,7.547,0,0,0-3.092,2.981,4.312,4.312,0,0,0-.542,1.5c-.742-2.085-1.639-3.724-2.671-4.021L23.72,18.131C31.389,18.131,27.092,0,19.712,0H17.649C9.03,0,6.365,18.131,13.641,18.131L9.1,19.507C5.907,20.425,4,34.231,4,34.231A1.2,1.2,0,0,0,5.2,35.578H22.738a4.363,4.363,0,0,0,.441.48,16.782,16.782,0,0,0,1.5,1.229A3.777,3.777,0,0,0,26.993,38c.179,0,.35-.008.5-.016l.044,0a8.078,8.078,0,0,0,2.922-.887,18.135,18.135,0,0,0,4.769-3.456c.294-.287,1.415-1.408,1.713-1.712a18.138,18.138,0,0,0,3.457-4.77,8.08,8.08,0,0,0,.887-2.922l0-.046A4.062,4.062,0,0,0,40.586,21.38Zm-18.829-2.2-.3,2.41a.408.408,0,0,1-.035.122L19.05,26.841a.408.408,0,0,1-.741,0l-2.377-5.128a.406.406,0,0,1-.035-.122l-.3-2.41a.408.408,0,0,1,.587-.415,3.057,3.057,0,0,0,1.362.347h2.258a3.059,3.059,0,0,0,1.361-.347.408.408,0,0,1,.587.415Zm1.9-7.745a8.445,8.445,0,0,1-1.464,3.382c-1,1.447-1.933,2.095-2.417,2.095H17.584c-.484,0-1.419-.648-2.417-2.1a8.446,8.446,0,0,1-1.464-3.38l-.022-.169-.4-.257a.408.408,0,0,1-.186-.342V10a.408.408,0,0,1,.408-.408h.167v-1.4a.408.408,0,0,1,.59-.365,4.814,4.814,0,0,0,2.04.349c.388,0,.778-.019,1.122-.037l.309-.015c.137-.006.276-.009.414-.009a13.445,13.445,0,0,1,4.118.759,7.569,7.569,0,0,0,1.066.286.408.408,0,0,1,.354.4V9.59h.167a.408.408,0,0,1,.408.408v.672a.408.408,0,0,1-.186.342l-.4.257ZM39.191,24.079v.01a6.144,6.144,0,0,1-.687,2.175,16.138,16.138,0,0,1-3.08,4.234c-.28.286-1.4,1.4-1.682,1.682a16.135,16.135,0,0,1-4.234,3.08,6.149,6.149,0,0,1-2.175.687h-.01c-.124.007-.256.013-.385.013a1.759,1.759,0,0,1-1.092-.307,14.984,14.984,0,0,1-1.324-1.082,1.9,1.9,0,0,1-.418-2.364A5.54,5.54,0,0,1,26.3,29.94a2.109,2.109,0,0,1,1.066-.317,1.726,1.726,0,0,1,.4.049,3.6,3.6,0,0,1,1.3.632.815.815,0,0,0,.495.151,1.16,1.16,0,0,0,.661-.21,15.789,15.789,0,0,0,3.269-3.269,1.049,1.049,0,0,0,.059-1.156,3.6,3.6,0,0,1-.632-1.3,1.939,1.939,0,0,1,.268-1.468,5.541,5.541,0,0,1,2.268-2.193,2.025,2.025,0,0,1,.94-.243,1.937,1.937,0,0,1,1.424.661A14.959,14.959,0,0,1,38.9,22.6,2.123,2.123,0,0,1,39.191,24.079Z" transform="translate(-3.992)" fill="#2b454e"/>
</svg>
