<svg xmlns="http://www.w3.org/2000/svg" width="32.307" height="31.275" viewBox="0 0 32.307 31.275">
  <g id="screwdriver-and-wrench" transform="translate(0 -0.428)">
    <path id="Контур_68" data-name="Контур 68" d="M18.163,14.752A3.356,3.356,0,0,1,20.4,14.2l8.827-8.829L24.285.428,15.456,9.257a3.334,3.334,0,0,1-.574,2.265Z" transform="translate(3.079 0)" fill="#2b454e"/>
    <path id="Контур_69" data-name="Контур 69" d="M5.667,22.168l-.32-.32L3.673,23.2.854,27.644l.722.722,4.446-2.819,1.352-1.669-.321-.325,5.614-5.616-1.4-1.376Z" transform="translate(0.177 3.337)" fill="#2b454e"/>
    <path id="Контур_70" data-name="Контур 70" d="M13.522,9.806A6.881,6.881,0,0,0,5.087,1.3l3.9,3.9L7.965,9.025,4.14,10.048l-3.9-3.9a6.89,6.89,0,0,0,8.8,8.349l.022.022,16.05,16.05a3.252,3.252,0,0,0,4.6-4.6Zm14.164,20.22a1.242,1.242,0,1,1,1.244-1.242A1.24,1.24,0,0,1,27.686,30.025Z" transform="translate(0 0.131)" fill="#2b454e"/>
  </g>
</svg>
