<svg xmlns="http://www.w3.org/2000/svg" width="39.929" height="23.285" viewBox="0 0 39.929 23.285">
  <g id="vk_1_" data-name="vk (1)" transform="translate(0)">
    <g id="Сгруппировать_72" data-name="Сгруппировать 72" transform="translate(0 0)">
      <g id="Сгруппировать_71" data-name="Сгруппировать 71" transform="translate(0 0)">
        <path id="Контур_65" data-name="Контур 65" d="M38.157,124.564a34.171,34.171,0,0,0-2.8-2.869c-.333-.316-.678-.643-1.011-.967h0c-.447-.436-.666-.745-.688-.974a1.866,1.866,0,0,1,.484-1.05c.528-.741,1.091-1.483,1.635-2.2.484-.638.984-1.3,1.464-1.961l.108-.149a15.251,15.251,0,0,0,2.421-4.265,1.816,1.816,0,0,0-1.612-2.638,3.9,3.9,0,0,0-.67-.044l-6.068-.005a2.134,2.134,0,0,0-2.173,1.478c-.317.8-.692,1.722-1.127,2.6a21.141,21.141,0,0,1-3.417,5.266l-.068.072a2.036,2.036,0,0,1-.362.335,1.67,1.67,0,0,1-.348-1.012c0-.008,0-.015,0-.023l-.005-7.011a.8.8,0,0,0-.007-.107,2.279,2.279,0,0,0-1.985-2.315.794.794,0,0,0-.154-.015H15.461a2.806,2.806,0,0,0-2.319,1.133,1.069,1.069,0,0,0,.654,1.9A1.318,1.318,0,0,1,14.949,111a20.425,20.425,0,0,1,.084,4.859,3.961,3.961,0,0,1-.262,1.2.923.923,0,0,1-.092.174.925.925,0,0,1-.171-.1,5.216,5.216,0,0,1-1.2-1.342,32.879,32.879,0,0,1-3.619-6.709,2.392,2.392,0,0,0-2.24-1.629c-1.944-.032-3.742-.032-5.495,0a1.932,1.932,0,0,0-1.723.774,1.938,1.938,0,0,0,.035,1.9,67.494,67.494,0,0,0,7.162,12.761,18.23,18.23,0,0,0,5.622,5.253,14.609,14.609,0,0,0,7.441,1.846q.483,0,.982-.024c1.748-.08,2.459-.775,2.537-2.477a5.1,5.1,0,0,1,.491-2.262.631.631,0,0,1,.293-.318.675.675,0,0,1,.436.151,4.593,4.593,0,0,1,.851.763c.238.26.478.529.71.789.495.553,1.006,1.126,1.542,1.672a5.107,5.107,0,0,0,4.155,1.684l5.553,0h0l.053,0A1.869,1.869,0,0,0,39.614,129a2.47,2.47,0,0,0-.016-2.351A11.816,11.816,0,0,0,38.157,124.564Zm.073,3.651a.289.289,0,0,1-.22.166l-5.552,0h0l-.066,0a3.5,3.5,0,0,1-2.922-1.21c-.51-.52-1.009-1.078-1.491-1.618-.235-.263-.478-.535-.722-.8a6.047,6.047,0,0,0-1.158-1.023,2.1,2.1,0,0,0-1.691-.359,2.066,2.066,0,0,0-1.3,1.1,6.631,6.631,0,0,0-.685,2.952c-.027.594-.128.751-.17.791s-.239.144-.852.172a13.516,13.516,0,0,1-7.559-1.614,16.71,16.71,0,0,1-5.132-4.817,65.988,65.988,0,0,1-6.992-12.468A1.349,1.349,0,0,1,1.6,109.1a1.358,1.358,0,0,1,.388-.05c1.735-.034,3.514-.035,5.441,0,.264,0,.564.083.791.639a34.437,34.437,0,0,0,3.794,7.028,6.618,6.618,0,0,0,1.6,1.735,1.628,1.628,0,0,0,2.628-.772A5.477,5.477,0,0,0,16.618,116a21.966,21.966,0,0,0-.1-5.233,2.9,2.9,0,0,0-1.661-2.351,1.244,1.244,0,0,1,.6-.12H21.69c.35.079.42.171.444.2a1.877,1.877,0,0,1,.194.7l.005,6.947a2.757,2.757,0,0,0,1.412,2.548l.027.009a1.893,1.893,0,0,0,2.023-.761l.063-.068a22.587,22.587,0,0,0,3.687-5.655c.46-.928.849-1.887,1.178-2.714.165-.415.315-.483.672-.476h.015l6.076.005a2.588,2.588,0,0,1,.4.021,1.283,1.283,0,0,1,.448.134,1.27,1.27,0,0,1-.084.455,13.842,13.842,0,0,1-2.194,3.814l-.108.149c-.468.648-.963,1.3-1.441,1.931-.551.727-1.121,1.478-1.662,2.237-1.155,1.612-1.054,2.682.388,4.088.341.333.69.663,1.028.983a32.52,32.52,0,0,1,2.67,2.732,10.355,10.355,0,0,1,1.251,1.8A.908.908,0,0,1,38.229,128.215Z" transform="translate(-0.002 -106.707)" fill="#fff"/>
      </g>
    </g>
    <g id="Сгруппировать_74" data-name="Сгруппировать 74" transform="translate(3.945 3.769)">
      <g id="Сгруппировать_73" data-name="Сгруппировать 73">
        <path id="Контур_66" data-name="Контур 66" d="M52.439,156.175q-.175-.347-.347-.7a.8.8,0,0,0-1.426.7q.175.355.354.708a.8.8,0,0,0,1.42-.718Z" transform="translate(-50.583 -155.037)" fill="#fff"/>
      </g>
    </g>
    <g id="Сгруппировать_76" data-name="Сгруппировать 76" transform="translate(5.568 6.881)">
      <g id="Сгруппировать_75" data-name="Сгруппировать 75" transform="translate(0 0)">
        <path id="Контур_67" data-name="Контур 67" d="M76.618,201.214a52.776,52.776,0,0,1-3.73-5.868.8.8,0,0,0-1.392.77,54.363,54.363,0,0,0,3.842,6.043.8.8,0,0,0,1.28-.945Z" transform="translate(-71.396 -194.936)" fill="#fff"/>
      </g>
    </g>
  </g>
</svg>
