<svg xmlns="http://www.w3.org/2000/svg" xmlns:xlink="http://www.w3.org/1999/xlink" width="374.331" height="231.913" viewBox="0 0 374.331 231.913">
  <defs>
    <linearGradient id="linear-gradient" x1="0.232" y1="0.07" x2="0.762" y2="0.925" gradientUnits="objectBoundingBox">
      <stop offset="0" stop-color="#ff3eff"/>
      <stop offset="1" stop-color="#265aff"/>
    </linearGradient>
  </defs>
  <path id="Контур_2181" data-name="Контур 2181" d="M151.437,47.176c-.083-.989.495-.907-.907-2.8s-2.226-2.91-2.226-5.165-1.319-3.657,0-5.388,1.584-3.628,3.183-3.3,3.083.082,4.238,1.4,4.288,3.3,4.7,4.865-.165,1.446.495,2.537,3.545,2.987,4.288,2.987a2.346,2.346,0,0,0,2.226-1.649c.165-1.072-.989-1.731,1.566-2.144s2.886.127,2.886.805-.825.184-.989,2.08-.247,3.216.66,4.287a18.043,18.043,0,0,1,2.226,2.473c.412.825-.082.412.495,1.484s.825,1.072,1.567.412-.33-.495,1.814-2.061,2.473-1.9,3.545-1.979a13.541,13.541,0,0,1,3.3-.33c2.639,0,3.463.083,4.617,1.072s.989,1.072,2.226,2.061.577.989,1.9.989-1.154-.66,1.9,0,2.721.412,4.947,1.319a30.52,30.52,0,0,1,3.71,1.814c.66.33-.165,1.567,1.649,1.072s.989-.577,2.226-1.319,1.649-.907,1.814-.412,0,.412,0,1.154-.66,1.072-.66,2.144-.33,1.319.33,1.319a1.769,1.769,0,0,0,1.4-1.649c0-.742-.165-1.237.907-1.484a5.9,5.9,0,0,1,1.979-.247c.907,0,.989-.742,2.473.742s1.9,1.237,2.638,2.638,1.484,2.061.495,2.226-1.9-1.154-2.391,0-.989.907-.495,1.155a15.036,15.036,0,0,1,2.473.577c1.319.577-.66.907,1.649,1.9a16.076,16.076,0,0,1,2.309.989c1.979.989,1.731,1.484,2.556,2.226s2.061.907,2.061,1.567a9.277,9.277,0,0,0,0,2.144c.165.825-.495,0-.495,2.061s.165,2.473.907,2.556.907.824,2.391-.989,1.814-2.473,1.814-3.793-1.072-1.814,0-1.319,1.237,1.319,2.061,1.4,1.319.66,1.649-.083,1.155-.33.495-1.484-1.487-1.072-1.774-2.721-.867-1.567,0-2.556,1.115-1.814,2.846-1.154a5.013,5.013,0,0,1,2.721,1.979c.577.742,1.649,1.154,1.814,2.391s-1.319,1.4-1.4,2.639-.083,2.391-.083,3.05,1.072.907-.577,1.567-1.154,1.676-2.226,1.291-1.154-.8-1.731-.8-1.731-.794-1.814.881-.165,1.84-.165,2.582.33.907-.989,2.391-2.226,1.4-2.309,2.473-.495,2.721.247,3.38.577,1.567,2.226,0,.825-1.072,2.639-2.721,3.545-3.3,3.793-3.628a39.7,39.7,0,0,1,3.216-3.133c.742-.577-.33-1.072,3.216-1.9s1.979-.165,4.04-1.154,2.638-.082,2.968.412,1.4.412,0,1.649-1.484,2.061-2.061,1.237.083-1.567-.659-1.567-.33-.33-1.9.577a13.62,13.62,0,0,1-2.721,1.237c-.989.412-1.319-.082-1.649,1.567s1.319,1.154-.33,2.226-.412.742-.412,2.061a3.341,3.341,0,0,0,.742,2.391c.33.33,1.566-.742,2.638-1.567s-1.484-1.4,1.731-1.237,2.556-.907,3.381.577a3.478,3.478,0,0,0,1.94,1.731c.451.33.864,0,.534.907s.659-.495-1.237,1.731-2.144,2.473-2.144,3.05a1.788,1.788,0,0,1-.577,1.732c-.742.742-2.061.165-.742.742a5.652,5.652,0,0,0,2.8.577,10.92,10.92,0,0,0,2.969,0c2.061-.247,1.566,0,3.133-.577a26.056,26.056,0,0,1,2.556-.907c.907-.247.165-.165.907-.247s.825-.989.742-.082-.165.495-.577,1.237-1.319.495-1.4,1.484-.247,1.072.33,1.237.247-.495,1.072,0,1.4.412,1.814,1.4.083,1.154.577,1.731a3.164,3.164,0,0,0,1.567,1.072,8.95,8.95,0,0,0,2.144,0s.577-.165,1.319-.33,1.072-1.072,1.979-.165a3.226,3.226,0,0,1,1.237,2.309c0,.742-.742.495,0,1.237s1.979.742,2.721,1.566a18.481,18.481,0,0,1,1.979,2.391,3.65,3.65,0,0,1,.907,2.144,15.789,15.789,0,0,0,.412,2.968c.33.907,1.484,3.051,1.9,3.958a15.969,15.969,0,0,0,1.072,1.979c.577.989.989.989,1.319,2.474a8.326,8.326,0,0,1,.412,3.71c-.247,1.4.66,1.154-.742,2.226a8.422,8.422,0,0,1-2.638,1.567c-1.154.495-1.237.082-2.556,1.319s-1.731,1.484-1.979,2.144-.495,1.237-.247,1.649,1.649,0,1.649,0-.33-1.072,0-1.072a1.141,1.141,0,0,1,1.072.824,2.667,2.667,0,0,1,.247,1.4,6.453,6.453,0,0,0,.495,2.638,16.93,16.93,0,0,0,2.309,2.968c.247.247-.083-.247,1.154,1.155s.907,1.237,2.226,1.979.577,1.154,1.9,1.154.824-.247,1.566-.577.66-.99,2.556-.412,4.535,1.649,5.359,2.473a12.007,12.007,0,0,0,2.968,2.144c1.567.907,1.154.577,3.216,1.649s2.8.165,3.545,1.319a7.843,7.843,0,0,0,1.649,2.309,3.768,3.768,0,0,0,2.8.907c.742,0,.577.989,2.226,0s1.567-.33,2.309-1.731-.083-1.319.907-1.9,1.4-1.319-.495-2.226-2.556-.082-3.38-.577.165.577-1.237-1.154-1.4-2.473-1.979-2.886-.165.989-1.9-1.155-1.237-1.154-2.144-2.721a16.619,16.619,0,0,1-1.155-2.061c-.33-.742-3.463-3.381-3.463-3.381a10.18,10.18,0,0,0-.742-1.979c-.247-.247-4.122-5.359-4.122-5.607a9.487,9.487,0,0,0-1.649-2.308c-.742-.825-.824-.247-2.391-2.639a26.563,26.563,0,0,0-2.8-3.875c-1.319-1.567-3.793-5.195-4.122-5.359a5.009,5.009,0,0,1-1.4-1.649,15.961,15.961,0,0,1-1.814-2.639c-.577-1.319-1.484-2.309-2.061-3.38a21.076,21.076,0,0,1-1.155-2.556,4.526,4.526,0,0,0-1.237-1.649,61.048,61.048,0,0,1-3.958-5.607c-.33-.742-1.237-.577-1.237-2.8V89.225a30.37,30.37,0,0,0,1.4,2.881c.247.253.412.088,1.4,1.9a48.892,48.892,0,0,0,2.391,4.535c.577.659,1.9,1.814,2.309,2.391s.989,1.9,1.567,2.8a21.19,21.19,0,0,1,1.649,2.886,11.605,11.605,0,0,0,1.731,3.3c.825.907,1.237,1.4,2.226,2.556s2.061,2.061,2.8,2.968,2.144,2.639,2.556,3.133a3.08,3.08,0,0,1,.825,1.154c.577,1.072,1.319,2.391,1.566,2.721s2.391,3.463,2.391,3.463a10.356,10.356,0,0,0,1.814,2.886c1.072,1.072,1.155,1.9,2.391,3.3s1.484,1.979,2.968,3.71a31.523,31.523,0,0,0,3.216,3.71,31.941,31.941,0,0,1,3.463,3.216,22.957,22.957,0,0,0,3.381,2.721,21.406,21.406,0,0,0,3.226,2.061c.567.247,2.545,1.567,3.122,1.731a5.92,5.92,0,0,0,2.226.247,5.046,5.046,0,0,0,1.731-.495,27.769,27.769,0,0,0,3.133-1.567c.989-.495,2.556-1.4,3.133-1.649a10.248,10.248,0,0,1,3.3-1.072,11.293,11.293,0,0,0,3.216-.495c1.4-.412,2.144-.247,2.556-.907a3.076,3.076,0,0,0,.413-1.731c0-.412,0-.33.742-.907s.907-.082,1.566-1.237,1.4-1.649.742-2.061-1.237-.247-1.237-.907-1.154-.495.247-.989a10.355,10.355,0,0,0,3.463-2.061,21.374,21.374,0,0,0,2.308-2.144c.907-.825,1.072-.659,1.072-1.484a1.574,1.574,0,0,0-.495-1.237c-.165-.247-.825-.659-.247-1.319s.495-.907,1.9-1.072,1.484-1.072,2.391.083.825,1.814.495,2.061-.989.083-1.237.989-1.649.989-.165,1.979,1.319,1.731,2.721,2.721,1.484,1.731,2.886,2.556a12.3,12.3,0,0,0,3.216,1.731c1.4.412.66.825,3.628.577s3.875-1.072,4.37-1.4a9.473,9.473,0,0,0,1.649-1.814,4.288,4.288,0,0,0,.907-2.721v-.742c0-.907-.412-1.072,0-1.731a2.834,2.834,0,0,1,1.979-1.731c1.484-.495,2.474-1.484,3.958-1.567s2.474-.66,3.463-.66a12.39,12.39,0,0,0,3.545-.412c2.639-.495,2.721-.412,4.04-.742a6.032,6.032,0,0,1,2.226-.33c.989,0,1.649-.577,1.649.412s.247.907-.742,1.155-1.319-.165-1.649.412a2.387,2.387,0,0,0-.412,1.155c0,.247.33.495,1.072.989s.632.824,1.759.495,1.7-.412,1.622-.989-.825-.742-.659-1.567-.825-.577.165-.825,1.072.165,1.649-.495-.165-.412.577-.66.66-.165.907.412-.33.165.742.577a3.775,3.775,0,0,1,1.814,1.319c.33.412.989,1.319,1.814,1.319s.083.495,1.649.495,1.237-1.072,2.638-1.154,2.556-.412,3.216-.083.082.742,1.567,1.649,1.072.989,2.721,1.649,1.649.989,2.226.742.495-.577,1.154-1.154,1.814-.825,2.144-.577,1.319.247,1.484,1.319-.907.907-.577,1.814-.212.495.595,1.154,1.055.247,2.126,1.4,1.979.495,1.072,1.154-1.484.412-1.484.989v.577c0,.495.247.66,0,1.154s-.825-.083-1.484.577.247.66-.989,1.155-.083.907-1.814.495a9.672,9.672,0,0,0-3.133-.33c-.989,0-.413-.165-1.732-.66s-1.649-1.072-2.309-1.072-.412-.989-1.567.412-1.319,1.649-1.4,1.979-.907-1.484-.083.33.165,1.237,1.484,1.979,1.072.989.742,1.154-.907.082-.907.577.495.33-.412.66a26.272,26.272,0,0,0-2.8,1.072,7.715,7.715,0,0,0-2.391,1.4c-.33.412-.33.577-.33,1.237s.989.825.989.825.742-.577.742,0-.083,1.7-.577,2.089-.989.467-.989,1.374-.165.824-.742,2.144a16.927,16.927,0,0,0-.907,3.051l.66,1.731a2.589,2.589,0,0,0,.082,1.567c.33.577.082.742.495,1.567a6.356,6.356,0,0,1,.495,2.308c0,.247-.412.742,0,1.484s.247,1.072,1.154,1.731a2.662,2.662,0,0,1,1.319,1.814c.33.989.824.165.33.989a4.818,4.818,0,0,1-1.319,1.731c-.66.495-2.226,1.237-2.721,1.649a9.366,9.366,0,0,1-2.061,1.072c-.907.412.495.412-2.144.412s-4.37-.989-5.524,0-3.3,1.319-3.958,1.567-.165.495-1.237,1.319-.33,1.484-1.649.989-1.649-1.072-2.8-1.072.495,0-1.649-.083a29.826,29.826,0,0,1-4.617-.33c-.247-.165.659-1.237-1.484-1.319a10.621,10.621,0,0,0-3.958.33c-1.237.33-.577-.082-2.226.247s-2.969.577-3.463,1.237.412,1.072-1.237,1.814-2.308.907-3.05.825-.907-.165-1.567-.989-1.731,0-1.731,0a3.6,3.6,0,0,1-.742-.907c-.495-.742.247-1.9-.495-.742s-.247,1.237-.33,2.061,1.484-.165-.989.989-2.721,2.144-3.628,1.484-1.072-.33-1.484-1.649-.907-1.484-1.4-2.473a14.944,14.944,0,0,0-1.649-2.721c-.907-1.237-.412-1.731-3.381-3.628a26.518,26.518,0,0,0-6.1-3.051c-1.237-.412-2.556-1.979-4.535-1.979s-4.865-1.484-6.184-.907-1.9.33-3.628.989-.907.412-2.309.907-4.617,2.474-5.277,2.721a16.22,16.22,0,0,0-2.968,2.886c-.577.66-1.319,1.072-1.649,1.649a3.708,3.708,0,0,0-.495,1.731c0,.495.742,1.4.989,1.814s.742-.165,1.319.659,1.979.495.907,1.567-.907.989-1.814,1.237a7.633,7.633,0,0,0-2.638.907,3.748,3.748,0,0,0-.989,1.731c-.165.495-.907.742-.083,1.649s.247,1.4,1.319,1.731,1.979-.577,1.731,0,.247.907-.989.742a5.27,5.27,0,0,1-2.391-.742c-.247-.247,0-.66-.66-.825s.083-.907-1.814-.907-1.4-.907-2.309,0a2.067,2.067,0,0,1-2.061.495l-1.567-.165s-.825.33-.907.66a2.7,2.7,0,0,0-.082,1.526,7.555,7.555,0,0,1,.247,1.936,2.437,2.437,0,0,1-1.319,2.226,4.9,4.9,0,0,1-2.556.66c-1.237.082-1.484-.412-1.814,0a9.753,9.753,0,0,1-1.979,1.566c-.577.33-.247-.742-1.237,1.072a8.721,8.721,0,0,0-1.072,3.463c-.083.412-.577,1.979-.742,2.556s-.33,1.567-.495,2.061.775.577-.355,1.237a9.436,9.436,0,0,0-2.366,1.484c-.742.742-.742,1.979-1.9,1.567a13.375,13.375,0,0,1-1.731-.742c-.742-.33-1.154-.165-1.154-1.237s1.566-1.4,0-1.979-3.711-1.319-3.711-1.319h-1.154c-.247,0,.989.495-.66-.247s-2.886-.742-3.463-.412-.825-.082-1.732.742-2.226,2.556-2.721,2.309-.907-.824-1.566-.907-1.484.577-1.9.577-1.979-.083-2.226-.083a9.585,9.585,0,0,1-1.649-.165c-1.072-.165-.495-.5-2.721-.165s-1.979.825-2.969.989-.495-.412-1.814.247a15.3,15.3,0,0,0-2.639,1.4c-.907.66-1.567-.248-2.144,1.071s-3.051.5-3.051.5,1.072-.728-.412.255a18.293,18.293,0,0,1-3.711,1.807c-.66.247-2.144,1.319-2.391,1.4s-.412-.742-1.484.659-.989,1.484-2.309,1.9a9.4,9.4,0,0,0-3.051,1.4,17.436,17.436,0,0,0-2.061,1.566c-.33.33.577.907-1.567,1.649s-1.237,1.567-1.9,2.226-.659.165-1.566,1.072.165.247-.412,1.649a12.829,12.829,0,0,1-1.649,3.381c-.577.577-1.649.989-1.9,1.814s.247,1.072-.247,2.226a6.605,6.605,0,0,1-1.567,2.391c-.495.412.082,1.814.165,2.061a1.992,1.992,0,0,1-.495,1.814c-.659.742-.165.742-1.237.66s-2.721-1.4-3.463-.495-.825.33-1.4,1.649a13.537,13.537,0,0,0-.66,1.814l-.247.659a1.447,1.447,0,0,1-1.154,1.4,5.02,5.02,0,0,1-2.721.495c-1.814,0-.577-.495-2.061,0s-2.144.412-2.886,1.4a11.032,11.032,0,0,0-1.649,2.391c-.659,1.319-.825,1.567-1.567,3.133s-1.154,2.721-2.556,3.133a26.678,26.678,0,0,1-3.628.577,3.789,3.789,0,0,0-2.144.907,7.747,7.747,0,0,1-2.886,1.155c-.495.083-.083-.165-2.144.742s-1.979.742-3.051.577-2.968-.742-3.463-.742-1.154-.825-3.133-.825-3.38-.083-3.793-.083a13.288,13.288,0,0,0-2.391,1.237,20.069,20.069,0,0,1-2.968.542,13.214,13.214,0,0,1-4.37-.542l-1.649-2.8s-1.649-.082-2.309-.082a9.926,9.926,0,0,1-2.638-1.237,9.351,9.351,0,0,0-.577-2.144,13.587,13.587,0,0,1-1.154-3.3,4.41,4.41,0,0,0-2.556-2.473h-2.309a20.957,20.957,0,0,1-4.287-.577c-.247-.083-4.122-.577-4.122-.577s.33-.083-1.072-1.649a14.534,14.534,0,0,0-3.3-2.968,32.8,32.8,0,0,1-2.8-2.226c-.33-.247-1.484,0-1.4-1.566s-.989-3.133.412-2.309a8.842,8.842,0,0,1,1.731,1.237.452.452,0,0,0,.742-.33c.083-.495.165-.412.495-.907a1.283,1.283,0,0,0,0-1.154s0-1.4.66-.824.082.33.66.577.742,0,1.237-.824-.33-.989.495-.825a3.54,3.54,0,0,1,1.319.412,1.917,1.917,0,0,0,1.649-.33c.33-.247-.082,0,.33-.247s.412-.66.742-.495l.33.165a3.187,3.187,0,0,0,2.308,0c.825-.165.825-.66,1.732-.165a7.452,7.452,0,0,0,2.226.659l.33.083,1.154.33s2.226,0,.577-.495-2.308-1.319-3.3-1.4a20.825,20.825,0,0,0-2.309-.083,3.073,3.073,0,0,1-1.731-.495s-1.484.577-.083-.824a19.422,19.422,0,0,0,1.814-1.979s-.577-.082,0-1.237a13.217,13.217,0,0,0,.577-4.37c0-.495.33-1.484.33-1.979a5.46,5.46,0,0,0-.247-2.474,5.418,5.418,0,0,1-.659-2.721,9.335,9.335,0,0,0,.659-2.886c0-1.154-.33-1.9-.33-2.473a13.409,13.409,0,0,1,.082-1.9,11.2,11.2,0,0,0,.577-1.484,20.55,20.55,0,0,0,.247-2.144,1.479,1.479,0,0,1,.825-.247c.495,0,1.154-.577,1.566-.742a7.452,7.452,0,0,0,1.155-.577,12.376,12.376,0,0,0,1.154-1.649v-1.9a5.016,5.016,0,0,1,.495-1.9s.165-1.567.165-2.226V194.35s-.577-2.144-.577-2.473-.577-2.556-.577-2.556a11.31,11.31,0,0,0,.247-2.309,17.6,17.6,0,0,0-.66-2.638,10.9,10.9,0,0,1-.247-1.731,11.282,11.282,0,0,1-.825-2.309l-.495-2.473a5.377,5.377,0,0,0-1.319-2.061c-.577-.495-1.566-2.8-1.814-2.886a9.393,9.393,0,0,1-1.649-1.9c-.165-.33.33-.165-.33-1.072a17.8,17.8,0,0,0-2.556-2.8,9.213,9.213,0,0,1-1.567-1.567,9.228,9.228,0,0,0-1.9-2.061c-.742-.412-2.8-1.814-2.8-1.814l-1.072-1.319-.33-1.649-.495-.907a3.159,3.159,0,0,0-.412.907c0,.247.412,1.319.412,1.567s.33.495-.165.577-1.3.247-1.3.247-.18-.247-.345.33-1.814,1.731-1.814,1.731.824.247-.66.412-2.391-.083-3.216.247-.247-.742-1.237.742-.247,2.309-1.649,2.638-2.061.33-2.473-.082a11.429,11.429,0,0,0-1.4-1.567c-1.154-1.072-2.308-1.484-2.308-2.226s.247-1.484-.495-1.567,0,.165-1.4.412a6.069,6.069,0,0,1-2.144.083s-.412-.577-1.237-1.567-.907-1.566-1.731-2.391a28.792,28.792,0,0,0-2.226-2.144,33.519,33.519,0,0,1-2.721-2.8l-.742-1.237a2.1,2.1,0,0,0-.577-1.237c-.495-.412-1.814-1.4-2.391-1.9s-2.212-1.843-2.42-1.947a6.054,6.054,0,0,1-1.04-.988c-.208-.26-.988-.936-1.248-1.2s-.884-.832-1.508-1.352-1.3-1.56-2.5-1.872a6.907,6.907,0,0,1-2.34-.936,9.465,9.465,0,0,0-2.7-.988,6.2,6.2,0,0,0-2.288-.416c-1.664,0-1.82-.26-4-.26s-2.964-.1-4,0a5.405,5.405,0,0,0-2.6.728,10.778,10.778,0,0,0-2.756,1.664,15.924,15.924,0,0,1-2.132,1.82,16.574,16.574,0,0,0-1.716,1.4c-.78.728-.468.936-1.924.78s-1.2-.364-1.976-.624-.624-.416-1.664-.416-1.352-.208-1.872-.208-1.248-.832-1.768-.884a12.759,12.759,0,0,0-2.392-.208c-.468.1-.676-.208-1.248-.312s5.46-.468-1.3-.468-1.2-.988-1.2-.988.988-.52,1.092-.78-.156-1.04.156-1.56.26-.416.624-.676,1.3-1.716.312-1.352a3.089,3.089,0,0,1-2.444.1c-.416-.312-.936-.416-1.144-.832a1.981,1.981,0,0,1,.208-1.976,14.5,14.5,0,0,0,2.08-2.288,4.66,4.66,0,0,1,1.144-1.716c.416-.26.676-1.144,1.82-2.184s1.716-1.456,1.976-1.664a27.385,27.385,0,0,1,2.86-1.82,10.866,10.866,0,0,0,2.912-1.456,20.936,20.936,0,0,1,2.392-1.976,8.55,8.55,0,0,1,2.028-1.2c.572-.156,1.144-.26,1.248-.1s-.364.572.052.988,1.4.364,1.612,0,.052-.728.208-1.04a2.088,2.088,0,0,1,.832-1.144c.624-.416,2.652-2.08,3.536-2.756s1.352-1.092,1.976-1.092,1.768-.78,1.3.1-1.976,1.04-1.924,2.132.416,1.144,1.3,1.04a3.361,3.361,0,0,0,1.924-.728,4.7,4.7,0,0,0,.26-1.716s0-.624.312-.1,1.144.624,1.2.364.052-1.2.468-1.456a2.261,2.261,0,0,0,.78-1.456c0-.364,1.04-.988-.78-1.144s-1.872-.416-1.4-.728,2.444-2.132,2.444-2.132,1.4-1.3,1.612-1.4a28.575,28.575,0,0,1,3.38-2.392,35.924,35.924,0,0,0,3.432-2.184c.936-.676,1.872-1.4,2.392-1.716s2.184-1.092,2.86-1.456,1.82-.988,2.86-1.508,2.184-1.4,2.86-1.768a19.11,19.11,0,0,1,2.184-1.04,3.959,3.959,0,0,1,1.56-.468,3.05,3.05,0,0,0,1.82-.416c.416-.312,1.3-.884,1.768-1.2s-.468-.728.78-.728a10.911,10.911,0,0,0,1.924,0c.52-.1.988-.936.988-.936a3,3,0,0,0-.416-1.352,5.439,5.439,0,0,0-.572-.988c-.26-.312-.676-.624-.728-.78a6.871,6.871,0,0,1-.208-1.664c.052-.416.156-1.56.156-1.56a4.543,4.543,0,0,1,.936,1.3c.364.78.416.572.936,1.2s1.82.572,2.548,1.2a3.735,3.735,0,0,0,2.236.78,5.3,5.3,0,0,0,1.456-.1c.832-.156-.78.26,1.924-.728s4.056-1.612,4.056-1.612.26-.156.936-.676,1.508-1.04,1.508-1.04.156.1.884-.572,2.756-2.132,3.536-2.808,1.144-.988,2.132-1.768a15.478,15.478,0,0,1,2.548-1.82c.988-.52,3.536-1.716,3.536-1.716.26,1.092.468,1.976,1.092,1.768a18.931,18.931,0,0,1,1.768-.78c.312,0-.26-.312.312,0s.364.052.832.78,1.092,1.4,1.3-.156.416-2.08.676-2.34a4.094,4.094,0,0,1,1.04-.884c.312-.1.416.1,1.456-1.092s.364-2.392,1.976-1.768a5.026,5.026,0,0,1,2.444,1.4c.832.78.312.156,1.612,1.4s.676,1.56,1.716,1.976,1.4.728.988-.572-.988-1.612-.988-2.808-.728-2.184.156-3.276,1.04-1.04,1.508-.832a.908.908,0,0,0,1.248-.364c.364-.52.312-1.56,1.352-1.716s2.548-.156,2.756-.208.676-1.352.312-1.768,1.3-.832-1.82-1.04-3.38-.52-4.265-.52a11.392,11.392,0,0,0-2.236-.1c-.676.156.1-.572-1.4.468s-1.664.884-1.82.728-1.092.052-.468-.832,1.3.364,1.092-1.664-.832-2.34-.208-3.12a2.058,2.058,0,0,0,.312-1.768,3.06,3.06,0,0,1-.52-.572c-.312-.416.832-.052.832-.52v-1.56a.631.631,0,0,0-1.092-.156c-.676.676-.884.312-.78-.1s-.156-1.664-.052-2.08-.208-1.3-.1-1.872a4.563,4.563,0,0,1,.572-1.4C150.349,49.445,151.519,48.165,151.437,47.176Z" transform="translate(-47.256 -30.483)" fill="url(#linear-gradient)"/>
</svg>
