<svg xmlns="http://www.w3.org/2000/svg" width="56.249" height="60"><g fill="#2b454e"><path data-name="Контур 118" d="M54.374 0H14.999a1.877 1.877 0 00-1.875 1.875V15h1.875V1.875h7.5v3.75h-4.687a.938.938 0 00-.937.938V15h1.875V7.5h3.75v1.875a1.877 1.877 0 001.874 1.875h20.625a1.877 1.877 0 001.875-1.875V7.5h3.75V30h1.875V6.563a.938.938 0 00-.937-.937h-4.688V1.875h7.5v56.25H14.999V52.5h-1.875v6.563a.938.938 0 00.938.938h40.312a1.877 1.877 0 001.875-1.875V1.875A1.877 1.877 0 0054.374 0zm-9.375 9.375H24.374v-7.5h20.625z"/><path data-name="Контур 119" d="M52.499 31.875h-1.875V45h-9.375a.938.938 0 00-.937.938v8.438H18.749V52.5h-1.875v2.813a.938.938 0 00.938.938h23.437a.974.974 0 00.128-.008h.061a.185.185 0 00.024-.006h.007c.025-.007.051-.013.076-.022a.783.783 0 00.078-.03.8.8 0 00.075-.038l.035-.021.014-.009.022-.015.011-.008.023-.017.022-.017.013-.01.042-.05 10.313-9.375a.625.625 0 00.045-.044l.012-.013.036-.041.007-.007.037-.049.01-.015a.57.57 0 00.026-.041.094.094 0 00.007-.013.579.579 0 00.028-.053l.007-.015.02-.044c0-.006 0-.01.007-.016s.014-.038.021-.058v-.008l.015-.053a.078.078 0 010-.014.932.932 0 00.02-.125V31.875zm-10.312 15h6.95l-4.553 4.139-2.4 2.179z"/><path data-name="Контур 120" d="M26.249 4.688h1.875v1.875h-1.875z"/><path data-name="Контур 121" d="M41.249 4.688h1.875v1.875h-1.875z"/><path data-name="Контур 122" d="M45.937 15H24.374a.938.938 0 00-.937.938v3.75h1.875v-2.813h19.687V30H30.937v1.875h15a.938.938 0 00.938-.937v-15a.938.938 0 00-.938-.938z"/><path data-name="Контур 123" d="M29.999 35.625h10.313V37.5H29.999z"/><path data-name="Контур 124" d="M42.187 35.625h5.625V37.5h-5.625z"/><path data-name="Контур 125" d="M27.187 41.25h10.312v1.875H27.187z"/><path data-name="Контур 126" d="M39.374 41.25h8.438v1.875h-8.438z"/><path data-name="Контур 127" d="M22.499 46.875h15.938v1.875H22.499z"/><path data-name="Контур 128" d="M29.999 4.688h9.375v1.875h-9.375z"/><path data-name="Контур 129" d="M14.999 50.625a.933.933 0 00.563-.187l4.137-3.1a23.354 23.354 0 009.019-14.677l1.268-7.182a.937.937 0 00-.482-.99l-14.062-7.5a.936.936 0 00-.882 0l-14.062 7.5a.938.938 0 00-.482.99l1.257 7.132A23.371 23.371 0 0010.174 47.2l4.259 3.236a.936.936 0 00.566.19zM3.117 32.281L1.978 25.82l13.021-6.945 13.025 6.945-1.149 6.512a21.488 21.488 0 01-8.3 13.5l-3.571 2.678-3.7-2.808a21.5 21.5 0 01-8.187-13.421z"/><path data-name="Контур 130" d="M18.594 43.822a17.378 17.378 0 006.71-10.922l.93-5.267a.937.937 0 00-.482-.99l-4.689-2.5-.882 1.657 4.089 2.182-.812 4.6a15.511 15.511 0 01-5.988 9.746l-2.468 1.851-2.559-1.949a15.517 15.517 0 01-5.911-9.688l-.808-4.561L9.816 25.8l-.882-1.655-4.688 2.5a.938.938 0 00-.482.99l.922 5.229a17.393 17.393 0 006.623 10.856l3.124 2.373a.937.937 0 001.13 0z"/><path data-name="Контур 131" d="M14.998 23.036l3.31 1.765.882-1.655-3.752-2a.936.936 0 00-.882 0l-3.749 2 .882 1.655z"/><path data-name="Контур 132" d="M14.024 37.5h.036a.937.937 0 00.7-.32l6.563-7.5-1.411-1.235-5.8 6.63-2.113-2.825-1.5 1.125 2.812 3.75a.941.941 0 00.714.375z"/><path data-name="Контур 133" d="M14.062 26.25h1.875v1.875h-1.875z"/><path data-name="Контур 134" d="M14.062 39.375h1.875v1.875h-1.875z"/></g></svg>