<svg data-name="Сгруппировать 225" xmlns="http://www.w3.org/2000/svg" xmlns:xlink="http://www.w3.org/1999/xlink" width="77.9" height="77.9"><defs><linearGradient id="a" y1=".5" x2="1" y2=".5" gradientUnits="objectBoundingBox"><stop offset="0" stop-color="#ff3eff"/><stop offset="1" stop-color="#265aff"/></linearGradient><linearGradient id="b" x1=".1" y1=".1" x2=".9" y2=".9" xlink:href="#a"/><linearGradient id="c" x1=".5" y1="1" x2=".5" gradientUnits="objectBoundingBox"><stop offset=".1" stop-color="#fff"/><stop offset=".2" stop-color="#f2f1f1"/><stop offset=".3" stop-color="#e6e5e5"/><stop offset="1" stop-color="#2b454e"/></linearGradient><linearGradient id="d" x1=".5" y1="1" x2=".5" gradientUnits="objectBoundingBox"><stop offset="0" stop-color="#f7f7f7"/><stop offset=".4" stop-color="#f7f7f7"/><stop offset=".5" stop-color="#f7f7f7"/><stop offset=".6" stop-color="#f7f7f7" stop-opacity=".9"/><stop offset=".7" stop-color="#f8f8f8" stop-opacity=".8"/><stop offset=".8" stop-color="#f8f8f8" stop-opacity=".8"/><stop offset=".8" stop-color="#f9f9f9" stop-opacity=".7"/><stop offset=".9" stop-color="#fafafa" stop-opacity=".5"/><stop offset=".9" stop-color="#fcfcfc" stop-opacity=".4"/><stop offset="1" stop-color="#fdfdfd" stop-opacity=".2"/><stop offset="1" stop-color="#fefefe" stop-opacity="0"/><stop offset="1" stop-color="#fff" stop-opacity="0"/></linearGradient></defs><circle data-name="Эллипс 287" cx="32.1" cy="32.1" r="32.1" transform="rotate(-75.9 39.9 31.1)" fill="url(#a)"/><circle data-name="Эллипс 288" cx="32.1" cy="32.1" r="32.1" transform="rotate(-75.9 39.9 31.1)" fill="#19272b" opacity=".5"/><path data-name="Контур 1432" d="M38.2 9.4V6.8a31.4 31.4 0 0124.6 10.7l-2 1.5a30.2 30.2 0 00-22.6-9.6z" fill="#fff" style="mix-blend-mode:soft-light;isolation:isolate"/><path data-name="Контур 1433" d="M62.8 21.5l2.2-1.3a31.6 31.6 0 013.5 6.2L66 27a32 32 0 00-3.2-5.5z" fill="#fff" style="mix-blend-mode:soft-light;isolation:isolate"/><circle data-name="Эллипс 289" cx="30.5" cy="30.5" r="30.5" transform="rotate(-76.5 39.3 28.8)" fill="url(#b)"/><circle data-name="Эллипс 290" cx="23.5" cy="23.5" r="23.5" transform="rotate(-76.6 40.2 20.8)" fill="url(#c)"/><circle data-name="Эллипс 291" cx="21.1" cy="21.1" r="21.1" transform="rotate(-76.6 41.4 18.9)" fill="url(#d)"/><path data-name="Контур 1434" d="M37.4 40.4l1.3-19.5h1.1L41 40.4z" fill="#2b454e"/><path data-name="Контур 1435" d="M39.2 41.6l-.2-3 12.7.7v1z" fill="#2b454e"/><path data-name="Контур 1436" d="M41.5 40.7a2.1 2.1 0 11-2.1-2.1 2.1 2.1 0 012.1 2.1z" fill="#2b454e"/><circle data-name="Эллипс 292" cx="1.2" cy="1.2" r="1.2" transform="translate(19 36)" fill="#2b454e"/><circle data-name="Эллипс 293" cx="1.2" cy="1.2" r="1.2" transform="translate(56.3 36)" fill="#2b454e"/><circle data-name="Эллипс 294" cx="1.2" cy="1.2" r="1.2" transform="translate(38.2 17)" fill="#2b454e"/><path data-name="Контур 1437" d="M33.6 15.8l2.7 7.4s11.2.2 16.9 7l5.6-2.7c-1.2-4.8-11.3-15-25.2-11.7z" fill="#fff" opacity=".5"/><path data-name="Контур 1438" d="M25.4 55.5l2.7-3.8A26.2 26.2 0 0044 55.4l1.4 4.1a23 23 0 01-19.9-4z" fill="#fff" style="mix-blend-mode:soft-light;isolation:isolate"/></svg>