<svg data-name="Компонент 1 – 1" xmlns="http://www.w3.org/2000/svg" width="55" height="55"><circle data-name="Эллипс 1" cx="1.074" cy="1.074" r="1.074" transform="translate(40.598 52.852)"/><path data-name="Контур 15" d="M54.447 4.3A7.031 7.031 0 0047.964 0H7.036A7.031 7.031 0 000 7.036v40.928A7.031 7.031 0 007.036 55h29.8a1.074 1.074 0 100-2.148h-29.8a4.889 4.889 0 01-4.888-4.888V7.036a4.889 4.889 0 014.888-4.888h40.928a4.889 4.889 0 014.888 4.888v40.928a4.889 4.889 0 01-4.888 4.888h-1.458a1.074 1.074 0 100 2.148h1.458A7.031 7.031 0 0055 47.964V7.036a6.989 6.989 0 00-.553-2.736z" fill="#2b454e"/><path data-name="Контур 16" d="M27.5 4.941A22.559 22.559 0 1050.058 27.5 22.584 22.584 0 0027.5 4.941zm0 42.969A20.41 20.41 0 1147.91 27.5 20.433 20.433 0 0127.5 47.91z" fill="#2b454e"/><path data-name="Контур 17" d="M15.756 27.567a50.48 50.48 0 01-2.586-1.045.755.755 0 01-.28-.719 1.047 1.047 0 01.823-.841 3.246 3.246 0 012.692.619 1.074 1.074 0 001.377-1.649 5.386 5.386 0 00-4.688-1.029 3.214 3.214 0 00-2.33 2.593 2.894 2.894 0 001.291 2.865 1.065 1.065 0 00.149.081c.054.024 1.35.6 2.809 1.139.438.162 1.442.622 1.3 1.4a1.7 1.7 0 01-1.75 1.158 3.389 3.389 0 01-2.49-1.045 1.074 1.074 0 00-1.592 1.443 5.569 5.569 0 004.082 1.751 3.785 3.785 0 003.865-2.929c.23-1.272-.353-2.937-2.672-3.792z" fill="#2b454e"/><path data-name="Контур 18" d="M42.073 27.567a50.48 50.48 0 01-2.586-1.045.755.755 0 01-.28-.719 1.047 1.047 0 01.823-.841 3.247 3.247 0 012.692.619 1.074 1.074 0 001.377-1.649 5.386 5.386 0 00-4.689-1.028 3.214 3.214 0 00-2.33 2.593 2.894 2.894 0 001.291 2.865 1.065 1.065 0 00.149.081c.054.024 1.35.6 2.809 1.139.438.162 1.442.622 1.3 1.4a1.7 1.7 0 01-1.75 1.158 3.389 3.389 0 01-2.49-1.045 1.074 1.074 0 10-1.592 1.443 5.569 5.569 0 004.082 1.751 3.785 3.785 0 003.865-2.929c.231-1.273-.352-2.938-2.671-3.793z" fill="#2b454e"/><path data-name="Контур 19" d="M27.512 22.676a5.824 5.824 0 105.824 5.824 5.83 5.83 0 00-5.824-5.824zm0 9.5a3.675 3.675 0 113.675-3.675 3.68 3.68 0 01-3.675 3.674z" fill="#2b454e"/></svg>