<svg data-name="Сгруппировать 232" xmlns="http://www.w3.org/2000/svg" xmlns:xlink="http://www.w3.org/1999/xlink" width="78.2" height="60.6"><defs><linearGradient id="d" x1="2.8" y1=".5" x2="2.8" y2="-.4" xlink:href="#b"/><linearGradient id="k" x1="20.8" y1="-1.2" x2="20.8" y2="-2.1" xlink:href="#a"/><linearGradient id="e" x1=".4" y1="1.1" x2=".4" y2=".1" xlink:href="#b"/><linearGradient id="a" x1="23.6" y1="-.7" x2="23.6" y2="-1.8" gradientUnits="objectBoundingBox"><stop offset="0" stop-color="#8b8be0"/><stop offset="1" stop-color="#a177b7"/></linearGradient><linearGradient id="f" x1="49.4" y1="-1" x2="49.4" y2="-1.9" xlink:href="#a"/><linearGradient id="g" x1="0" y1=".5" x2="1" y2=".5" xlink:href="#b"/><linearGradient id="h" x1="2.6" y1=".8" x2="2.6" y2="-.2" xlink:href="#b"/><linearGradient id="i" x1="2.7" y1=".8" x2="2.7" y2="-.2" xlink:href="#b"/><linearGradient id="j" x1="36.6" y1="-.3" x2="36.6" y2="-1.3" xlink:href="#a"/><linearGradient id="b" x1="2.3" y1=".1" x2="3.3" y2=".1" gradientUnits="objectBoundingBox"><stop offset="0" stop-color="#ff3eff"/><stop offset="1" stop-color="#265aff"/></linearGradient><linearGradient id="l" x1="23.5" y1=".2" x2="23.5" y2="-.9" xlink:href="#a"/><linearGradient id="m" x1="19.4" y1="-.1" x2="19.4" y2="-1.2" xlink:href="#a"/><linearGradient id="n" x1="0" y1=".5" x2="1" y2=".5" xlink:href="#b"/><linearGradient id="o" x1="0" y1=".5" x2="1" y2=".5" xlink:href="#b"/><linearGradient id="p" x1="186.1" y1="-1.9" x2="186.1" y2="-2.9" xlink:href="#b"/><linearGradient id="q" x1="78.9" y1="-2.4" x2="78.9" y2="-3.5" xlink:href="#b"/><linearGradient id="c" x1="186.1" y1="-1.9" x2="186.1" y2="-2.9" gradientUnits="objectBoundingBox"><stop offset="0" stop-color="#3d2cb0"/><stop offset="1" stop-color="#0355c7"/></linearGradient><linearGradient id="r" x1="78.9" y1="-2.4" x2="78.9" y2="-3.5" xlink:href="#c"/></defs><g data-name="Сгруппировать 228"><path data-name="Контур 1448" d="M1117.8 1201.5v-.3l4.6.6a12.6 12.6 0 00-1-8.5l-4 1.5a13.5 13.5 0 00-7-8.1l1.7-3.6a12.6 12.6 0 00-8.4-1.7l.2 4a13.5 13.5 0 00-9.6 4.7l-3.1-3a12.7 12.7 0 00-4.2 7.5l4.4 1.3v.3a13.4 13.4 0 001.7 9.7l-4.5 2.4a12.6 12.6 0 005.8 6.3l2.9-4.4a13.5 13.5 0 009.6 2l1 5.1a12.6 12.6 0 007.8-3.5l-3.2-4a13.4 13.4 0 005.3-8.3zm-12.4 2.8a5.2 5.2 0 01-2 0 5.6 5.6 0 01-3.4-2.3 5.4 5.4 0 01-.9-4 1.6 1.6 0 010-.2 5.3 5.3 0 011-2.2 5.4 5.4 0 014.1-2.2 5 5 0 011.5 0 5.1 5.1 0 011.4.5 5.4 5.4 0 012.8 3.6 5.3 5.3 0 010 2.4 1.5 1.5 0 010 .3 5.4 5.4 0 01-2.3 3.3 5.2 5.2 0 01-2.2.8z" transform="translate(-1045.3 -1177.7)" fill="url(#b)"/><path data-name="Контур 1449" d="M72.5 23.9v-.4l4.7.6a12.6 12.6 0 00-1-8.5l-4 1.5a13.5 13.5 0 00-7-8l1.6-3.6a12.6 12.6 0 00-8.3-1.7l.1 4a13.5 13.5 0 00-9.6 4.7l-3.1-3a12.7 12.7 0 00-4.2 7.5l4.5 1.2-.1.3a13.4 13.4 0 001.7 9.7l-4.5 2.5a12.6 12.6 0 005.8 6.3l3-4.4a13.5 13.5 0 009.5 1.9l1 5.2a12.6 12.6 0 007.8-3.6l-3.2-4a13.4 13.4 0 005.3-8.2zm-12.4 2.7a5.2 5.2 0 01-1.9 0 5.6 5.6 0 01-3.4-2.3 5.4 5.4 0 01-1-4 1.6 1.6 0 01.1-.2 5.3 5.3 0 011-2.2 5.4 5.4 0 014-2.2 5 5 0 011.5.1 5.1 5.1 0 011.4.5 5.4 5.4 0 012.8 3.6 5.3 5.3 0 01.1 2.4 1.5 1.5 0 010 .3 5.4 5.4 0 01-2.4 3.2 5.2 5.2 0 01-2.2.8z" fill="#19272b" opacity=".5"/><path data-name="Контур 1450" d="M1118.6 1197.7v-.4l4.6.6a12.6 12.6 0 00-1-8.5l-4 1.5a13.5 13.5 0 00-7-8l1.7-3.6a12.6 12.6 0 00-8.4-1.7l.2 4a13.5 13.5 0 00-9.6 4.7l-3.2-3a12.6 12.6 0 00-4.1 7.5l4.4 1.2v.4a13.4 13.4 0 001.6 9.6l-4.4 2.5a12.6 12.6 0 005.7 6.3l3-4.4a13.5 13.5 0 009.6 1.9l1 5.2a12.6 12.6 0 007.7-3.6l-3.1-4a13.4 13.4 0 005.3-8.2zm-12.5 2.8a5.2 5.2 0 01-1.8 0 5.6 5.6 0 01-3.5-2.4 5.4 5.4 0 01-.9-3.9 1.5 1.5 0 010-.3 5.3 5.3 0 011-2.2 5.4 5.4 0 014-2.2 5.3 5.3 0 013 .6 5.4 5.4 0 012.8 3.6 5.3 5.3 0 010 2.4 1.6 1.6 0 010 .3 5.4 5.4 0 01-2.4 3.2 5.1 5.1 0 01-2.2.9z" transform="translate(-1045.3 -1177.4)" fill="url(#d)"/><path data-name="Контур 1451" d="M73.2 20.2l.1-.3 4.6.6a12.6 12.6 0 00-1-8.5l-4 1.5a13.5 13.5 0 00-7-8l1.6-3.7A12.6 12.6 0 0059.2.1l.1 4a13.5 13.5 0 00-9.5 4.7L46.6 6a12.6 12.6 0 00-4.2 7.4l4.5 1.3-.1.3a13.4 13.4 0 001.7 9.7L44 27a12.6 12.6 0 005.8 6.2l3-4.4a13.5 13.5 0 009.5 2l1 5.2a12.6 12.6 0 007.8-3.6l-3.2-4a13.4 13.4 0 005.3-8.3zM60.8 23a5.2 5.2 0 01-1.9 0 5.6 5.6 0 01-3.4-2.3 5.4 5.4 0 01-1-4 1.5 1.5 0 01.1-.2 5.3 5.3 0 011-2.2 5.4 5.4 0 014-2.2 5.3 5.3 0 012.9.6 5.4 5.4 0 012.9 3.5 5.3 5.3 0 010 2.5 1.6 1.6 0 010 .2 5.4 5.4 0 01-2.4 3.3 5.1 5.1 0 01-2.2.8z" fill="#eaeaea" opacity=".5"/><path data-name="Контур 1452" d="M1095 1209.9a11.8 11.8 0 01-4.7-5l4.6-2.6-.4-.6a12.7 12.7 0 01-1.6-9.2v-.2l.2-.7-4.5-1.3a12 12 0 013.4-6l3.2 3 .5-.5a12.8 12.8 0 019-4.5h.8l-.2-4a11.1 11.1 0 013.3.1 12.7 12.7 0 013.4 1.2l-1.7 3.6.6.4a12.8 12.8 0 016.7 7.6l.2.7 4.1-1.5a12 12 0 01.8 6.8l-4.6-.6-.1.7v.3a12.7 12.7 0 01-5.1 7.8l-.6.4 3.2 4.1a11.8 11.8 0 01-6.2 2.8l-1-5.2-.7.1a12.8 12.8 0 01-9.1-1.8l-.6-.4zm11.6-21a5.8 5.8 0 00-1.6 0 6.1 6.1 0 00-4.6 2.4 6 6 0 00-1.1 2.5 2.4 2.4 0 000 .4 6 6 0 001 4.4 5.9 5.9 0 002 1.8 5.8 5.8 0 001.9.8 6 6 0 002 0 5.9 5.9 0 002.6-1 6.1 6.1 0 002.6-3.6 1.4 1.4 0 000-.3 6 6 0 000-2.8 6.1 6.1 0 00-3.2-4 5.8 5.8 0 00-1.6-.5z" transform="translate(-1045.4 -1177.5)" fill="url(#e)"/><path data-name="Контур 1453" d="M71.1 32.5l-.7 3.6a12.2 12.2 0 01-7.8 3.6l.8-3.6s4.7-.8 7.7-3.6z" fill="#2b454e"/><path data-name="Контур 1454" d="M49.8 33.3l-.7 3.7s-4.3-2.2-5.8-6.3L44 27s2.2 4.5 5.8 6.2z" fill="#2b454e"/><path data-name="Контур 1455" d="M77.9 20.5L77 24l-4.5-.6.7-3.6z" fill="#2b454e"/><path data-name="Контур 1456" d="M66.4 5.7l.4-.2.7-3.7L66 5.4z" fill="#2b454e"/><path data-name="Контур 1457" d="M59.2.2l-.7 3.6.3.4h.5z" fill="#2b454e"/><path data-name="Контур 1458" d="M42.4 13.3l-.7 3.7 4.5 1.2.7-3.6z" fill="#2b454e"/><path data-name="Контур 1459" d="M1094.8 1216.1l.7-3.6 3-4.4-.8 3.6z" transform="translate(-1045.7 -1179.2)" fill="url(#a)" style="mix-blend-mode:multiply;isolation:isolate"/><path data-name="Контур 1460" d="M1108 1213.8l.8-3.7 1 5.2-.6 3.3z" transform="translate(-1046.5 -1179.3)" fill="url(#f)" style="mix-blend-mode:multiply;isolation:isolate"/></g><g data-name="Сгруппировать 231"><path data-name="Контур 1461" d="M1082.6 1226.3c1.3-2.2 3-7.7 2.3-11.4l-4.3 4a16.8 16.8 0 00-1-7l2.9-1.3a13.2 13.2 0 00-4.2-6.3l-2.1 2a16.8 16.8 0 00-6-4.1l1-2.6a13.2 13.2 0 00-7.3-1.5v2.8a16.6 16.6 0 00-7.2 1.5l-1.1-2.7a13.3 13.3 0 00-6.3 4.2l2.2 2.3a16.7 16.7 0 00-3.7 6l-3.2-1.3a13.3 13.3 0 00-1.5 7.4h3.7a16.7 16.7 0 001.6 6.7l-3.7 1.6a13.3 13.3 0 004.2 6.3l3-3a16.6 16.6 0 005.6 3.6l-1.6 4.1a13.3 13.3 0 007.4 1.5v-4.4a16.8 16.8 0 006.6-1.1l1.7 3.9a13.2 13.2 0 006.3-4.2l-2.8-3a16.6 16.6 0 004-5.4zm-14-2.5a8 8 0 01-2.3 1.3 7.6 7.6 0 01-2.8.4 7.2 7.2 0 01-1.3-.2 7.3 7.3 0 01-1.2-.3 7.7 7.7 0 01-2.4-1.5 8 8 0 01-1.7-2 7.7 7.7 0 01-.7-5.2l.2-.6a7.7 7.7 0 011.5-3 8 8 0 012.4-1.8 7.7 7.7 0 013.4-.8 7.9 7.9 0 013 .6 7.7 7.7 0 012.9 2 8 8 0 011.5 2.7 7.7 7.7 0 01.3 3.3l-.1.6a7.7 7.7 0 01-2.7 4.5z" transform="translate(-1042.8 -1178.6)" fill="url(#g)"/><path data-name="Контур 1462" d="M39.8 47.7c1.3-2.2 3-7.7 2.3-11.4l-4.3 4a16.8 16.8 0 00-1-7l2.8-1.3a13.2 13.2 0 00-4.1-6.3l-2.1 2a16.8 16.8 0 00-6-4.1l1-2.6a13.2 13.2 0 00-7.3-1.5v2.8a16.6 16.6 0 00-7.2 1.5l-1.1-2.7a13.3 13.3 0 00-6.3 4.2l2.2 2.3a16.7 16.7 0 00-3.7 6l-3.2-1.3a13.3 13.3 0 00-1.5 7.4H4a16.7 16.7 0 001.6 6.7L2 48a13.3 13.3 0 004.2 6.3l3-3a16.6 16.6 0 005.6 3.7l-1.6 4a13.3 13.3 0 007.4 1.5v-4.4a16.8 16.8 0 006.6-1.1l1.7 3.9a13.2 13.2 0 006.3-4.2l-2.8-2.9a16.6 16.6 0 004-5.5zm-14-2.5a8 8 0 01-2.3 1.3 7.6 7.6 0 01-2.8.4 7.2 7.2 0 01-1.3-.1 7.3 7.3 0 01-1.2-.4 7.7 7.7 0 01-2.5-1.5 8 8 0 01-1.6-2 7.7 7.7 0 01-.7-5.2l.1-.6a7.7 7.7 0 011.6-3 8 8 0 012.4-1.8 7.7 7.7 0 013.4-.8 7.9 7.9 0 013 .6 7.7 7.7 0 012.8 2 8 8 0 011.5 2.7 7.7 7.7 0 01.4 3.3l-.1.6a7.7 7.7 0 01-2.7 4.5z" fill="#2b454e" opacity=".8"/><path data-name="Контур 1463" d="M1083.5 1222a13.5 13.5 0 001.5-6 8 8 0 000-1.4h-3.5a17 17 0 00-1-7l2.8-1.3a10.2 10.2 0 00-1-2.3 12.6 12.6 0 00-3.1-4l-2.1 2a16.7 16.7 0 00-6-4l1-2.7a13.1 13.1 0 00-7.4-1.5v2.8a16.6 16.6 0 00-7.1 1.6l-1.2-2.7a13.3 13.3 0 00-6.2 4.2l2.2 2.2a16.6 16.6 0 00-3.8 6l-3.2-1.2a11.2 11.2 0 00-1 2.8 12.3 12.3 0 00-.4 4.6h3.7a16.7 16.7 0 001.6 6.7l-3.7 1.6a11.8 11.8 0 001.4 3 12 12 0 002.8 3.2l3-3a16.5 16.5 0 005.6 3.7l-1.6 4a13.3 13.3 0 007.4 1.6v-4.4a16.2 16.2 0 004.4-.5 16.6 16.6 0 002.2-.7l1.7 4a13.1 13.1 0 006.3-4.3l-2.9-2.9a16.6 16.6 0 004-5.5zm-14-2.5a8 8 0 01-2.3 1.3 7.6 7.6 0 01-2.8.4 7 7 0 01-1.3-.1 7 7 0 01-1.2-.4 7.7 7.7 0 01-2.3-1.3l-.2-.2a7.7 7.7 0 01-2.5-5v-.1a7.8 7.8 0 01.2-2l.1-.7a7.4 7.4 0 013.1-4.2 7.4 7.4 0 01.9-.5 7.5 7.5 0 013.4-.8 7.7 7.7 0 011.5.1 7.2 7.2 0 01.8.2l.7.3a7.5 7.5 0 012.8 2 8 8 0 011.5 2.7 7.8 7.8 0 01.3 3.3v.6a7.7 7.7 0 01-.8 2 7.5 7.5 0 01-.4.8 8 8 0 01-1.5 1.6z" transform="translate(-1042.9 -1178.4)" fill="url(#h)"/><path data-name="Контур 1464" d="M16.7 41L6.4 42.5a16.7 16.7 0 01-1.6-6.6H1.1a12.3 12.3 0 01.4-4.6l16-2.4a7.4 7.4 0 00-3.1 4.3l-.2.6a7.8 7.8 0 00-.1 2v.2a7.7 7.7 0 002.5 5l.1.2z" fill="#fff" style="mix-blend-mode:soft-light;isolation:isolate"/><path data-name="Контур 1465" d="M28.5 38.8a7.7 7.7 0 00.8-2V36a7.8 7.8 0 00-.2-3.3 8 8 0 00-1.5-2.6 7.5 7.5 0 00-2.8-2c-.3-.2-.5-.3-.8-.3l15.5-2.3a10.2 10.2 0 011 2.4l-3 1.2a17 17 0 011.1 7h3.5a8 8 0 010 1.4l-14 1.9a7.5 7.5 0 00.4-.7z" fill="#fff" style="mix-blend-mode:soft-light;isolation:isolate"/><path data-name="Контур 1466" d="M1060.7 1233.8a12.9 12.9 0 01-2.7-.8l1.7-4.2-.9-.3a15.5 15.5 0 01-5.3-3.4l-.6-.7-3.1 3a13.7 13.7 0 01-3-4.4l3.8-1.7-.4-.9a15.7 15.7 0 01-1.5-6.2v-1h-3.8a13.3 13.3 0 011-5.3l3.4 1.4.3-1a15.6 15.6 0 013.5-5.7l.6-.6-2.2-2.3a13.4 13.4 0 014.5-3l1.2 2.8.8-.4a15.6 15.6 0 016.8-1.5h.9v-2.8a11.9 11.9 0 012.7.2 12.7 12.7 0 012.6.8l-1 2.7.8.3a15.7 15.7 0 015.6 4l.7.7 2.2-2.1a13.2 13.2 0 013 4.5l-3 1.2.3.8a16 16 0 011 6.7v1h3.6a13.2 13.2 0 01-1.1 5.3l-3.5-1.4-.4.8a15.6 15.6 0 01-3.8 5.2l-.8.7 3 3a13.1 13.1 0 01-4.5 3l-1.7-4-.9.3a15.6 15.6 0 01-2 .7 15.3 15.3 0 01-4.2.4h-1v4.4a12 12 0 01-2.6-.2zm5.7-28.6a8.6 8.6 0 00-1.8-.2 8.5 8.5 0 00-3.8.9 9 9 0 00-2.7 2 8.8 8.8 0 00-1.7 3.3l-.2.7a8.7 8.7 0 00-.1 2.3v.2a8.8 8.8 0 001 3.3 8.9 8.9 0 001.7 2.3 8.7 8.7 0 002.8 1.7 8.1 8.1 0 002.8.5 8.5 8.5 0 003.2-.5 8.8 8.8 0 002.5-1.4 8.7 8.7 0 003-5l.1-.7a8.7 8.7 0 00-.3-3.7 9 9 0 00-1.7-3 8.5 8.5 0 00-3.2-2.2 8.9 8.9 0 00-1.6-.5z" transform="translate(-1043 -1178.4)" fill="url(#i)"/><path data-name="Контур 1467" d="M1073.2 1239.4l.8-4-1.6-4-.9 4z" transform="translate(-1044.4 -1180.5)" opacity=".6" fill="url(#j)" style="mix-blend-mode:multiply;isolation:isolate"/><path data-name="Контур 1468" d="M1081.3 1226.2l.8-4 3.5 1.4-.9 4z" transform="translate(-1045 -1180)" opacity=".6" fill="url(#k)" style="mix-blend-mode:multiply;isolation:isolate"/><path data-name="Контур 1469" d="M1052.3 1231.6l.8-4-3 3-.9 4z" transform="translate(-1043.2 -1180.2)" opacity=".6" fill="url(#l)" style="mix-blend-mode:multiply;isolation:isolate"/><path data-name="Контур 1470" d="M1046.8 1219.3l.8-4h-3.7l-.8 4z" transform="translate(-1042.8 -1179.6)" opacity=".6" fill="url(#m)" style="mix-blend-mode:multiply;isolation:isolate"/><path data-name="Контур 1471" d="M21.4 52.1v4.4c-3 .7-6.6-1-7.5-1.5l1.6-4a16.5 16.5 0 01-5.6-3.7l-3 3A12 12 0 014 47l10-11.3v.2a7.7 7.7 0 002.5 5 7.8 7.8 0 002.4 1.5 7 7 0 001.2.3 7 7 0 001.3.2 7.6 7.6 0 002.8-.4 8 8 0 002.3-1.3l-.9 10.5a16.2 16.2 0 01-4.3.4z" fill="#c99ac7" opacity=".9" style="mix-blend-mode:multiply;isolation:isolate"/><g data-name="Сгруппировать 229"><path data-name="Контур 1472" d="M1085.5 1207l-.8 4-1 .5-1-3.2z" transform="translate(-1045 -1179.1)" fill="url(#g)"/><path data-name="Контур 1473" d="M1079.6 1235.2l.8-4s-3.1 3.3-6.3 4.1l-.8 4s4.4-1.1 6.3-4.1z" transform="translate(-1044.5 -1180.4)" fill="url(#g)"/><path data-name="Контур 1474" d="M1044.8 1228l.8-4a13.4 13.4 0 004.2 6.4l-.8 4s-2.6-1.6-4.2-6.3z" transform="translate(-1043 -1180)" fill="url(#n)"/><path data-name="Контур 1475" d="M1043 1218.8l.9-4a15.1 15.1 0 011.5-7.4 16.1 16.1 0 00-2.3 11.4z" transform="translate(-1042.8 -1179.1)" fill="url(#o)"/><path data-name="Контур 1476" d="M1049.7 1204l.8-4 2.2 2.3-2.2 2.5z" transform="translate(-1043.2 -1178.7)" fill="url(#g)"/><path data-name="Контур 1477" d="M1065.5 1196l.4-2.2v2.8h-.4z" transform="translate(-1044 -1178.4)" fill="url(#p)"/><path data-name="Контур 1478" d="M1073.7 1195.4l-.4 2.2-.2.6-.4-.2z" transform="translate(-1044.5 -1178.4)" fill="url(#q)"/><path data-name="Контур 1479" d="M1064.9 1237.2l-.8 4s-3 .8-7.4-1.5l.8-4a17.5 17.5 0 007.4 1.5z" transform="translate(-1043.6 -1180.7)" fill="url(#g)"/></g><g data-name="Сгруппировать 230" opacity=".5"><path data-name="Контур 1480" d="M40.5 28l-.9 4-1 .4-1-3.2z" fill="#19272b"/><path data-name="Контур 1481" d="M35 54.7l.9-4s-3.2 3.3-6.3 4.2l-.8 4s4.4-1.2 6.3-4.2z" fill="#19272b"/><path data-name="Контур 1482" d="M1.9 48l.8-4A13.4 13.4 0 007 50.3l-.8 4S3.5 52.8 1.9 48z" fill="#19272b"/><path data-name="Контур 1483" d="M.3 39.7l.8-4a15.1 15.1 0 011.5-7.4A16.1 16.1 0 00.3 39.7z" fill="#19272b"/><path data-name="Контур 1484" d="M6.5 25.3l.8-4 2.2 2.3L7.3 26z" fill="#19272b"/><path data-name="Контур 1485" d="M1065.5 1196l.4-2.2v2.8h-.4z" transform="translate(-1044 -1178.4)" fill="url(#c)"/><path data-name="Контур 1486" d="M1073.7 1195.4l-.4 2.2-.2.6-.4-.2z" transform="translate(-1044.5 -1178.4)" fill="url(#r)"/><path data-name="Контур 1487" d="M21.3 56.5l-.8 4s-3 .8-7.4-1.5l.8-4a17.5 17.5 0 007.4 1.5z" fill="#19272b"/></g></g></svg>