<svg xmlns="http://www.w3.org/2000/svg" width="64" height="45.743"><g data-name="car (2)" fill="#2b454e"><path data-name="Контур 135" d="M61.23 13.172h-4.009C56.546 6.894 52.955-.002 46.792-.002H16.223c-3.053 0-5.836 1.808-7.836 5.09a19.687 19.687 0 00-2.594 8.084H2.77A2.773 2.773 0 000 15.945v3.227a2.773 2.773 0 002.77 2.77h.674a9.835 9.835 0 00-.923 4.167v7.951a2.45 2.45 0 00-1.1 2.042v1.7a2.453 2.453 0 002.268 2.442v2.7a2.8 2.8 0 002.793 2.793H14.7a2.8 2.8 0 002.793-2.793v-2.7h6.472a2.439 2.439 0 001.615.612h11.858a2.438 2.438 0 001.615-.612h6.472v2.7a2.8 2.8 0 002.793 2.793h8.212a2.8 2.8 0 002.793-2.793v-2.7a2.453 2.453 0 002.268-2.442v-1.7a2.451 2.451 0 00-1.1-2.042v-3.139a.938.938 0 00-1.875 0v2.727H39.052a2.462 2.462 0 00-1.615-.612H25.576a2.465 2.465 0 00-1.615.612H4.4v-7.541a8.052 8.052 0 018.022-8.022h3.995l3.683 6.021a5.75 5.75 0 004.871 2.728h13.067a5.75 5.75 0 004.871-2.728l3.691-6.022h4a8.051 8.051 0 018.022 8.022v.44a.938.938 0 001.875 0 10.156 10.156 0 00-.923-4.607h1.66A2.773 2.773 0 0064 19.172v-3.227a2.773 2.773 0 00-2.77-2.77zM2.77 20.065a.9.9 0 01-.9-.9v-3.22a.9.9 0 01.9-.9h2.895c-.006.228-.01.457-.01.687v3.16a9.974 9.974 0 00-1.066 1.173zM15.615 42.95a.919.919 0 01-.915.922H6.485a.919.919 0 01-.918-.918v-2.7h10.048zm41.832 0a.919.919 0 01-.918.918h-8.212a.919.919 0 01-.918-.918v-2.7h10.048zm1.692-7.427a.547.547 0 01.1.01l.039.008a.585.585 0 01.441.558v1.7a.584.584 0 01-.577.577H39.889v-2.853zm-21.7-.612a.587.587 0 01.577.577v2.927a.587.587 0 01-.577.577H25.577a.587.587 0 01-.577-.577v-2.927a.586.586 0 01.577-.577h11.861zm-14.313.612v2.857H3.875a.584.584 0 01-.577-.577v-1.7a.585.585 0 01.441-.558l.04-.009a.545.545 0 01.1-.01h19.25zm-12.442-19.16v-.627a15.661 15.661 0 012-8.029c1.052-1.726 2.309-2.677 3.54-2.677h13.59a.938.938 0 000-1.875H16.223c-1.91 0-3.736 1.27-5.142 3.577a17.547 17.547 0 00-2.272 9v1.158a9.844 9.844 0 00-1.28.613v-1.767a18.954 18.954 0 012.459-9.67c1.647-2.702 3.861-4.194 6.235-4.194h30.568c2.374 0 4.588 1.488 6.235 4.191a18.914 18.914 0 012.459 9.67v1.771a9.851 9.851 0 00-1.279-.613v-1.155a17.545 17.545 0 00-2.272-9c-1.4-2.307-3.231-3.577-5.142-3.577h-12.6a.938.938 0 000 1.875h12.6c1.231 0 2.489.951 3.54 2.677a15.66 15.66 0 012 8.029v.627a10.213 10.213 0 00-1.659-.152 7.885 7.885 0 00-15.769 0H12.418a10.311 10.311 0 00-1.735.154zm30.627 6.763a3.863 3.863 0 01-3.273 1.833H24.976a3.863 3.863 0 01-3.276-1.833l-3.09-5.042H44.4zM39.89 16.21a2.9 2.9 0 015.794 0zm7.669 0a4.772 4.772 0 00-9.544 0h-1.238a6.01 6.01 0 0112.02 0zm14.566 2.962a.9.9 0 01-.9.9h-2.8a9.983 9.983 0 00-1.065-1.18v-3.156c0-.227 0-.457-.01-.687h3.88a.9.9 0 01.9.9v3.223z"/><path data-name="Контур 136" d="M24.094 28.478a.938.938 0 100 1.875H38.92a.938.938 0 100-1.875z"/><path data-name="Контур 137" d="M51.482 21.545a4.592 4.592 0 104.592 4.592 4.6 4.6 0 00-4.592-4.592zm0 7.309a2.717 2.717 0 112.718-2.717 2.72 2.72 0 01-2.717 2.717z"/><path data-name="Контур 138" d="M6.94 26.136a4.592 4.592 0 104.592-4.592 4.6 4.6 0 00-4.592 4.592zm7.309 0a2.717 2.717 0 11-2.717-2.717 2.72 2.72 0 012.717 2.717z"/></g></svg>