<svg xmlns="http://www.w3.org/2000/svg" width="58.554" height="69.791"><path data-name="Контур 23" d="M44.281 42.449a9.313 9.313 0 004.061-3.9 9.5 9.5 0 00.277-8.6 15.852 15.852 0 01-1.311-4.515 4.177 4.177 0 00.23-1.368V20.1a4.172 4.172 0 00-.395-1.774v-.459a17.805 17.805 0 00-2.825-9.645 1.022 1.022 0 10-1.72 1.105 15.74 15.74 0 012.417 6.926 4.172 4.172 0 00-1.67-.353h-1.677a6.626 6.626 0 00-11.223-3.441c-2.408 2.445-5.292 1.348-8.906 1.618a4.769 4.769 0 00-4.474 3.123h-.773a4.856 4.856 0 00-2.837.912v-.246a15.822 15.822 0 0126.09-12.04 1.022 1.022 0 101.327-1.555A17.867 17.867 0 0011.41 17.866v5.255a16.728 16.728 0 01-1.52 6.932 9.471 9.471 0 004.384 12.4A20.523 20.523 0 000 61.971v3.568a4.256 4.256 0 004.252 4.252h50.05a4.256 4.256 0 004.252-4.252v-3.568a20.523 20.523 0 00-14.273-19.522zm-2.5-17.43v-7.072h1.564a2.155 2.155 0 012.148 2.153v3.969a2.155 2.155 0 01-2.148 2.153h-1.643c.044-.4.071-.8.077-1.2zm-.477 3.248h1.326v1.886a1.5 1.5 0 01-1.5 1.5h-1.385a12.335 12.335 0 001.557-3.386zm-22.485-9.429a2.72 2.72 0 012.717-2.717c3.338-.3 7.169 1.016 10.363-2.228a4.581 4.581 0 017.832 3.057v.037c.006.218 0-1.033 0 8.007a10.55 10.55 0 01-.229 2.025c0 .012-.005.024-.007.036a10.285 10.285 0 01-1.275 3.188 3.215 3.215 0 00-2.12-.8h-3.192a3.229 3.229 0 00-2.054 5.72 10.454 10.454 0 01-11.983-9.303v-.028a10.536 10.536 0 01-.049-.836zm18.453 14.026a1.186 1.186 0 01-1.169 1h-3.195a1.185 1.185 0 010-2.37h3.194a1.185 1.185 0 011.169 1.371zm-.41 9.9a9.195 9.195 0 01-15.17 0 4.326 4.326 0 002.307-3.82v-2.773a12.528 12.528 0 0010.556-.007v2.783a4.326 4.326 0 002.307 3.82zM13.453 22.06a2.842 2.842 0 012.838-2.815h.483v5.679h-.483a2.838 2.838 0 01-2.838-2.816zm-1.45 15.5a7.627 7.627 0 01-.214-6.749 18 18 0 001.456-4.911 4.847 4.847 0 003.047 1.067h.666a12.425 12.425 0 003.541 6.764 12.651 12.651 0 001.456 1.233v3.981c0 2.393-2.689 2.314-2.968 2.449a12.807 12.807 0 01-1.587-.107 7.237 7.237 0 01-5.4-3.728zm27.384 30.186H19.166v-8.032a1.022 1.022 0 00-2.045 0v8.032h-5.8v-5.114a1.022 1.022 0 00-2.045 0v5.114H4.251a2.209 2.209 0 01-2.206-2.207v-3.567A18.469 18.469 0 0117.002 43.86l1.574-.3a21.38 21.38 0 00-1.455 7.723v3.653a1.022 1.022 0 002.045 0V51.28a19.321 19.321 0 011.246-6.8 11.242 11.242 0 0017.789-.08 19.359 19.359 0 011.186 6.64v16.7zm.181-26.35l-1.123-.216a2.277 2.277 0 01-1.844-2.233v-3.078a3.239 3.239 0 002.565-2.169h1.958a3.552 3.552 0 003.548-3.548v-2.1a4.185 4.185 0 00.963-.468 18.134 18.134 0 001.17 3.322 7.354 7.354 0 01-.256 6.659 7.237 7.237 0 01-5.394 3.725 12.613 12.613 0 01-1.587.107zm16.941 24.143a2.209 2.209 0 01-2.207 2.207h-5.025v-5.114a1.022 1.022 0 00-2.045 0v5.114h-5.8v-16.7a21.415 21.415 0 00-1.356-7.467l1.475.284a18.469 18.469 0 0114.958 18.109v3.568z" fill="#2b454e"/></svg>