<svg xmlns="http://www.w3.org/2000/svg" width="14.482" height="10.468"><path d="M14.482 9.813V.655a.652.652 0 00-.171-.44l-.005-.006A.653.653 0 0013.827 0H.655a.653.653 0 00-.478.209L.171.215A.652.652 0 000 .655v9.157a.652.652 0 00.171.44v.005a.653.653 0 00.479.21h13.176a.653.653 0 00.479-.209l.005-.006a.652.652 0 00.172-.439zM3.212 7.136a.328.328 0 00-.463.009L.655 9.326V1.142l3.929 4.092-1.061 1.105A.33.33 0 004 6.793l1.043-1.086 1.512 1.575a.953.953 0 001.38 0l1.512-1.575 3.942 4.106H1.1L3.225 7.6a.328.328 0 00-.013-.464zm4.246-.308a.3.3 0 01-.435 0L1.1.655h12.285zM9.9 5.234l3.929-4.092v8.184z" fill="#fff"/></svg>