<svg xmlns="http://www.w3.org/2000/svg" width="20.777" height="14.042"><g data-name="Сгруппировать 162"><g data-name="Сгруппировать 157"><g data-name="Сгруппировать 156"><path data-name="Контур 139" d="M5.579 0h-.005a.406.406 0 100 .812h.005a.406.406 0 100-.812z" fill="#fff"/></g></g><g data-name="Сгруппировать 159"><g data-name="Сгруппировать 158"><path data-name="Контур 140" d="M19.154 0H7.388a.406.406 0 000 .812h11.828l-1.134 1.137h-5.293a.406.406 0 100 .812h4.481l-5.656 5.656a1.735 1.735 0 01-2.451 0l-7.6-7.6h2.211a.406.406 0 000-.812H1.623A1.625 1.625 0 000 1.623v10.8a1.625 1.625 0 001.623 1.62h17.53a1.625 1.625 0 001.623-1.623V1.623A1.625 1.625 0 0019.154 0zM.812 12.419V1.623a.805.805 0 01.074-.336l5.647 5.646-5.693 5.7a.808.808 0 01-.028-.214zm18.342.812H1.623a.808.808 0 01-.209-.028L7.107 7.51l1.482 1.482a2.548 2.548 0 003.6 0l1.482-1.482 5.693 5.693a.808.808 0 01-.21.03zm.812-.812a.808.808 0 01-.028.209l-5.695-5.695 5.648-5.648a.805.805 0 01.074.336z" fill="#fff"/></g></g><g data-name="Сгруппировать 161"><g data-name="Сгруппировать 160"><path data-name="Контур 141" d="M11.09 1.949h-.006a.406.406 0 100 .812h.006a.406.406 0 000-.812z" fill="#fff"/></g></g></g></svg>