<svg width="72" height="72" fill="none" xmlns="http://www.w3.org/2000/svg"><path d="M64.422 34.102h7.58C72.001 14.662 57.323 0 37.857 0v7.579c15.393 0 26.564 11.152 26.564 26.523z" fill="url(#paint0_linear)"/><path d="M37.896 22.737c7.97 0 11.368 3.399 11.368 11.368h7.58c0-12.22-6.727-18.947-18.948-18.947v7.579zm12.967 20.626a3.793 3.793 0 00-5.27.163l-9.069 9.326c-2.183-.417-6.57-1.785-11.088-6.29-4.517-4.522-5.885-8.921-6.29-11.089l9.318-9.072a3.79 3.79 0 00.163-5.27L14.625 5.732a3.79 3.79 0 00-5.272-.33L1.13 12.457a3.79 3.79 0 00-1.099 2.46c-.056.947-1.14 23.388 16.261 40.797C31.472 70.89 50.488 72 55.725 72c.766 0 1.236-.023 1.36-.03a3.76 3.76 0 002.456-1.103l7.049-8.227a3.79 3.79 0 00-.326-5.271l-15.4-14.006z" fill="url(#paint1_linear)"/><defs><linearGradient id="paint0_linear" x1="37.858" y1="16.963" x2="69.836" y2="16.971" gradientUnits="userSpaceOnUse"><stop stop-color="#FC3EFF"/><stop offset="1" stop-color="#4859FF"/></linearGradient><linearGradient id="paint1_linear" x1="0" y1="38.073" x2="63.224" y2="38.087" gradientUnits="userSpaceOnUse"><stop stop-color="#FC3EFF"/><stop offset="1" stop-color="#4859FF"/></linearGradient></defs></svg>