<svg xmlns="http://www.w3.org/2000/svg" width="150.888" height="45.886"><g data-name="Сгруппировать 310"><g data-name="Сгруппировать 302" transform="translate(0 -.029)"><rect data-name="Прямоугольник 50" width="150.888" height="45.886" rx="4.961" transform="translate(0 .029)" fill="#2b454e"/><g data-name="Сгруппировать 298"><g data-name="Сгруппировать 297"><g data-name="Сгруппировать 296"><g data-name="Сгруппировать 295" fill="#fff"><path data-name="Контур 2047" d="M36.307 21.802l-5.749-3.317-4.728 4.571 4.321 4.176 6.156-3.553a1.083 1.083 0 000-1.877z"/><path data-name="Контур 2048" d="M29.582 17.921l-6.326-3.652-13.864-7.1 15.659 15.137z"/><path data-name="Контур 2049" d="M9.622 38.722l13.658-7.523 5.9-3.4-4.124-3.987z"/><path data-name="Контур 2050" d="M8.466 7.779l-.015 30.57 15.82-15.292z"/></g></g></g></g><g data-name="Сгруппировать 301" fill="#fff"><g data-name="Сгруппировать 300"><path data-name="Контур 2065" d="M51.765 34.252a15.768 15.768 0 01-2.074.607 11.3 11.3 0 01-2.576.3 6.446 6.446 0 01-4.66-1.618 6.63 6.63 0 01.016-8.848 6.485 6.485 0 014.737-1.665 11.246 11.246 0 012.192.208 9.8 9.8 0 012.318.827v2.732h-.337q-.22-.165-.643-.466a8.1 8.1 0 00-.814-.513 5.4 5.4 0 00-1.061-.43 4.5 4.5 0 00-1.287-.18 4.274 4.274 0 00-1.449.235 3.394 3.394 0 00-1.168.72 3.306 3.306 0 00-.778 1.2 4.522 4.522 0 00-.287 1.671 4 4 0 001.027 2.96 4.11 4.11 0 003.029 1.026c.116 0 .242 0 .38-.008s.265-.012.38-.023V30.7h-2.326v-2.2h5.379z"/><path data-name="Контур 2066" d="M63.291 30.525a4.589 4.589 0 01-1.264 3.418 5.673 5.673 0 01-7.1 0 5.257 5.257 0 01.007-6.849 5.675 5.675 0 017.1.008 4.614 4.614 0 011.257 3.423zm-3.469 2.137a2.237 2.237 0 00.412-.811 4.922 4.922 0 00.138-1.311 5.044 5.044 0 00-.142-1.3 2.258 2.258 0 00-.391-.837 1.369 1.369 0 00-.6-.456 2.161 2.161 0 00-.76-.133 2.192 2.192 0 00-.725.111 1.453 1.453 0 00-.607.438 2.254 2.254 0 00-.41.837 4.958 4.958 0 00-.153 1.339 5.15 5.15 0 00.133 1.25 2.2 2.2 0 00.392.849 1.483 1.483 0 00.6.446 2.221 2.221 0 001.526.012 1.338 1.338 0 00.587-.434z"/><path data-name="Контур 2067" d="M74.301 30.525a4.59 4.59 0 01-1.265 3.418 5.673 5.673 0 01-7.1 0 5.255 5.255 0 01.008-6.849 5.675 5.675 0 017.1.008 4.614 4.614 0 011.257 3.423zm-3.473 2.137a2.235 2.235 0 00.411-.811 4.919 4.919 0 00.138-1.311 5.107 5.107 0 00-.141-1.3 2.274 2.274 0 00-.391-.837 1.379 1.379 0 00-.6-.456 2.153 2.153 0 00-.76-.133 2.179 2.179 0 00-.724.111 1.445 1.445 0 00-.607.438 2.221 2.221 0 00-.41.837 4.956 4.956 0 00-.153 1.339 5.213 5.213 0 00.132 1.25 2.2 2.2 0 00.392.849 1.491 1.491 0 00.6.446 2.224 2.224 0 001.527.012 1.345 1.345 0 00.586-.434z"/><path data-name="Контур 2068" d="M84.871 33.907a5.4 5.4 0 01-.353 2.082 3.1 3.1 0 01-.986 1.324 4.043 4.043 0 01-1.53.7 8.713 8.713 0 01-2.025.215 14.553 14.553 0 01-1.8-.11 13.735 13.735 0 01-1.539-.266v-2.2h.345a8.612 8.612 0 001.258.372 6.084 6.084 0 001.33.168 4.569 4.569 0 001.271-.145 1.7 1.7 0 00.747-.411 1.486 1.486 0 00.352-.643 3.524 3.524 0 00.11-.939v-.164a4.173 4.173 0 01-1.126.657 3.735 3.735 0 01-1.377.243 3.629 3.629 0 01-2.847-1.112 4.923 4.923 0 01-1-3.381 5.22 5.22 0 01.305-1.88 4.176 4.176 0 01.86-1.378 3.548 3.548 0 011.271-.853 4.085 4.085 0 011.545-.305 4.6 4.6 0 011.294.169 4.164 4.164 0 011.06.465l.1-.391h2.74zm-2.826-1.762v-3.99a2.68 2.68 0 00-.594-.162 3.992 3.992 0 00-.632-.059 2.084 2.084 0 00-1.664.639 2.624 2.624 0 00-.555 1.781 2.568 2.568 0 00.473 1.769 1.834 1.834 0 001.4.5 2.638 2.638 0 00.828-.133 3.092 3.092 0 00.744-.346z"/><path data-name="Контур 2069" d="M90.36 34.918h-2.826V22.73h2.826z"/><path data-name="Контур 2070" d="M101.672 31.041H95.22a2.022 2.022 0 00.786 1.582 3.5 3.5 0 002.134.549 4.8 4.8 0 001.73-.321 5.455 5.455 0 001.324-.689h.312v2.263a10.268 10.268 0 01-1.8.555 9.341 9.341 0 01-1.872.173 6.114 6.114 0 01-4.055-1.191 4.189 4.189 0 01-1.411-3.39 4.543 4.543 0 011.336-3.449 5.092 5.092 0 013.668-1.272 4.371 4.371 0 013.226 1.083 4.238 4.238 0 011.074 3.117zm-2.8-1.652a1.974 1.974 0 00-.438-1.331 1.687 1.687 0 00-1.291-.446 2.063 2.063 0 00-1.339.423 1.8 1.8 0 00-.587 1.354z"/><path data-name="Контур 2071" d="M118.925 26.938a4.408 4.408 0 01-.274 1.53 3.382 3.382 0 01-.783 1.257 4.779 4.779 0 01-1.554 1.043 5.646 5.646 0 01-2.134.352h-1.871v3.8h-3.008V23.259h4.949a7.8 7.8 0 011.875.191 4.428 4.428 0 011.35.576 3.093 3.093 0 011.077 1.182 3.726 3.726 0 01.373 1.73zm-3.108.067a1.376 1.376 0 00-.267-.849 1.444 1.444 0 00-.617-.495 2.771 2.771 0 00-.917-.207c-.3-.014-.695-.021-1.19-.021h-.517v3.485h.861a6.908 6.908 0 001.264-.094 1.793 1.793 0 00.835-.375 1.441 1.441 0 00.419-.6 2.43 2.43 0 00.129-.848z"/><path data-name="Контур 2072" d="M123.727 34.918h-2.826V22.73h2.826z"/><path data-name="Контур 2073" d="M131.704 33.985q-.227.173-.564.414a3.559 3.559 0 01-1.5.663 5.044 5.044 0 01-.979.09 2.99 2.99 0 01-2.1-.775 2.569 2.569 0 01-.846-1.982 2.661 2.661 0 01.431-1.574 2.885 2.885 0 011.221-.963 6.871 6.871 0 011.941-.5q1.159-.149 2.4-.22v-.046a1.014 1.014 0 00-.6-1.007 4.3 4.3 0 00-1.753-.277 5.015 5.015 0 00-1.476.246q-.791.248-1.135.379h-.258v-2.122q.446-.116 1.452-.277a12.712 12.712 0 012.017-.161 6.254 6.254 0 013.472.74 2.627 2.627 0 011.068 2.322v5.982H131.7zm0-1.369V30.79q-.572.047-1.237.13a5.747 5.747 0 00-1.011.191 1.383 1.383 0 00-.646.386.975.975 0 00-.222.667 1.741 1.741 0 00.046.445.667.667 0 00.235.327 1.116 1.116 0 00.431.23 2.989 2.989 0 00.783.074 2.313 2.313 0 00.857-.171 2.687 2.687 0 00.764-.453z"/><path data-name="Контур 2074" d="M141.056 31.808l2.006-5.684h2.9l-4.885 12.019h-3.061l1.4-3.293-3.42-8.726h2.96z"/></g><text data-name="Доступно в" transform="translate(41.858 17.029)" font-size="10" font-family="Verdana-Bold, Verdana" font-weight="700"><tspan x="0" y="0">Доступно в</tspan></text></g></g></g></svg>