<svg xmlns="http://www.w3.org/2000/svg" width="14" height="14"><path data-name="Контур 78" d="M.383 5.923a4.9 4.9 0 01-.373-2.08A1.7 1.7 0 01.54 2.7c.356-.336.692-.689 1.043-1.031a.987.987 0 011.484 0c.282.276.561.558.84.84s.544.541.815.815a.989.989 0 010 1.521c-.342.342-.681.687-1.028 1.023a.209.209 0 00-.051.273 6.108 6.108 0 00.929 1.49 10.67 10.67 0 002.6 2.362c.217.134.453.234.678.356a.208.208 0 00.288-.054c.339-.35.687-.7 1.034-1.04a.979.979 0 011.481 0q.838.829 1.666 1.667a.99.99 0 01-.006 1.51c-.316.319-.65.621-.946.954a1.878 1.878 0 01-1.6.61 6.651 6.651 0 01-2.547-.741 13.859 13.859 0 01-4.6-3.6A12.669 12.669 0 01.383 5.923zm12.982 1.02A.618.618 0 0014 6.28 6.985 6.985 0 007.721 0a.618.618 0 00-.663.632.729.729 0 00.663.7 5.656 5.656 0 014.941 4.948.73.73 0 00.703.663zm-3.222-.659a.788.788 0 00.732.659.594.594 0 00.615-.662 4.494 4.494 0 00-3.771-3.77.594.594 0 00-.662.615.788.788 0 00.659.732 3.156 3.156 0 012.426 2.426z" fill="#2b454e"/></svg>