<svg xmlns="http://www.w3.org/2000/svg" width="28.976" height="28.977"><path data-name="instagram (1)" d="M14.774 28.977h-.289c-2.271.006-4.37-.052-6.411-.176a8.57 8.57 0 01-4.94-1.87A7.929 7.929 0 01.47 22.629a19.061 19.061 0 01-.437-4.552C.018 17.02 0 15.766 0 14.491s.018-2.533.033-3.592A19.063 19.063 0 01.47 6.348a7.929 7.929 0 012.664-4.3A8.57 8.57 0 018.075.177c2.041-.124 4.14-.178 6.416-.178s4.37.052 6.411.176a8.57 8.57 0 014.94 1.87 7.928 7.928 0 012.664 4.3 19.062 19.062 0 01.437 4.552c.015 1.058.03 2.311.033 3.586s-.018 2.534-.033 3.591a1.132 1.132 0 11-2.264-.031c.014-1.052.03-2.3.032-3.56s-.018-2.5-.032-3.555a17.342 17.342 0 00-.367-4.023 5.715 5.715 0 00-1.9-3.107 6.235 6.235 0 00-3.647-1.365c-1.993-.121-4.045-.177-6.273-.172s-4.286.051-6.279.172a6.237 6.237 0 00-3.648 1.366 5.715 5.715 0 00-1.9 3.107 17.341 17.341 0 00-.365 4.025c-.014 1.052-.029 2.3-.032 3.56s.018 2.5.032 3.555a17.341 17.341 0 00.367 4.023 5.715 5.715 0 001.9 3.107 6.236 6.236 0 003.647 1.365c1.993.121 4.045.178 6.274.172s4.286-.051 6.279-.172a6.236 6.236 0 003.647-1.365 5.439 5.439 0 001.551-2.077 1.132 1.132 0 012.077.9 7.678 7.678 0 01-2.2 2.937 8.568 8.568 0 01-4.942 1.863c-1.955.119-3.962.177-6.128.177zm6.732-14.488a7.074 7.074 0 10-7.074 7.074 7.082 7.082 0 007.074-7.074zm-2.264 0a4.811 4.811 0 11-4.811-4.811 4.816 4.816 0 014.811 4.811zM22.3 5.15a1.7 1.7 0 101.7 1.7 1.7 1.7 0 00-1.7-1.7zm0 0" fill="#fff"/></svg>