<svg xmlns="http://www.w3.org/2000/svg" width="13.913" height="15.723"><path data-name="Контур 61" d="M9.1 10.357l.092-.149a11.885 11.885 0 002.058-5.913 4.293 4.293 0 10-8.587 0 11.884 11.884 0 002.055 5.914l.092.149C1.917 10.715 0 11.749 0 12.977c0 1.541 3.055 2.748 6.956 2.748s6.956-1.207 6.956-2.748c.001-1.227-1.917-2.262-4.812-2.62zM3.126 4.295a3.83 3.83 0 017.661 0c.02 3.288-3.054 7.343-3.831 8.315-.777-.972-3.85-5.027-3.83-8.315zm3.83 10.966c-3.884 0-6.493-1.182-6.493-2.285 0-.979 1.935-1.889 4.62-2.184a24.506 24.506 0 001.7 2.335.231.231 0 00.353 0 24.506 24.506 0 001.7-2.335c2.685.3 4.62 1.205 4.62 2.184 0 1.1-2.609 2.285-6.494 2.285z" fill="#fff"/><path data-name="Контур 62" d="M5.064 13.92a6.322 6.322 0 01-2.321-.651.231.231 0 10-.242.394 6.752 6.752 0 002.5.716h.03a.231.231 0 00.029-.461z" fill="#fff"/><path data-name="Контур 63" d="M7.345 14.03c-.323.007-.658.006-.986-.006a.232.232 0 10-.017.463c.2.007.41.011.615.011h.4a.231.231 0 00.226-.237.229.229 0 00-.237-.226z" fill="#fff"/><path data-name="Контур 64" d="M8.911 4.296a1.954 1.954 0 10-1.954 1.955 1.954 1.954 0 001.954-1.955zm-3.446 0a1.491 1.491 0 111.492 1.492 1.491 1.491 0 01-1.492-1.492z" fill="#fff"/></svg>