<svg data-name="Сгруппировать 152" xmlns="http://www.w3.org/2000/svg" width="62.791" height="62.791"><defs><linearGradient id="a" y1=".5" x2="1" y2=".5" gradientUnits="objectBoundingBox"><stop offset="0" stop-color="#265aff"/><stop offset=".14" stop-color="#1d71ff"/><stop offset=".389" stop-color="#1095ff"/><stop offset=".623" stop-color="#07aeff"/><stop offset=".833" stop-color="#01beff"/><stop offset="1" stop-color="#00c4ff"/></linearGradient><linearGradient id="b" y1=".5" x2="1" y2=".5" gradientUnits="objectBoundingBox"><stop offset="0" stop-color="#ff3eff"/><stop offset="1" stop-color="#265aff"/></linearGradient></defs><path data-name="Контур 1" d="M77.367 2.785L60.138 0 34.2 21.4l27.245-7.34z" transform="translate(-14.576)" fill="url(#a)"/><path data-name="Контур 2" d="M68.248 55.664L70.089 74.8l10.968-13.6-5.65-33.023-7.159 27.488z" transform="translate(-29.085 -12.008)" fill="url(#a)"/><path data-name="Контур 3" d="M32.154 39.066L0 24.086l6.144 16.358L38.611 52.75z" transform="translate(0 -10.265)" fill="url(#a)"/><path data-name="Контур 4" d="M97.6 4.853L85.06 35.9l-3.379-19.771z" transform="translate(-34.81 -2.068)" fill="url(#b)"/><path data-name="Контур 5" d="M56.125 89.92l-1.841-19.135-18.8-7.127z" transform="translate(-15.121 -27.129)" fill="url(#b)"/><path data-name="Контур 6" d="M0 20.76l17.5 8.153 15.306-12.63z" transform="translate(0 -6.939)" fill="url(#b)"/></svg>