<svg xmlns="http://www.w3.org/2000/svg" width="12.269" height="18.438"><defs><linearGradient id="a" y1=".5" x2="1" y2=".5" gradientUnits="objectBoundingBox"><stop offset="0" stop-color="#265aff"/><stop offset=".14" stop-color="#1d71ff"/><stop offset=".389" stop-color="#1095ff"/><stop offset=".623" stop-color="#07aeff"/><stop offset=".833" stop-color="#01beff"/><stop offset="1" stop-color="#00c4ff"/></linearGradient><linearGradient id="b" y1=".5" x2="1" y2=".5" gradientUnits="objectBoundingBox"><stop offset="0" stop-color="#ff3eff"/><stop offset="1" stop-color="#265aff"/></linearGradient></defs><g data-name="Сгруппировать 324"><g data-name="Сгруппировать 2"><path data-name="Контур 1" d="M12.169 6.134c0 3.333-6.035 12.126-6.035 12.126S.1 9.467.1 6.134a6.035 6.035 0 0112.069 0z" fill="#fff" stroke="#2b454e" stroke-miterlimit="10" stroke-width=".2"/><g data-name="Сгруппировать 1"><path data-name="Контур 2" d="M19.085 13.37l-2.177-.352-3.277 2.7 3.443-.928z" transform="translate(-9.306 -9.694)" fill="url(#a)"/><path data-name="Контур 3" d="M21.3 22.841l.233 2.418 1.386-1.718-.714-4.173-.9 3.474z" transform="translate(-14.509 -14.001)" fill="url(#a)"/><path data-name="Контур 4" d="M9.987 20.339l-4.064-1.893.777 2.067 4.1 1.555z" transform="translate(-4.078 -13.375)" fill="url(#a)"/><path data-name="Контур 5" d="M26.342 14.112l-1.585 3.924-.427-2.5z" transform="translate(-16.562 -10.436)" fill="url(#b)"/><path data-name="Контур 6" d="M16.528 30.682l-.228-2.418-2.376-.9z" transform="translate(-9.501 -19.423)" fill="url(#b)"/><path data-name="Контур 7" d="M5.923 17.253l2.211 1.03 1.934-1.6z" transform="translate(-4.078 -12.183)" fill="url(#b)"/></g></g></g></svg>