<svg xmlns="http://www.w3.org/2000/svg" width="161" height="160.265"><path fill="#2b454e" d="M83.973 98.426l-4.385-9.735a42.5 42.5 0 0010.576-11.243l9.985 3.783a3.7 3.7 0 004.766-2.147l3.67-9.686a3.7 3.7 0 00-2.147-4.766l-9.985-3.783a42.485 42.485 0 00-.471-15.428l9.735-4.385a3.7 3.7 0 001.852-4.889l-4.256-9.443a3.7 3.7 0 00-4.888-1.852l-9.735 4.385A42.5 42.5 0 0077.448 18.66l3.783-9.985a3.7 3.7 0 00-2.147-4.766L69.4.239a3.7 3.7 0 00-4.766 2.147l-3.783 9.984a42.378 42.378 0 00-15.429.47l-4.385-9.736a3.7 3.7 0 00-4.889-1.852L26.7 5.509a3.7 3.7 0 00-1.852 4.888l4.385 9.735a42.5 42.5 0 00-10.572 11.243l-9.985-3.783a3.7 3.7 0 00-4.766 2.147L.241 39.425a3.7 3.7 0 002.147 4.766l9.985 3.783a42.485 42.485 0 00.471 15.43l-9.736 4.383a3.7 3.7 0 00-1.852 4.889L5.51 82.12a3.7 3.7 0 004.89 1.851l9.735-4.385a42.478 42.478 0 0011.241 10.576l-3.783 9.985a3.7 3.7 0 002.147 4.766l9.686 3.67a3.7 3.7 0 004.766-2.147l3.783-9.984a42.394 42.394 0 0015.429-.47l4.384 9.734a3.7 3.7 0 004.889 1.852l9.444-4.254a3.7 3.7 0 001.852-4.888zm-6.125-35.135a25.034 25.034 0 01-32.315 14.556 25.061 25.061 0 01-14.556-32.315 25.034 25.034 0 0132.315-14.556 25.06 25.06 0 0114.556 32.315zm82.179 50.472a3.7 3.7 0 00-2.564-1.194l-6.962-.3a31.938 31.938 0 00-3.425-9.386l5.134-4.712a3.7 3.7 0 00.224-5.222l-5.1-5.555a3.7 3.7 0 00-5.223-.224l-5.133 4.712a31.943 31.943 0 00-9.059-4.215l.3-6.962a3.7 3.7 0 00-3.535-3.851l-7.532-.323a3.709 3.709 0 00-3.851 3.534l-.3 6.962a31.973 31.973 0 00-9.386 3.424l-4.712-5.134a3.695 3.695 0 00-5.222-.224l-5.555 5.1a3.7 3.7 0 00-.224 5.222l4.712 5.134a31.934 31.934 0 00-4.214 9.055l-6.961-.3a3.705 3.705 0 00-3.851 3.534l-.323 7.532a3.7 3.7 0 003.535 3.851l6.961.3a31.969 31.969 0 003.424 9.387l-5.133 4.712a3.695 3.695 0 00-.224 5.222l5.1 5.555a3.7 3.7 0 005.223.224l5.133-4.712a31.943 31.943 0 009.059 4.215l-.3 6.962a3.7 3.7 0 003.534 3.851l7.532.323h.158a3.7 3.7 0 003.693-3.537l.3-6.962a31.973 31.973 0 009.386-3.424l4.712 5.134a3.695 3.695 0 005.222.224l5.555-5.1a3.7 3.7 0 00.224-5.222l-4.712-5.134a31.933 31.933 0 004.215-9.059l6.961.3a3.7 3.7 0 003.851-3.534l.323-7.532a3.7 3.7 0 00-.97-2.652zm-41.634 21.855a17.235 17.235 0 01.723-34.455q.375 0 .753.016a17.235 17.235 0 11-1.476 34.439z"/></svg>