<svg data-name="Сгруппировать 108" xmlns="http://www.w3.org/2000/svg" width="42.52" height="46.695"><defs><linearGradient id="a" x1="1.026" y1=".298" x2="-.733" y2="2.173" gradientUnits="objectBoundingBox"><stop offset="0" stop-color="#3650ec"/><stop offset=".003" stop-color="#3353f5"/><stop offset=".823" stop-color="#2337ad"/><stop offset=".926" stop-color="#2b42c8"/><stop offset="1"/></linearGradient><linearGradient id="b" x1=".139" y1=".114" x2=".836" y2=".843" gradientUnits="objectBoundingBox"><stop offset="0" stop-color="#ff3eff"/><stop offset="1" stop-color="#2759ff"/></linearGradient><linearGradient id="c" x1="-23.375" y1="-77.238" x2="-22.681" y2="-76.544" gradientUnits="objectBoundingBox"><stop offset="0" stop-color="#e2e1e6"/><stop offset=".845" stop-color="#fff"/></linearGradient><linearGradient id="d" x1="-48.912" y1="-49.885" x2="-47.912" y2="-49.885" gradientUnits="objectBoundingBox"><stop offset="0" stop-color="#fff"/><stop offset="1" stop-color="#e6e6e6"/></linearGradient></defs><g data-name="Сгруппировать 105"><path data-name="Контур 516" d="M832.056 2117.089h-13.817v10.6l13.816-10.6z" transform="translate(-796.98 -2080.994)" fill="url(#a)"/><rect data-name="Прямоугольник 15" width="41.732" height="41.732" rx="20.866" fill="url(#b)"/><g data-name="Сгруппировать 104" transform="translate(.889 .796)"><g data-name="Сгруппировать 103" transform="translate(4.216 4.216)" style="mix-blend-mode:multiply;isolation:isolate"><circle data-name="Эллипс 179" cx="15.897" cy="15.897" r="15.897" transform="translate(5.511 5.511)" fill="#fcfcfc" opacity=".02"/><circle data-name="Эллипс 180" cx="15.897" cy="15.897" r="15.897" transform="translate(5.4 5.4)" fill="#f8f8f9" opacity=".039"/><circle data-name="Эллипс 181" cx="15.897" cy="15.897" r="15.897" transform="translate(5.29 5.29)" fill="#f5f5f6" opacity=".059"/><circle data-name="Эллипс 182" cx="15.897" cy="15.897" r="15.897" transform="translate(5.18 5.18)" fill="#f2f2f3" opacity=".078"/><circle data-name="Эллипс 183" cx="15.897" cy="15.897" r="15.897" transform="translate(5.07 5.07)" fill="#eeeff0" opacity=".098"/><circle data-name="Эллипс 184" cx="15.897" cy="15.897" r="15.897" transform="translate(4.96 4.959)" fill="#ebebee" opacity=".118"/><circle data-name="Эллипс 185" cx="15.897" cy="15.897" r="15.897" transform="translate(4.849 4.849)" fill="#e7e8eb" opacity=".137"/><circle data-name="Эллипс 186" cx="15.897" cy="15.897" r="15.897" transform="translate(4.739 4.739)" fill="#e4e5e8" opacity=".157"/><circle data-name="Эллипс 187" cx="15.897" cy="15.897" r="15.897" transform="translate(4.629 4.629)" fill="#e1e1e5" opacity=".176"/><circle data-name="Эллипс 188" cx="15.897" cy="15.897" r="15.897" transform="translate(4.519 4.519)" fill="#dddee2" opacity=".196"/><circle data-name="Эллипс 189" cx="15.897" cy="15.897" r="15.897" transform="translate(4.408 4.408)" fill="#dadbdf" opacity=".216"/><circle data-name="Эллипс 190" cx="15.897" cy="15.897" r="15.897" transform="translate(4.298 4.298)" fill="#d7d7dc" opacity=".235"/><circle data-name="Эллипс 191" cx="15.897" cy="15.897" r="15.897" transform="translate(4.188 4.188)" fill="#d3d4d9" opacity=".255"/><circle data-name="Эллипс 192" cx="15.897" cy="15.897" r="15.897" transform="translate(4.078 4.078)" fill="#d0d1d6" opacity=".275"/><circle data-name="Эллипс 193" cx="15.897" cy="15.897" r="15.897" transform="translate(3.968 3.968)" fill="#ccced3" opacity=".294"/><circle data-name="Эллипс 194" cx="15.897" cy="15.897" r="15.897" transform="translate(3.857 3.857)" fill="#c9cad1" opacity=".314"/><circle data-name="Эллипс 195" cx="15.897" cy="15.897" r="15.897" transform="translate(3.747 3.747)" fill="#c6c7ce" opacity=".333"/><circle data-name="Эллипс 196" cx="15.897" cy="15.897" r="15.897" transform="translate(3.637 3.637)" fill="#c2c4cb" opacity=".353"/><circle data-name="Эллипс 197" cx="15.897" cy="15.897" r="15.897" transform="translate(3.527 3.527)" fill="#bfc0c8" opacity=".373"/><circle data-name="Эллипс 198" cx="15.897" cy="15.897" r="15.897" transform="translate(3.417 3.417)" fill="#bcbdc5" opacity=".392"/><circle data-name="Эллипс 199" cx="15.897" cy="15.897" r="15.897" transform="translate(3.306 3.306)" fill="#b8bac2" opacity=".412"/><circle data-name="Эллипс 200" cx="15.897" cy="15.897" r="15.897" transform="translate(3.196 3.196)" fill="#b5b7bf" opacity=".431"/><circle data-name="Эллипс 201" cx="15.897" cy="15.897" r="15.897" transform="translate(3.086 3.086)" fill="#b1b3bc" opacity=".451"/><circle data-name="Эллипс 202" cx="15.897" cy="15.897" r="15.897" transform="translate(2.976 2.976)" fill="#aeb0b9" opacity=".471"/><circle data-name="Эллипс 203" cx="15.897" cy="15.897" r="15.897" transform="translate(2.865 2.865)" fill="#abadb6" opacity=".49"/><circle data-name="Эллипс 204" cx="15.897" cy="15.897" r="15.897" transform="translate(2.755 2.755)" fill="#a7a9b4" opacity=".51"/><circle data-name="Эллипс 205" cx="15.897" cy="15.897" r="15.897" transform="translate(2.645 2.645)" fill="#a4a6b1" opacity=".529"/><circle data-name="Эллипс 206" cx="15.897" cy="15.897" r="15.897" transform="translate(2.535 2.535)" fill="#a1a3ae" opacity=".549"/><circle data-name="Эллипс 207" cx="15.897" cy="15.897" r="15.897" transform="translate(2.425 2.425)" fill="#9d9fab" opacity=".569"/><circle data-name="Эллипс 208" cx="15.897" cy="15.897" r="15.897" transform="translate(2.314 2.314)" fill="#9a9ca8" opacity=".588"/><circle data-name="Эллипс 209" cx="15.897" cy="15.897" r="15.897" transform="translate(2.204 2.204)" fill="#9699a5" opacity=".608"/><circle data-name="Эллипс 210" cx="15.897" cy="15.897" r="15.897" transform="translate(2.094 2.094)" fill="#9396a2" opacity=".627"/><circle data-name="Эллипс 211" cx="15.897" cy="15.897" r="15.897" transform="translate(1.984 1.984)" fill="#90929f" opacity=".647"/><circle data-name="Эллипс 212" cx="15.897" cy="15.897" r="15.897" transform="translate(1.874 1.874)" fill="#8c8f9c" opacity=".667"/><circle data-name="Эллипс 213" cx="15.897" cy="15.897" r="15.897" transform="translate(1.763 1.763)" fill="#898c99" opacity=".686"/><circle data-name="Эллипс 214" cx="15.897" cy="15.897" r="15.897" transform="translate(1.653 1.653)" fill="#868897" opacity=".706"/><circle data-name="Эллипс 215" cx="15.897" cy="15.897" r="15.897" transform="translate(1.543 1.543)" fill="#828594" opacity=".725"/><circle data-name="Эллипс 216" cx="15.897" cy="15.897" r="15.897" transform="translate(1.433 1.433)" fill="#7f8291" opacity=".745"/><circle data-name="Эллипс 217" cx="15.897" cy="15.897" r="15.897" transform="translate(1.323 1.323)" fill="#7b7f8e" opacity=".765"/><circle data-name="Эллипс 218" cx="15.897" cy="15.897" r="15.897" transform="translate(1.212 1.212)" fill="#787b8b" opacity=".784"/><circle data-name="Эллипс 219" cx="15.897" cy="15.897" r="15.897" transform="translate(1.102 1.102)" fill="#757888" opacity=".804"/><circle data-name="Эллипс 220" cx="15.897" cy="15.897" r="15.897" transform="translate(.992 .992)" fill="#717585" opacity=".824"/><circle data-name="Эллипс 221" cx="15.897" cy="15.897" r="15.897" transform="translate(.882 .882)" fill="#6e7182" opacity=".843"/><circle data-name="Эллипс 222" cx="15.897" cy="15.897" r="15.897" transform="translate(.771 .771)" fill="#6b6e7f" opacity=".863"/><circle data-name="Эллипс 223" cx="15.897" cy="15.897" r="15.897" transform="translate(.661 .661)" fill="#676b7c" opacity=".882"/><circle data-name="Эллипс 224" cx="15.897" cy="15.897" r="15.897" transform="translate(.551 .551)" fill="#64677a" opacity=".902"/><circle data-name="Эллипс 225" cx="15.897" cy="15.897" r="15.897" transform="translate(.441 .441)" fill="#606477" opacity=".922"/><circle data-name="Эллипс 226" cx="15.897" cy="15.897" r="15.897" transform="translate(.331 .331)" fill="#5d6174" opacity=".941"/><circle data-name="Эллипс 227" cx="15.897" cy="15.897" r="15.897" transform="translate(.22 .22)" fill="#5a5e71" opacity=".961"/><circle data-name="Эллипс 228" cx="15.897" cy="15.897" r="15.897" transform="translate(.11 .11)" fill="#565a6e" opacity=".98"/><circle data-name="Эллипс 229" cx="15.897" cy="15.897" r="15.897" fill="#53576b"/></g><circle data-name="Эллипс 230" cx="16.606" cy="16.606" r="16.606" transform="rotate(-13.283 32.769 3.815)" fill="url(#c)"/><path data-name="Контур 517" d="M817.846 2118.644a16.876 16.876 0 1116.876-16.876 16.9 16.9 0 01-16.876 16.876zm0-33.213a16.337 16.337 0 1016.336 16.337 16.356 16.356 0 00-16.336-16.337z" transform="translate(-797.868 -2081.79)" fill="url(#d)"/></g></g><g data-name="Сгруппировать 107"><g data-name="Сгруппировать 106"><path data-name="Контур 518" d="M13.804 28.32a.36.36 0 01-.334-.334v-2.755l6.053-15.693a.311.311 0 01.292-.209h3.8a.336.336 0 01.334.459l-6.052 15.067a.347.347 0 00.334.46h3.381a.358.358 0 00.333-.334v-5.718a.33.33 0 01.334-.335h3.59a.33.33 0 01.334.335v5.718a.359.359 0 00.334.334h1.377a.329.329 0 01.334.333v2.338a.359.359 0 01-.334.334h-1.377a.329.329 0 00-.334.334v2.629a.359.359 0 01-.334.334h-3.59a.359.359 0 01-.334-.334v-2.629a.328.328 0 00-.333-.334z" fill="#2b454e"/></g></g></svg>