<svg xmlns="http://www.w3.org/2000/svg" width="24.741" height="36.654"><defs><linearGradient id="linear-gradient" x2="1" y2="1" gradientUnits="objectBoundingBox"><stop offset="0" stop-color="#fd3eff"/><stop offset="1" stop-color="#55aefd"/></linearGradient><style>.cls-3{fill:none}</style></defs><g id="_3_1_" opacity=".95"><path id="Контур_82" fill="url(#linear-gradient)" fill-rule="evenodd" d="M120.405 34.558a9.851 9.851 0 01-.987 4.493 9.4 9.4 0 01-2.76 3.287 12.78 12.78 0 01-4.222 2.028 20.1 20.1 0 01-5.383.688 20.64 20.64 0 01-3.317-.25 20.044 20.044 0 01-2.742-.625 11.824 11.824 0 01-1.965-.768 6.378 6.378 0 01-1.014-.6 1.387 1.387 0 01-.366-.473 4.726 4.726 0 01-.21-.607 5.031 5.031 0 01-.137-.893 17.462 17.462 0 01-.037-1.286 4.958 4.958 0 01.21-1.733.7.7 0 01.649-.482 2.484 2.484 0 01.923.348 17.178 17.178 0 001.672.75 19.718 19.718 0 002.385.75 12.629 12.629 0 003.107.348 9.117 9.117 0 002.6-.339 5.972 5.972 0 001.919-.947 3.968 3.968 0 001.179-1.483 4.776 4.776 0 00.384-1.938 4.654 4.654 0 00-.466-2.108 4.354 4.354 0 00-1.4-1.6 6.775 6.775 0 00-2.33-1.027 13.323 13.323 0 00-3.308-.366h-3a1.657 1.657 0 01-.594-.089.822.822 0 01-.4-.384 2.4 2.4 0 01-.228-.8 10.316 10.316 0 01-.064-1.313 9.211 9.211 0 01.064-1.242 2.069 2.069 0 01.219-.741.759.759 0 01.366-.366 1.3 1.3 0 01.548-.107h3.016a9.465 9.465 0 002.742-.357 5.742 5.742 0 002.02-1.009 4.316 4.316 0 001.234-1.59 4.885 4.885 0 00.43-2.063 4.634 4.634 0 00-.292-1.635 3.719 3.719 0 00-.868-1.34 4.009 4.009 0 00-1.48-.893 6.164 6.164 0 00-2.138-.33 8.123 8.123 0 00-2.614.411 16.4 16.4 0 00-2.2.884c-.649.331-1.2.634-1.654.911a2.325 2.325 0 01-1.005.42.623.623 0 01-.64-.447 3.437 3.437 0 01-.155-.759 12.479 12.479 0 01-.055-1.3c0-.438.009-.8.027-1.09a3.586 3.586 0 01.11-.724 2.307 2.307 0 01.2-.5 2.177 2.177 0 01.384-.456 7.772 7.772 0 011.1-.741 13.314 13.314 0 012.084-.965 19.648 19.648 0 012.906-.8 18.616 18.616 0 013.563-.31 15.674 15.674 0 014.451.581 9.29 9.29 0 013.263 1.661 6.954 6.954 0 012 2.671 8.964 8.964 0 01.685 3.582 10.007 10.007 0 01-.4 2.876 7.512 7.512 0 01-1.179 2.385 6.925 6.925 0 01-1.937 1.786 8.789 8.789 0 01-2.687 1.1v.08a10.282 10.282 0 013.272.9 8.268 8.268 0 012.449 1.733 7.411 7.411 0 012.074 5.2z" transform="translate(-96.465 -9.201)"/><g id="Сгруппировать_101"><path id="Контур_83" d="M111.412 22.283a8.174 8.174 0 00-1.691-2.605 9.049 9.049 0 00-2.676-1.895 9.762 9.762 0 00-1.174-.471q.343-.176.661-.377a7.731 7.731 0 002.145-1.978 8.283 8.283 0 001.294-2.614 10.755 10.755 0 00.434-3.092 9.756 9.756 0 00-.745-3.874 7.711 7.711 0 00-2.22-2.959A10.124 10.124 0 00103.9.614 16.611 16.611 0 0099.212 0a19.616 19.616 0 00-3.744.338 20.427 20.427 0 00-3.037.832 14.2 14.2 0 00-2.217 1.03 7.946 7.946 0 00-1.223.835l-.014.013a2.754 2.754 0 00-.511.62 2.969 2.969 0 00-.264.65v.009a4.256 4.256 0 00-.135.872 18.99 18.99 0 00-.029 1.138 13.089 13.089 0 00.062 1.376 4.136 4.136 0 00.193.923l.011.029a1.4 1.4 0 00.575.7 1.423 1.423 0 00.75.195 2.823 2.823 0 001.4-.529c.457-.277 1-.575 1.613-.887a15.911 15.911 0 012.111-.844 7.381 7.381 0 012.39-.374 5.508 5.508 0 011.891.286h.009a3.8 3.8 0 01.649.3.743.743 0 001.006-.246.706.706 0 00-.252-.982 5.292 5.292 0 00-.9-.415 6.887 6.887 0 00-2.406-.377 8.969 8.969 0 00-2.861.45 17.343 17.343 0 00-2.315.929h-.007c-.647.329-1.222.646-1.711.942a3.112 3.112 0 01-.591.3 3.025 3.025 0 01-.1-.558 11.921 11.921 0 01-.055-1.22c0-.424.009-.768.026-1.051a2.958 2.958 0 01.085-.579 1.655 1.655 0 01.135-.344l.008-.014a1.546 1.546 0 01.25-.281 7.894 7.894 0 01.973-.647 12.707 12.707 0 011.976-.912 18.921 18.921 0 012.806-.766 18.131 18.131 0 013.451-.309 15.12 15.12 0 014.263.552 8.656 8.656 0 013.027 1.532 6.291 6.291 0 011.81 2.414 8.253 8.253 0 01.632 3.322 9.362 9.362 0 01-.376 2.691 6.873 6.873 0 01-1.074 2.174l-.006.008a6.2 6.2 0 01-1.749 1.608 8.15 8.15 0 01-2.478 1.009.72.72 0 00-.56.7v.081a.722.722 0 00.646.711 9.551 9.551 0 013.058.84 7.6 7.6 0 012.249 1.587 6.662 6.662 0 011.4 2.154 6.8 6.8 0 01.49 2.581 9.232 9.232 0 01-.915 4.195 8.785 8.785 0 01-2.567 3.055 12.171 12.171 0 01-4 1.917 19.594 19.594 0 01-5.215.664 20.153 20.153 0 01-3.215-.241 19.3 19.3 0 01-2.655-.6h-.007a11.232 11.232 0 01-1.856-.724 6.211 6.211 0 01-.88-.509.682.682 0 01-.174-.219 4.078 4.078 0 01-.174-.5 4.42 4.42 0 01-.117-.773c-.024-.3-.035-.694-.035-1.238a4.3 4.3 0 01.152-1.458l.017-.034a3.655 3.655 0 01.541.246 18.083 18.083 0 001.756.788 20.661 20.661 0 002.49.783 13.534 13.534 0 003.31.373 9.939 9.939 0 002.824-.372 6.758 6.758 0 002.166-1.071l.011-.009a4.724 4.724 0 001.395-1.755v-.008a5.493 5.493 0 00.446-2.231 5.407 5.407 0 00-.542-2.431v-.007a5.119 5.119 0 00-1.628-1.864 7.587 7.587 0 00-2.59-1.147 14.188 14.188 0 00-3.515-.392h-3.018a1.1 1.1 0 01-.31-.034.3.3 0 01-.045-.064 1.722 1.722 0 01-.15-.555 9.712 9.712 0 01-.058-1.226 8.626 8.626 0 01.057-1.149 1.4 1.4 0 01.129-.485.36.36 0 00.021-.038.229.229 0 01.026-.041.6.6 0 01.238-.039h3.033a10.33 10.33 0 002.97-.39 6.553 6.553 0 002.288-1.149 5.093 5.093 0 001.283-1.536.708.708 0 00-.306-.967.742.742 0 00-.991.3 3.605 3.605 0 01-.919 1.1 5.018 5.018 0 01-1.776.882h-.01a8.84 8.84 0 01-2.54.327h-3.032a2.06 2.06 0 00-.855.172 1.473 1.473 0 00-.71.68 2.75 2.75 0 00-.3.986 9.792 9.792 0 00-.071 1.346 10.846 10.846 0 00.071 1.413 3.072 3.072 0 00.307 1.038l.006.01a1.554 1.554 0 00.769.705l.013.005a2.374 2.374 0 00.863.139h3.015a12.707 12.707 0 013.137.336 6.129 6.129 0 012.091.913l.01.007a3.644 3.644 0 011.177 1.342 3.965 3.965 0 01.393 1.8 4.1 4.1 0 01-.324 1.66 3.254 3.254 0 01-.969 1.216 5.292 5.292 0 01-1.689.828 8.455 8.455 0 01-2.4.31 12.046 12.046 0 01-2.941-.327 19.182 19.182 0 01-2.308-.725 16.581 16.581 0 01-1.608-.72 2.935 2.935 0 00-1.278-.436 1.434 1.434 0 00-1.323.91l-.007.016a5.477 5.477 0 00-.268 2.017c0 .582.012 1.01.039 1.346a5.713 5.713 0 00.161 1.03 5.426 5.426 0 00.244.7l.007.016a2.107 2.107 0 00.549.717l.018.015a6.919 6.919 0 001.148.685 12.689 12.689 0 002.1.821 20.775 20.775 0 002.858.652 21.648 21.648 0 003.457.261 21.1 21.1 0 005.619-.72 13.65 13.65 0 004.489-2.157 10.217 10.217 0 002.987-3.554A10.62 10.62 0 00112 25.391a8.192 8.192 0 00-.593-3.108z" class="cls-3" transform="translate(-87.264)"/><path id="Контур_84" d="M278.2 124.814a.8.8 0 00-.8-.8.8.8 0 10.8.8z" class="cls-3" transform="translate(-262.8 -115.178)"/></g></g></svg>