<svg data-name="Сгруппировать 90" xmlns="http://www.w3.org/2000/svg" width="42.52" height="46.694"><defs><linearGradient id="a" x1="-167.178" y1="-97.549" x2="-166.521" y2="-98.494" gradientUnits="objectBoundingBox"><stop offset="0" stop-color="#0bf"/><stop offset="1" stop-color="#3a5aff"/></linearGradient><linearGradient id="b" x1=".907" y1=".96" x2="-.036" gradientUnits="objectBoundingBox"><stop offset="0" stop-color="#2759ff"/><stop offset="1" stop-color="#fe3eff"/></linearGradient><linearGradient id="c" x1="-12.932" y1="-87.68" x2="-12.239" y2="-86.987" gradientUnits="objectBoundingBox"><stop offset="0" stop-color="#e2e1e6"/><stop offset=".845" stop-color="#fff"/></linearGradient><linearGradient id="d" x1="-68.404" y1="-30.394" x2="-67.404" y2="-30.394" gradientUnits="objectBoundingBox"><stop offset="0" stop-color="#fff"/><stop offset="1" stop-color="#e6e6e6"/></linearGradient></defs><g data-name="Сгруппировать 87"><path data-name="Контур 507" d="M832.056 1806h-13.817v10.6l13.816-10.6z" transform="translate(-796.98 -1769.91)" fill="url(#a)"/><path data-name="Контур 2185" d="M20.866 0a20.866 20.866 0 0120.866 20.866 20.866 20.866 0 01-20.866 20.866A20.866 20.866 0 010 20.866 20.866 20.866 0 0120.866 0z" fill="url(#b)"/><g data-name="Сгруппировать 86" transform="translate(.889 .796)"><g data-name="Сгруппировать 85" transform="translate(4.216 4.216)" style="mix-blend-mode:multiply;isolation:isolate"><circle data-name="Эллипс 20" cx="15.897" cy="15.897" r="15.897" transform="translate(5.511 5.511)" fill="#fcfcfc" opacity=".02"/><circle data-name="Эллипс 21" cx="15.897" cy="15.897" r="15.897" transform="translate(5.4 5.4)" fill="#f8f8f9" opacity=".039"/><circle data-name="Эллипс 22" cx="15.897" cy="15.897" r="15.897" transform="translate(5.29 5.29)" fill="#f5f5f6" opacity=".059"/><circle data-name="Эллипс 23" cx="15.897" cy="15.897" r="15.897" transform="translate(5.18 5.18)" fill="#f2f2f3" opacity=".078"/><circle data-name="Эллипс 24" cx="15.897" cy="15.897" r="15.897" transform="translate(5.07 5.07)" fill="#eeeff0" opacity=".098"/><circle data-name="Эллипс 25" cx="15.897" cy="15.897" r="15.897" transform="translate(4.96 4.959)" fill="#ebebee" opacity=".118"/><circle data-name="Эллипс 26" cx="15.897" cy="15.897" r="15.897" transform="translate(4.849 4.849)" fill="#e7e8eb" opacity=".137"/><circle data-name="Эллипс 27" cx="15.897" cy="15.897" r="15.897" transform="translate(4.739 4.739)" fill="#e4e5e8" opacity=".157"/><circle data-name="Эллипс 28" cx="15.897" cy="15.897" r="15.897" transform="translate(4.629 4.629)" fill="#e1e1e5" opacity=".176"/><circle data-name="Эллипс 29" cx="15.897" cy="15.897" r="15.897" transform="translate(4.519 4.519)" fill="#dddee2" opacity=".196"/><circle data-name="Эллипс 30" cx="15.897" cy="15.897" r="15.897" transform="translate(4.408 4.408)" fill="#dadbdf" opacity=".216"/><circle data-name="Эллипс 31" cx="15.897" cy="15.897" r="15.897" transform="translate(4.298 4.298)" fill="#d7d7dc" opacity=".235"/><circle data-name="Эллипс 32" cx="15.897" cy="15.897" r="15.897" transform="translate(4.188 4.188)" fill="#d3d4d9" opacity=".255"/><circle data-name="Эллипс 33" cx="15.897" cy="15.897" r="15.897" transform="translate(4.078 4.078)" fill="#d0d1d6" opacity=".275"/><circle data-name="Эллипс 34" cx="15.897" cy="15.897" r="15.897" transform="translate(3.968 3.968)" fill="#ccced3" opacity=".294"/><circle data-name="Эллипс 35" cx="15.897" cy="15.897" r="15.897" transform="translate(3.857 3.857)" fill="#c9cad1" opacity=".314"/><circle data-name="Эллипс 36" cx="15.897" cy="15.897" r="15.897" transform="translate(3.747 3.747)" fill="#c6c7ce" opacity=".333"/><circle data-name="Эллипс 37" cx="15.897" cy="15.897" r="15.897" transform="translate(3.637 3.637)" fill="#c2c4cb" opacity=".353"/><circle data-name="Эллипс 38" cx="15.897" cy="15.897" r="15.897" transform="translate(3.527 3.527)" fill="#bfc0c8" opacity=".373"/><circle data-name="Эллипс 39" cx="15.897" cy="15.897" r="15.897" transform="translate(3.417 3.417)" fill="#bcbdc5" opacity=".392"/><circle data-name="Эллипс 40" cx="15.897" cy="15.897" r="15.897" transform="translate(3.306 3.306)" fill="#b8bac2" opacity=".412"/><circle data-name="Эллипс 41" cx="15.897" cy="15.897" r="15.897" transform="translate(3.196 3.196)" fill="#b5b7bf" opacity=".431"/><circle data-name="Эллипс 42" cx="15.897" cy="15.897" r="15.897" transform="translate(3.086 3.086)" fill="#b1b3bc" opacity=".451"/><circle data-name="Эллипс 43" cx="15.897" cy="15.897" r="15.897" transform="translate(2.976 2.976)" fill="#aeb0b9" opacity=".471"/><circle data-name="Эллипс 44" cx="15.897" cy="15.897" r="15.897" transform="translate(2.865 2.865)" fill="#abadb6" opacity=".49"/><circle data-name="Эллипс 45" cx="15.897" cy="15.897" r="15.897" transform="translate(2.755 2.755)" fill="#a7a9b4" opacity=".51"/><circle data-name="Эллипс 46" cx="15.897" cy="15.897" r="15.897" transform="translate(2.645 2.645)" fill="#a4a6b1" opacity=".529"/><circle data-name="Эллипс 47" cx="15.897" cy="15.897" r="15.897" transform="translate(2.535 2.535)" fill="#a1a3ae" opacity=".549"/><circle data-name="Эллипс 48" cx="15.897" cy="15.897" r="15.897" transform="translate(2.425 2.425)" fill="#9d9fab" opacity=".569"/><circle data-name="Эллипс 49" cx="15.897" cy="15.897" r="15.897" transform="translate(2.314 2.314)" fill="#9a9ca8" opacity=".588"/><circle data-name="Эллипс 50" cx="15.897" cy="15.897" r="15.897" transform="translate(2.204 2.204)" fill="#9699a5" opacity=".608"/><circle data-name="Эллипс 51" cx="15.897" cy="15.897" r="15.897" transform="translate(2.094 2.094)" fill="#9396a2" opacity=".627"/><circle data-name="Эллипс 52" cx="15.897" cy="15.897" r="15.897" transform="translate(1.984 1.984)" fill="#90929f" opacity=".647"/><circle data-name="Эллипс 53" cx="15.897" cy="15.897" r="15.897" transform="translate(1.874 1.874)" fill="#8c8f9c" opacity=".667"/><circle data-name="Эллипс 54" cx="15.897" cy="15.897" r="15.897" transform="translate(1.763 1.763)" fill="#898c99" opacity=".686"/><circle data-name="Эллипс 55" cx="15.897" cy="15.897" r="15.897" transform="translate(1.653 1.653)" fill="#868897" opacity=".706"/><circle data-name="Эллипс 56" cx="15.897" cy="15.897" r="15.897" transform="translate(1.543 1.543)" fill="#828594" opacity=".725"/><circle data-name="Эллипс 57" cx="15.897" cy="15.897" r="15.897" transform="translate(1.433 1.433)" fill="#7f8291" opacity=".745"/><circle data-name="Эллипс 58" cx="15.897" cy="15.897" r="15.897" transform="translate(1.323 1.323)" fill="#7b7f8e" opacity=".765"/><circle data-name="Эллипс 59" cx="15.897" cy="15.897" r="15.897" transform="translate(1.212 1.212)" fill="#787b8b" opacity=".784"/><circle data-name="Эллипс 60" cx="15.897" cy="15.897" r="15.897" transform="translate(1.102 1.102)" fill="#757888" opacity=".804"/><circle data-name="Эллипс 61" cx="15.897" cy="15.897" r="15.897" transform="translate(.992 .992)" fill="#717585" opacity=".824"/><circle data-name="Эллипс 62" cx="15.897" cy="15.897" r="15.897" transform="translate(.882 .882)" fill="#6e7182" opacity=".843"/><circle data-name="Эллипс 63" cx="15.897" cy="15.897" r="15.897" transform="translate(.771 .771)" fill="#6b6e7f" opacity=".863"/><circle data-name="Эллипс 64" cx="15.897" cy="15.897" r="15.897" transform="translate(.661 .661)" fill="#676b7c" opacity=".882"/><circle data-name="Эллипс 65" cx="15.897" cy="15.897" r="15.897" transform="translate(.551 .551)" fill="#64677a" opacity=".902"/><circle data-name="Эллипс 66" cx="15.897" cy="15.897" r="15.897" transform="translate(.441 .441)" fill="#606477" opacity=".922"/><circle data-name="Эллипс 67" cx="15.897" cy="15.897" r="15.897" transform="translate(.331 .331)" fill="#5d6174" opacity=".941"/><circle data-name="Эллипс 68" cx="15.897" cy="15.897" r="15.897" transform="translate(.22 .22)" fill="#5a5e71" opacity=".961"/><circle data-name="Эллипс 69" cx="15.897" cy="15.897" r="15.897" transform="translate(.11 .11)" fill="#565a6e" opacity=".98"/><circle data-name="Эллипс 70" cx="15.897" cy="15.897" r="15.897" fill="#53576b"/></g><circle data-name="Эллипс 71" cx="16.606" cy="16.606" r="16.606" transform="rotate(-13.34 32.727 3.842)" fill="url(#c)"/><path data-name="Контур 508" d="M817.846 1807.559a16.876 16.876 0 1116.876-16.876 16.894 16.894 0 01-16.876 16.876zm0-33.212a16.336 16.336 0 1016.336 16.336 16.355 16.355 0 00-16.336-16.336z" transform="translate(-797.868 -1770.706)" fill="url(#d)"/></g></g><g data-name="Сгруппировать 89"><g data-name="Сгруппировать 88"><path data-name="Контур 509" d="M16.034 15.047v-3.381l4.258-2.338h4.257v22.289h-4.257V12.709z" fill="#2b454e"/></g></g></svg>