<svg data-name="Сгруппировать 118" xmlns="http://www.w3.org/2000/svg" xmlns:xlink="http://www.w3.org/1999/xlink" width="1.383" height="55.102"><defs><linearGradient id="a" x1="-626.645" y1="-155.58" x2="-625.644" y2="-155.58" gradientUnits="objectBoundingBox"><stop offset="0" stop-color="#45e3ff"/><stop offset="1" stop-color="#9babff"/></linearGradient><linearGradient id="b" x1="-626.645" y1="-157.841" x2="-625.644" y2="-157.841" xlink:href="#a"/><linearGradient id="c" x1="-626.645" y1="-160.082" x2="-625.644" y2="-160.082" xlink:href="#a"/></defs><g data-name="Сгруппировать 115"><path data-name="Контур 522" d="M818.239 1816.641a.692.692 0 01.692.692v.346a.692.692 0 11-1.383 0v-.346a.691.691 0 01.691-.692zm0 3.806a.692.692 0 01.692.692v.345a.692.692 0 11-1.383 0v-.345a.691.691 0 01.691-.692zm0 3.8a.692.692 0 01.692.692v.346a.692.692 0 11-1.383 0v-.346a.691.691 0 01.691-.687zm0 3.805a.692.692 0 01.692.692v.346a.692.692 0 11-1.383 0v-.346a.691.691 0 01.691-.687zm0 3.806a.691.691 0 01.692.691v.346a.692.692 0 11-1.383 0v-.346a.691.691 0 01.691-.686z" transform="translate(-817.548 -1816.641)" fill="url(#a)"/></g><g data-name="Сгруппировать 116"><path data-name="Контур 523" d="M818.239 1835.717a.691.691 0 01.692.691v.346a.692.692 0 11-1.383 0v-.346a.691.691 0 01.691-.691zm0 3.8a.692.692 0 01.692.692v.346a.692.692 0 11-1.383 0v-.346a.691.691 0 01.691-.687zm0 3.805a.692.692 0 01.692.692v.346a.692.692 0 11-1.383 0v-.346a.691.691 0 01.691-.687zm0 3.806a.691.691 0 01.692.691v.346a.692.692 0 11-1.383 0v-.346a.691.691 0 01.691-.686zm0 3.8a.692.692 0 01.692.692v.346a.692.692 0 01-1.383 0v-.346a.691.691 0 01.691-.682z" transform="translate(-817.548 -1816.641)" fill="url(#b)"/></g><g data-name="Сгруппировать 117"><path data-name="Контур 524" d="M818.239 1854.792a.692.692 0 01.692.692v.346a.692.692 0 11-1.383 0v-.346a.691.691 0 01.691-.692zm0 3.805a.692.692 0 01.692.692v.346a.692.692 0 11-1.383 0v-.346a.691.691 0 01.691-.689zm0 3.806a.691.691 0 01.692.691v.346a.692.692 0 11-1.383 0v-.346a.691.691 0 01.691-.694zm0 3.805a.692.692 0 01.692.692v.346a.692.692 0 01-1.383 0v-.346a.691.691 0 01.691-.692zm0 3.8a.692.692 0 01.692.692v.346a.692.692 0 11-1.383 0v-.346a.691.691 0 01.691-.687z" transform="translate(-817.548 -1816.641)" fill="url(#c)"/></g></svg>