<svg data-name="Сгруппировать 114" xmlns="http://www.w3.org/2000/svg" width="42.52" height="46.695"><defs><linearGradient id="a" x1=".5" x2=".075" y2="1.24" gradientUnits="objectBoundingBox"><stop offset="0" stop-color="#2759ff"/><stop offset="1" stop-color="#3c47d9"/></linearGradient><linearGradient id="b" x1=".158" y1=".12" x2=".848" y2=".856" gradientUnits="objectBoundingBox"><stop offset="0" stop-color="#ff3eff"/><stop offset="1" stop-color="#2759ff"/></linearGradient><linearGradient id="c" x1="-26.855" y1="-73.757" x2="-26.162" y2="-73.063" gradientUnits="objectBoundingBox"><stop offset="0" stop-color="#e2e1e6"/><stop offset=".845" stop-color="#fff"/></linearGradient><linearGradient id="d" x1="-42.414" y1="-56.384" x2="-41.414" y2="-56.384" gradientUnits="objectBoundingBox"><stop offset="0" stop-color="#fff"/><stop offset="1" stop-color="#e6e6e6"/></linearGradient></defs><g data-name="Сгруппировать 111"><path data-name="Контур 519" d="M832.056 2220.783h-13.817v10.6l13.816-10.6z" transform="translate(-796.98 -2184.689)" fill="url(#a)"/><rect data-name="Прямоугольник 16" width="41.732" height="41.732" rx="20.866" fill="url(#b)"/><g data-name="Сгруппировать 110" transform="translate(.889 .796)"><g data-name="Сгруппировать 109" transform="translate(4.216 4.216)" style="mix-blend-mode:multiply;isolation:isolate"><circle data-name="Эллипс 232" cx="15.897" cy="15.897" r="15.897" transform="translate(5.511 5.51)" fill="#fcfcfc" opacity=".02"/><circle data-name="Эллипс 233" cx="15.897" cy="15.897" r="15.897" transform="translate(5.4 5.4)" fill="#f8f8f9" opacity=".039"/><circle data-name="Эллипс 234" cx="15.897" cy="15.897" r="15.897" transform="translate(5.29 5.29)" fill="#f5f5f6" opacity=".059"/><circle data-name="Эллипс 235" cx="15.897" cy="15.897" r="15.897" transform="translate(5.18 5.18)" fill="#f2f2f3" opacity=".078"/><circle data-name="Эллипс 236" cx="15.897" cy="15.897" r="15.897" transform="translate(5.07 5.07)" fill="#eeeff0" opacity=".098"/><circle data-name="Эллипс 237" cx="15.897" cy="15.897" r="15.897" transform="translate(4.96 4.959)" fill="#ebebee" opacity=".118"/><circle data-name="Эллипс 238" cx="15.897" cy="15.897" r="15.897" transform="translate(4.849 4.849)" fill="#e7e8eb" opacity=".137"/><circle data-name="Эллипс 239" cx="15.897" cy="15.897" r="15.897" transform="translate(4.739 4.739)" fill="#e4e5e8" opacity=".157"/><circle data-name="Эллипс 240" cx="15.897" cy="15.897" r="15.897" transform="translate(4.629 4.629)" fill="#e1e1e5" opacity=".176"/><circle data-name="Эллипс 241" cx="15.897" cy="15.897" r="15.897" transform="translate(4.519 4.519)" fill="#dddee2" opacity=".196"/><circle data-name="Эллипс 242" cx="15.897" cy="15.897" r="15.897" transform="translate(4.408 4.408)" fill="#dadbdf" opacity=".216"/><circle data-name="Эллипс 243" cx="15.897" cy="15.897" r="15.897" transform="translate(4.298 4.298)" fill="#d7d7dc" opacity=".235"/><circle data-name="Эллипс 244" cx="15.897" cy="15.897" r="15.897" transform="translate(4.188 4.188)" fill="#d3d4d9" opacity=".255"/><circle data-name="Эллипс 245" cx="15.897" cy="15.897" r="15.897" transform="translate(4.078 4.078)" fill="#d0d1d6" opacity=".275"/><circle data-name="Эллипс 246" cx="15.897" cy="15.897" r="15.897" transform="translate(3.968 3.968)" fill="#ccced3" opacity=".294"/><circle data-name="Эллипс 247" cx="15.897" cy="15.897" r="15.897" transform="translate(3.857 3.857)" fill="#c9cad1" opacity=".314"/><circle data-name="Эллипс 248" cx="15.897" cy="15.897" r="15.897" transform="translate(3.747 3.747)" fill="#c6c7ce" opacity=".333"/><circle data-name="Эллипс 249" cx="15.897" cy="15.897" r="15.897" transform="translate(3.637 3.637)" fill="#c2c4cb" opacity=".353"/><circle data-name="Эллипс 250" cx="15.897" cy="15.897" r="15.897" transform="translate(3.527 3.527)" fill="#bfc0c8" opacity=".373"/><circle data-name="Эллипс 251" cx="15.897" cy="15.897" r="15.897" transform="translate(3.417 3.417)" fill="#bcbdc5" opacity=".392"/><circle data-name="Эллипс 252" cx="15.897" cy="15.897" r="15.897" transform="translate(3.306 3.306)" fill="#b8bac2" opacity=".412"/><circle data-name="Эллипс 253" cx="15.897" cy="15.897" r="15.897" transform="translate(3.196 3.196)" fill="#b5b7bf" opacity=".431"/><circle data-name="Эллипс 254" cx="15.897" cy="15.897" r="15.897" transform="translate(3.086 3.086)" fill="#b1b3bc" opacity=".451"/><circle data-name="Эллипс 255" cx="15.897" cy="15.897" r="15.897" transform="translate(2.976 2.976)" fill="#aeb0b9" opacity=".471"/><circle data-name="Эллипс 256" cx="15.897" cy="15.897" r="15.897" transform="translate(2.865 2.865)" fill="#abadb6" opacity=".49"/><circle data-name="Эллипс 257" cx="15.897" cy="15.897" r="15.897" transform="translate(2.755 2.755)" fill="#a7a9b4" opacity=".51"/><circle data-name="Эллипс 258" cx="15.897" cy="15.897" r="15.897" transform="translate(2.645 2.645)" fill="#a4a6b1" opacity=".529"/><circle data-name="Эллипс 259" cx="15.897" cy="15.897" r="15.897" transform="translate(2.535 2.535)" fill="#a1a3ae" opacity=".549"/><circle data-name="Эллипс 260" cx="15.897" cy="15.897" r="15.897" transform="translate(2.425 2.425)" fill="#9d9fab" opacity=".569"/><circle data-name="Эллипс 261" cx="15.897" cy="15.897" r="15.897" transform="translate(2.314 2.314)" fill="#9a9ca8" opacity=".588"/><circle data-name="Эллипс 262" cx="15.897" cy="15.897" r="15.897" transform="translate(2.204 2.204)" fill="#9699a5" opacity=".608"/><circle data-name="Эллипс 263" cx="15.897" cy="15.897" r="15.897" transform="translate(2.094 2.094)" fill="#9396a2" opacity=".627"/><circle data-name="Эллипс 264" cx="15.897" cy="15.897" r="15.897" transform="translate(1.984 1.984)" fill="#90929f" opacity=".647"/><circle data-name="Эллипс 265" cx="15.897" cy="15.897" r="15.897" transform="translate(1.874 1.874)" fill="#8c8f9c" opacity=".667"/><circle data-name="Эллипс 266" cx="15.897" cy="15.897" r="15.897" transform="translate(1.763 1.763)" fill="#898c99" opacity=".686"/><circle data-name="Эллипс 267" cx="15.897" cy="15.897" r="15.897" transform="translate(1.653 1.653)" fill="#868897" opacity=".706"/><circle data-name="Эллипс 268" cx="15.897" cy="15.897" r="15.897" transform="translate(1.543 1.543)" fill="#828594" opacity=".725"/><circle data-name="Эллипс 269" cx="15.897" cy="15.897" r="15.897" transform="translate(1.433 1.433)" fill="#7f8291" opacity=".745"/><circle data-name="Эллипс 270" cx="15.897" cy="15.897" r="15.897" transform="translate(1.323 1.323)" fill="#7b7f8e" opacity=".765"/><circle data-name="Эллипс 271" cx="15.897" cy="15.897" r="15.897" transform="translate(1.212 1.212)" fill="#787b8b" opacity=".784"/><circle data-name="Эллипс 272" cx="15.897" cy="15.897" r="15.897" transform="translate(1.102 1.102)" fill="#757888" opacity=".804"/><circle data-name="Эллипс 273" cx="15.897" cy="15.897" r="15.897" transform="translate(.992 .992)" fill="#717585" opacity=".824"/><circle data-name="Эллипс 274" cx="15.897" cy="15.897" r="15.897" transform="translate(.882 .882)" fill="#6e7182" opacity=".843"/><circle data-name="Эллипс 275" cx="15.897" cy="15.897" r="15.897" transform="translate(.771 .771)" fill="#6b6e7f" opacity=".863"/><circle data-name="Эллипс 276" cx="15.897" cy="15.897" r="15.897" transform="translate(.661 .661)" fill="#676b7c" opacity=".882"/><circle data-name="Эллипс 277" cx="15.897" cy="15.897" r="15.897" transform="translate(.551 .551)" fill="#64677a" opacity=".902"/><circle data-name="Эллипс 278" cx="15.897" cy="15.897" r="15.897" transform="translate(.441 .441)" fill="#606477" opacity=".922"/><circle data-name="Эллипс 279" cx="15.897" cy="15.897" r="15.897" transform="translate(.331 .331)" fill="#5d6174" opacity=".941"/><circle data-name="Эллипс 280" cx="15.897" cy="15.897" r="15.897" transform="translate(.22 .22)" fill="#5a5e71" opacity=".961"/><circle data-name="Эллипс 281" cx="15.897" cy="15.897" r="15.897" transform="translate(.11 .11)" fill="#565a6e" opacity=".98"/><circle data-name="Эллипс 282" cx="15.897" cy="15.897" r="15.897" fill="#53576b"/></g><circle data-name="Эллипс 283" cx="16.606" cy="16.606" r="16.606" transform="rotate(-13.283 32.769 3.815)" fill="url(#c)"/><path data-name="Контур 520" d="M817.846 2222.338a16.876 16.876 0 1116.876-16.876 16.894 16.894 0 01-16.876 16.876zm0-33.212a16.337 16.337 0 1016.336 16.336 16.355 16.355 0 00-16.336-16.336z" transform="translate(-797.868 -2185.485)" fill="url(#d)"/></g></g><g data-name="Сгруппировать 113"><g data-name="Сгруппировать 112"><path data-name="Контур 521" d="M19.129 12.311a.326.326 0 00-.331.331v5a.33.33 0 00.5.29 6.352 6.352 0 013.019-.7c2.522 0 4.838 1.116 4.838 3.928v5.706c0 3.267-3.474 4.756-6.285 4.756-3.722 0-6.162-1.7-6.286-5.376a.326.326 0 01.331-.331h3.556a.319.319 0 01.331.29c.042 1.406.414 2.233 2.15 2.233 1.076 0 1.985-.5 1.985-1.654v-5.173c0-1.034-1.075-1.572-1.985-1.572a2.341 2.341 0 00-2.067 1.034.349.349 0 01-.29.166h-3.184a.357.357 0 01-.331-.331V9.66a.326.326 0 01.331-.33H26.82a.326.326 0 01.331.33v2.316a.357.357 0 01-.331.331z" fill="#2b454e"/></g></g></svg>