<svg data-name="Сгруппировать 96" xmlns="http://www.w3.org/2000/svg" width="42.52" height="46.694"><defs><linearGradient id="a" x1="-167.178" y1="-97.549" x2="-166.521" y2="-98.494" gradientUnits="objectBoundingBox"><stop offset="0" stop-color="#0bf"/><stop offset="1" stop-color="#3a5aff"/></linearGradient><linearGradient id="b" x1=".035" y1=".121" x2=".823" y2="1.069" gradientUnits="objectBoundingBox"><stop offset="0" stop-color="#fe3eff"/><stop offset="1" stop-color="#2759ff"/></linearGradient><linearGradient id="c" x1="-16.413" y1="-84.2" x2="-15.72" y2="-83.506" gradientUnits="objectBoundingBox"><stop offset="0" stop-color="#e2e1e6"/><stop offset=".845" stop-color="#fff"/></linearGradient><linearGradient id="d" x1="-61.907" y1="-36.891" x2="-60.907" y2="-36.891" gradientUnits="objectBoundingBox"><stop offset="0" stop-color="#fff"/><stop offset="1" stop-color="#e6e6e6"/></linearGradient></defs><g data-name="Сгруппировать 93"><path data-name="Контур 510" d="M832.056 1909.7h-13.817v10.6l13.816-10.6z" transform="translate(-796.98 -1873.605)" fill="url(#a)"/><rect data-name="Прямоугольник 13" width="41.732" height="41.732" rx="20.866" fill="url(#b)"/><g data-name="Сгруппировать 92" transform="translate(.889 .796)"><g data-name="Сгруппировать 91" transform="translate(4.216 4.216)" style="mix-blend-mode:multiply;isolation:isolate"><circle data-name="Эллипс 73" cx="15.897" cy="15.897" r="15.897" transform="translate(5.511 5.511)" fill="#fcfcfc" opacity=".02"/><circle data-name="Эллипс 74" cx="15.897" cy="15.897" r="15.897" transform="translate(5.4 5.401)" fill="#f8f8f9" opacity=".039"/><circle data-name="Эллипс 75" cx="15.897" cy="15.897" r="15.897" transform="translate(5.29 5.29)" fill="#f5f5f6" opacity=".059"/><circle data-name="Эллипс 76" cx="15.897" cy="15.897" r="15.897" transform="translate(5.18 5.18)" fill="#f2f2f3" opacity=".078"/><circle data-name="Эллипс 77" cx="15.897" cy="15.897" r="15.897" transform="translate(5.07 5.07)" fill="#eeeff0" opacity=".098"/><circle data-name="Эллипс 78" cx="15.897" cy="15.897" r="15.897" transform="translate(4.96 4.96)" fill="#ebebee" opacity=".118"/><circle data-name="Эллипс 79" cx="15.897" cy="15.897" r="15.897" transform="translate(4.849 4.849)" fill="#e7e8eb" opacity=".137"/><circle data-name="Эллипс 80" cx="15.897" cy="15.897" r="15.897" transform="translate(4.739 4.739)" fill="#e4e5e8" opacity=".157"/><circle data-name="Эллипс 81" cx="15.897" cy="15.897" r="15.897" transform="translate(4.629 4.629)" fill="#e1e1e5" opacity=".176"/><circle data-name="Эллипс 82" cx="15.897" cy="15.897" r="15.897" transform="translate(4.519 4.519)" fill="#dddee2" opacity=".196"/><circle data-name="Эллипс 83" cx="15.897" cy="15.897" r="15.897" transform="translate(4.408 4.409)" fill="#dadbdf" opacity=".216"/><circle data-name="Эллипс 84" cx="15.897" cy="15.897" r="15.897" transform="translate(4.298 4.298)" fill="#d7d7dc" opacity=".235"/><circle data-name="Эллипс 85" cx="15.897" cy="15.897" r="15.897" transform="translate(4.188 4.188)" fill="#d3d4d9" opacity=".255"/><circle data-name="Эллипс 86" cx="15.897" cy="15.897" r="15.897" transform="translate(4.078 4.078)" fill="#d0d1d6" opacity=".275"/><circle data-name="Эллипс 87" cx="15.897" cy="15.897" r="15.897" transform="translate(3.968 3.968)" fill="#ccced3" opacity=".294"/><circle data-name="Эллипс 88" cx="15.897" cy="15.897" r="15.897" transform="translate(3.857 3.858)" fill="#c9cad1" opacity=".314"/><circle data-name="Эллипс 89" cx="15.897" cy="15.897" r="15.897" transform="translate(3.747 3.747)" fill="#c6c7ce" opacity=".333"/><circle data-name="Эллипс 90" cx="15.897" cy="15.897" r="15.897" transform="translate(3.637 3.637)" fill="#c2c4cb" opacity=".353"/><circle data-name="Эллипс 91" cx="15.897" cy="15.897" r="15.897" transform="translate(3.527 3.527)" fill="#bfc0c8" opacity=".373"/><circle data-name="Эллипс 92" cx="15.897" cy="15.897" r="15.897" transform="translate(3.417 3.417)" fill="#bcbdc5" opacity=".392"/><circle data-name="Эллипс 93" cx="15.897" cy="15.897" r="15.897" transform="translate(3.306 3.306)" fill="#b8bac2" opacity=".412"/><circle data-name="Эллипс 94" cx="15.897" cy="15.897" r="15.897" transform="translate(3.196 3.196)" fill="#b5b7bf" opacity=".431"/><circle data-name="Эллипс 95" cx="15.897" cy="15.897" r="15.897" transform="translate(3.086 3.086)" fill="#b1b3bc" opacity=".451"/><circle data-name="Эллипс 96" cx="15.897" cy="15.897" r="15.897" transform="translate(2.976 2.976)" fill="#aeb0b9" opacity=".471"/><circle data-name="Эллипс 97" cx="15.897" cy="15.897" r="15.897" transform="translate(2.865 2.866)" fill="#abadb6" opacity=".49"/><circle data-name="Эллипс 98" cx="15.897" cy="15.897" r="15.897" transform="translate(2.755 2.755)" fill="#a7a9b4" opacity=".51"/><circle data-name="Эллипс 99" cx="15.897" cy="15.897" r="15.897" transform="translate(2.645 2.645)" fill="#a4a6b1" opacity=".529"/><circle data-name="Эллипс 100" cx="15.897" cy="15.897" r="15.897" transform="translate(2.535 2.535)" fill="#a1a3ae" opacity=".549"/><circle data-name="Эллипс 101" cx="15.897" cy="15.897" r="15.897" transform="translate(2.425 2.425)" fill="#9d9fab" opacity=".569"/><circle data-name="Эллипс 102" cx="15.897" cy="15.897" r="15.897" transform="translate(2.314 2.314)" fill="#9a9ca8" opacity=".588"/><circle data-name="Эллипс 103" cx="15.897" cy="15.897" r="15.897" transform="translate(2.204 2.204)" fill="#9699a5" opacity=".608"/><circle data-name="Эллипс 104" cx="15.897" cy="15.897" r="15.897" transform="translate(2.094 2.094)" fill="#9396a2" opacity=".627"/><circle data-name="Эллипс 105" cx="15.897" cy="15.897" r="15.897" transform="translate(1.984 1.984)" fill="#90929f" opacity=".647"/><circle data-name="Эллипс 106" cx="15.897" cy="15.897" r="15.897" transform="translate(1.874 1.874)" fill="#8c8f9c" opacity=".667"/><circle data-name="Эллипс 107" cx="15.897" cy="15.897" r="15.897" transform="translate(1.763 1.763)" fill="#898c99" opacity=".686"/><circle data-name="Эллипс 108" cx="15.897" cy="15.897" r="15.897" transform="translate(1.653 1.653)" fill="#868897" opacity=".706"/><circle data-name="Эллипс 109" cx="15.897" cy="15.897" r="15.897" transform="translate(1.543 1.543)" fill="#828594" opacity=".725"/><circle data-name="Эллипс 110" cx="15.897" cy="15.897" r="15.897" transform="translate(1.433 1.433)" fill="#7f8291" opacity=".745"/><circle data-name="Эллипс 111" cx="15.897" cy="15.897" r="15.897" transform="translate(1.323 1.323)" fill="#7b7f8e" opacity=".765"/><circle data-name="Эллипс 112" cx="15.897" cy="15.897" r="15.897" transform="translate(1.212 1.212)" fill="#787b8b" opacity=".784"/><circle data-name="Эллипс 113" cx="15.897" cy="15.897" r="15.897" transform="translate(1.102 1.102)" fill="#757888" opacity=".804"/><circle data-name="Эллипс 114" cx="15.897" cy="15.897" r="15.897" transform="translate(.992 .992)" fill="#717585" opacity=".824"/><circle data-name="Эллипс 115" cx="15.897" cy="15.897" r="15.897" transform="translate(.882 .882)" fill="#6e7182" opacity=".843"/><circle data-name="Эллипс 116" cx="15.897" cy="15.897" r="15.897" transform="translate(.771 .771)" fill="#6b6e7f" opacity=".863"/><circle data-name="Эллипс 117" cx="15.897" cy="15.897" r="15.897" transform="translate(.661 .661)" fill="#676b7c" opacity=".882"/><circle data-name="Эллипс 118" cx="15.897" cy="15.897" r="15.897" transform="translate(.551 .551)" fill="#64677a" opacity=".902"/><circle data-name="Эллипс 119" cx="15.897" cy="15.897" r="15.897" transform="translate(.441 .441)" fill="#606477" opacity=".922"/><circle data-name="Эллипс 120" cx="15.897" cy="15.897" r="15.897" transform="translate(.331 .331)" fill="#5d6174" opacity=".941"/><circle data-name="Эллипс 121" cx="15.897" cy="15.897" r="15.897" transform="translate(.22 .22)" fill="#5a5e71" opacity=".961"/><circle data-name="Эллипс 122" cx="15.897" cy="15.897" r="15.897" transform="translate(.11 .11)" fill="#565a6e" opacity=".98"/><circle data-name="Эллипс 123" cx="15.897" cy="15.897" r="15.897" fill="#53576b"/></g><circle data-name="Эллипс 124" cx="16.606" cy="16.606" r="16.606" transform="rotate(-13.283 32.769 3.815)" fill="url(#c)"/><path data-name="Контур 511" d="M817.846 1911.254a16.876 16.876 0 1116.876-16.876 16.9 16.9 0 01-16.876 16.876zm0-33.213a16.336 16.336 0 1016.336 16.337 16.356 16.356 0 00-16.336-16.337z" transform="translate(-797.868 -1874.401)" fill="url(#d)"/></g></g><g data-name="Сгруппировать 95"><g data-name="Сгруппировать 94"><path data-name="Контур 512" d="M22.327 17.862a4.064 4.064 0 00.746-2.568c0-1.616-.042-2.817-2.072-2.817-2.444 0-2.071 1.574-2.071 3.4h-4.226v-1.74c0-3.19 3.6-4.806 6.339-4.806 3.521 0 6.255 1.782 6.255 5.551a6.185 6.185 0 01-1.408 4.6l-6.215 8.99h7.623v3.148H14.704v-2.982z" fill="#2b454e"/></g></g></svg>