<svg xmlns="http://www.w3.org/2000/svg" width="24.741" height="36.959"><defs><linearGradient id="linear-gradient" x2="1" y2="1" gradientUnits="objectBoundingBox"><stop offset="0" stop-color="#fd3eff"/><stop offset="1" stop-color="#55aefd"/></linearGradient><style>.cls-3{fill:none}</style></defs><g id="_2" opacity=".95"><path id="Контур_77" fill="url(#linear-gradient)" fill-rule="evenodd" d="M117.082 42.624a11.265 11.265 0 01-.064 1.344 4.434 4.434 0 01-.2.9 1.112 1.112 0 01-.348.5.837.837 0 01-.485.147H96.009a4.087 4.087 0 01-1.017-.111 1.34 1.34 0 01-.7-.414 1.96 1.96 0 01-.394-.9 7.853 7.853 0 01-.119-1.537 12.07 12.07 0 01.082-1.528 4.093 4.093 0 01.293-1.132 5.667 5.667 0 01.55-.967 8.885 8.885 0 01.879-1.04l6.017-6.462a31.337 31.337 0 002.9-3.443 19.957 19.957 0 001.722-2.835 10.7 10.7 0 00.842-2.357 9.721 9.721 0 00.229-2.053 4.929 4.929 0 00-.284-1.685 3.922 3.922 0 00-.833-1.381 3.822 3.822 0 00-1.383-.93 5.232 5.232 0 00-1.96-.331 8.991 8.991 0 00-2.8.405 13.087 13.087 0 00-2.143.9c-.623.341-1.136.644-1.548.921a1.922 1.922 0 01-.962.423.594.594 0 01-.421-.166 1.113 1.113 0 01-.284-.534 7.449 7.449 0 01-.174-1.022 14.853 14.853 0 01-.064-1.546c0-.414.009-.764.037-1.049a4.739 4.739 0 01.128-.727 1.916 1.916 0 01.211-.543 3.4 3.4 0 01.467-.552 6.916 6.916 0 011.236-.819 14.318 14.318 0 012.216-.976 21.993 21.993 0 012.9-.8 16.692 16.692 0 013.3-.322 14.734 14.734 0 014.744.69 9.466 9.466 0 013.37 1.915 7.655 7.655 0 012 2.909 9.851 9.851 0 01.659 3.627 17.66 17.66 0 01-.321 3.342 13.046 13.046 0 01-1.346 3.553 28.224 28.224 0 01-2.876 4.207 67.911 67.911 0 01-4.918 5.358l-4.057 4.17h13.682a.8.8 0 01.495.166 1.17 1.17 0 01.394.5 3.039 3.039 0 01.238.884 9.045 9.045 0 01.082 1.307z" transform="translate(-93.062 -9.278)"/><g id="Сгруппировать_99"><path id="Контур_78" d="M108.437 31.932a3.69 3.69 0 00-.3-1.094 1.868 1.868 0 00-.628-.772 1.525 1.525 0 00-.906-.3H94.621l2.861-2.939a68.912 68.912 0 004.968-5.413 28.992 28.992 0 002.95-4.314 13.666 13.666 0 001.419-3.757 18.458 18.458 0 00.334-3.479 10.625 10.625 0 00-.709-3.891 8.425 8.425 0 00-2.183-3.179 10.224 10.224 0 00-3.624-2.066A15.544 15.544 0 0095.662 0a17.5 17.5 0 00-3.443.337 22.863 22.863 0 00-3 .827A14.95 14.95 0 0086.9 2.189a7.435 7.435 0 00-1.375.919l-.025.022a4.041 4.041 0 00-.568.68l-.01.017a2.619 2.619 0 00-.289.738 5.431 5.431 0 00-.145.829c-.028.287-.04.632-.04 1.119a15.541 15.541 0 00.068 1.623 8.157 8.157 0 00.192 1.121l.008.03a1.761 1.761 0 00.5.869 1.315 1.315 0 00.9.347 2.485 2.485 0 001.364-.547c.386-.258.873-.547 1.486-.883a12.432 12.432 0 012.026-.852 8.323 8.323 0 012.581-.37 4.566 4.566 0 011.688.277 3.113 3.113 0 011.13.753 3.221 3.221 0 01.684 1.135 4.233 4.233 0 01.241 1.439 9 9 0 01-.213 1.9 10.053 10.053 0 01-.788 2.2.719.719 0 101.293.629 11.492 11.492 0 00.9-2.517 10.439 10.439 0 00.246-2.207 5.667 5.667 0 00-.325-1.924 4.65 4.65 0 00-.995-1.636 4.522 4.522 0 00-1.643-1.11 5.976 5.976 0 00-2.227-.383 9.739 9.739 0 00-3.026.441 13.86 13.86 0 00-2.264.954c-.656.359-1.181.671-1.6.954l-.009.006a2.134 2.134 0 01-.51.283 1.2 1.2 0 01-.057-.155 6.768 6.768 0 01-.153-.909 14.124 14.124 0 01-.06-1.469c0-.432.011-.744.033-.978a4 4 0 01.109-.617l.005-.022a1.212 1.212 0 01.124-.328 2.725 2.725 0 01.35-.405 6.237 6.237 0 011.092-.712 13.561 13.561 0 012.102-.925 21.43 21.43 0 012.8-.773 16.056 16.056 0 013.157-.308 14.131 14.131 0 014.514.652 8.805 8.805 0 013.12 1.766 6.9 6.9 0 011.816 2.638 9.181 9.181 0 01.61 3.363 16.99 16.99 0 01-.307 3.2 12.248 12.248 0 01-1.274 3.352 27.58 27.58 0 01-2.8 4.1 67.549 67.549 0 01-4.866 5.3l-.008.008-4.062 4.165a.722.722 0 00.514 1.227H106.6a.088.088 0 01.064.021l.041.029a.518.518 0 01.137.2l.005.01a2.436 2.436 0 01.17.668 8.31 8.31 0 01.074 1.2 10.54 10.54 0 01-.059 1.254 3.787 3.787 0 01-.162.738.55.55 0 01-.094.163.141.141 0 01-.066.013H86.73a3.413 3.413 0 01-.837-.087.637.637 0 01-.334-.189 1.31 1.31 0 01-.233-.576 7.228 7.228 0 01-.1-1.39 11.467 11.467 0 01.076-1.435 3.378 3.378 0 01.237-.932 4.964 4.964 0 01.478-.84 8.18 8.18 0 01.809-.956l.01-.011 6.016-6.46c.306-.322.6-.637.87-.938a.724.724 0 00-.05-1.02.716.716 0 00-1.015.05c-.263.292-.548.6-.847.912l-.005.006-6.014 6.457a9.6 9.6 0 00-.947 1.123 6.42 6.42 0 00-.619 1.09 4.783 4.783 0 00-.349 1.332 12.689 12.689 0 00-.088 1.621 8.478 8.478 0 00.134 1.685 2.651 2.651 0 00.553 1.226 2.066 2.066 0 001.06.641 4.815 4.815 0 001.2.133h19.975a1.561 1.561 0 00.893-.274l.018-.013a1.813 1.813 0 00.59-.811l.012-.032a5.2 5.2 0 00.236-1.049 11.91 11.91 0 00.07-1.434 9.753 9.753 0 00-.09-1.415z" class="cls-3" transform="translate(-83.786)"/><path id="Контур_79" d="M234.559 249.783a.722.722 0 00-.722-.722.722.722 0 10.722.722z" class="cls-3" transform="translate(-222.391 -231.083)"/></g></g></svg>