<svg data-name="Сгруппировать 102" xmlns="http://www.w3.org/2000/svg" width="42.52" height="46.694"><defs><linearGradient id="a" x1="-167.178" y1="-97.549" x2="-166.521" y2="-98.494" gradientUnits="objectBoundingBox"><stop offset="0" stop-color="#0bf"/><stop offset="1" stop-color="#3a5aff"/></linearGradient><linearGradient id="b" x1=".139" y1=".114" x2=".868" y2=".934" gradientUnits="objectBoundingBox"><stop offset="0" stop-color="#ff3eff"/><stop offset="1" stop-color="#2759ff"/></linearGradient><linearGradient id="c" x1="-19.894" y1="-80.719" x2="-19.2" y2="-80.025" gradientUnits="objectBoundingBox"><stop offset="0" stop-color="#e2e1e6"/><stop offset=".845" stop-color="#fff"/></linearGradient><linearGradient id="d" x1="-55.409" y1="-43.389" x2="-54.409" y2="-43.389" gradientUnits="objectBoundingBox"><stop offset="0" stop-color="#fff"/><stop offset="1" stop-color="#e6e6e6"/></linearGradient></defs><g data-name="Сгруппировать 99"><path data-name="Контур 513" d="M832.056 2013.394h-13.817v10.6l13.816-10.6z" transform="translate(-796.98 -1977.299)" fill="url(#a)"/><rect data-name="Прямоугольник 14" width="41.732" height="41.732" rx="20.866" fill="url(#b)"/><g data-name="Сгруппировать 98" transform="translate(.889 .796)"><g data-name="Сгруппировать 97" transform="translate(4.216 4.216)" style="mix-blend-mode:multiply;isolation:isolate"><circle data-name="Эллипс 126" cx="15.897" cy="15.897" r="15.897" transform="translate(5.511 5.511)" fill="#fcfcfc" opacity=".02"/><circle data-name="Эллипс 127" cx="15.897" cy="15.897" r="15.897" transform="translate(5.4 5.4)" fill="#f8f8f9" opacity=".039"/><circle data-name="Эллипс 128" cx="15.897" cy="15.897" r="15.897" transform="translate(5.29 5.29)" fill="#f5f5f6" opacity=".059"/><circle data-name="Эллипс 129" cx="15.897" cy="15.897" r="15.897" transform="translate(5.18 5.18)" fill="#f2f2f3" opacity=".078"/><circle data-name="Эллипс 130" cx="15.897" cy="15.897" r="15.897" transform="translate(5.07 5.07)" fill="#eeeff0" opacity=".098"/><circle data-name="Эллипс 131" cx="15.897" cy="15.897" r="15.897" transform="translate(4.96 4.96)" fill="#ebebee" opacity=".118"/><circle data-name="Эллипс 132" cx="15.897" cy="15.897" r="15.897" transform="translate(4.849 4.849)" fill="#e7e8eb" opacity=".137"/><circle data-name="Эллипс 133" cx="15.897" cy="15.897" r="15.897" transform="translate(4.739 4.739)" fill="#e4e5e8" opacity=".157"/><circle data-name="Эллипс 134" cx="15.897" cy="15.897" r="15.897" transform="translate(4.629 4.629)" fill="#e1e1e5" opacity=".176"/><circle data-name="Эллипс 135" cx="15.897" cy="15.897" r="15.897" transform="translate(4.519 4.519)" fill="#dddee2" opacity=".196"/><circle data-name="Эллипс 136" cx="15.897" cy="15.897" r="15.897" transform="translate(4.408 4.409)" fill="#dadbdf" opacity=".216"/><circle data-name="Эллипс 137" cx="15.897" cy="15.897" r="15.897" transform="translate(4.298 4.298)" fill="#d7d7dc" opacity=".235"/><circle data-name="Эллипс 138" cx="15.897" cy="15.897" r="15.897" transform="translate(4.188 4.188)" fill="#d3d4d9" opacity=".255"/><circle data-name="Эллипс 139" cx="15.897" cy="15.897" r="15.897" transform="translate(4.078 4.078)" fill="#d0d1d6" opacity=".275"/><circle data-name="Эллипс 140" cx="15.897" cy="15.897" r="15.897" transform="translate(3.968 3.968)" fill="#ccced3" opacity=".294"/><circle data-name="Эллипс 141" cx="15.897" cy="15.897" r="15.897" transform="translate(3.857 3.857)" fill="#c9cad1" opacity=".314"/><circle data-name="Эллипс 142" cx="15.897" cy="15.897" r="15.897" transform="translate(3.747 3.747)" fill="#c6c7ce" opacity=".333"/><circle data-name="Эллипс 143" cx="15.897" cy="15.897" r="15.897" transform="translate(3.637 3.637)" fill="#c2c4cb" opacity=".353"/><circle data-name="Эллипс 144" cx="15.897" cy="15.897" r="15.897" transform="translate(3.527 3.527)" fill="#bfc0c8" opacity=".373"/><circle data-name="Эллипс 145" cx="15.897" cy="15.897" r="15.897" transform="translate(3.417 3.417)" fill="#bcbdc5" opacity=".392"/><circle data-name="Эллипс 146" cx="15.897" cy="15.897" r="15.897" transform="translate(3.306 3.306)" fill="#b8bac2" opacity=".412"/><circle data-name="Эллипс 147" cx="15.897" cy="15.897" r="15.897" transform="translate(3.196 3.196)" fill="#b5b7bf" opacity=".431"/><circle data-name="Эллипс 148" cx="15.897" cy="15.897" r="15.897" transform="translate(3.086 3.086)" fill="#b1b3bc" opacity=".451"/><circle data-name="Эллипс 149" cx="15.897" cy="15.897" r="15.897" transform="translate(2.976 2.976)" fill="#aeb0b9" opacity=".471"/><circle data-name="Эллипс 150" cx="15.897" cy="15.897" r="15.897" transform="translate(2.865 2.866)" fill="#abadb6" opacity=".49"/><circle data-name="Эллипс 151" cx="15.897" cy="15.897" r="15.897" transform="translate(2.755 2.755)" fill="#a7a9b4" opacity=".51"/><circle data-name="Эллипс 152" cx="15.897" cy="15.897" r="15.897" transform="translate(2.645 2.645)" fill="#a4a6b1" opacity=".529"/><circle data-name="Эллипс 153" cx="15.897" cy="15.897" r="15.897" transform="translate(2.535 2.535)" fill="#a1a3ae" opacity=".549"/><circle data-name="Эллипс 154" cx="15.897" cy="15.897" r="15.897" transform="translate(2.425 2.425)" fill="#9d9fab" opacity=".569"/><circle data-name="Эллипс 155" cx="15.897" cy="15.897" r="15.897" transform="translate(2.314 2.314)" fill="#9a9ca8" opacity=".588"/><circle data-name="Эллипс 156" cx="15.897" cy="15.897" r="15.897" transform="translate(2.204 2.204)" fill="#9699a5" opacity=".608"/><circle data-name="Эллипс 157" cx="15.897" cy="15.897" r="15.897" transform="translate(2.094 2.094)" fill="#9396a2" opacity=".627"/><circle data-name="Эллипс 158" cx="15.897" cy="15.897" r="15.897" transform="translate(1.984 1.984)" fill="#90929f" opacity=".647"/><circle data-name="Эллипс 159" cx="15.897" cy="15.897" r="15.897" transform="translate(1.874 1.874)" fill="#8c8f9c" opacity=".667"/><circle data-name="Эллипс 160" cx="15.897" cy="15.897" r="15.897" transform="translate(1.763 1.763)" fill="#898c99" opacity=".686"/><circle data-name="Эллипс 161" cx="15.897" cy="15.897" r="15.897" transform="translate(1.653 1.653)" fill="#868897" opacity=".706"/><circle data-name="Эллипс 162" cx="15.897" cy="15.897" r="15.897" transform="translate(1.543 1.543)" fill="#828594" opacity=".725"/><circle data-name="Эллипс 163" cx="15.897" cy="15.897" r="15.897" transform="translate(1.433 1.433)" fill="#7f8291" opacity=".745"/><circle data-name="Эллипс 164" cx="15.897" cy="15.897" r="15.897" transform="translate(1.323 1.323)" fill="#7b7f8e" opacity=".765"/><circle data-name="Эллипс 165" cx="15.897" cy="15.897" r="15.897" transform="translate(1.212 1.212)" fill="#787b8b" opacity=".784"/><circle data-name="Эллипс 166" cx="15.897" cy="15.897" r="15.897" transform="translate(1.102 1.102)" fill="#757888" opacity=".804"/><circle data-name="Эллипс 167" cx="15.897" cy="15.897" r="15.897" transform="translate(.992 .992)" fill="#717585" opacity=".824"/><circle data-name="Эллипс 168" cx="15.897" cy="15.897" r="15.897" transform="translate(.882 .882)" fill="#6e7182" opacity=".843"/><circle data-name="Эллипс 169" cx="15.897" cy="15.897" r="15.897" transform="translate(.771 .771)" fill="#6b6e7f" opacity=".863"/><circle data-name="Эллипс 170" cx="15.897" cy="15.897" r="15.897" transform="translate(.661 .661)" fill="#676b7c" opacity=".882"/><circle data-name="Эллипс 171" cx="15.897" cy="15.897" r="15.897" transform="translate(.551 .551)" fill="#64677a" opacity=".902"/><circle data-name="Эллипс 172" cx="15.897" cy="15.897" r="15.897" transform="translate(.441 .441)" fill="#606477" opacity=".922"/><circle data-name="Эллипс 173" cx="15.897" cy="15.897" r="15.897" transform="translate(.331 .331)" fill="#5d6174" opacity=".941"/><circle data-name="Эллипс 174" cx="15.897" cy="15.897" r="15.897" transform="translate(.22 .22)" fill="#5a5e71" opacity=".961"/><circle data-name="Эллипс 175" cx="15.897" cy="15.897" r="15.897" transform="translate(.11 .11)" fill="#565a6e" opacity=".98"/><circle data-name="Эллипс 176" cx="15.897" cy="15.897" r="15.897" fill="#53576b"/></g><circle data-name="Эллипс 177" cx="16.606" cy="16.606" r="16.606" transform="rotate(-13.34 32.727 3.842)" fill="url(#c)"/><path data-name="Контур 514" d="M817.846 2014.949a16.876 16.876 0 1116.876-16.876 16.9 16.9 0 01-16.876 16.876zm0-33.213a16.337 16.337 0 1016.336 16.337 16.356 16.356 0 00-16.336-16.337z" transform="translate(-797.868 -1978.095)" fill="url(#d)"/></g></g><g data-name="Сгруппировать 101"><g data-name="Сгруппировать 100"><path data-name="Контур 515" d="M19.585 19.057a.354.354 0 01.329-.328c1.477 0 3 .041 3-1.888v-2.833c0-1.149-1.067-1.56-2.052-1.56-2.175 0-2.094 1.4-2.052 3a.353.353 0 01-.329.328h-3.53a.353.353 0 01-.328-.328V13.97c0-3.119 3.694-4.638 6.321-4.638 4.146 0 6.157 2.093 6.157 6.157 0 2.545 0 3.284-1.97 4.31a.329.329 0 00-.041.574c2.093 1.109 2.011 2.176 2.011 4.721 0 4.31-1.683 6.526-6.28 6.526-4.556 0-6.116-1.97-6.2-6.157a.353.353 0 01.328-.328h3.53a.353.353 0 01.329.328c-.042 1.56-.083 3 2.052 3 1.108 0 2.052-.575 2.052-1.765v-3.12c0-2.052-1.354-2.052-3-2.052a.354.354 0 01-.329-.329z" fill="#2b454e"/></g></g></svg>