<svg xmlns="http://www.w3.org/2000/svg" width="18.82" height="18.82"><g data-name="Сгруппировать 353"><g data-name="pause (1)" fill="#2b454e"><path data-name="Контур 2195" d="M16.064 2.756a9.41 9.41 0 100 13.308 9.41 9.41 0 000-13.308zm-.429 12.878a8.8 8.8 0 110-12.449 8.8 8.8 0 010 12.45z"/><path data-name="Контур 2196" d="M9.41 1.518a7.892 7.892 0 107.893 7.892A7.9 7.9 0 009.41 1.518zm0 15.177a7.285 7.285 0 117.285-7.285 7.293 7.293 0 01-7.285 7.286z"/><path data-name="Контур 2197" d="M9.41 2.732a6.68 6.68 0 00-6.174 4.134.303.303 0 00.561.231A6.073 6.073 0 019.41 3.339a.303.303 0 000-.607z"/><path data-name="Контур 2198" d="M8.196 6.374H6.981a.608.608 0 00-.607.607v4.861a.608.608 0 00.607.607h1.215a.608.608 0 00.607-.607V6.981a.608.608 0 00-.607-.607zm0 5.464H6.981V6.981h1.215v4.861z"/><path data-name="Контур 2199" d="M11.838 6.374h-1.214a.608.608 0 00-.607.607v4.861a.608.608 0 00.607.607h1.214a.608.608 0 00.607-.607V6.981a.608.608 0 00-.607-.607zm0 5.464h-1.214V6.981h1.214v4.861z"/></g></g></svg>