<svg xmlns="http://www.w3.org/2000/svg" width="21.44" height="21.442"><g data-name="Сгруппировать 45"><g data-name="Сгруппировать 44" fill="#2b454e"><path data-name="Контур 24" d="M19.196 15.942a.837.837 0 00-1.172.172c-.152.2-.314.4-.483.6a.838.838 0 101.255 1.109c.2-.226.392-.463.572-.7a.838.838 0 00-.172-1.181z"/><path data-name="Контур 25" d="M20.597 12.015a.838.838 0 00-1 .64c-.054.249-.119.5-.195.74a.838.838 0 101.6.494c.089-.288.167-.584.231-.879a.838.838 0 00-.636-.995z"/><path data-name="Контур 26" d="M15.162 18.625c-.222.124-.453.24-.684.345a.838.838 0 10.689 1.527c.275-.124.548-.262.811-.409a.838.838 0 10-.817-1.463z"/><path data-name="Контур 27" d="M9.883 4.021v6.354l-3.071 3.071a.838.838 0 101.184 1.185l3.316-3.317a.838.838 0 00.245-.592v-6.7a.838.838 0 10-1.675 0z"/><path data-name="Контур 28" d="M20.6 1.8a.838.838 0 00-.837.838v2.326a10.721 10.721 0 10-9.043 16.478h.042c.3 0 .607-.013.906-.038a.838.838 0 00-.14-1.669 9.305 9.305 0 01-.766.032h-.042a9.046 9.046 0 117.786-13.653H16.2a.838.838 0 000 1.675h2.56a2.664 2.664 0 001.393-.389.836.836 0 00.075-.048 2.68 2.68 0 001.211-2.24V2.638A.838.838 0 0020.6 1.8z"/></g></g></svg>