<svg xmlns="http://www.w3.org/2000/svg" width="24.947" height="23.947"><path d="M24.9 13.126a9.834 9.834 0 00-7.647-8.623V3.264a1.657 1.657 0 00-.4-3.264h-3.51a1.657 1.657 0 00-.4 3.264v1.241a9.784 9.784 0 00-4.8 2.639 9.889 9.889 0 00-.827.939H3.809a.487.487 0 100 .974h2.846a9.768 9.768 0 00-.865 1.873H.487a.487.487 0 100 .974h5.028a9.907 9.907 0 00-.242 1.873H3.118a.487.487 0 000 .974h2.17a9.892 9.892 0 00.3 1.873H2.436a.487.487 0 000 .974H5.9a9.841 9.841 0 008.228 6.3q.483.048.966.048a9.866 9.866 0 005.371-1.587.487.487 0 00-.532-.817 8.868 8.868 0 112.612-2.615.487.487 0 10.817.531 9.874 9.874 0 001.538-6.332zM12.661 1.657a.683.683 0 01.682-.682h3.508a.682.682 0 010 1.364h-3.508a.683.683 0 01-.682-.682zm1.257 2.681V3.313h2.359v1.025a9.928 9.928 0 00-2.359 0z"/><path d="M21.72 20.232a.487.487 0 10.344.143.49.49 0 00-.344-.143zM15.105 6.546a7.559 7.559 0 107.559 7.559 7.567 7.567 0 00-7.559-7.559zm0 14.143a6.584 6.584 0 116.584-6.584 6.592 6.592 0 01-6.584 6.584z"/><path d="M18.188 10.334l-2.413 2.413a1.51 1.51 0 00-1.338 0l-1.08-1.08a.487.487 0 10-.689.689l1.08 1.08a1.514 1.514 0 102.716 0l2.342-2.342.071-.071a.487.487 0 10-.689-.689zm-3.082 4.311a.54.54 0 11.54-.54.54.54 0 01-.541.54zm5.209-1.022h-.451a.487.487 0 100 .974h.451a.487.487 0 000-.974zm-9.968-.011h-.451a.487.487 0 100 .974h.451a.487.487 0 100-.974zm4.763-3.778a.487.487 0 00.487-.487v-.451a.487.487 0 00-.975 0v.451a.487.487 0 00.488.487zm-.012 8.542a.487.487 0 00-.487.487v.451a.487.487 0 10.974 0v-.451a.487.487 0 00-.487-.487zM.487 16.624a.487.487 0 10.344.832.487.487 0 00-.344-.832z"/></svg>