<svg xmlns="http://www.w3.org/2000/svg" width="20.142" height="21.442"><g data-name="Сгруппировать 45"><g data-name="Сгруппировать 44"><path data-name="Контур 24" d="M18.034 15.942a.756.756 0 00-1.1.172c-.143.2-.3.4-.454.6a.876.876 0 00.068 1.182.757.757 0 00.521.21.765.765 0 00.59-.283c.188-.226.368-.463.537-.7a.874.874 0 00-.162-1.181z"/><path data-name="Контур 25" d="M19.349 12.015a.788.788 0 00-.936.64c-.051.249-.112.5-.183.74a.849.849 0 00.52 1.048.743.743 0 00.233.038.794.794 0 00.752-.591c.084-.288.157-.584.217-.879a.839.839 0 00-.603-.996z"/><path data-name="Контур 26" d="M14.247 18.625c-.209.124-.425.24-.643.345a.86.86 0 00-.393 1.108.786.786 0 00.717.493.744.744 0 00.323-.074c.258-.124.515-.262.762-.409a.867.867 0 00.3-1.14.762.762 0 00-1.066-.323z"/><path data-name="Контур 27" d="M9.284 4.021v6.354l-2.885 3.071a.876.876 0 000 1.185.754.754 0 001.113 0l3.116-3.317a.866.866 0 00.23-.592v-6.7a.788.788 0 10-1.574 0z"/><path data-name="Контур 28" d="M19.356 1.8a.813.813 0 00-.787.838v2.326A9.965 9.965 0 0010.071 0 9.708 9.708 0 002.95 3.14 11.009 11.009 0 000 10.721 11.009 11.009 0 002.95 18.3a9.708 9.708 0 007.121 3.14h.039c.284 0 .57-.013.851-.038a.824.824 0 00.718-.9.8.8 0 00-.85-.765c-.238.021-.48.032-.72.032h-.039a8.8 8.8 0 01-8.5-9.046 8.8 8.8 0 018.5-9.046 8.431 8.431 0 017.315 4.439h-2.162a.839.839 0 000 1.675h2.4a2.391 2.391 0 001.311-.391.782.782 0 00.066-.05 2.727 2.727 0 001.138-2.24V2.638a.813.813 0 00-.782-.838z"/></g></g></svg>