<svg xmlns="http://www.w3.org/2000/svg" width="37" height="18.5"><g data-name="sedan (1)"><g data-name="Сгруппировать 138"><g data-name="Сгруппировать 137"><path data-name="Контур 111" d="M30.063 10.792a3.854 3.854 0 11-3.855 3.858 3.86 3.86 0 013.855-3.858zm0 6.167a2.313 2.313 0 10-2.313-2.309 2.315 2.315 0 002.313 2.308z" fill="#2b454e"/></g></g><g data-name="Сгруппировать 140"><g data-name="Сгруппировать 139"><path data-name="Контур 112" d="M6.938 10.792a3.854 3.854 0 11-3.855 3.858 3.86 3.86 0 013.855-3.858zm0 6.167a2.313 2.313 0 10-2.313-2.309 2.315 2.315 0 002.313 2.308z" fill="#2b454e"/></g></g><g data-name="Сгруппировать 142"><g data-name="Сгруппировать 141"><path data-name="Контур 113" d="M4.625 6.167h1.3a2.111 2.111 0 001.317-.462L13.316.846a3.875 3.875 0 012.408-.845h11.147a3.846 3.846 0 013.207 1.716l1.312 1.97a2.111 2.111 0 001.756.939A3.86 3.86 0 0137 8.479v3.083a3.86 3.86 0 01-3.854 3.854.771.771 0 110-1.542 2.315 2.315 0 002.313-2.312V8.479a2.315 2.315 0 00-2.312-2.312 3.644 3.644 0 01-3.039-1.626L28.8 2.571a2.31 2.31 0 00-1.924-1.03H15.728a2.326 2.326 0 00-1.446.507L8.208 6.907a3.655 3.655 0 01-2.28.8h-1.3c-2.262 0-3.083 2.3-3.083 3.854a2.238 2.238 0 002.313 2.313.771.771 0 110 1.542A3.77 3.77 0 010 11.563C0 8.95 1.62 6.167 4.625 6.167z" fill="#2b454e"/></g></g><g data-name="Сгруппировать 144"><g data-name="Сгруппировать 143"><path data-name="Контур 114" d="M10.021 13.875h16.958a.771.771 0 110 1.542H10.021a.771.771 0 110-1.542z" fill="#2b454e"/></g></g><g data-name="Сгруппировать 146"><g data-name="Сгруппировать 145"><path data-name="Контур 115" d="M11.563 6.167h6.938V3.85a.771.771 0 111.542 0v3.083a.771.771 0 01-.771.771h-7.709a.771.771 0 010-1.542z" fill="#2b454e"/></g></g><g data-name="Сгруппировать 148"><g data-name="Сгруппировать 147"><path data-name="Контур 116" d="M22.354 6.167h4.921L26.29 4.2a.771.771 0 011.38-.689l1.542 3.083a.77.77 0 01-.689 1.115h-6.169a.771.771 0 010-1.542z" fill="#2b454e"/></g></g><g data-name="Сгруппировать 150"><g data-name="Сгруппировать 149"><path data-name="Контур 117" d="M16.188 9.25h1.542a.771.771 0 110 1.542h-1.542a.771.771 0 110-1.542z" fill="#2b454e"/></g></g></g></svg>