<svg xmlns="http://www.w3.org/2000/svg" width="23" height="16.439"><g data-name="car (3)" fill="#2b454e"><path data-name="Контур 2187" d="M22 4.734h-1.436C20.321 2.478 19.031 0 16.816 0H5.83a3.354 3.354 0 00-2.816 1.829 7.075 7.075 0 00-.932 2.905H1a1 1 0 00-1 1v1.159a1 1 0 001 1h.242a3.535 3.535 0 00-.332 1.5v2.846a.881.881 0 00-.395.734v.612a.882.882 0 00.815.878v.972a1 1 0 001 1h2.952a1 1 0 001-1v-.969h2.329a.876.876 0 00.58.22h4.263a.876.876 0 00.58-.22h2.326v.969a1 1 0 001 1h2.951a1 1 0 001-1v-.972a.882.882 0 00.815-.878v-.612a.881.881 0 00-.395-.734v-1.127a.337.337 0 00-.674 0v.98h-7.023a.885.885 0 00-.58-.22H9.192a.886.886 0 00-.58.22H1.58v-2.71a2.894 2.894 0 012.883-2.884H5.9l1.326 2.164a2.066 2.066 0 001.751.98h4.693a2.066 2.066 0 001.751-.98l1.326-2.164h1.436a2.893 2.893 0 012.883 2.883v.158a.337.337 0 00.674 0 3.65 3.65 0 00-.332-1.656H22a1 1 0 001-1V5.729a1 1 0 00-1-1zM1 7.21a.322.322 0 01-.322-.322V5.729A.322.322 0 011 5.408h1.04v1.381a3.585 3.585 0 00-.383.422zm4.616 8.225a.33.33 0 01-.33.33H2.331a.33.33 0 01-.33-.33v-.969h3.611zm15.033 0a.33.33 0 01-.33.33h-2.955a.33.33 0 01-.33-.33v-.969h3.611zm.608-2.669a.2.2 0 01.035 0h.014a.21.21 0 01.159.2v.612a.21.21 0 01-.207.207h-6.923v-1.019zm-7.8-.22a.211.211 0 01.207.207v1.052a.211.211 0 01-.207.207H9.192a.211.211 0 01-.207-.207v-1.052a.211.211 0 01.207-.207h4.263zm-5.144.22v1.027h-6.92a.21.21 0 01-.207-.207v-.612a.21.21 0 01.158-.2h.014a.2.2 0 01.035 0h6.918zM3.839 5.88v-.225a5.628 5.628 0 01.719-2.886 1.657 1.657 0 011.272-.962h4.884a.337.337 0 000-.674H5.83a2.279 2.279 0 00-1.848 1.286 6.306 6.306 0 00-.817 3.236v.416a3.538 3.538 0 00-.46.22v-.636a6.812 6.812 0 01.885-3.476A2.713 2.713 0 015.83.673h10.986a2.713 2.713 0 012.24 1.506 6.8 6.8 0 01.884 3.475v.636a3.54 3.54 0 00-.46-.22v-.415a6.305 6.305 0 00-.817-3.236 2.279 2.279 0 00-1.848-1.285h-4.53a.337.337 0 000 .674h4.53a1.657 1.657 0 011.272.962 5.628 5.628 0 01.718 2.885v.225a3.671 3.671 0 00-.6-.055 2.834 2.834 0 00-5.667 0H4.463a3.705 3.705 0 00-.623.055zm11.007 2.43a1.388 1.388 0 01-1.176.659H8.976A1.388 1.388 0 017.8 8.31L6.689 6.499h9.268zm-.511-2.486a1.041 1.041 0 012.082 0zm2.756 0a1.715 1.715 0 00-3.43 0h-.445a2.16 2.16 0 014.32 0zm5.235 1.064a.322.322 0 01-.322.322H21a3.588 3.588 0 00-.383-.422v-1.38H22a.322.322 0 01.322.322v1.159z"/><path data-name="Контур 2188" d="M8.659 10.234a.337.337 0 000 .674h5.328a.337.337 0 000-.674z"/><path data-name="Контур 2189" d="M18.5 7.742a1.65 1.65 0 101.65 1.65 1.652 1.652 0 00-1.65-1.65zm0 2.627a.976.976 0 11.976-.976.977.977 0 01-.976.976z"/><path data-name="Контур 2190" d="M2.494 9.392a1.65 1.65 0 101.65-1.65 1.652 1.652 0 00-1.65 1.65zm2.627 0a.976.976 0 11-.976-.976.977.977 0 01.976.976z"/></g></svg>