<svg xmlns="http://www.w3.org/2000/svg" width="14.656" height="14.671"><path data-name="Контур 58" d="M6.662 11.184a.286.286 0 10.405 0 .286.286 0 00-.405 0zm0 0" fill="#fff"/><path data-name="Контур 59" d="M14.01 10.687l-2.176-1.85a.294.294 0 00-.032-.023 1.424 1.424 0 00-1.782.2L8.834 10.2a.286.286 0 01-.312.062 7.773 7.773 0 01-3.27-2.479 5.768 5.768 0 01-.892-1.586.285.285 0 00-.017-.059.285.285 0 01.062-.312l1.186-1.191a1.424 1.424 0 00.2-1.782l-.009-.014L4.206.656A1.433 1.433 0 001.989.42l-.238.237-.852.849C-.108 2.517-.274 4.037.424 5.9a14.581 14.581 0 003.375 4.92 14.65 14.65 0 005.05 3.435c1.628.595 3.361.668 4.587-.558l.8-.8a1.433 1.433 0 00-.226-2.21zm-2.531-1.4l2.174 1.848a.282.282 0 00.032.023.86.86 0 01.146 1.333l-.059.059-3.708-2.774.362-.362a.854.854 0 011.054-.127zM3.727.971l.009.014 1.57 2.182a.854.854 0 01-.121 1.063l-.35.351L2.327.892l.072-.067a.86.86 0 011.328.146zm5.319 12.745a14.072 14.072 0 01-4.844-3.3A14 14 0 01.961 5.7c-.428-1.143-.715-2.727.347-3.789l.606-.611 2.508 3.693-.423.423a.856.856 0 00-.2.912 6.364 6.364 0 00.926 1.709 8.4 8.4 0 003.574 2.75.857.857 0 00.94-.187l.415-.415 3.707 2.776-.331.331c-1.138 1.139-2.8.859-3.985.425zm0 0" fill="#fff"/><path data-name="Контур 60" d="M6.124 10.5c-.3-.265-.826-.722-1.1-1.005A18.841 18.841 0 013.217 7.35a.287.287 0 00-.471.326 19.406 19.406 0 001.866 2.218c.291.3.819.76 1.135 1.037a.287.287 0 10.378-.431zm0 0" fill="#fff"/></svg>