<svg xmlns="http://www.w3.org/2000/svg" xmlns:xlink="http://www.w3.org/1999/xlink" width="682.657" height="187.791"><defs><linearGradient id="b" x1="-2.071" x2="9.569" xlink:href="#a"/><linearGradient id="i" x1="-13.305" x2="2.41" xlink:href="#a"/><linearGradient id="c" x1="-3.674" x2="9.782" xlink:href="#a"/><linearGradient id="d" x1="-3.178" x2="5.657" xlink:href="#a"/><linearGradient id="e" x1="-7.157" x2="7.485" xlink:href="#a"/><linearGradient id="f" x1="-7.672" x2="5.784" xlink:href="#a"/><linearGradient id="g" x1="-8.317" x2="4.345" xlink:href="#a"/><linearGradient id="h" x1="-9.519" x2="3.143" xlink:href="#a"/><linearGradient id="a" x1="-1.055" y1=".5" x2="10.709" y2=".5" gradientUnits="objectBoundingBox"><stop offset="0" stop-color="#ff3eff"/><stop offset="1" stop-color="#265aff"/></linearGradient><linearGradient id="j" x1="-2.071" x2="9.569" xlink:href="#a"/><linearGradient id="k" x1="-3.674" x2="9.782" xlink:href="#a"/><linearGradient id="l" x1="-7.157" x2="7.485" xlink:href="#a"/><linearGradient id="m" x1="-7.672" x2="5.784" xlink:href="#a"/><linearGradient id="n" x1="1" x2="0" xlink:href="#a"/><linearGradient id="o" x1=".5" y1="21.77" x2=".5" y2="-20.77" xlink:href="#a"/><radialGradient id="p" cx=".5" cy=".5" r=".5" gradientUnits="objectBoundingBox"><stop offset=".005" stop-color="#45108a"/><stop offset=".112" stop-color="#54118f"/><stop offset=".319" stop-color="#7c159e"/><stop offset=".475" stop-color="#9f19ab"/><stop offset=".577" stop-color="#a31cac"/><stop offset=".687" stop-color="#b026b1"/><stop offset=".799" stop-color="#c536b9"/><stop offset=".913" stop-color="#e34dc3"/><stop offset="1" stop-color="#ff63ce"/></radialGradient></defs><g data-name="Сгруппировать 39432"><g data-name="Сгруппировать 289" opacity=".07"><path data-name="Контур 1931" d="M174.02 119.73h-25.626l-19.15 21.556V119.73h-21.832v66.608h21.833v-21.093l5.181-5.458 16 26.551h26.184L149.69 144.8z" transform="translate(-107.412 -119.73)" fill="url(#a)"/><path data-name="Контур 1932" d="M200.649 119.73l-23.868 66.608h21.37l2.5-8.789h21.74l2.59 8.789h21.74l-23.869-66.608zm4.163 43.942l6.754-23.867 7.031 23.867z" transform="translate(-104.993 -119.73)" fill="url(#b)"/><path data-name="Контур 1933" d="M283.708 119.73h-32.1v66.608h21.833v-20.722h11.009c19.149 0 27.661-9.066 27.661-23.406-.003-13.691-9.254-22.48-28.403-22.48zm-1.2 30.343h-9.066v-14.8h6.2c4.626 0 11.657.833 11.657 7.031-.006 5.734-3.707 7.769-8.794 7.769z" transform="translate(-102.384 -119.73)" fill="url(#c)"/><path data-name="Контур 1934" d="M391.049 170.8h-14.71v-51.07h-20.907v51.07h-14.709v-51.07h-20.908v66.608h92.141V119.73h-20.907z" transform="translate(-100.006 -119.73)" fill="url(#d)"/><path data-name="Контур 1935" d="M443.2 160.342h27.476V144.8H443.2v-9.529h32.472V119.73h-54.3v66.608h55.6V170.8H443.2z" transform="translate(-96.465 -119.73)" fill="url(#e)"/><path data-name="Контур 1936" d="M517.476 119.73h-32.1v66.608h21.833v-20.722h11.008c19.149 0 27.661-9.066 27.661-23.406-.002-13.691-9.253-22.48-28.402-22.48zm-1.2 30.343h-9.065v-14.8h6.2c4.626 0 11.657.833 11.657 7.031-.006 5.734-3.708 7.769-8.795 7.769z" transform="translate(-94.233 -119.73)" fill="url(#f)"/><path data-name="Контур 1937" d="M573.379 157.937l1.11-17.022V119.73h-20.907v66.608h20.444l24.054-38.207-1.11 17.022v21.185h20.907V119.73h-20.445z" transform="translate(-91.855 -119.73)" fill="url(#g)"/><path data-name="Контур 1938" d="M670.69 142.95h-20.63v-23.22h-21.832v66.608h21.832v-27.845h20.63v27.845h21.832V119.73H670.69z" transform="translate(-89.253 -119.73)" fill="url(#h)"/><path data-name="Контур 1939" d="M702.873 186.338h21.832v-51.067h29.973V119.73h-51.805z" transform="translate(-86.65 -119.73)" fill="url(#i)"/></g><g data-name="Сгруппировать 290"><path data-name="Контур 1940" d="M250.656 162.592H232.7L219.276 177.7v-15.108h-15.3v46.68h15.3V194.49l3.631-3.825 11.216 18.607h18.348l-18.871-29.11z" transform="translate(-104.045 -118.235)" fill="url(#a)"/><path data-name="Контур 1941" d="M269.319 162.592l-16.728 46.681h14.977l1.751-6.16h15.236l1.815 6.16h15.235l-16.728-46.681zm2.917 30.8l4.733-16.728 4.927 16.728z" transform="translate(-102.35 -118.235)" fill="url(#j)"/><path data-name="Контур 1942" d="M327.527 162.592h-22.5v46.681h15.3v-14.524h7.715c13.42 0 19.385-6.353 19.385-16.4.004-9.597-6.48-15.757-19.9-15.757zm-.842 21.265h-6.354v-10.373h4.343c3.242 0 8.169.584 8.169 4.928 0 4.019-2.593 5.445-6.158 5.445z" transform="translate(-100.521 -118.235)" fill="url(#k)"/><path data-name="Контур 1943" d="M402.754 198.38h-10.309v-35.788h-14.652v35.788h-10.309v-35.788h-14.652v46.68h64.574v-46.68h-14.652z" transform="translate(-98.855 -118.235)" fill="url(#d)"/><path data-name="Контур 1944" d="M439.3 191.054h19.256v-10.892H439.3v-6.678h22.76v-10.892H424v46.68h38.965V198.38H439.3z" transform="translate(-96.373 -118.235)" fill="url(#l)"/><path data-name="Контур 1945" d="M491.356 162.592h-22.5v46.681h15.3v-14.524h7.715c13.42 0 19.386-6.353 19.386-16.4.004-9.597-6.481-15.757-19.901-15.757zm-.842 21.265h-6.354v-10.373h4.34c3.241 0 8.169.584 8.169 4.928.004 4.019-2.59 5.445-6.155 5.445z" transform="translate(-94.809 -118.235)" fill="url(#m)"/><path data-name="Контур 1946" d="M530.534 189.368l.778-11.929v-14.847H516.66v46.68h14.327l16.858-26.772-.778 11.929v14.847h14.652v-46.68h-14.328z" transform="translate(-93.142 -118.235)" fill="url(#g)"/><path data-name="Контур 1947" d="M598.732 178.865h-14.458v-16.273h-15.3v46.68h15.3v-19.514h14.458v19.515h15.3v-46.68h-15.3z" transform="translate(-91.319 -118.235)" fill="url(#h)"/><path data-name="Контур 1948" d="M621.286 209.273h15.3v-35.789h21.006v-10.892h-36.306z" transform="translate(-89.495 -118.235)" fill="url(#i)"/></g><g data-name="Сгруппировать 291" fill="#2b454e"><path data-name="Контур 1949" d="M218.057 117.777h13.257c5.461 0 9.13 1.583 9.13 5.586a4.685 4.685 0 01-4.252 4.668c2.209.542 5.044 1.668 5.044 5.378 0 4.46-4.085 6.211-9.087 6.211h-14.092zm8.337 8.587h3.253c1.917 0 2.625-.458 2.625-1.667 0-1.459-.75-1.918-2.625-1.918h-3.253zm0 8.254h3.253c2.083 0 3.25-.208 3.25-1.834s-1.125-2-3.25-2h-3.253z"/><path data-name="Контур 1950" d="M269.339 139.621h-9.838v-30.015h14.466c8.629 0 12.8 3.96 12.8 10.13 0 6.462-3.835 10.547-12.465 10.547h-4.961zm0-16.342h4.086c2.292 0 3.96-.917 3.96-3.5 0-2.793-3.169-3.168-5.253-3.168h-2.793z"/><path data-name="Контур 1951" d="M298.526 130.658a4.209 4.209 0 004.295 4.294 3.459 3.459 0 003.252-1.918h8.3c-1.5 5.42-7 7.212-12.089 7.212-7 0-12.424-4-12.424-11.339 0-7.17 5.378-11.756 12.382-11.756 8.087 0 12.84 5.294 12.84 13.507zm7.879-4.419a3.929 3.929 0 00-3.835-3.794c-2.584 0-4.044 1.459-4.044 3.794z"/><path data-name="Контур 1952" d="M333.467 126.117a3.056 3.056 0 00-3.17-3.129c-3.252 0-3.793 3.377-3.793 5.961 0 3.294 1.25 5.462 3.793 5.462 2.251 0 3.126-1.543 3.377-3.253h8.754c-.749 6.629-6.086 9.088-12.131 9.088-7.045 0-12.464-3.96-12.464-11.339 0-7.462 5.252-11.756 12.464-11.756 5.837 0 11.339 2.5 11.964 8.963z"/><path data-name="Контур 1953" d="M369.781 117.777v21.844h-8.671v-15.507h-6.42v15.507h-8.671v-21.844z"/><path data-name="Контур 1954" d="M381.042 117.777l3.835 13.461 3.794-13.465h8.337l-7 20.385c-2.293 6.754-3.21 8.879-10.922 8.879a59.81 59.81 0 01-3.835-.167v-6c3.71 0 4.627-.208 4.627-1.542 0-.417-.125-.959-7.545-21.552z"/><path data-name="Контур 1955" d="M412.479 119.194c6.5 0 10.963 3.586 10.963 10.214 0 7.044-5.42 10.838-12.214 10.838-7.921 0-12.215-4.711-12.215-12.505 0-7.546 2.252-15.426 10.714-16.717 3.751-.584 5.711-1.126 5.919-2.252h6.045c-.917 5.462-4 6.378-8.462 7.212-4.92.959-6.962 2.127-7.5 7.171a7.413 7.413 0 016.75-3.961zm2.292 10.714c0-2.585-.625-4.711-3.668-4.711-2.669 0-3.419 2.126-3.419 4.96 0 2.168 1.085 4.253 3.419 4.253 2.668.001 3.668-2.084 3.668-4.502z"/><path data-name="Контур 1956" d="M450.959 117.777v21.844h-8.671v-15.507h-4.877v5.419c0 7.588-2.835 10.464-7.587 10.464a13.234 13.234 0 01-4.252-.5v-5.759a6.947 6.947 0 001.542.167c1.835 0 2.209-1.542 2.209-6.836v-9.3z"/><path data-name="Контур 1957" d="M463.889 129.738l7.42-11.964h8.714v21.844h-8.338v-11.544l-7.461 11.547h-8.671v-21.844h8.337z"/><path data-name="Контур 1958" d="M493.284 124.447l5.544-6.67h10.13l-8.087 8.461 9.13 13.382h-10.423l-4.669-7.754-1.625 1.626v6.128h-8.668v-21.843h8.671z"/><path data-name="Контур 1959" d="M519.092 130.658a4.209 4.209 0 004.295 4.294 3.459 3.459 0 003.252-1.918h8.3c-1.5 5.42-7 7.212-12.089 7.212-7 0-12.424-4-12.424-11.339 0-7.17 5.378-11.756 12.382-11.756 8.087 0 12.84 5.294 12.84 13.507zm7.88-4.419a3.929 3.929 0 00-3.835-3.794c-2.585 0-4.044 1.459-4.044 3.794z"/><path data-name="Контур 1960" d="M563.581 119.319l8.63-9.713h11.547l-10.963 11.3 12.131 18.718h-11.8l-7.212-11.965-2.335 2.46v9.505h-9.834v-30.018h9.838z"/><path data-name="Контур 1961" d="M595.437 117.777v3.252h.083c1.21-2.668 4.336-3.878 6.837-3.878 6.586 0 9.755 5.378 9.755 11.381 0 8.587-5.336 11.714-10.213 11.714a6.724 6.724 0 01-5.587-2.793v9.588h-8.671v-29.264zm8 10.88c0-3.46-1.5-5.169-3.794-5.169-2.084 0-3.5 2.085-3.5 5 0 3.044 1.293 5.128 3.544 5.128 2.294.001 3.753-1.957 3.753-4.959z"/><path data-name="Контур 1962" d="M624.205 125.447h4.833c6.378 0 9.5 3.418 9.5 7.128 0 4.46-3.126 7.045-9.546 7.045h-13.124v-21.843h8.337zm0 9.171h2.752c2.084 0 3.252-.333 3.252-2.043 0-1.667-1.126-2.126-3.252-2.126h-2.752zm26.429 5h-8.671v-21.841h8.675z"/><path data-name="Контур 1963" d="M665.148 117.777l3.794 12.131 3.794-12.131h9.921v21.844h-7.67v-9.088l.834-5.586h-.167l-4.669 14.674H666.9l-4.669-14.674h-.167l.834 6.087v8.587h-7.672v-21.844z"/></g><g data-name="Сгруппировать 293" fill="#2b454e"><path data-name="Контур 2029" d="M152.302 178.45a5.623 5.623 0 01-1.55 4.191 6.955 6.955 0 01-8.708 0 6.443 6.443 0 01.01-8.4 6.955 6.955 0 018.707.009 5.66 5.66 0 011.541 4.2zm-4.253 2.621a2.77 2.77 0 00.5-.993 6.047 6.047 0 00.169-1.608 6.268 6.268 0 00-.173-1.594 2.825 2.825 0 00-.48-1.028 1.7 1.7 0 00-.74-.557 2.615 2.615 0 00-.931-.162 2.722 2.722 0 00-.887.133 1.8 1.8 0 00-.745.538 2.738 2.738 0 00-.5 1.028 6 6 0 00-.188 1.641 6.338 6.338 0 00.164 1.532 2.686 2.686 0 00.48 1.041 1.819 1.819 0 00.735.547 2.726 2.726 0 001.871.014 1.645 1.645 0 00.725-.532z"/><path data-name="Контур 2030" d="M163.583 175.401h-3.437v8.439h-3.466v-8.439h-3.438v-2.342h10.34z"/><path data-name="Контур 2031" d="M182.487 183.836h-9.544v-2.5h3.015v-7.555h-3.015v-2.33a10.311 10.311 0 001.326-.082 3.479 3.479 0 001.056-.283 1.8 1.8 0 00.749-.624 1.988 1.988 0 00.288-.96h3.178v11.838h2.947z"/><path data-name="Контур 2032" d="M197.272 176.68a14.568 14.568 0 01-.326 3.233 6.073 6.073 0 01-1.018 2.339 4.446 4.446 0 01-1.823 1.407 8.09 8.09 0 01-5.483-.005 4.351 4.351 0 01-1.834-1.421 6.056 6.056 0 01-1.027-2.34 14.511 14.511 0 01-.318-3.2 14.108 14.108 0 01.327-3.238 6.247 6.247 0 011.037-2.324 4.34 4.34 0 011.843-1.412 7.025 7.025 0 012.707-.471 6.917 6.917 0 012.756.484 4.442 4.442 0 011.823 1.441 6.149 6.149 0 011.017 2.32 14.328 14.328 0 01.319 3.187zm-3.715 0a9.566 9.566 0 00-.509-3.7 1.848 1.848 0 00-3.38 0 9.643 9.643 0 00-.508 3.715 9.432 9.432 0 00.518 3.671 1.818 1.818 0 003.36 0 9.5 9.5 0 00.518-3.686z"/><path data-name="Контур 2033" d="M217.953 178.297a6.9 6.9 0 01-.409 2.429 5.336 5.336 0 01-1.068 1.8 4.663 4.663 0 01-1.564 1.133 4.6 4.6 0 01-1.87.384 5.38 5.38 0 01-1.563-.2 7.514 7.514 0 01-1.313-.552v4.5h-3.467v-14.736h3.467v1.123a8.411 8.411 0 011.625-1.028 4.426 4.426 0 011.913-.393 3.7 3.7 0 013.13 1.479 6.59 6.59 0 011.119 4.061zm-3.562.072a3.818 3.818 0 00-.538-2.278 1.987 1.987 0 00-1.7-.709 3.66 3.66 0 00-1.006.148 4.262 4.262 0 00-.986.426v5.417a2.748 2.748 0 00.737.173q.393.039.776.038a2.512 2.512 0 002.041-.8 3.684 3.684 0 00.676-2.415z"/><path data-name="Контур 2034" d="M225.312 180.024l2.46-6.969h3.555l-5.991 14.736h-3.752l1.715-4.038-4.193-10.7h3.629z"/><path data-name="Контур 2035" d="M243.048 174.758a4.361 4.361 0 011.037 1.552 5.975 5.975 0 01.385 2.272 5.374 5.374 0 01-1.59 4.07 5.95 5.95 0 01-4.3 1.523 5.308 5.308 0 01-4.422-1.816 8.619 8.619 0 01-1.445-5.437 13.718 13.718 0 01.082-1.4 12.242 12.242 0 01.322-1.744 9.761 9.761 0 01.591-1.7 4.464 4.464 0 01.983-1.364 4.963 4.963 0 012.016-1.162 13.308 13.308 0 012.756-.529q.95-.087 2.276-.144t1.949-.077v2.563l-1.161.053c-.353.016-.766.04-1.239.071l-1.133.087q-.633.048-1.219.144a4.491 4.491 0 00-1.113.347 2.357 2.357 0 00-.846.633 2.508 2.508 0 00-.413.792 5.294 5.294 0 00-.24 1.2 6.968 6.968 0 011.609-.822 5.459 5.459 0 011.847-.3 5.4 5.4 0 011.776.289 4.093 4.093 0 011.492.899zm-2.91 6.4a2.752 2.752 0 00.548-.919 4.617 4.617 0 00.2-1.543 2.633 2.633 0 00-.659-1.871 2.252 2.252 0 00-1.727-.707 5.468 5.468 0 00-1.053.1 4.387 4.387 0 00-1.159.438v.273c0 .118-.005.227-.005.323a15.57 15.57 0 00.111 2.091 4.182 4.182 0 00.418 1.361 1.93 1.93 0 00.741.784 2.112 2.112 0 001.078.273 2.483 2.483 0 00.783-.14 1.728 1.728 0 00.724-.463z"/><path data-name="Контур 2036" d="M257.633 183.836h-3.466v-8.372h-2.842q-.03.72-.043 1.119t-.034.926a17.336 17.336 0 01-.259 2.516 6.7 6.7 0 01-.489 1.584 3.893 3.893 0 01-.62.988 5.717 5.717 0 01-.666.634 2.9 2.9 0 01-1 .49 4.243 4.243 0 01-1.2.182c-.3 0-.6-.011-.912-.034s-.489-.033-.547-.033v-2.765h.106c.025 0 .07 0 .134.009a1.686 1.686 0 00.191.01 2.758 2.758 0 00.513-.049.826.826 0 00.438-.211 3.026 3.026 0 00.859-1.541 16.941 16.941 0 00.313-2.74q.037-.672.077-1.537t.067-1.958h9.38z"/><path data-name="Контур 2037" d="M271.515 179.084h-7.912a2.49 2.49 0 00.965 1.939 4.29 4.29 0 002.616.672 5.871 5.871 0 002.121-.393 6.654 6.654 0 001.623-.846h.384v2.776a12.75 12.75 0 01-2.208.681 11.526 11.526 0 01-2.294.211 7.5 7.5 0 01-4.974-1.459 5.14 5.14 0 01-1.728-4.157 5.567 5.567 0 011.637-4.228 6.235 6.235 0 014.488-1.561 5.358 5.358 0 013.956 1.33 5.193 5.193 0 011.325 3.826zm-3.437-2.026a2.423 2.423 0 00-.538-1.632 2.07 2.07 0 00-1.584-.547 2.531 2.531 0 00-1.641.518 2.208 2.208 0 00-.72 1.661z"/><path data-name="Контур 2038" d="M284.85 183.84h-3.351v-6.6l-4.681 6.6h-2.861v-10.785h3.351v5.9l4.339-5.9h3.207zm-1.19-15.563a3.315 3.315 0 01-1.071 2.554 5.565 5.565 0 01-6.341 0 3.318 3.318 0 01-1.076-2.55h2.67a2.455 2.455 0 00.364 1.417 1.823 1.823 0 002.424.009 2.479 2.479 0 00.361-1.426z"/><path data-name="Контур 2039" d="M303.88 180.784a2.728 2.728 0 01-.451 1.579 3.239 3.239 0 01-1.22 1.051 6.094 6.094 0 01-1.727.557 12.006 12.006 0 01-2.026.164 11.727 11.727 0 01-2.5-.24 19.5 19.5 0 01-2.128-.6v-2.621h.384a9.8 9.8 0 001.7.734 6.055 6.055 0 001.92.313q.365 0 .869-.048a3.115 3.115 0 00.8-.163 1.766 1.766 0 00.61-.355.868.868 0 00.207-.644.989.989 0 00-.187-.643 1.057 1.057 0 00-.513-.336 2.8 2.8 0 00-.706-.125 16.747 16.747 0 00-1.08-.029h-1.652v-2.187h1.326c.256 0 .562 0 .916-.009a3.857 3.857 0 00.84-.087 1.181 1.181 0 00.649-.335.89.89 0 00.2-.6.678.678 0 00-.2-.5 1.382 1.382 0 00-.528-.317 3.315 3.315 0 00-.653-.144 6.179 6.179 0 00-.788-.049 6.364 6.364 0 00-1.59.24 8.259 8.259 0 00-1.607.6h-.375v-2.582q.595-.182 1.771-.422a11.979 11.979 0 012.406-.24 10.831 10.831 0 011.958.162 6.287 6.287 0 011.565.491 3.292 3.292 0 011.162.921 2.23 2.23 0 01.442 1.412 2.3 2.3 0 01-.591 1.546 2.865 2.865 0 01-1.416.912v.086a3.492 3.492 0 011.583.869 2.184 2.184 0 01.63 1.639z"/><path data-name="Контур 2040" d="M312.923 182.691c-.186.141-.416.31-.691.509a5.027 5.027 0 01-.777.47 4.883 4.883 0 01-1.057.342 6.086 6.086 0 01-1.2.11 3.666 3.666 0 01-2.573-.95 3.148 3.148 0 01-1.037-2.429 3.275 3.275 0 01.528-1.93 3.543 3.543 0 011.5-1.181 8.487 8.487 0 012.38-.615q1.42-.182 2.948-.269v-.057a1.245 1.245 0 00-.731-1.235 5.287 5.287 0 00-2.15-.34 6.16 6.16 0 00-1.823.3c-.647.2-1.111.357-1.393.466h-.317v-2.6q.548-.144 1.781-.34a15.646 15.646 0 012.472-.2 7.681 7.681 0 014.259.907 3.222 3.222 0 011.31 2.847v7.335h-3.427zm0-1.678v-2.239q-.7.057-1.517.158a7.293 7.293 0 00-1.239.234 1.709 1.709 0 00-.792.474 1.188 1.188 0 00-.273.818 2.14 2.14 0 00.057.546.817.817 0 00.289.4 1.409 1.409 0 00.528.283 3.7 3.7 0 00.96.091 2.844 2.844 0 001.051-.211 3.288 3.288 0 00.936-.55z"/><path data-name="Контур 2041" d="M339.306 183.836h-3.37v-6.691l-2.448 4.416h-1.517l-2.447-4.416v6.691h-3.274v-10.781h3.753l2.776 4.9 2.774-4.9h3.753z"/><path data-name="Контур 2042" d="M353.467 183.836h-3.351v-6.6l-4.685 6.6h-2.861v-10.781h3.351v5.9l4.34-5.9h3.206z"/><path data-name="Контур 2043" d="M367.619 183.836h-3.466v-4.6h-3.955v4.6h-3.466v-10.781h3.466v3.715h3.955v-3.715h3.466z"/><path data-name="Контур 2044" d="M375.747 180.024l2.459-6.969h3.556l-5.992 14.736h-3.751l1.715-4.038-4.194-10.7h3.63z"/><path data-name="Контур 2045" d="M392.485 175.401h-3.437v8.439h-3.466v-8.439h-3.437v-2.342h10.339z"/><path data-name="Контур 2046" d="M399.067 180.024l2.46-6.969h3.555l-5.991 14.736h-3.751l1.714-4.038-4.193-10.7h3.629z"/></g><g data-name="Сгруппировать 294" transform="translate(114.416 128.423)"><rect data-name="Прямоугольник 48" width="75.709" height="1.095" rx=".442" transform="translate(11.924)" fill="url(#n)"/><path data-name="Контур 2200" d="M.305 0h45.964a.305.305 0 01.305.305V.79a.305.305 0 01-.305.305H.305A.305.305 0 010 .79V.305A.305.305 0 01.305 0z" transform="rotate(-90 29.249 17.325)" fill="url(#o)"/><circle data-name="Эллипс 296" cx="2.515" cy="2.515" r="2.515" transform="translate(9.956 44.946)" fill="url(#p)"/><circle data-name="Эллипс 297" cx="3.814" cy="3.814" r="3.814" transform="translate(8.657 43.65)" fill="none" stroke="#707070" stroke-miterlimit="10" stroke-width=".411"/></g></g></svg>