<svg xmlns="http://www.w3.org/2000/svg" xmlns:xlink="http://www.w3.org/1999/xlink" width="649.065" height="183.077"><defs><linearGradient id="b" x1="-2.071" x2="9.569" xlink:href="#a"/><linearGradient id="g" x1="-8.317" x2="4.345" xlink:href="#a"/><linearGradient id="c" x1="-3.674" x2="9.782" xlink:href="#a"/><linearGradient id="d" x1="-3.178" x2="5.657" xlink:href="#a"/><linearGradient id="e" x1="-7.157" x2="7.485" xlink:href="#a"/><linearGradient id="f" x1="-7.672" x2="5.784" xlink:href="#a"/><linearGradient id="a" x1="-1.055" y1=".5" x2="10.709" y2=".5" gradientUnits="objectBoundingBox"><stop offset="0" stop-color="#ff3eff"/><stop offset="1" stop-color="#265aff"/></linearGradient><linearGradient id="h" x1="-9.519" x2="3.143" xlink:href="#a"/><linearGradient id="i" x1="-13.305" x2="2.41" xlink:href="#a"/><linearGradient id="j" x1="-2.071" x2="9.569" xlink:href="#a"/><linearGradient id="k" x1="-3.674" x2="9.782" xlink:href="#a"/><linearGradient id="l" x1="-7.157" x2="7.485" xlink:href="#a"/><linearGradient id="m" x1="-7.672" x2="5.784" xlink:href="#a"/></defs><g data-name="Сгруппировать 409"><g data-name="Сгруппировать 289" opacity=".07"><path data-name="Контур 1931" d="M172.023 119.73h-24.858l-18.575 20.909V119.73h-21.178v64.611h21.178v-20.46l5.026-5.295 15.524 25.755h25.4l-26.113-40.292z" transform="translate(-106.347 -119.73)" fill="url(#a)"/><path data-name="Контур 1932" d="M199.934 119.73l-23.153 64.611h20.729l2.423-8.526h21.089l2.513 8.526h21.089l-23.153-64.611zm4.038 42.625l6.551-23.152 6.82 23.152z" transform="translate(-106.08 -119.73)" fill="url(#b)"/><path data-name="Контур 1933" d="M282.745 119.73h-31.139v64.611h21.178v-20.1h10.679c18.575 0 26.832-8.795 26.832-22.7-.001-13.285-8.975-21.811-27.55-21.811zm-1.166 29.434h-8.795v-14.358h6.016c4.487 0 11.307.808 11.307 6.82-.007 5.563-3.594 7.538-8.528 7.538z" transform="translate(-105.793 -119.73)" fill="url(#c)"/><path data-name="Контур 1934" d="M388.913 169.265h-14.268V119.73h-20.28v49.535H340.1V119.73h-20.28v64.611h89.378V119.73h-20.28z" transform="translate(-105.531 -119.73)" fill="url(#d)"/><path data-name="Контур 1935" d="M442.546 159.125H469.2v-15.076h-26.654v-9.244h31.5V119.73h-52.678v64.611H475.3v-15.076h-32.754z" transform="translate(-105.141 -119.73)" fill="url(#e)"/><path data-name="Контур 1936" d="M516.513 119.73h-31.138v64.611h21.178v-20.1h10.678c18.575 0 26.832-8.795 26.832-22.7-.001-13.285-8.975-21.811-27.55-21.811zm-1.166 29.434h-8.794v-14.358h6.012c4.487 0 11.307.808 11.307 6.82 0 5.563-3.591 7.538-8.525 7.538z" transform="translate(-104.896 -119.73)" fill="url(#f)"/><path data-name="Контур 1937" d="M572.786 156.791l1.077-16.511v-20.55h-20.281v64.611h19.831l23.333-37.061-1.077 16.511v20.55h20.28V119.73h-19.832z" transform="translate(-104.634 -119.73)" fill="url(#g)"/><path data-name="Контур 1938" d="M669.417 142.254h-20.011V119.73h-21.178v64.611h21.178V157.33h20.012v27.011H690.6V119.73h-21.183z" transform="translate(-104.347 -119.73)" fill="url(#h)"/><path data-name="Контур 1939" d="M702.873 184.341h21.178v-49.536h29.075V119.73h-50.253z" transform="translate(-104.061 -119.73)" fill="url(#i)"/></g><g data-name="Сгруппировать 290"><path data-name="Контур 1940" d="M249.256 162.592h-17.42l-13.018 14.654v-14.654h-14.842v45.281h14.842v-14.339l3.522-3.71 10.88 18.049h17.8l-18.3-28.237z" transform="translate(-203.976 -119.565)" fill="url(#a)"/><path data-name="Контур 1941" d="M268.817 162.592l-16.226 45.281h14.528l1.7-5.975H283.6l1.761 5.975h14.779l-16.23-45.281zm2.83 29.873l4.592-16.226 4.779 16.226z" transform="translate(-203.789 -119.565)" fill="url(#j)"/><path data-name="Контур 1942" d="M326.852 162.592H305.03v45.281h14.842v-14.088h7.484c13.018 0 18.8-6.163 18.8-15.911.003-9.307-6.286-15.282-19.304-15.282zm-.817 20.628h-6.164v-10.063h4.213c3.145 0 7.924.566 7.924 4.78.001 3.9-2.514 5.283-5.973 5.283z" transform="translate(-203.588 -119.565)" fill="url(#k)"/><path data-name="Контур 1943" d="M401.257 197.307h-10v-34.715h-14.212v34.715h-10v-34.715h-14.213v45.281h62.638v-45.281h-14.213z" transform="translate(-203.404 -119.565)" fill="url(#d)"/><path data-name="Контур 1944" d="M438.844 190.2h18.679v-10.564h-18.679v-6.478h22.074v-10.566H424v45.281h37.8v-10.566h-22.956z" transform="translate(-203.131 -119.565)" fill="url(#l)"/><path data-name="Контур 1945" d="M490.681 162.592h-21.822v45.281H483.7v-14.088h7.484c13.018 0 18.8-6.163 18.8-15.911.005-9.307-6.284-15.282-19.303-15.282zm-.817 20.628H483.7v-10.063h4.214c3.144 0 7.924.566 7.924 4.78.001 3.9-2.515 5.283-5.974 5.283z" transform="translate(-202.959 -119.565)" fill="url(#m)"/><path data-name="Контур 1946" d="M530.118 188.565l.755-11.571v-14.4H516.66v45.281h13.9l16.35-25.975-.755 11.571v14.4h14.213v-45.279h-13.9z" transform="translate(-202.775 -119.565)" fill="url(#g)"/><path data-name="Контур 1947" d="M597.84 178.378h-14.025v-15.786h-14.842v45.281h14.842v-18.93h14.025v18.93h14.842v-45.281H597.84z" transform="translate(-202.574 -119.565)" fill="url(#h)"/><path data-name="Контур 1948" d="M621.286 207.873h14.842v-34.716H656.5v-10.565h-35.214z" transform="translate(-202.374 -119.565)" fill="url(#i)"/></g><g data-name="Сгруппировать 291" fill="#2b454e"><path data-name="Контур 1949" d="M.147 114.246h12.859c5.3 0 8.856 1.536 8.856 5.419a4.545 4.545 0 01-4.125 4.528c2.143.526 4.893 1.618 4.893 5.217 0 4.327-3.962 6.025-8.815 6.025H.147zm8.087 8.33h3.155c1.859 0 2.547-.445 2.547-1.617 0-1.415-.728-1.86-2.547-1.86H8.234zm0 8.007h3.155c2.021 0 3.153-.2 3.153-1.779s-1.091-1.941-3.153-1.941H8.234z"/><path data-name="Контур 1950" d="M49.892 135.435h-9.543V106.32h14.03c8.37 0 12.414 3.842 12.414 9.827 0 6.268-3.72 10.231-12.091 10.231H49.89zm0-15.852h3.963c2.223 0 3.842-.889 3.842-3.4 0-2.709-3.074-3.073-5.1-3.073h-2.709z"/><path data-name="Контур 1951" d="M78.203 126.741a4.083 4.083 0 004.166 4.165 3.355 3.355 0 003.154-1.86h8.047c-1.456 5.257-6.794 7-11.727 7-6.793 0-12.051-3.882-12.051-11 0-6.955 5.217-11.4 12.011-11.4 7.845 0 12.455 5.136 12.455 13.1zm7.643-4.286a3.811 3.811 0 00-3.72-3.68c-2.507 0-3.923 1.415-3.923 3.68z"/><path data-name="Контур 1952" d="M112.095 122.333a2.965 2.965 0 00-3.074-3.033c-3.154 0-3.679 3.276-3.679 5.782 0 3.2 1.213 5.3 3.679 5.3 2.183 0 3.033-1.5 3.276-3.155h8.491c-.727 6.431-5.9 8.816-11.767 8.816-6.834 0-12.09-3.842-12.09-11 0-7.239 5.094-11.4 12.09-11.4 5.662 0 11 2.426 11.605 8.694z"/><path data-name="Контур 1953" d="M147.322 114.246v21.189h-8.411v-15.042h-6.228v15.043h-8.411v-21.19z"/><path data-name="Контур 1954" d="M158.244 114.246l3.72 13.061 3.68-13.061h8.087l-6.793 19.774c-2.225 6.551-3.114 8.613-10.595 8.613-.85 0-2.831-.08-3.72-.162v-5.823c3.6 0 4.488-.2 4.488-1.5 0-.4-.121-.931-7.319-20.906z"/><path data-name="Контур 1955" d="M188.739 115.621c6.308 0 10.635 3.478 10.635 9.908 0 6.833-5.257 10.513-11.848 10.513-7.683 0-11.848-4.569-11.848-12.13 0-7.32 2.184-14.963 10.393-16.216 3.639-.566 5.54-1.092 5.742-2.184h5.863c-.889 5.3-3.882 6.187-8.208 7-4.772.931-6.753 2.063-7.279 6.956a7.191 7.191 0 016.55-3.847zm2.224 10.393c0-2.508-.606-4.569-3.558-4.569-2.589 0-3.317 2.062-3.317 4.811 0 2.1 1.052 4.126 3.317 4.126 2.591-.001 3.557-2.024 3.557-4.369z"/><path data-name="Контур 1956" d="M226.067 114.246v21.189h-8.411v-15.042h-4.731v5.256c0 7.36-2.75 10.15-7.359 10.15a12.837 12.837 0 01-4.125-.485v-5.58a6.741 6.741 0 001.5.162c1.78 0 2.143-1.5 2.143-6.631v-9.017z"/><path data-name="Контур 1957" d="M238.606 125.851l7.2-11.605h8.452v21.189h-8.088v-11.2l-7.238 11.2h-8.411v-21.189h8.085z"/><path data-name="Контур 1958" d="M267.122 120.716l5.378-6.47h9.827l-7.845 8.208 8.856 12.981h-10.11l-4.529-7.522-1.576 1.577v5.945h-8.409v-21.189h8.411z"/><path data-name="Контур 1959" d="M292.157 126.741a4.083 4.083 0 004.166 4.165 3.355 3.355 0 003.154-1.86h8.047c-1.456 5.257-6.794 7-11.727 7-6.793 0-12.051-3.882-12.051-11 0-6.955 5.217-11.4 12.011-11.4 7.845 0 12.455 5.136 12.455 13.1zm7.643-4.286a3.811 3.811 0 00-3.72-3.68c-2.508 0-3.923 1.415-3.923 3.68z"/><path data-name="Контур 1960" d="M335.311 115.742l8.371-9.422h11.2l-10.634 10.957 11.767 18.156H344.57l-7-11.606-2.265 2.386v9.22h-9.535V106.32h9.543z"/><path data-name="Контур 1961" d="M366.212 114.246v3.159h.08c1.173-2.588 4.206-3.761 6.632-3.761 6.388 0 9.462 5.217 9.462 11.04 0 8.33-5.176 11.362-9.907 11.362a6.523 6.523 0 01-5.42-2.709v9.3h-8.411v-28.391zm7.764 10.553c0-3.356-1.456-5.014-3.68-5.014-2.022 0-3.4 2.023-3.4 4.853 0 2.952 1.254 4.974 3.438 4.974 2.226 0 3.642-1.9 3.642-4.812z"/><path data-name="Контур 1962" d="M394.118 121.686h4.691c6.187 0 9.219 3.316 9.219 6.914 0 4.327-3.033 6.834-9.259 6.834h-12.738v-21.188h8.087zm0 8.9h2.669c2.022 0 3.154-.323 3.154-1.982 0-1.617-1.092-2.062-3.154-2.062h-2.669zm25.637 4.853h-8.411v-21.193h8.411z"/><path data-name="Контур 1963" d="M433.834 114.246l3.68 11.767 3.68-11.767h9.624v21.189h-7.44v-8.816l.809-5.419h-.162l-4.529 14.234h-3.962l-4.529-14.234h-.158l.809 5.9v8.33h-7.441v-21.184z"/></g><g data-name="Сгруппировать 293" fill="#2b454e"><path data-name="Контур 2029" d="M11.651 173.099a5.454 5.454 0 01-1.5 4.066 6.747 6.747 0 01-8.447 0 6.25 6.25 0 01.01-8.144 6.747 6.747 0 018.446.009 5.49 5.49 0 011.491 4.069zm-4.126 2.543a2.687 2.687 0 00.489-.964 5.866 5.866 0 00.164-1.56 6.079 6.079 0 00-.168-1.546 2.74 2.74 0 00-.466-1 1.649 1.649 0 00-.718-.54 2.536 2.536 0 00-.9-.158 2.64 2.64 0 00-.86.129 1.744 1.744 0 00-.723.522 2.656 2.656 0 00-.488 1 5.823 5.823 0 00-.183 1.592 6.147 6.147 0 00.159 1.486 2.606 2.606 0 00.466 1.01 1.765 1.765 0 00.713.531 2.644 2.644 0 001.815.014 1.6 1.6 0 00.7-.516z"/><path data-name="Контур 2030" d="M22.593 170.139h-3.334v8.186h-3.362v-8.186h-3.335v-2.272h10.03z"/><path data-name="Контур 2033" d="M64.334 172.952a6.7 6.7 0 01-.4 2.356 5.176 5.176 0 01-1.036 1.751 4.523 4.523 0 01-1.517 1.1 4.457 4.457 0 01-1.814.372 5.219 5.219 0 01-1.516-.191 7.288 7.288 0 01-1.274-.535v4.358h-3.363v-14.296h3.363v1.089a8.16 8.16 0 011.576-1 4.294 4.294 0 011.856-.381 3.589 3.589 0 013.037 1.434 6.393 6.393 0 011.088 3.943zm-3.455.07a3.7 3.7 0 00-.521-2.213 1.928 1.928 0 00-1.644-.688 3.55 3.55 0 00-.976.144 4.134 4.134 0 00-.957.414v5.254a2.665 2.665 0 00.715.168q.381.038.753.037a2.437 2.437 0 001.98-.777 3.573 3.573 0 00.65-2.339z"/><path data-name="Контур 2034" d="M71.472 174.627l2.386-6.76h3.448l-5.811 14.295h-3.64l1.663-3.917-4.068-10.378h3.52z"/><path data-name="Контур 2035" d="M88.676 169.516a4.23 4.23 0 011.006 1.506 5.8 5.8 0 01.373 2.2 5.213 5.213 0 01-1.542 3.948 5.771 5.771 0 01-4.167 1.478 5.149 5.149 0 01-4.289-1.762 8.361 8.361 0 01-1.4-5.274 13.307 13.307 0 01.079-1.356 11.872 11.872 0 01.312-1.691 9.465 9.465 0 01.573-1.649 4.33 4.33 0 01.954-1.323 4.814 4.814 0 011.955-1.127 12.91 12.91 0 012.673-.513q.922-.084 2.207-.14t1.89-.074v2.487l-1.126.051c-.342.015-.743.039-1.2.069l-1.1.084q-.614.047-1.183.14a4.355 4.355 0 00-1.08.336 2.286 2.286 0 00-.82.614 2.432 2.432 0 00-.4.768 5.136 5.136 0 00-.233 1.16 6.761 6.761 0 011.561-.8 5.3 5.3 0 011.792-.294 5.234 5.234 0 011.723.28 3.97 3.97 0 011.442.882zm-2.823 6.21a2.67 2.67 0 00.532-.891 4.477 4.477 0 00.2-1.5 2.554 2.554 0 00-.639-1.815 2.185 2.185 0 00-1.675-.686 5.306 5.306 0 00-1.022.1 4.256 4.256 0 00-1.124.425v.265c0 .114-.005.22-.005.313a15.1 15.1 0 00.107 2.029 4.057 4.057 0 00.406 1.32 1.872 1.872 0 00.719.761 2.049 2.049 0 001.046.265 2.409 2.409 0 00.76-.136 1.676 1.676 0 00.696-.45z"/><path data-name="Контур 2036" d="M102.824 178.325h-3.362v-8.121h-2.757q-.029.7-.042 1.085t-.033.9a16.815 16.815 0 01-.251 2.44 6.5 6.5 0 01-.475 1.537 3.776 3.776 0 01-.6.959 5.55 5.55 0 01-.646.615 2.816 2.816 0 01-.974.475 4.116 4.116 0 01-1.159.177c-.292 0-.586-.011-.884-.033s-.475-.032-.531-.032v-2.684h.1c.024 0 .068 0 .13.009a1.634 1.634 0 00.186.01 2.674 2.674 0 00.5-.047.8.8 0 00.425-.2 2.935 2.935 0 00.833-1.495 16.429 16.429 0 00.3-2.658q.036-.652.074-1.491t.065-1.9h9.1z"/><path data-name="Контур 2037" d="M116.29 173.711h-7.674a2.415 2.415 0 00.937 1.881 4.161 4.161 0 002.538.652 5.7 5.7 0 002.058-.381 6.454 6.454 0 001.574-.82h.372v2.692a12.371 12.371 0 01-2.142.661 11.182 11.182 0 01-2.226.2 7.28 7.28 0 01-4.824-1.415 4.986 4.986 0 01-1.676-4.032 5.4 5.4 0 011.588-4.1 6.048 6.048 0 014.354-1.514 5.2 5.2 0 013.838 1.29 5.037 5.037 0 011.285 3.711zm-3.334-1.966a2.35 2.35 0 00-.522-1.583 2.008 2.008 0 00-1.537-.531 2.456 2.456 0 00-1.592.5 2.142 2.142 0 00-.7 1.611z"/><path data-name="Контур 2038" d="M129.225 178.325h-3.25v-6.4l-4.544 6.4h-2.776v-10.458h3.25v5.728l4.209-5.727h3.111zm-1.154-15.1a3.216 3.216 0 01-1.039 2.477 5.4 5.4 0 01-6.151 0 3.219 3.219 0 01-1.044-2.473h2.59a2.381 2.381 0 00.353 1.374 1.769 1.769 0 002.351.009 2.4 2.4 0 00.35-1.383z"/><path data-name="Контур 2039" d="M147.684 175.364a2.646 2.646 0 01-.438 1.532 3.142 3.142 0 01-1.184 1.02 5.912 5.912 0 01-1.675.54 11.647 11.647 0 01-1.966.159 11.375 11.375 0 01-2.425-.233 18.909 18.909 0 01-2.064-.577v-2.543h.372a9.5 9.5 0 001.649.712 5.873 5.873 0 001.862.3q.354 0 .843-.046a3.022 3.022 0 00.777-.159 1.713 1.713 0 00.591-.344.842.842 0 00.2-.624.959.959 0 00-.182-.623 1.025 1.025 0 00-.5-.326 2.712 2.712 0 00-.685-.121 16.557 16.557 0 00-1.048-.028h-1.6v-2.123h1.286c.248 0 .545 0 .888-.009a3.742 3.742 0 00.815-.084 1.145 1.145 0 00.629-.325.863.863 0 00.191-.578.658.658 0 00-.2-.484 1.341 1.341 0 00-.512-.307 3.214 3.214 0 00-.633-.14 5.99 5.99 0 00-.764-.047 6.173 6.173 0 00-1.542.233 8.01 8.01 0 00-1.559.577h-.363v-2.5q.577-.176 1.718-.41a11.619 11.619 0 012.334-.233 10.507 10.507 0 011.9.158 6.1 6.1 0 011.518.476 3.193 3.193 0 011.127.893 2.163 2.163 0 01.429 1.369 2.23 2.23 0 01-.573 1.5 2.779 2.779 0 01-1.373.884v.083a3.387 3.387 0 011.536.843 2.119 2.119 0 01.621 1.585z"/><path data-name="Контур 2040" d="M156.456 177.212c-.181.137-.4.3-.671.494a4.877 4.877 0 01-.754.456 4.736 4.736 0 01-1.025.331 5.9 5.9 0 01-1.164.106 3.556 3.556 0 01-2.5-.922 3.054 3.054 0 01-1.006-2.356 3.177 3.177 0 01.512-1.872 3.437 3.437 0 011.454-1.145 8.233 8.233 0 012.309-.6q1.378-.176 2.86-.261v-.055a1.208 1.208 0 00-.709-1.2 5.129 5.129 0 00-2.086-.33 5.976 5.976 0 00-1.769.293c-.627.2-1.078.346-1.351.452h-.307v-2.524q.532-.14 1.728-.33a15.177 15.177 0 012.4-.191 7.451 7.451 0 014.131.879 3.125 3.125 0 011.271 2.762v7.115h-3.325zm0-1.627v-2.172q-.681.056-1.472.154a7.073 7.073 0 00-1.2.227 1.657 1.657 0 00-.768.46 1.153 1.153 0 00-.265.793 2.078 2.078 0 00.055.53.793.793 0 00.28.389 1.367 1.367 0 00.512.274 3.6 3.6 0 00.932.088 2.758 2.758 0 001.02-.2 3.19 3.19 0 00.906-.538z"/><path data-name="Контур 2041" d="M182.048 178.325h-3.269v-6.491l-2.375 4.283h-1.472l-2.374-4.283v6.491h-3.176v-10.458h3.641l2.691 4.746 2.691-4.749h3.641z"/><path data-name="Контур 2042" d="M195.785 178.325h-3.25v-6.4l-4.544 6.4h-2.776v-10.458h3.25v5.727l4.21-5.727h3.11z"/><path data-name="Контур 2043" d="M209.512 178.325h-3.362v-4.461h-3.837v4.461h-3.362v-10.458h3.362v3.6h3.837v-3.6h3.362z"/><path data-name="Контур 2044" d="M217.397 174.627l2.385-6.76h3.449l-5.812 14.295h-3.639l1.663-3.917-4.068-10.378h3.521z"/><path data-name="Контур 2045" d="M233.632 170.139h-3.334v8.186h-3.362v-8.186h-3.334v-2.272h10.029z"/><path data-name="Контур 2046" d="M240.017 174.627l2.386-6.76h3.448l-5.811 14.295h-3.639l1.662-3.917-4.068-10.378h3.52z"/></g><text data-name="8" transform="translate(38 179.077)" fill="#2b454e" font-size="20" font-family="Verdana-Bold, Verdana" font-weight="700"><tspan x="-7.109" y="0">8</tspan></text></g></svg>