<svg data-name="Компонент 1 – 1" xmlns="http://www.w3.org/2000/svg" xmlns:xlink="http://www.w3.org/1999/xlink" width="290.096" height="82.203"><defs><linearGradient id="a" x1="-1.055" y1=".5" x2="10.709" y2=".5" gradientUnits="objectBoundingBox"><stop offset="0" stop-color="#ff3eff"/><stop offset="1" stop-color="#265aff"/></linearGradient><linearGradient id="b" x1="-2.071" x2="9.569" xlink:href="#a"/><linearGradient id="c" x1="-3.674" x2="9.782" xlink:href="#a"/><linearGradient id="d" x1="-3.178" x2="5.657" xlink:href="#a"/><linearGradient id="e" x1="-7.157" x2="7.485" xlink:href="#a"/><linearGradient id="f" x1="-7.672" x2="5.784" xlink:href="#a"/><linearGradient id="g" x1="-8.317" x2="4.345" xlink:href="#a"/><linearGradient id="h" x1="-9.519" x2="3.143" xlink:href="#a"/><linearGradient id="i" x1="-13.305" x2="2.41" xlink:href="#a"/><linearGradient id="j" x1="-2.071" x2="9.569" xlink:href="#a"/><linearGradient id="k" x1="-3.674" x2="9.782" xlink:href="#a"/><linearGradient id="l" x1="-7.157" x2="7.485" xlink:href="#a"/><linearGradient id="m" x1="-7.672" x2="5.784" xlink:href="#a"/></defs><g data-name="Сгруппировать 289" opacity=".07"><path data-name="Контур 1931" d="M136.337 119.73h-11.128l-8.316 9.361v-9.361h-9.481v28.925h9.481V139.5l2.25-2.37 6.95 11.53h11.369l-11.69-18.038z" transform="translate(-107.412 -119.73)" fill="url(#a)"/><path data-name="Контур 1932" d="M187.146 119.73l-10.365 28.925h9.28l1.085-3.817h9.441l1.125 3.817h9.441l-10.365-28.925zm1.808 19.082l2.933-10.364 3.053 10.364z" transform="translate(-145.607 -119.73)" fill="url(#b)"/><path data-name="Контур 1933" d="M265.546 119.73h-13.94v28.925h9.481v-9h4.781c8.316 0 12.012-3.937 12.012-10.164 0-5.944-4.018-9.761-12.334-9.761zm-.522 13.177h-3.937v-6.428h2.691c2.009 0 5.062.362 5.062 3.053 0 2.491-1.607 3.375-3.816 3.375z" transform="translate(-186.805 -119.73)" fill="url(#c)"/><path data-name="Контур 1934" d="M350.749 141.906h-6.388V119.73h-9.079v22.176h-6.388V119.73h-9.079v28.925h40.013V119.73h-9.079z" transform="translate(-224.362 -119.73)" fill="url(#d)"/><path data-name="Контур 1935" d="M430.849 137.366h11.932v-6.749h-11.932v-4.138h14.1v-6.749h-23.581v28.925h24.144v-6.749h-14.663z" transform="translate(-280.277 -119.73)" fill="url(#e)"/><path data-name="Контур 1936" d="M499.315 119.73h-13.94v28.925h9.481v-9h4.78c8.316 0 12.012-3.937 12.012-10.164 0-5.944-4.018-9.761-12.333-9.761zm-.522 13.177h-3.937v-6.428h2.691c2.009 0 5.062.362 5.062 3.053 0 2.491-1.609 3.375-3.816 3.375z" transform="translate(-315.519 -119.73)" fill="url(#f)"/><path data-name="Контур 1937" d="M562.179 136.321l.482-7.392v-9.2h-9.079v28.925h8.878l10.446-16.592-.482 7.392v9.2h9.076V119.73h-8.879z" transform="translate(-353.074 -119.73)" fill="url(#g)"/><path data-name="Контур 1938" d="M646.667 129.813h-8.959V119.73h-9.481v28.925h9.481v-12.092h8.959v12.092h9.481V119.73h-9.481z" transform="translate(-394.174 -119.73)" fill="url(#h)"/><path data-name="Контур 1939" d="M702.873 148.655h9.481v-22.176h13.016v-6.749h-22.5z" transform="translate(-435.274 -119.73)" fill="url(#i)"/></g><g data-name="Сгруппировать 290"><path data-name="Контур 1940" d="M224.247 162.592h-7.8l-5.828 6.56v-6.56h-6.644v20.271h6.644v-6.419l1.577-1.661 4.871 8.08h7.968l-8.193-12.641z" transform="translate(-162.413 -143.33)" fill="url(#a)"/><path data-name="Контур 1941" d="M259.855 162.592l-7.264 20.271h6.5l.76-2.675h6.616l.788 2.675h6.616l-7.264-20.271zm1.267 13.374l2.056-7.264 2.14 7.264z" transform="translate(-189.18 -143.33)" fill="url(#j)"/><path data-name="Контур 1942" d="M314.8 162.592h-9.77v20.271h6.644v-6.307h3.35c5.828 0 8.418-2.759 8.418-7.123.001-4.166-2.815-6.841-8.642-6.841zm-.366 9.235h-2.759v-4.5h1.886c1.408 0 3.548.253 3.548 2.14-.001 1.74-1.127 2.36-2.675 2.36z" transform="translate(-218.053 -143.33)" fill="url(#k)"/><path data-name="Контур 1943" d="M374.511 178.133h-4.477v-15.541h-6.363v15.541h-4.477v-15.541h-6.363v20.271h28.042v-20.271h-6.363z" transform="translate(-244.373 -143.33)" fill="url(#d)"/><path data-name="Контур 1944" d="M430.647 174.952h8.362v-4.73h-8.362v-2.9h9.882v-4.73H424v20.271h16.921v-4.73h-10.274z" transform="translate(-283.56 -143.33)" fill="url(#l)"/><path data-name="Контур 1945" d="M478.628 162.592h-9.769v20.271h6.641v-6.307h3.35c5.828 0 8.419-2.759 8.419-7.123.003-4.166-2.813-6.841-8.641-6.841zm-.366 9.235H475.5v-4.5h1.887c1.408 0 3.548.253 3.548 2.14.002 1.74-1.124 2.36-2.672 2.36z" transform="translate(-308.258 -143.33)" fill="url(#m)"/><path data-name="Контур 1946" d="M522.685 174.22l.338-5.18v-6.447h-6.363v20.271h6.222l7.321-11.628-.338 5.18v6.447h6.363v-20.271h-6.222z" transform="translate(-334.578 -143.33)" fill="url(#g)"/><path data-name="Контур 1947" d="M581.9 169.659h-6.279v-7.067h-6.644v20.271h6.644v-8.474h6.279v8.474h6.644v-20.271H581.9z" transform="translate(-363.381 -143.33)" fill="url(#h)"/><path data-name="Контур 1948" d="M621.286 182.863h6.644v-15.541h9.122v-4.73h-15.766z" transform="translate(-392.185 -143.33)" fill="url(#i)"/></g><g data-name="Сгруппировать 291" fill="#2b454e"><path data-name="Контур 1949" d="M42.563 51.146h5.757c2.371 0 3.965.688 3.965 2.426a2.035 2.035 0 01-1.844 2.027c.959.235 2.19.724 2.19 2.336 0 1.937-1.774 2.7-3.946 2.7h-6.119zm3.62 3.729h1.412c.832 0 1.14-.2 1.14-.724 0-.634-.326-.833-1.14-.833h-1.412zm0 3.584h1.412c.9 0 1.412-.09 1.412-.8s-.488-.869-1.412-.869h-1.412z"/><path data-name="Контур 1950" d="M64.832 60.631H60.56V47.597h6.282c3.747 0 5.558 1.72 5.558 4.4 0 2.806-1.665 4.58-5.413 4.58h-2.154zm0-7.1h1.774c1 0 1.72-.4 1.72-1.521 0-1.213-1.376-1.376-2.281-1.376h-1.213z"/><path data-name="Контур 1951" d="M77.508 56.74a1.828 1.828 0 001.865 1.865 1.5 1.5 0 001.412-.833h3.6c-.652 2.353-3.042 3.132-5.25 3.132-3.041 0-5.4-1.738-5.4-4.924 0-3.113 2.336-5.105 5.377-5.105 3.512 0 5.576 2.3 5.576 5.866zm3.422-1.919a1.706 1.706 0 00-1.665-1.647 1.564 1.564 0 00-1.756 1.647z"/><path data-name="Контур 1952" d="M92.681 54.766a1.327 1.327 0 00-1.376-1.358c-1.412 0-1.647 1.466-1.647 2.589 0 1.43.543 2.372 1.647 2.372a1.427 1.427 0 001.466-1.412h3.8c-.325 2.879-2.643 3.947-5.268 3.947-3.06 0-5.413-1.72-5.413-4.924 0-3.241 2.281-5.105 5.413-5.105 2.535 0 4.924 1.086 5.2 3.892z"/><path data-name="Контур 1953" d="M108.45 51.146v9.486h-3.765v-6.734h-2.788v6.734h-3.765v-9.486z"/><path data-name="Контур 1954" d="M113.339 51.146l1.665 5.847 1.647-5.847h3.62l-3.041 8.852c-1 2.933-1.394 3.856-4.743 3.856-.381 0-1.267-.036-1.665-.072v-2.607c1.611 0 2.009-.09 2.009-.67 0-.181-.054-.417-3.277-9.359z"/><path data-name="Контур 1955" d="M126.992 51.761c2.824 0 4.761 1.557 4.761 4.436 0 3.059-2.353 4.707-5.3 4.707-3.44 0-5.3-2.046-5.3-5.431 0-3.277.978-6.7 4.653-7.26 1.629-.253 2.48-.489 2.57-.978h2.625c-.4 2.372-1.738 2.77-3.675 3.132-2.136.417-3.023.924-3.259 3.114a3.219 3.219 0 012.925-1.72zm1 4.653c0-1.123-.271-2.046-1.593-2.046-1.159 0-1.485.923-1.485 2.154 0 .941.471 1.847 1.485 1.847 1.154 0 1.588-.906 1.588-1.956z"/><path data-name="Контур 1956" d="M143.703 51.146v9.486h-3.766v-6.734h-2.118v2.353c0 3.295-1.231 4.544-3.295 4.544a5.748 5.748 0 01-1.847-.217v-2.5a3.016 3.016 0 00.67.072c.8 0 .96-.67.96-2.969v-4.037z"/><path data-name="Контур 1957" d="M149.317 56.341l3.222-5.2h3.784v9.486h-3.621v-5.01l-3.24 5.014h-3.766v-9.486h3.62z"/><path data-name="Контур 1958" d="M162.082 54.042l2.407-2.9h4.4l-3.512 3.675 3.965 5.811h-4.522l-2.028-3.367-.706.706v2.661h-3.766v-9.486h3.765z"/><path data-name="Контур 1959" d="M173.288 56.74a1.828 1.828 0 001.865 1.865 1.5 1.5 0 001.412-.833h3.6c-.652 2.353-3.042 3.132-5.25 3.132-3.041 0-5.4-1.738-5.4-4.924 0-3.113 2.336-5.105 5.377-5.105 3.512 0 5.576 2.3 5.576 5.866zm3.422-1.919a1.706 1.706 0 00-1.665-1.647 1.564 1.564 0 00-1.756 1.647z"/><path data-name="Контур 1960" d="M192.609 51.815l3.747-4.218h5.014l-4.761 4.906 5.268 8.128h-5.123l-3.132-5.2-1.014 1.068v4.128h-4.269v-13.03h4.272z"/><path data-name="Контур 1961" d="M206.443 51.146v1.412h.036a3.264 3.264 0 012.969-1.684c2.86 0 4.236 2.336 4.236 4.942 0 3.729-2.317 5.087-4.435 5.087a2.92 2.92 0 01-2.426-1.213v4.164h-3.765V51.146zm3.476 4.725c0-1.5-.652-2.245-1.648-2.245-.905 0-1.521.906-1.521 2.172 0 1.322.561 2.227 1.539 2.227.996 0 1.629-.851 1.629-2.155z"/><path data-name="Контур 1962" d="M218.935 54.477h2.1c2.769 0 4.127 1.484 4.127 3.1 0 1.937-1.358 3.059-4.145 3.059h-5.7V51.15h3.62zm0 3.983h1.195c.905 0 1.412-.145 1.412-.887 0-.724-.489-.923-1.412-.923h-1.195zm11.477 2.172h-3.766v-9.486h3.766z"/><path data-name="Контур 1963" d="M236.715 51.146l1.647 5.268 1.647-5.268h4.308v9.486h-3.331v-3.947l.362-2.426h-.072l-2.028 6.372h-1.774l-2.028-6.372h-.072l.362 2.643v3.729h-3.331v-9.486z"/></g><g data-name="Сгруппировать 293" fill="#2b454e"><path data-name="Контур 2029" d="M93.692 77.493a2.442 2.442 0 01-.673 1.82 3.02 3.02 0 01-3.782 0 2.8 2.8 0 010-3.646 3.02 3.02 0 013.781 0 2.458 2.458 0 01.674 1.826zm-1.847 1.138a1.2 1.2 0 00.219-.431 2.627 2.627 0 00.073-.7 2.721 2.721 0 00-.075-.692 1.227 1.227 0 00-.209-.446.738.738 0 00-.321-.242 1.135 1.135 0 00-.4-.071 1.181 1.181 0 00-.385.058.781.781 0 00-.324.234 1.189 1.189 0 00-.218.446 2.607 2.607 0 00-.082.713 2.751 2.751 0 00.071.665 1.167 1.167 0 00.209.452.79.79 0 00.319.238 1.184 1.184 0 00.813.006.714.714 0 00.309-.23z"/><path data-name="Контур 2030" d="M98.59 76.167h-1.492v3.665h-1.505v-3.665H94.1V75.15h4.49z"/><path data-name="Контур 2033" d="M119.201 77.426a3 3 0 01-.178 1.055 2.317 2.317 0 01-.464.784 2.025 2.025 0 01-.679.492 2 2 0 01-.812.167 2.337 2.337 0 01-.679-.085 3.266 3.266 0 01-.57-.24v1.951h-1.505v-6.4h1.505v.488a3.656 3.656 0 01.706-.446 1.923 1.923 0 01.831-.171 1.607 1.607 0 011.359.642 2.862 2.862 0 01.486 1.763zm-1.547.031a1.658 1.658 0 00-.233-.991.863.863 0 00-.736-.308 1.589 1.589 0 00-.437.064 1.849 1.849 0 00-.428.185v2.352a1.2 1.2 0 00.32.075q.171.017.337.017a1.091 1.091 0 00.886-.348 1.6 1.6 0 00.291-1.049z"/><path data-name="Контур 2034" d="M122.396 78.176l1.068-3.026h1.544l-2.6 6.4h-1.63l.745-1.754-1.821-4.646h1.576z"/><path data-name="Контур 2035" d="M130.098 75.888a1.893 1.893 0 01.45.674 2.6 2.6 0 01.167.986 2.334 2.334 0 01-.69 1.767 2.584 2.584 0 01-1.865.662 2.3 2.3 0 01-1.92-.789 3.743 3.743 0 01-.627-2.361 5.945 5.945 0 01.036-.607 5.318 5.318 0 01.14-.757 4.236 4.236 0 01.257-.738 1.939 1.939 0 01.427-.592 2.156 2.156 0 01.875-.5 5.779 5.779 0 011.2-.23q.413-.038.988-.062t.846-.033v1.113l-.5.023a32.11 32.11 0 00-.538.031l-.492.038q-.275.021-.529.062a1.952 1.952 0 00-.484.151 1.023 1.023 0 00-.367.275 1.088 1.088 0 00-.179.344 2.3 2.3 0 00-.1.519 3.028 3.028 0 01.7-.357 2.371 2.371 0 01.8-.132 2.343 2.343 0 01.771.125 1.778 1.778 0 01.634.388zm-1.264 2.78a1.2 1.2 0 00.238-.4 2 2 0 00.088-.67 1.144 1.144 0 00-.286-.813.978.978 0 00-.75-.307 2.375 2.375 0 00-.457.044 1.905 1.905 0 00-.5.19v.259a6.754 6.754 0 00.048.908 1.815 1.815 0 00.182.591.838.838 0 00.322.341.917.917 0 00.468.119 1.078 1.078 0 00.34-.061.75.75 0 00.307-.201z"/><path data-name="Контур 2036" d="M136.432 79.832h-1.5v-3.636h-1.238l-.019.486-.015.4a7.524 7.524 0 01-.112 1.092 2.908 2.908 0 01-.213.688 1.691 1.691 0 01-.269.429 2.483 2.483 0 01-.289.275 1.259 1.259 0 01-.436.213 1.843 1.843 0 01-.519.079c-.131 0-.262 0-.4-.015s-.213-.014-.238-.014v-1.2h.104a.732.732 0 00.083 0 1.2 1.2 0 00.223-.021.359.359 0 00.19-.092 1.314 1.314 0 00.373-.669 7.352 7.352 0 00.136-1.19q.016-.292.033-.667t.029-.85h4.073z"/><path data-name="Контур 2037" d="M142.46 77.768h-3.436a1.081 1.081 0 00.419.842 1.863 1.863 0 001.136.292 2.55 2.55 0 00.921-.171 2.888 2.888 0 00.7-.367h.167v1.205a5.54 5.54 0 01-.959.3 5.006 5.006 0 01-1 .092 3.259 3.259 0 01-2.16-.634 2.232 2.232 0 01-.75-1.805 2.417 2.417 0 01.711-1.836 2.708 2.708 0 011.949-.678 2.327 2.327 0 011.718.577 2.255 2.255 0 01.575 1.661zm-1.492-.88a1.052 1.052 0 00-.234-.709.9.9 0 00-.688-.238 1.1 1.1 0 00-.713.225.959.959 0 00-.313.721z"/><path data-name="Контур 2038" d="M148.251 79.831h-1.455v-2.864l-2.034 2.864h-1.243V75.15h1.455v2.564l1.884-2.564h1.393zm-.517-6.758a1.44 1.44 0 01-.465 1.109 2.417 2.417 0 01-2.753 0 1.441 1.441 0 01-.467-1.107h1.159a1.066 1.066 0 00.158.615.792.792 0 001.052 0 1.076 1.076 0 00.157-.619z"/><path data-name="Контур 2039" d="M156.51 78.506a1.185 1.185 0 01-.2.686 1.407 1.407 0 01-.53.457 2.646 2.646 0 01-.75.242 5.211 5.211 0 01-.88.071 5.09 5.09 0 01-1.086-.1 8.459 8.459 0 01-.924-.258v-1.145h.167a4.254 4.254 0 00.738.319 2.629 2.629 0 00.834.136q.158 0 .377-.021a1.353 1.353 0 00.348-.071.767.767 0 00.265-.154.377.377 0 00.09-.28.43.43 0 00-.081-.279.459.459 0 00-.223-.146 1.216 1.216 0 00-.306-.054 7.434 7.434 0 00-.469-.013h-.717v-.951h.976a1.672 1.672 0 00.365-.038.513.513 0 00.282-.146.387.387 0 00.085-.259.3.3 0 00-.088-.217.6.6 0 00-.229-.138 1.442 1.442 0 00-.284-.062 2.69 2.69 0 00-.342-.021 2.761 2.761 0 00-.69.1 3.585 3.585 0 00-.7.258h-.163v-1.121q.258-.079.769-.183a5.2 5.2 0 011.045-.1 4.706 4.706 0 01.85.071 2.732 2.732 0 01.68.213 1.431 1.431 0 01.5.4.969.969 0 01.192.613 1 1 0 01-.257.671 1.243 1.243 0 01-.615.4v.037a1.516 1.516 0 01.688.377.948.948 0 01.283.706z"/><path data-name="Контур 2040" d="M160.442 79.335c-.081.061-.181.135-.3.221a2.18 2.18 0 01-.337.2 2.124 2.124 0 01-.459.148 2.648 2.648 0 01-.521.048 1.592 1.592 0 01-1.117-.413 1.367 1.367 0 01-.45-1.055 1.422 1.422 0 01.229-.838 1.538 1.538 0 01.651-.513 3.683 3.683 0 011.034-.267q.617-.079 1.28-.117v-.025a.541.541 0 00-.317-.536 2.3 2.3 0 00-.934-.148 2.676 2.676 0 00-.792.131q-.421.132-.6.2h-.137v-1.13q.238-.063.773-.148a6.794 6.794 0 011.074-.085 3.335 3.335 0 011.849.394 1.4 1.4 0 01.569 1.236v3.185h-1.488zm0-.728v-.973q-.3.025-.659.069a3.168 3.168 0 00-.538.1.742.742 0 00-.344.206.516.516 0 00-.119.355.927.927 0 00.025.237.355.355 0 00.125.174.612.612 0 00.229.123 1.609 1.609 0 00.417.04 1.234 1.234 0 00.457-.092 1.427 1.427 0 00.407-.239z"/><path data-name="Контур 2041" d="M171.899 79.832h-1.463v-2.906l-1.063 1.918h-.659l-1.063-1.918v2.906h-1.422V75.15h1.63l1.205 2.126 1.2-2.126h1.63z"/><path data-name="Контур 2042" d="M178.048 79.832h-1.455v-2.864l-2.034 2.864h-1.243V75.15h1.46v2.564l1.885-2.564h1.392z"/><path data-name="Контур 2043" d="M184.194 79.832h-1.505v-2h-1.718v2h-1.5V75.15h1.5v1.613h1.718V75.15h1.505z"/><path data-name="Контур 2044" d="M187.728 78.176l1.068-3.026h1.544l-2.6 6.4h-1.629l.745-1.754-1.821-4.646h1.577z"/><path data-name="Контур 2045" d="M194.992 76.167H193.5v3.665h-1.505v-3.665h-1.492V75.15h4.49z"/><path data-name="Контур 2046" d="M197.85 78.176l1.068-3.026h1.544l-2.6 6.4h-1.629l.744-1.754-1.821-4.646h1.576z"/></g><text data-name="8" transform="translate(106.563 80.203)" fill="#2b454e" font-size="9" font-family="Verdana-Bold, Verdana" font-weight="700"><tspan x="-3.199" y="0">8</tspan></text></svg>