<svg xmlns="http://www.w3.org/2000/svg" width="37.307" height="38"><path d="M36.594 21.38a16.8 16.8 0 00-1.228-1.5 3.979 3.979 0 00-2.912-1.3 4.042 4.042 0 00-1.883.474 7.547 7.547 0 00-3.092 2.981 4.312 4.312 0 00-.542 1.5c-.742-2.085-1.639-3.724-2.671-4.021l-4.538-1.383C27.397 18.131 23.1 0 15.72 0h-2.063C5.038 0 2.373 18.131 9.649 18.131l-4.541 1.376c-3.193.918-5.1 14.724-5.1 14.724a1.2 1.2 0 001.2 1.347h17.538a4.363 4.363 0 00.441.48 16.782 16.782 0 001.5 1.229 3.777 3.777 0 002.314.713c.179 0 .35-.008.5-.016h.044a8.078 8.078 0 002.922-.887 18.135 18.135 0 004.769-3.456c.294-.287 1.415-1.408 1.713-1.712a18.138 18.138 0 003.457-4.77 8.08 8.08 0 00.887-2.922v-.046a4.062 4.062 0 00-.699-2.811zm-18.829-2.2l-.3 2.41a.408.408 0 01-.035.122l-2.372 5.129a.408.408 0 01-.741 0l-2.377-5.128a.406.406 0 01-.035-.122l-.3-2.41a.408.408 0 01.587-.415 3.057 3.057 0 001.362.347h2.258a3.059 3.059 0 001.361-.347.408.408 0 01.587.415zm1.9-7.745a8.445 8.445 0 01-1.464 3.382c-1 1.447-1.933 2.095-2.417 2.095h-2.192c-.484 0-1.419-.648-2.417-2.1a8.446 8.446 0 01-1.464-3.38l-.022-.169-.4-.257a.408.408 0 01-.186-.342V10a.408.408 0 01.408-.408h.167v-1.4a.408.408 0 01.59-.365 4.814 4.814 0 002.04.349c.388 0 .778-.019 1.122-.037l.309-.015c.137-.006.276-.009.414-.009a13.445 13.445 0 014.118.759 7.569 7.569 0 001.066.286.408.408 0 01.354.4v.03h.167a.408.408 0 01.408.408v.672a.408.408 0 01-.186.342l-.4.257zm15.534 12.644v.01a6.144 6.144 0 01-.687 2.175 16.138 16.138 0 01-3.08 4.234c-.28.286-1.4 1.4-1.682 1.682a16.135 16.135 0 01-4.234 3.08 6.149 6.149 0 01-2.175.687h-.01a6.905 6.905 0 01-.385.013 1.759 1.759 0 01-1.092-.307 14.984 14.984 0 01-1.324-1.082 1.9 1.9 0 01-.418-2.364 5.54 5.54 0 012.196-2.267 2.109 2.109 0 011.066-.317 1.726 1.726 0 01.4.049 3.6 3.6 0 011.3.632.815.815 0 00.495.151 1.16 1.16 0 00.661-.21 15.789 15.789 0 003.269-3.269 1.049 1.049 0 00.059-1.156 3.6 3.6 0 01-.632-1.3 1.939 1.939 0 01.268-1.468 5.541 5.541 0 012.268-2.193 2.025 2.025 0 01.94-.243 1.937 1.937 0 011.424.661 14.959 14.959 0 011.082 1.323 2.123 2.123 0 01.291 1.479z" fill="#2b454e"/></svg>