<svg xmlns="http://www.w3.org/2000/svg" width="32.307" height="31.275"><g fill="#2b454e"><path data-name="Контур 68" d="M21.242 14.324a3.356 3.356 0 012.237-.552l8.827-8.829L27.364 0l-8.829 8.829a3.334 3.334 0 01-.574 2.265z"/><path data-name="Контур 69" d="M5.844 25.077l-.32-.32-1.674 1.352-2.819 4.444.722.722 4.446-2.819 1.352-1.669-.321-.325 5.614-5.616-1.4-1.376z"/><path data-name="Контур 70" d="M13.522 9.509a6.881 6.881 0 00-8.435-8.506l3.9 3.9-1.022 3.825L4.14 9.751l-3.9-3.9a6.89 6.89 0 008.8 8.349l.022.022 16.05 16.05a3.253 3.253 0 004.6-4.6zm14.164 20.22a1.242 1.242 0 111.244-1.242 1.24 1.24 0 01-1.244 1.241z"/></g></svg>