<svg xmlns="http://www.w3.org/2000/svg" width="39.929" height="23.285"><g data-name="vk (1)"><g data-name="Сгруппировать 72"><g data-name="Сгруппировать 71"><path data-name="Контур 65" d="M38.155 17.857a34.171 34.171 0 00-2.8-2.869c-.333-.316-.678-.643-1.011-.967-.447-.436-.666-.745-.688-.974a1.866 1.866 0 01.484-1.05c.528-.741 1.091-1.483 1.635-2.2.484-.638.984-1.3 1.464-1.961l.108-.149a15.251 15.251 0 002.421-4.265A1.816 1.816 0 0038.156.784a3.9 3.9 0 00-.67-.044L31.418.735a2.134 2.134 0 00-2.173 1.478c-.317.8-.692 1.722-1.127 2.6a21.141 21.141 0 01-3.417 5.266l-.068.072a2.036 2.036 0 01-.362.335 1.67 1.67 0 01-.348-1.012v-.023l-.005-7.011a.8.8 0 00-.007-.107A2.279 2.279 0 0021.926.018a.794.794 0 00-.154-.015h-6.313a2.806 2.806 0 00-2.319 1.133 1.069 1.069 0 00.654 1.9 1.318 1.318 0 011.153 1.257 20.425 20.425 0 01.084 4.859 3.961 3.961 0 01-.262 1.2.923.923 0 01-.092.174.925.925 0 01-.171-.1 5.216 5.216 0 01-1.2-1.342 32.879 32.879 0 01-3.619-6.709A2.392 2.392 0 007.447.746a157.17 157.17 0 00-5.495 0 1.932 1.932 0 00-1.723.774 1.938 1.938 0 00.035 1.9 67.494 67.494 0 007.162 12.761 18.23 18.23 0 005.622 5.253 14.609 14.609 0 007.441 1.846q.483 0 .982-.024c1.748-.08 2.459-.775 2.537-2.477a5.1 5.1 0 01.491-2.262.631.631 0 01.293-.318.675.675 0 01.436.151 4.593 4.593 0 01.851.763c.238.26.478.529.71.789.495.553 1.006 1.126 1.542 1.672a5.107 5.107 0 004.155 1.684h5.606a1.869 1.869 0 001.52-.965 2.47 2.47 0 00-.016-2.351 11.816 11.816 0 00-1.441-2.085zm.073 3.651a.289.289 0 01-.22.166H32.39a3.5 3.5 0 01-2.922-1.21 47.267 47.267 0 01-1.491-1.618c-.235-.263-.478-.535-.722-.8a6.047 6.047 0 00-1.158-1.023 2.1 2.1 0 00-1.691-.359 2.066 2.066 0 00-1.3 1.1 6.631 6.631 0 00-.685 2.952c-.027.594-.128.751-.17.791s-.239.144-.852.172a13.516 13.516 0 01-7.559-1.614 16.71 16.71 0 01-5.132-4.817A65.988 65.988 0 011.716 2.78a1.349 1.349 0 01-.118-.387 1.358 1.358 0 01.388-.05 142.93 142.93 0 015.441 0c.264 0 .564.083.791.639a34.437 34.437 0 003.794 7.028 6.618 6.618 0 001.6 1.735 1.628 1.628 0 002.628-.772 5.477 5.477 0 00.376-1.68 21.966 21.966 0 00-.1-5.233 2.9 2.9 0 00-1.661-2.351 1.244 1.244 0 01.6-.12h6.233c.35.079.42.171.444.2a1.877 1.877 0 01.194.7l.005 6.947a2.757 2.757 0 001.412 2.548l.027.009a1.893 1.893 0 002.023-.761l.063-.068a22.587 22.587 0 003.687-5.655c.46-.928.849-1.887 1.178-2.714.165-.415.315-.483.672-.476h.015l6.076.005a2.588 2.588 0 01.4.021 1.283 1.283 0 01.448.134 1.27 1.27 0 01-.084.455 13.842 13.842 0 01-2.194 3.814l-.108.149c-.468.648-.963 1.3-1.441 1.931-.551.727-1.121 1.478-1.662 2.237-1.155 1.612-1.054 2.682.388 4.088.341.333.69.663 1.028.983a32.52 32.52 0 012.67 2.732 10.355 10.355 0 011.251 1.8.908.908 0 01.047.84z" fill="#fff"/></g></g><g data-name="Сгруппировать 74"><g data-name="Сгруппировать 73"><path data-name="Контур 66" d="M5.801 4.907q-.175-.347-.347-.7a.8.8 0 00-1.426.7q.175.355.354.708a.8.8 0 001.42-.718z" fill="#fff"/></g></g><g data-name="Сгруппировать 76"><g data-name="Сгруппировать 75"><path data-name="Контур 67" d="M10.79 13.159a52.776 52.776 0 01-3.73-5.868.8.8 0 00-1.392.77 54.363 54.363 0 003.842 6.043.8.8 0 001.28-.945z" fill="#fff"/></g></g></g></svg>