<?xml version="1.0" standalone="no"?>
<!DOCTYPE svg PUBLIC "-//W3C//DTD SVG 20010904//EN"
 "http://www.w3.org/TR/2001/REC-SVG-20010904/DTD/svg10.dtd">
<svg version="1.0" xmlns="http://www.w3.org/2000/svg"
 width="150.000000pt" height="150.000000pt" viewBox="0 0 150.000000 150.000000"
 preserveAspectRatio="xMidYMid meet">
<metadata>
Created by potrace 1.11, written by Peter Selinger 2001-2013
</metadata>
<g transform="translate(0.000000,150.000000) scale(0.100000,-0.100000)"
fill="#000000" stroke="none">
<path d="M805 1269 c-154 -126 -291 -241 -304 -253 -21 -21 2 -17 230 45 338
92 379 102 384 98 4 -5 2 8 46 -251 18 -109 36 -198 39 -198 3 0 66 152 140
338 74 185 138 341 142 346 14 17 9 42 -9 43 -16 1 -151 24 -238 39 -16 3 -46
8 -65 10 -19 2 -46 6 -60 9 -21 4 -67 -30 -305 -226z"/>
<path d="M759 1276 c-2 -2 -31 -7 -64 -10 -33 -4 -103 -13 -155 -21 -52 -7
-115 -17 -140 -20 -25 -3 -72 -10 -105 -15 -33 -5 -80 -12 -105 -14 -63 -7
-183 -25 -186 -29 -4 -4 137 -372 145 -380 7 -7 411 -163 713 -275 l57 -21
-56 117 c-30 64 -64 137 -74 162 -14 32 -29 50 -52 60 -32 14 -183 83 -269
123 -26 12 -48 24 -48 27 0 3 9 11 19 17 11 7 77 60 148 119 70 59 141 118
157 131 16 13 26 26 24 28 -3 3 -7 3 -9 1z"/>
<path d="M1093 1070 c-5 -19 -43 -161 -83 -315 -40 -154 -75 -283 -79 -287 -3
-3 -69 18 -146 48 -188 73 -295 112 -295 109 0 -1 65 -85 145 -186 80 -101
189 -239 242 -307 53 -67 99 -122 102 -122 3 0 22 22 41 47 19 26 40 51 45 57
6 6 47 58 92 115 60 75 82 109 78 125 -2 11 -18 102 -35 201 -34 196 -33 190
-55 320 -8 50 -17 104 -21 120 -3 17 -9 48 -13 70 l-8 40 -10 -35z"/>
</g>
</svg>
